<svg version="1.1" viewBox="0.0 0.0 317.1023622047244 82.39370078740157" fill="none" stroke="none" stroke-linecap="square" stroke-miterlimit="10" xmlns:xlink="http://www.w3.org/1999/xlink" xmlns="http://www.w3.org/2000/svg"><clipPath id="p.0"><path d="m0 0l317.10236 0l0 82.3937l-317.10236 0l0 -82.3937z" clip-rule="nonzero"/></clipPath><g clip-path="url(#p.0)"><path fill="#000000" fill-opacity="0.0" d="m0 0l317.10236 0l0 82.3937l-317.10236 0z" fill-rule="evenodd"/><path fill="#cfe2f3" d="m251.0755 29.097683l0 0c0 -15.664012 12.204651 -28.362204 27.259827 -28.362204l0 0c7.229767 0 14.163422 2.9881525 19.275635 8.307097c5.112213 5.318945 7.9842224 12.532983 7.9842224 20.055107l0 0c0 15.664013 -12.204651 28.362206 -27.259857 28.362206l0 0c-15.055176 0 -27.259827 -12.698193 -27.259827 -28.362206z" fill-rule="evenodd"/><path stroke="#4e8aeb" stroke-width="1.0" stroke-linejoin="round" stroke-linecap="butt" d="m251.0755 29.097683l0 0c0 -15.664012 12.204651 -28.362204 27.259827 -28.362204l0 0c7.229767 0 14.163422 2.9881525 19.275635 8.307097c5.112213 5.318945 7.9842224 12.532983 7.9842224 20.055107l0 0c0 15.664013 -12.204651 28.362206 -27.259857 28.362206l0 0c-15.055176 0 -27.259827 -12.698193 -27.259827 -28.362206z" fill-rule="evenodd"/><path fill="#cfe2f3" d="m295.19595 37.8758l0 0c-3.8216858 8.244152 -12.474274 12.67598 -20.972748 10.742161c-8.498444 -1.9338188 -14.653778 -9.735176 -14.919708 -18.909462c-0.26593018 -9.174288 5.426056 -17.358437 13.7966 -19.837301c8.370544 -2.4788647 17.26361 1.3860502 21.555634 9.368044l-8.601105 5.1553555c-1.9510803 -4.07251 -6.1505127 -6.1087646 -10.141632 -4.9175854c-3.99115 1.1911812 -6.7253723 5.2968216 -6.6032104 9.915178c0.12219238 4.6183567 3.0686646 8.535982 7.1157837 9.461119c4.047119 0.92513657 8.131561 -1.385292 9.863922 -5.579712z" fill-rule="evenodd"/><path stroke="#4e8aeb" stroke-width="1.0" stroke-linejoin="round" stroke-linecap="butt" d="m295.19595 37.8758l0 0c-3.8216858 8.244152 -12.474274 12.67598 -20.972748 10.742161c-8.498444 -1.9338188 -14.653778 -9.735176 -14.919708 -18.909462c-0.26593018 -9.174288 5.426056 -17.358437 13.7966 -19.837301c8.370544 -2.4788647 17.26361 1.3860502 21.555634 9.368044l-8.601105 5.1553555c-1.9510803 -4.07251 -6.1505127 -6.1087646 -10.141632 -4.9175854c-3.99115 1.1911812 -6.7253723 5.2968216 -6.6032104 9.915178c0.12219238 4.6183567 3.0686646 8.535982 7.1157837 9.461119c4.047119 0.92513657 8.131561 -1.385292 9.863922 -5.579712z" fill-rule="evenodd"/><path fill="#000000" fill-opacity="0.0" d="m239.54808 60.80832l77.57478 0l0 20.850395l-77.57478 0z" fill-rule="evenodd"/><path fill="#ffffff" d="m261.33865 76.65894l0 1.734375l1.265625 0q0.125 0 0.171875 0.0625q0.0625 0.046875 0.0625 0.125q0 0.078125 -0.0625 0.140625q-0.046875 0.046875 -0.171875 0.046875l-2.140625 0q-0.125 0 -0.1875 -0.046875q-0.0625 -0.0625 -0.0625 -0.140625q0 -0.078125 0.0625 -0.125q0.0625 -0.0625 0.1875 -0.0625l0.5 0l0 -4.390625l-0.5 0q-0.125 0 -0.1875 -0.046875q-0.0625 -0.0625 -0.0625 -0.140625q0 -0.09375 0.0625 -0.140625q0.0625 -0.046875 0.1875 -0.046875l2.140625 0q0.765625 0 1.25 0.453125q0.484375 0.4375 0.484375 1.046875q0 0.359375 -0.15625 0.640625q-0.15625 0.28125 -0.375 0.453125q-0.34375 0.234375 -0.6875 0.359375q-0.25 0.078125 -0.640625 0.078125l-1.140625 0zm0 -0.375l1.171875 0q0.40625 0 0.765625 -0.171875q0.359375 -0.1875 0.515625 -0.453125q0.171875 -0.265625 0.171875 -0.53125q0 -0.4375 -0.375 -0.78125q-0.375 -0.34375 -0.9375 -0.34375l-1.3125 0l0 2.28125zm8.260254 0.59375q0 0.84375 -0.609375 1.4375q-0.59375 0.59375 -1.453125 0.59375q-0.859375 0 -1.46875 -0.59375q-0.59375 -0.609375 -0.59375 -1.4375q0 -0.84375 0.59375 -1.4375q0.609375 -0.609375 1.46875 -0.609375q0.859375 0 1.453125 0.59375q0.609375 0.59375 0.609375 1.453125zm-0.375 0q0 -0.703125 -0.5 -1.1875q-0.484375 -0.484375 -1.1875 -0.484375q-0.703125 0 -1.203125 0.5q-0.5 0.484375 -0.5 1.171875q0 0.6875 0.5 1.1875q0.5 0.484375 1.203125 0.484375q0.703125 0 1.1875 -0.484375q0.5 -0.5 0.5 -1.1875zm3.900879 -3.625l0 5.140625l1.453125 0q0.125 0 0.1875 0.0625q0.0625 0.046875 0.0625 0.125q0 0.078125 -0.0625 0.140625q-0.0625 0.046875 -0.1875 0.046875l-3.28125 0q-0.125 0 -0.1875 -0.046875q-0.046875 -0.0625 -0.046875 -0.140625q0 -0.078125 0.046875 -0.125q0.0625 -0.0625 0.1875 -0.0625l1.453125 0l0 -4.765625l-1.0625 0q-0.125 0 -0.1875 -0.046875q-0.0625 -0.0625 -0.0625 -0.140625q0 -0.078125 0.046875 -0.125q0.0625 -0.0625 0.203125 -0.0625l1.4375 0zm5.229004 5.515625l-1.703125 -3.4375l-0.109375 0q-0.140625 0 -0.203125 -0.046875q-0.046875 -0.046875 -0.046875 -0.125q0 -0.0625 0.03125 -0.109375q0.03125 -0.046875 0.0625 -0.0625q0.046875 -0.03125 0.15625 -0.03125l1.0 0q0.140625 0 0.1875 0.0625q0.0625 0.046875 0.0625 0.140625q0 0.078125 -0.0625 0.125q-0.046875 0.046875 -0.1875 0.046875l-0.484375 0l1.5 3.03125l1.484375 -3.03125l-0.5 0q-0.125 0 -0.1875 -0.046875q-0.046875 -0.046875 -0.046875 -0.140625q0 -0.078125 0.046875 -0.125q0.0625 -0.0625 0.1875 -0.0625l1.015625 0q0.125 0 0.1875 0.0625q0.0625 0.046875 0.0625 0.140625q0 0.046875 -0.046875 0.09375q-0.03125 0.046875 -0.078125 0.0625q-0.03125 0.015625 -0.234375 0.015625l-2.34375 4.765625l0.578125 0q0.125 0 0.1875 0.046875q0.0625 0.046875 0.0625 0.140625q0 0.078125 -0.0625 0.125q-0.0625 0.0625 -0.1875 0.0625l-2.125 0q-0.140625 0 -0.203125 -0.0625q-0.046875 -0.046875 -0.046875 -0.125q0 -0.09375 0.046875 -0.140625q0.0625 -0.046875 0.203125 -0.046875l1.15625 0l0.640625 -1.328125zm6.619629 -3.125l0 -0.6875l0.875 0q0.125 0 0.171875 0.0625q0.0625 0.046875 0.0625 0.140625q0 0.078125 -0.0625 0.125q-0.046875 0.046875 -0.171875 0.046875l-0.5 0l0 3.6875q0 0.375 -0.15625 0.671875q-0.109375 0.1875 -0.359375 0.390625q-0.234375 0.203125 -0.4375 0.296875q-0.203125 0.09375 -0.546875 0.09375l-1.046875 0q-0.125 0 -0.1875 -0.0625q-0.0625 -0.046875 -0.0625 -0.125q0 -0.09375 0.0625 -0.140625q0.0625 -0.046875 0.1875 -0.046875l1.0625 0q0.328125 0 0.578125 -0.171875q0.265625 -0.15625 0.4375 -0.484375q0.09375 -0.1875 0.09375 -0.46875l0 -1.109375q-0.59375 0.8125 -1.53125 0.8125q-0.75 0 -1.3125 -0.5625q-0.546875 -0.5625 -0.546875 -1.359375q0 -0.796875 0.546875 -1.359375q0.5625 -0.5625 1.3125 -0.5625q0.9375 0 1.53125 0.8125zm0 1.109375q0 -0.65625 -0.453125 -1.09375q-0.4375 -0.453125 -1.046875 -0.453125q-0.625 0 -1.078125 0.453125q-0.4375 0.453125 -0.4375 1.09375q0 0.65625 0.4375 1.109375q0.453125 0.4375 1.078125 0.4375q0.609375 0 1.046875 -0.4375q0.453125 -0.453125 0.453125 -1.109375zm6.229004 0.125q0 0.84375 -0.609375 1.4375q-0.59375 0.59375 -1.453125 0.59375q-0.859375 0 -1.46875 -0.59375q-0.59375 -0.609375 -0.59375 -1.4375q0 -0.84375 0.59375 -1.4375q0.609375 -0.609375 1.46875 -0.609375q0.859375 0 1.453125 0.59375q0.609375 0.59375 0.609375 1.453125zm-0.375 0q0 -0.703125 -0.5 -1.1875q-0.484375 -0.484375 -1.1875 -0.484375q-0.703125 0 -1.203125 0.5q-0.5 0.484375 -0.5 1.171875q0 0.6875 0.5 1.1875q0.5 0.484375 1.203125 0.484375q0.703125 0 1.1875 -0.484375q0.5 -0.5 0.5 -1.1875zm2.510254 -1.921875l0 0.5625q0.390625 -0.390625 0.703125 -0.53125q0.3125 -0.15625 0.703125 -0.15625q0.421875 0 0.765625 0.1875q0.25 0.125 0.453125 0.4375q0.203125 0.296875 0.203125 0.625l0 2.3125l0.3125 0q0.125 0 0.171875 0.0625q0.0625 0.046875 0.0625 0.125q0 0.078125 -0.0625 0.140625q-0.046875 0.046875 -0.171875 0.046875l-1.0 0q-0.125 0 -0.1875 -0.046875q-0.0625 -0.0625 -0.0625 -0.140625q0 -0.078125 0.0625 -0.125q0.0625 -0.0625 0.1875 -0.0625l0.3125 0l0 -2.25q0 -0.40625 -0.28125 -0.671875q-0.28125 -0.265625 -0.765625 -0.265625q-0.359375 0 -0.640625 0.15625q-0.265625 0.140625 -0.765625 0.71875l0 2.3125l0.421875 0q0.140625 0 0.1875 0.0625q0.0625 0.046875 0.0625 0.125q0 0.078125 -0.0625 0.140625q-0.046875 0.046875 -0.1875 0.046875l-1.203125 0q-0.125 0 -0.1875 -0.046875q-0.0625 -0.0625 -0.0625 -0.140625q0 -0.078125 0.0625 -0.125q0.0625 -0.0625 0.1875 -0.0625l0.421875 0l0 -3.0625l-0.3125 0q-0.140625 0 -0.203125 -0.046875q-0.046875 -0.046875 -0.046875 -0.140625q0 -0.078125 0.046875 -0.125q0.0625 -0.0625 0.203125 -0.0625l0.671875 0z" fill-rule="nonzero"/><path fill="#ebe3fd" d="m288.5335 36.614742l0 23.653545l21.937012 0l-10.753296 -11.611549l10.753296 -12.041996z" fill-rule="evenodd"/><path stroke="#8b6bda" stroke-width="1.0" stroke-linejoin="round" stroke-linecap="butt" d="m288.5335 36.614742l0 23.653545l21.937012 0l-10.753296 -11.611549l10.753296 -12.041996z" fill-rule="evenodd"/><path fill="#000000" fill-opacity="0.0" d="m125.08662 13.763241l66.92913 0l0 30.70866l-66.92913 0z" fill-rule="evenodd"/><path stroke="#ffffff" stroke-width="1.0" stroke-linejoin="round" stroke-linecap="butt" d="m125.08662 13.763241l66.92913 0l0 30.70866l-66.92913 0z" fill-rule="evenodd"/><path fill="#ffffff" d="m141.7106 26.957615l0 4.390625l2.453125 0l0 -1.46875q0 -0.125 0.046875 -0.171875q0.0625 -0.0625 0.140625 -0.0625q0.078125 0 0.125 0.0625q0.0625 0.046875 0.0625 0.171875l0 1.84375l-4.078125 0q-0.140625 0 -0.203125 -0.046875q-0.046875 -0.0625 -0.046875 -0.140625q0 -0.078125 0.046875 -0.125q0.0625 -0.0625 0.203125 -0.0625l0.875 0l0 -4.390625l-0.875 0q-0.140625 0 -0.203125 -0.046875q-0.046875 -0.0625 -0.046875 -0.140625q0 -0.09375 0.046875 -0.140625q0.0625 -0.046875 0.203125 -0.046875l2.125 0q0.140625 0 0.1875 0.046875q0.0625 0.046875 0.0625 0.140625q0 0.078125 -0.0625 0.140625q-0.046875 0.046875 -0.1875 0.046875l-0.875 0zm6.229004 -0.9375l0 0.953125l-0.546875 0l0 -0.953125l0.546875 0zm0 1.890625l0 3.4375l1.453125 0q0.140625 0 0.1875 0.0625q0.0625 0.046875 0.0625 0.125q0 0.078125 -0.0625 0.140625q-0.046875 0.046875 -0.1875 0.046875l-3.265625 0q-0.140625 0 -0.203125 -0.046875q-0.046875 -0.0625 -0.046875 -0.140625q0 -0.078125 0.046875 -0.125q0.0625 -0.0625 0.203125 -0.0625l1.453125 0l0 -3.0625l-1.078125 0q-0.140625 0 -0.203125 -0.046875q-0.046875 -0.046875 -0.046875 -0.125q0 -0.09375 0.046875 -0.140625q0.0625 -0.0625 0.203125 -0.0625l1.4375 0zm6.432129 0.25q0 -0.125 0.046875 -0.1875q0.0625 -0.0625 0.140625 -0.0625q0.078125 0 0.125 0.0625q0.0625 0.0625 0.0625 0.1875l0 0.640625q0 0.125 -0.0625 0.1875q-0.046875 0.0625 -0.125 0.0625q-0.078125 0 -0.140625 -0.046875q-0.046875 -0.046875 -0.046875 -0.171875q-0.03125 -0.25 -0.28125 -0.421875q-0.359375 -0.25 -0.953125 -0.25q-0.609375 0 -0.953125 0.25q-0.265625 0.1875 -0.265625 0.421875q0 0.265625 0.3125 0.4375q0.203125 0.125 0.796875 0.1875q0.765625 0.078125 1.0625 0.1875q0.4375 0.15625 0.640625 0.4375q0.203125 0.265625 0.203125 0.578125q0 0.46875 -0.453125 0.84375q-0.4375 0.359375 -1.3125 0.359375q-0.875 0 -1.4375 -0.4375q0 0.140625 -0.015625 0.1875q-0.015625 0.046875 -0.0625 0.078125q-0.046875 0.03125 -0.109375 0.03125q-0.078125 0 -0.140625 -0.046875q-0.046875 -0.0625 -0.046875 -0.203125l0 -0.75q0 -0.140625 0.046875 -0.1875q0.0625 -0.0625 0.140625 -0.0625q0.078125 0 0.125 0.0625q0.0625 0.046875 0.0625 0.140625q0 0.203125 0.109375 0.328125q0.140625 0.21875 0.46875 0.359375q0.34375 0.140625 0.84375 0.140625q0.71875 0 1.0625 -0.265625q0.359375 -0.28125 0.359375 -0.578125q0 -0.34375 -0.359375 -0.546875q-0.359375 -0.203125 -1.046875 -0.265625q-0.6875 -0.078125 -0.984375 -0.1875q-0.296875 -0.125 -0.46875 -0.34375q-0.171875 -0.234375 -0.171875 -0.5q0 -0.46875 0.46875 -0.75q0.46875 -0.28125 1.109375 -0.28125q0.765625 0 1.25 0.375zm3.416504 -0.25l2.015625 0q0.125 0 0.171875 0.0625q0.0625 0.046875 0.0625 0.140625q0 0.078125 -0.0625 0.125q-0.046875 0.046875 -0.171875 0.046875l-2.015625 0l0 2.46875q0 0.3125 0.25 0.53125q0.265625 0.21875 0.765625 0.21875q0.375 0 0.8125 -0.109375q0.4375 -0.125 0.671875 -0.265625q0.09375 -0.046875 0.140625 -0.046875q0.078125 0 0.125 0.0625q0.0625 0.046875 0.0625 0.109375q0 0.078125 -0.0625 0.125q-0.140625 0.15625 -0.6875 0.328125q-0.546875 0.15625 -1.03125 0.15625q-0.65625 0 -1.046875 -0.296875q-0.375 -0.3125 -0.375 -0.8125l0 -2.46875l-0.671875 0q-0.140625 0 -0.203125 -0.046875q-0.046875 -0.046875 -0.046875 -0.140625q0 -0.078125 0.046875 -0.125q0.0625 -0.0625 0.203125 -0.0625l0.671875 0l0 -1.078125q0 -0.140625 0.046875 -0.1875q0.0625 -0.0625 0.140625 -0.0625q0.09375 0 0.140625 0.0625q0.046875 0.046875 0.046875 0.1875l0 1.078125zm3.900879 1.25l3.984375 -2.21875q0.09375 -0.0625 0.140625 -0.0625q0.078125 0 0.125 0.0625q0.0625 0.046875 0.0625 0.125q0 0.109375 -0.15625 0.203125l-3.40625 1.890625l3.40625 1.90625q0.15625 0.078125 0.15625 0.1875q0 0.078125 -0.0625 0.140625q-0.046875 0.046875 -0.125 0.046875q-0.046875 0 -0.140625 -0.0625l-3.984375 -2.21875zm7.463379 -1.4375l0 -1.265625q0 -0.140625 0.046875 -0.1875q0.0625 -0.0625 0.140625 -0.0625q0.078125 0 0.125 0.0625q0.0625 0.046875 0.0625 0.1875l0 1.265625l1.1875 -0.390625q0.09375 -0.03125 0.140625 -0.03125q0.0625 0 0.109375 0.0625q0.0625 0.046875 0.0625 0.125q0 0.0625 -0.046875 0.109375q-0.03125 0.046875 -0.140625 0.09375l-1.203125 0.390625l0.75 1.015625q0.0625 0.09375 0.0625 0.15625q0 0.078125 -0.0625 0.140625q-0.046875 0.046875 -0.125 0.046875q-0.09375 0 -0.1875 -0.125l-0.734375 -1.03125l-0.75 1.03125q-0.09375 0.125 -0.1875 0.125q-0.078125 0 -0.140625 -0.046875q-0.046875 -0.0625 -0.046875 -0.140625q0 -0.0625 0.078125 -0.15625l0.734375 -1.015625l-1.203125 -0.40625q-0.109375 -0.03125 -0.140625 -0.078125q-0.03125 -0.046875 -0.03125 -0.109375q0 -0.078125 0.046875 -0.125q0.046875 -0.0625 0.125 -0.0625q0.046875 0 0.125 0.03125l1.203125 0.390625zm7.869629 1.4375l-3.984375 2.21875q-0.09375 0.0625 -0.15625 0.0625q-0.0625 0 -0.125 -0.046875q-0.046875 -0.0625 -0.046875 -0.140625q0 -0.109375 0.140625 -0.1875l3.421875 -1.90625l-3.421875 -1.890625q-0.140625 -0.09375 -0.140625 -0.203125q0 -0.078125 0.046875 -0.125q0.0625 -0.0625 0.140625 -0.0625q0.046875 0 0.140625 0.0625l3.984375 2.21875z" fill-rule="nonzero"/><path fill="#000000" fill-opacity="0.0" d="m125.08662 29.11757l-58.92914 -0.062992096" fill-rule="evenodd"/><path stroke="#ffffff" stroke-width="1.0" stroke-linejoin="round" stroke-linecap="butt" d="m125.08662 29.117573l-53.300865 -0.05697632" fill-rule="evenodd"/><path stroke="#ffffff" stroke-width="1.0" stroke-linecap="butt" d="m71.78575 29.060596l-2.3764954 -1.6678295l-2.3800507 1.6627445l2.3764954 1.6678276z" fill-rule="evenodd"/><path fill="#000000" fill-opacity="0.0" d="m192.01575 29.11757l59.055115 -0.031496048" fill-rule="evenodd"/><path stroke="#ffffff" stroke-width="1.0" stroke-linejoin="round" stroke-linecap="butt" d="m192.01575 29.11757l59.055115 -0.031496048" fill-rule="evenodd"/><path fill="#cfe2f3" d="m11.635056 29.06528l0 0c0 -15.664012 12.204647 -28.362204 27.259842 -28.362204l0 0c7.229759 0 14.163406 2.9881523 19.27562 8.307097c5.112213 5.318945 7.9842224 12.532983 7.9842224 20.055107l0 0c0 15.664013 -12.204647 28.362206 -27.259842 28.362206l0 0c-15.055195 0 -27.259842 -12.698193 -27.259842 -28.362206z" fill-rule="evenodd"/><path stroke="#4e8aeb" stroke-width="1.0" stroke-linejoin="round" stroke-linecap="butt" d="m11.635056 29.06528l0 0c0 -15.664012 12.204647 -28.362204 27.259842 -28.362204l0 0c7.229759 0 14.163406 2.9881523 19.27562 8.307097c5.112213 5.318945 7.9842224 12.532983 7.9842224 20.055107l0 0c0 15.664013 -12.204647 28.362206 -27.259842 28.362206l0 0c-15.055195 0 -27.259842 -12.698193 -27.259842 -28.362206z" fill-rule="evenodd"/><path fill="#cfe2f3" d="m55.7555 37.8434l0 0c-3.8216896 8.244152 -12.47427 12.67598 -20.972725 10.742161c-8.498451 -1.9338188 -14.653782 -9.735176 -14.91971 -18.909462c-0.26592827 -9.174288 5.4260426 -17.358437 13.796587 -19.837301c8.370544 -2.4788647 17.263622 1.3860502 21.555645 9.368044l-8.601131 5.1553555c-1.9510765 -4.07251 -6.150486 -6.1087646 -10.141632 -4.9175854c-3.9911423 1.1911812 -6.7253666 5.2968216 -6.6031914 9.915178c0.122177124 4.6183567 3.068657 8.535982 7.1157837 9.461119c4.0471306 0.92513657 8.13155 -1.385292 9.86393 -5.579712z" fill-rule="evenodd"/><path stroke="#4e8aeb" stroke-width="1.0" stroke-linejoin="round" stroke-linecap="butt" d="m55.7555 37.8434l0 0c-3.8216896 8.244152 -12.47427 12.67598 -20.972725 10.742161c-8.498451 -1.9338188 -14.653782 -9.735176 -14.91971 -18.909462c-0.26592827 -9.174288 5.4260426 -17.358437 13.796587 -19.837301c8.370544 -2.4788647 17.263622 1.3860502 21.555645 9.368044l-8.601131 5.1553555c-1.9510765 -4.07251 -6.150486 -6.1087646 -10.141632 -4.9175854c-3.9911423 1.1911812 -6.7253666 5.2968216 -6.6031914 9.915178c0.122177124 4.6183567 3.068657 8.535982 7.1157837 9.461119c4.0471306 0.92513657 8.13155 -1.385292 9.86393 -5.579712z" fill-rule="evenodd"/><path fill="#000000" fill-opacity="0.0" d="m-0.020159055 60.839893l77.5748 0l0 20.850399l-77.5748 0z" fill-rule="evenodd"/><path fill="#ffffff" d="m24.064608 76.50302l0 1.921875l0.6875 0q0.125 0 0.1875 0.0625q0.0625 0.046875 0.0625 0.125q0 0.078125 -0.0625 0.140625q-0.0625 0.046875 -0.1875 0.046875l-1.546875 0q-0.140625 0 -0.203125 -0.046875q-0.046875 -0.0625 -0.046875 -0.140625q0 -0.078125 0.046875 -0.125q0.0625 -0.0625 0.203125 -0.0625l0.484375 0l0 -4.390625l-0.484375 0q-0.140625 0 -0.203125 -0.046875q-0.046875 -0.0625 -0.046875 -0.140625q0 -0.09375 0.046875 -0.140625q0.0625 -0.046875 0.203125 -0.046875l2.21875 0q0.703125 0 1.171875 0.4375q0.46875 0.4375 0.46875 0.984375q0 0.390625 -0.296875 0.75q-0.28125 0.34375 -0.96875 0.578125q0.390625 0.265625 0.671875 0.609375q0.28125 0.34375 0.90625 1.40625l0.28125 0q0.125 0 0.171875 0.0625q0.0625 0.046875 0.0625 0.125q0 0.078125 -0.0625 0.140625q-0.046875 0.046875 -0.171875 0.046875l-0.5 0q-0.6875 -1.21875 -1.0625 -1.640625q-0.375 -0.421875 -0.859375 -0.65625l-1.171875 0zm0 -0.359375l1.0 0q0.484375 0 0.875 -0.171875q0.40625 -0.1875 0.578125 -0.421875q0.171875 -0.234375 0.171875 -0.484375q0 -0.375 -0.375 -0.703125q-0.359375 -0.328125 -0.890625 -0.328125l-1.359375 0l0 2.109375zm8.604002 0.84375l-3.765623 0q0.09375 0.71875 0.59375 1.15625q0.515625 0.4375 1.25 0.4375q0.40625 0 0.859375 -0.140625q0.4531231 -0.140625 0.7499981 -0.359375q0.078125 -0.0625 0.140625 -0.0625q0.0625 0 0.109375 0.0625q0.0625 0.046875 0.0625 0.109375q0 0.078125 -0.0625 0.15625q-0.21875 0.21875 -0.7656231 0.40625q-0.53125 0.1875 -1.09375 0.1875q-0.953125 0 -1.59375 -0.609375q-0.625 -0.625 -0.625 -1.515625q0 -0.796875 0.59375 -1.375q0.59375 -0.578125 1.46875 -0.578125q0.90625 0 1.4843731 0.59375q0.59375 0.59375 0.59375 1.53125zm-0.375 -0.375q-0.109375 -0.609375 -0.5781231 -0.984375q-0.46875 -0.390625 -1.125 -0.390625q-0.640625 0 -1.109375 0.375q-0.453125 0.375 -0.578125 1.0l3.390623 0zm5.010254 -0.9375l0 -0.6875l0.875 0q0.125 0 0.171875 0.0625q0.0625 0.046875 0.0625 0.140625q0 0.078125 -0.0625 0.125q-0.046875 0.046875 -0.171875 0.046875l-0.5 0l0 3.6875q0 0.375 -0.15625 0.671875q-0.109375 0.1875 -0.359375 0.390625q-0.234375 0.203125 -0.4375 0.296875q-0.203125 0.09375 -0.546875 0.09375l-1.046875 0q-0.125 0 -0.1875 -0.0625q-0.0625 -0.046875 -0.0625 -0.125q0 -0.09375 0.0625 -0.140625q0.0625 -0.046875 0.1875 -0.046875l1.0625 0q0.328125 0 0.578125 -0.171875q0.265625 -0.15625 0.4375 -0.484375q0.09375 -0.1875 0.09375 -0.46875l0 -1.109375q-0.59375 0.8125 -1.53125 0.8125q-0.75 0 -1.3125 -0.5625q-0.546875 -0.5625 -0.546875 -1.359375q0 -0.796875 0.546875 -1.359375q0.5625 -0.5625 1.3125 -0.5625q0.9375 0 1.53125 0.8125zm0 1.109375q0 -0.65625 -0.453125 -1.09375q-0.4375 -0.453125 -1.046875 -0.453125q-0.625 0 -1.078125 0.453125q-0.4375 0.453125 -0.4375 1.09375q0 0.65625 0.4375 1.109375q0.453125 0.4375 1.078125 0.4375q0.609375 0 1.046875 -0.4375q0.453125 -0.453125 0.453125 -1.109375zm4.354004 -3.6875l0 0.953125l-0.546875 0l0 -0.953125l0.546875 0zm0 1.890625l0 3.4375l1.453125 0q0.140625 0 0.1875 0.0625q0.0625 0.046875 0.0625 0.125q0 0.078125 -0.0625 0.140625q-0.046875 0.046875 -0.1875 0.046875l-3.265625 0q-0.140625 0 -0.203125 -0.046875q-0.046875 -0.0625 -0.046875 -0.140625q0 -0.078125 0.046875 -0.125q0.0625 -0.0625 0.203125 -0.0625l1.453125 0l0 -3.0625l-1.078125 0q-0.140625 0 -0.203125 -0.046875q-0.046875 -0.046875 -0.046875 -0.125q0 -0.09375 0.046875 -0.140625q0.0625 -0.0625 0.203125 -0.0625l1.4375 0zm7.275879 1.921875q0 0.84375 -0.609375 1.4375q-0.59375 0.59375 -1.453125 0.59375q-0.859375 0 -1.46875 -0.59375q-0.59375 -0.609375 -0.59375 -1.4375q0 -0.84375 0.59375 -1.4375q0.609375 -0.609375 1.46875 -0.609375q0.859375 0 1.453125 0.59375q0.609375 0.59375 0.609375 1.453125zm-0.375 0q0 -0.703125 -0.5 -1.1875q-0.484375 -0.484375 -1.1875 -0.484375q-0.703125 0 -1.203125 0.5q-0.5 0.484375 -0.5 1.171875q0 0.6875 0.5 1.1875q0.5 0.484375 1.203125 0.484375q0.703125 0 1.1875 -0.484375q0.5 -0.5 0.5 -1.1875zm2.510254 -1.921875l0 0.5625q0.390625 -0.390625 0.703125 -0.53125q0.3125 -0.15625 0.703125 -0.15625q0.421875 0 0.765625 0.1875q0.25 0.125 0.453125 0.4375q0.203125 0.296875 0.203125 0.625l0 2.3125l0.3125 0q0.125 0 0.171875 0.0625q0.0625 0.046875 0.0625 0.125q0 0.078125 -0.0625 0.140625q-0.046875 0.046875 -0.171875 0.046875l-1.0 0q-0.125 0 -0.1875 -0.046875q-0.0625 -0.0625 -0.0625 -0.140625q0 -0.078125 0.0625 -0.125q0.0625 -0.0625 0.1875 -0.0625l0.3125 0l0 -2.25q0 -0.40625 -0.28125 -0.671875q-0.28125 -0.265625 -0.765625 -0.265625q-0.359375 0 -0.640625 0.15625q-0.265625 0.140625 -0.765625 0.71875l0 2.3125l0.421875 0q0.140625 0 0.1875 0.0625q0.0625 0.046875 0.0625 0.125q0 0.078125 -0.0625 0.140625q-0.046875 0.046875 -0.1875 0.046875l-1.203125 0q-0.125 0 -0.1875 -0.046875q-0.0625 -0.0625 -0.0625 -0.140625q0 -0.078125 0.0625 -0.125q0.0625 -0.0625 0.1875 -0.0625l0.421875 0l0 -3.0625l-0.3125 0q-0.140625 0 -0.203125 -0.046875q-0.046875 -0.046875 -0.046875 -0.140625q0 -0.078125 0.046875 -0.125q0.0625 -0.0625 0.203125 -0.0625l0.671875 0z" fill-rule="nonzero"/><path fill="#ebe3fd" d="m49.09306 36.58234l0 23.653545l21.937008 0l-10.753281 -11.611549l10.753281 -12.041996z" fill-rule="evenodd"/><path stroke="#8b6bda" stroke-width="1.0" stroke-linejoin="round" stroke-linecap="butt" d="m49.09306 36.58234l0 23.653545l21.937008 0l-10.753281 -11.611549l10.753281 -12.041996z" fill-rule="evenodd"/></g></svg>