<svg version="1.1" viewBox="0.0 0.0 317.1023622047244 82.39370078740157" fill="none" stroke="none" stroke-linecap="square" stroke-miterlimit="10" xmlns:xlink="http://www.w3.org/1999/xlink" xmlns="http://www.w3.org/2000/svg"><clipPath id="p.0"><path d="m0 0l317.10236 0l0 82.3937l-317.10236 0l0 -82.3937z" clip-rule="nonzero"/></clipPath><g clip-path="url(#p.0)"><path fill="#000000" fill-opacity="0.0" d="m0 0l317.10236 0l0 82.3937l-317.10236 0z" fill-rule="evenodd"/><path fill="#cfe2f3" d="m20.374332 29.25032l0 0c0 -15.664013 12.204647 -28.362204 27.259842 -28.362204l0 0c7.229763 0 14.16341 2.9881523 19.275623 8.307097c5.112213 5.318946 7.9842224 12.532984 7.9842224 20.055107l0 0c0 15.664013 -12.204647 28.362206 -27.259846 28.362206l0 0c-15.055195 0 -27.259842 -12.698193 -27.259842 -28.362206z" fill-rule="evenodd"/><path stroke="#4e8aeb" stroke-width="1.0" stroke-linejoin="round" stroke-linecap="butt" d="m20.374332 29.25032l0 0c0 -15.664013 12.204647 -28.362204 27.259842 -28.362204l0 0c7.229763 0 14.16341 2.9881523 19.275623 8.307097c5.112213 5.318946 7.9842224 12.532984 7.9842224 20.055107l0 0c0 15.664013 -12.204647 28.362206 -27.259846 28.362206l0 0c-15.055195 0 -27.259842 -12.698193 -27.259842 -28.362206z" fill-rule="evenodd"/><path fill="#cfe2f3" d="m64.49478 38.02844l0 0c-3.8216896 8.244152 -12.474274 12.67598 -20.972725 10.742161c-8.498455 -1.9338188 -14.653784 -9.735176 -14.919712 -18.909462c-0.26592827 -9.174288 5.4260406 -17.358437 13.796585 -19.837301c8.370548 -2.4788647 17.263622 1.3860493 21.555645 9.368044l-8.601128 5.1553555c-1.9510803 -4.07251 -6.15049 -6.1087666 -10.141632 -4.9175854c-3.9911423 1.1911793 -6.7253685 5.2968216 -6.603195 9.915178c0.122177124 4.6183567 3.068657 8.535982 7.1157875 9.461119c4.047127 0.92513657 8.13155 -1.385292 9.86393 -5.5797157z" fill-rule="evenodd"/><path stroke="#4e8aeb" stroke-width="1.0" stroke-linejoin="round" stroke-linecap="butt" d="m64.49478 38.02844l0 0c-3.8216896 8.244152 -12.474274 12.67598 -20.972725 10.742161c-8.498455 -1.9338188 -14.653784 -9.735176 -14.919712 -18.909462c-0.26592827 -9.174288 5.4260406 -17.358437 13.796585 -19.837301c8.370548 -2.4788647 17.263622 1.3860493 21.555645 9.368044l-8.601128 5.1553555c-1.9510803 -4.07251 -6.15049 -6.1087666 -10.141632 -4.9175854c-3.9911423 1.1911793 -6.7253685 5.2968216 -6.603195 9.915178c0.122177124 4.6183567 3.068657 8.535982 7.1157875 9.461119c4.047127 0.92513657 8.13155 -1.385292 9.86393 -5.5797157z" fill-rule="evenodd"/><path fill="#000000" fill-opacity="0.0" d="m0.01288084 60.654854l95.244095 0l0 20.850395l-95.244095 0z" fill-rule="evenodd"/><path fill="#ffffff" d="m32.932293 76.31798l0 1.921875l0.6875 0q0.125 0 0.1875 0.0625q0.0625 0.046875 0.0625 0.125q0 0.078125 -0.0625 0.140625q-0.0625 0.046875 -0.1875 0.046875l-1.546875 0q-0.1406269 0 -0.2031269 -0.046875q-0.046875 -0.0625 -0.046875 -0.140625q0 -0.078125 0.046875 -0.125q0.0625 -0.0625 0.2031269 -0.0625l0.484375 0l0 -4.390625l-0.484375 0q-0.1406269 0 -0.2031269 -0.046875q-0.046875 -0.0625 -0.046875 -0.140625q0 -0.09375 0.046875 -0.140625q0.0625 -0.046875 0.2031269 -0.046875l2.21875 0q0.703125 0 1.171875 0.4375q0.46875 0.4375 0.46875 0.984375q0 0.390625 -0.296875 0.75q-0.28125 0.34375 -0.96875 0.578125q0.390625 0.265625 0.671875 0.609375q0.28125 0.34375 0.90625 1.40625l0.28125 0q0.125 0 0.171875 0.0625q0.0625 0.046875 0.0625 0.125q0 0.078125 -0.0625 0.140625q-0.046875 0.046875 -0.171875 0.046875l-0.5 0q-0.6875 -1.21875 -1.0625 -1.640625q-0.375 -0.421875 -0.859375 -0.65625l-1.171875 0zm0 -0.359375l1.0 0q0.484375 0 0.875 -0.171875q0.40625 -0.1875 0.578125 -0.421875q0.171875 -0.234375 0.171875 -0.484375q0 -0.375 -0.375 -0.703125q-0.359375 -0.328125 -0.890625 -0.328125l-1.359375 0l0 2.109375zm8.604004 0.84375l-3.765625 0q0.09375 0.71875 0.59375 1.15625q0.515625 0.4375 1.25 0.4375q0.40625 0 0.859375 -0.140625q0.453125 -0.140625 0.75 -0.359375q0.078125 -0.0625 0.140625 -0.0625q0.0625 0 0.109375 0.0625q0.0625 0.046875 0.0625 0.109375q0 0.078125 -0.0625 0.15625q-0.21875 0.21875 -0.765625 0.40625q-0.53125 0.1875 -1.09375 0.1875q-0.953125 0 -1.59375 -0.609375q-0.625 -0.625 -0.625 -1.515625q0 -0.796875 0.59375 -1.375q0.59375 -0.578125 1.46875 -0.578125q0.90625 0 1.484375 0.59375q0.59375 0.59375 0.59375 1.53125zm-0.375 -0.375q-0.109375 -0.609375 -0.578125 -0.984375q-0.46875 -0.390625 -1.125 -0.390625q-0.640625 0 -1.109375 0.375q-0.453125 0.375 -0.578125 1.0l3.390625 0zm5.010254 -0.9375l0 -0.6875l0.875 0q0.125 0 0.171875 0.0625q0.0625 0.046875 0.0625 0.140625q0 0.078125 -0.0625 0.125q-0.046875 0.046875 -0.171875 0.046875l-0.5 0l0 3.6875q0 0.375 -0.15625 0.671875q-0.109375 0.1875 -0.359375 0.390625q-0.234375 0.203125 -0.4375 0.296875q-0.203125 0.09375 -0.546875 0.09375l-1.046875 0q-0.125 0 -0.1875 -0.0625q-0.0625 -0.046875 -0.0625 -0.125q0 -0.09375 0.0625 -0.140625q0.0625 -0.046875 0.1875 -0.046875l1.0625 0q0.328125 0 0.578125 -0.171875q0.265625 -0.15625 0.4375 -0.484375q0.09375 -0.1875 0.09375 -0.46875l0 -1.109375q-0.59375 0.8125 -1.53125 0.8125q-0.75 0 -1.3125 -0.5625q-0.546875 -0.5625 -0.546875 -1.359375q0 -0.796875 0.546875 -1.359375q0.5625 -0.5625 1.3125 -0.5625q0.9375 0 1.53125 0.8125zm0 1.109375q0 -0.65625 -0.453125 -1.09375q-0.4375 -0.453125 -1.046875 -0.453125q-0.625 0 -1.078125 0.453125q-0.4375 0.453125 -0.4375 1.09375q0 0.65625 0.4375 1.109375q0.453125 0.4375 1.078125 0.4375q0.609375 0 1.046875 -0.4375q0.453125 -0.453125 0.453125 -1.109375zm4.354004 -3.6875l0 0.953125l-0.546875 0l0 -0.953125l0.546875 0zm0 1.890625l0 3.4375l1.453125 0q0.140625 0 0.1875 0.0625q0.0625 0.046875 0.0625 0.125q0 0.078125 -0.0625 0.140625q-0.046875 0.046875 -0.1875 0.046875l-3.265625 0q-0.140625 0 -0.203125 -0.046875q-0.046875 -0.0625 -0.046875 -0.140625q0 -0.078125 0.046875 -0.125q0.0625 -0.0625 0.203125 -0.0625l1.453125 0l0 -3.0625l-1.078125 0q-0.140625 0 -0.203125 -0.046875q-0.046875 -0.046875 -0.046875 -0.125q0 -0.09375 0.046875 -0.140625q0.0625 -0.0625 0.203125 -0.0625l1.4375 0zm7.275879 1.921875q0 0.84375 -0.609375 1.4375q-0.59375 0.59375 -1.453125 0.59375q-0.859375 0 -1.46875 -0.59375q-0.59375 -0.609375 -0.59375 -1.4375q0 -0.84375 0.59375 -1.4375q0.609375 -0.609375 1.46875 -0.609375q0.859375 0 1.453125 0.59375q0.609375 0.59375 0.609375 1.453125zm-0.375 0q0 -0.703125 -0.5 -1.1875q-0.484375 -0.484375 -1.1875 -0.484375q-0.703125 0 -1.203125 0.5q-0.5 0.484375 -0.5 1.171875q0 0.6875 0.5 1.1875q0.5 0.484375 1.203125 0.484375q0.703125 0 1.1875 -0.484375q0.5 -0.5 0.5 -1.1875zm2.510254 -1.921875l0 0.5625q0.390625 -0.390625 0.703125 -0.53125q0.3125 -0.15625 0.703125 -0.15625q0.421875 0 0.765625 0.1875q0.25 0.125 0.453125 0.4375q0.203125 0.296875 0.203125 0.625l0 2.3125l0.3125 0q0.125 0 0.171875 0.0625q0.0625 0.046875 0.0625 0.125q0 0.078125 -0.0625 0.140625q-0.046875 0.046875 -0.171875 0.046875l-1.0 0q-0.125 0 -0.1875 -0.046875q-0.0625 -0.0625 -0.0625 -0.140625q0 -0.078125 0.0625 -0.125q0.0625 -0.0625 0.1875 -0.0625l0.3125 0l0 -2.25q0 -0.40625 -0.28125 -0.671875q-0.28125 -0.265625 -0.765625 -0.265625q-0.359375 0 -0.640625 0.15625q-0.265625 0.140625 -0.765625 0.71875l0 2.3125l0.421875 0q0.140625 0 0.1875 0.0625q0.0625 0.046875 0.0625 0.125q0 0.078125 -0.0625 0.140625q-0.046875 0.046875 -0.1875 0.046875l-1.203125 0q-0.125 0 -0.1875 -0.046875q-0.0625 -0.0625 -0.0625 -0.140625q0 -0.078125 0.0625 -0.125q0.0625 -0.0625 0.1875 -0.0625l0.421875 0l0 -3.0625l-0.3125 0q-0.140625 0 -0.203125 -0.046875q-0.046875 -0.046875 -0.046875 -0.140625q0 -0.078125 0.046875 -0.125q0.0625 -0.0625 0.203125 -0.0625l0.671875 0z" fill-rule="nonzero"/><path fill="#ebe3fd" d="m57.83234 36.76738l0 23.653545l21.937008 0l-10.753281 -11.611549l10.753281 -12.041996z" fill-rule="evenodd"/><path stroke="#8b6bda" stroke-width="1.0" stroke-linejoin="round" stroke-linecap="butt" d="m57.83234 36.76738l0 23.653545l21.937008 0l-10.753281 -11.611549l10.753281 -12.041996z" fill-rule="evenodd"/><path fill="#cfe2f3" d="m242.2073 29.248339l0 0c0 -15.664013 12.204651 -28.362204 27.259857 -28.362204l0 0c7.2297363 0 14.163391 2.9881523 19.275604 8.307097c5.112213 5.318945 7.9842224 12.532984 7.9842224 20.055107l0 0c0 15.664015 -12.204651 28.362204 -27.259827 28.362204l0 0c-15.055206 0 -27.259857 -12.698189 -27.259857 -28.362204z" fill-rule="evenodd"/><path stroke="#4e8aeb" stroke-width="1.0" stroke-linejoin="round" stroke-linecap="butt" d="m242.2073 29.248339l0 0c0 -15.664013 12.204651 -28.362204 27.259857 -28.362204l0 0c7.2297363 0 14.163391 2.9881523 19.275604 8.307097c5.112213 5.318945 7.9842224 12.532984 7.9842224 20.055107l0 0c0 15.664015 -12.204651 28.362204 -27.259827 28.362204l0 0c-15.055206 0 -27.259857 -12.698189 -27.259857 -28.362204z" fill-rule="evenodd"/><path fill="#cfe2f3" d="m286.32776 38.02646l0 0c-3.8216858 8.244152 -12.474274 12.675976 -20.972717 10.742157c-8.498474 -1.933815 -14.653793 -9.735172 -14.9197235 -18.90946c-0.26593018 -9.174288 5.4260406 -17.358437 13.796585 -19.837303c8.370544 -2.4788642 17.263641 1.3860502 21.555664 9.368045l-8.601135 5.1553555c-1.9510803 -4.07251 -6.150482 -6.1087666 -10.141632 -4.9175854c-3.99115 1.1911793 -6.7253723 5.2968216 -6.6032104 9.915178c0.12219238 4.618355 3.0686646 8.535984 7.1157837 9.461117c4.0471497 0.92513657 8.131561 -1.385292 9.863953 -5.579712z" fill-rule="evenodd"/><path stroke="#4e8aeb" stroke-width="1.0" stroke-linejoin="round" stroke-linecap="butt" d="m286.32776 38.02646l0 0c-3.8216858 8.244152 -12.474274 12.675976 -20.972717 10.742157c-8.498474 -1.933815 -14.653793 -9.735172 -14.9197235 -18.90946c-0.26593018 -9.174288 5.4260406 -17.358437 13.796585 -19.837303c8.370544 -2.4788642 17.263641 1.3860502 21.555664 9.368045l-8.601135 5.1553555c-1.9510803 -4.07251 -6.150482 -6.1087666 -10.141632 -4.9175854c-3.99115 1.1911793 -6.7253723 5.2968216 -6.6032104 9.915178c0.12219238 4.618355 3.0686646 8.535984 7.1157837 9.461117c4.0471497 0.92513657 8.131561 -1.385292 9.863953 -5.579712z" fill-rule="evenodd"/><path fill="#000000" fill-opacity="0.0" d="m221.84473 60.654854l95.24408 0l0 20.850395l-95.24408 0z" fill-rule="evenodd"/><path fill="#ffffff" d="m240.88693 78.23985l0 -4.390625l-0.5 0q-0.125 0 -0.1875 -0.046875q-0.0625 -0.0625 -0.0625 -0.140625q0 -0.09375 0.0625 -0.140625q0.0625 -0.046875 0.1875 -0.046875l2.328125 0q0.6875 0 1.109375 0.40625q0.4375 0.390625 0.4375 0.921875q0 0.671875 -0.71875 1.09375q0.578125 0.203125 0.84375 0.546875q0.265625 0.34375 0.265625 0.765625q0 0.359375 -0.171875 0.671875q-0.171875 0.296875 -0.546875 0.515625q-0.359375 0.21875 -0.78125 0.21875l-2.765625 0q-0.125 0 -0.1875 -0.046875q-0.0625 -0.0625 -0.0625 -0.140625q0 -0.078125 0.0625 -0.125q0.0625 -0.0625 0.1875 -0.0625l0.5 0zm0.375 -2.484375l1.296875 0q0.421875 0 0.765625 -0.15625q0.265625 -0.125 0.40625 -0.34375q0.15625 -0.234375 0.15625 -0.484375q0 -0.34375 -0.328125 -0.625q-0.3125 -0.296875 -0.84375 -0.296875l-1.453125 0l0 1.90625zm0 2.484375l1.859375 0q0.359375 0 0.625 -0.15625q0.265625 -0.15625 0.390625 -0.390625q0.140625 -0.234375 0.140625 -0.484375q0 -0.28125 -0.203125 -0.53125q-0.1875 -0.265625 -0.53125 -0.40625q-0.34375 -0.140625 -0.953125 -0.140625l-1.328125 0l0 2.109375zm8.666504 -1.515625q0 0.84375 -0.609375 1.4375q-0.59375 0.59375 -1.453125 0.59375q-0.859375 0 -1.46875 -0.59375q-0.59375 -0.609375 -0.59375 -1.4375q0 -0.84375 0.59375 -1.4375q0.609375 -0.609375 1.46875 -0.609375q0.859375 0 1.453125 0.59375q0.609375 0.59375 0.609375 1.453125zm-0.375 0q0 -0.703125 -0.5 -1.1875q-0.484375 -0.484375 -1.1875 -0.484375q-0.703125 0 -1.203125 0.5q-0.5 0.484375 -0.5 1.171875q0 0.6875 0.5 1.1875q0.5 0.484375 1.203125 0.484375q0.703125 0 1.1875 -0.484375q0.5 -0.5 0.5 -1.1875zm4.979004 1.890625l0 -0.546875q-0.765625 0.6875 -1.640625 0.6875q-0.546875 0 -0.828125 -0.296875q-0.359375 -0.375 -0.359375 -0.890625l0 -2.390625l-0.5 0q-0.125 0 -0.1875 -0.046875q-0.046875 -0.046875 -0.046875 -0.140625q0 -0.078125 0.046875 -0.125q0.0625 -0.0625 0.1875 -0.0625l0.875 0l0 2.765625q0 0.359375 0.21875 0.59375q0.234375 0.234375 0.578125 0.234375q0.90625 0 1.65625 -0.828125l0 -2.390625l-0.6875 0q-0.125 0 -0.1875 -0.046875q-0.0625 -0.046875 -0.0625 -0.140625q0 -0.078125 0.0625 -0.125q0.0625 -0.0625 0.1875 -0.0625l1.046875 0l0 3.4375l0.3125 0q0.140625 0 0.1875 0.0625q0.0625 0.046875 0.0625 0.125q0 0.078125 -0.0625 0.140625q-0.046875 0.046875 -0.1875 0.046875l-0.671875 0zm2.932129 -3.8125l0 0.5625q0.390625 -0.390625 0.703125 -0.53125q0.3125 -0.15625 0.703125 -0.15625q0.421875 0 0.765625 0.1875q0.25 0.125 0.453125 0.4375q0.203125 0.296875 0.203125 0.625l0 2.3125l0.3125 0q0.125 0 0.171875 0.0625q0.0625 0.046875 0.0625 0.125q0 0.078125 -0.0625 0.140625q-0.046875 0.046875 -0.171875 0.046875l-1.0 0q-0.125 0 -0.1875 -0.046875q-0.0625 -0.0625 -0.0625 -0.140625q0 -0.078125 0.0625 -0.125q0.0625 -0.0625 0.1875 -0.0625l0.3125 0l0 -2.25q0 -0.40625 -0.28125 -0.671875q-0.28125 -0.265625 -0.765625 -0.265625q-0.359375 0 -0.640625 0.15625q-0.265625 0.140625 -0.765625 0.71875l0 2.3125l0.421875 0q0.140625 0 0.1875 0.0625q0.0625 0.046875 0.0625 0.125q0 0.078125 -0.0625 0.140625q-0.046875 0.046875 -0.1875 0.046875l-1.203125 0q-0.125 0 -0.1875 -0.046875q-0.0625 -0.0625 -0.0625 -0.140625q0 -0.078125 0.0625 -0.125q0.0625 -0.0625 0.1875 -0.0625l0.421875 0l0 -3.0625l-0.3125 0q-0.140625 0 -0.203125 -0.046875q-0.046875 -0.046875 -0.046875 -0.140625q0 -0.078125 0.046875 -0.125q0.0625 -0.0625 0.203125 -0.0625l0.671875 0zm8.416504 -1.703125l0 5.140625l0.484375 0q0.140625 0 0.1875 0.0625q0.0625 0.046875 0.0625 0.125q0 0.078125 -0.0625 0.140625q-0.046875 0.046875 -0.1875 0.046875l-0.859375 0l0 -0.734375q-0.640625 0.875 -1.640625 0.875q-0.5 0 -0.96875 -0.265625q-0.453125 -0.265625 -0.71875 -0.75q-0.265625 -0.5 -0.265625 -1.015625q0 -0.53125 0.265625 -1.015625q0.265625 -0.5 0.71875 -0.765625q0.46875 -0.265625 0.984375 -0.265625q0.953125 0 1.625 0.875l0 -2.078125l-0.5 0q-0.140625 0 -0.203125 -0.046875q-0.046875 -0.0625 -0.046875 -0.140625q0 -0.078125 0.046875 -0.125q0.0625 -0.0625 0.203125 -0.0625l0.875 0zm-0.375 3.625q0 -0.703125 -0.484375 -1.1875q-0.46875 -0.484375 -1.125 -0.484375q-0.65625 0 -1.140625 0.484375q-0.46875 0.484375 -0.46875 1.1875q0 0.6875 0.46875 1.1875q0.484375 0.484375 1.140625 0.484375q0.65625 0 1.125 -0.484375q0.484375 -0.5 0.484375 -1.1875zm4.150879 -3.8125l0 0.953125l-0.546875 0l0 -0.953125l0.546875 0zm0 1.890625l0 3.4375l1.453125 0q0.140625 0 0.1875 0.0625q0.0625 0.046875 0.0625 0.125q0 0.078125 -0.0625 0.140625q-0.046875 0.046875 -0.1875 0.046875l-3.265625 0q-0.140625 0 -0.203125 -0.046875q-0.046875 -0.0625 -0.046875 -0.140625q0 -0.078125 0.046875 -0.125q0.0625 -0.0625 0.203125 -0.0625l1.453125 0l0 -3.0625l-1.078125 0q-0.140625 0 -0.203125 -0.046875q-0.046875 -0.046875 -0.046875 -0.125q0 -0.09375 0.046875 -0.140625q0.0625 -0.0625 0.203125 -0.0625l1.4375 0zm4.010254 0l0 0.5625q0.390625 -0.390625 0.703125 -0.53125q0.3125 -0.15625 0.703125 -0.15625q0.421875 0 0.765625 0.1875q0.25 0.125 0.453125 0.4375q0.203125 0.296875 0.203125 0.625l0 2.3125l0.3125 0q0.125 0 0.171875 0.0625q0.0625 0.046875 0.0625 0.125q0 0.078125 -0.0625 0.140625q-0.046875 0.046875 -0.171875 0.046875l-1.0 0q-0.125 0 -0.1875 -0.046875q-0.0625 -0.0625 -0.0625 -0.140625q0 -0.078125 0.0625 -0.125q0.0625 -0.0625 0.1875 -0.0625l0.3125 0l0 -2.25q0 -0.40625 -0.28125 -0.671875q-0.28125 -0.265625 -0.765625 -0.265625q-0.359375 0 -0.640625 0.15625q-0.265625 0.140625 -0.765625 0.71875l0 2.3125l0.421875 0q0.140625 0 0.1875 0.0625q0.0625 0.046875 0.0625 0.125q0 0.078125 -0.0625 0.140625q-0.046875 0.046875 -0.1875 0.046875l-1.203125 0q-0.125 0 -0.1875 -0.046875q-0.0625 -0.0625 -0.0625 -0.140625q0 -0.078125 0.0625 -0.125q0.0625 -0.0625 0.1875 -0.0625l0.421875 0l0 -3.0625l-0.3125 0q-0.140625 0 -0.203125 -0.046875q-0.046875 -0.046875 -0.046875 -0.140625q0 -0.078125 0.046875 -0.125q0.0625 -0.0625 0.203125 -0.0625l0.671875 0zm7.838379 0.6875l0 -0.6875l0.875 0q0.125 0 0.171875 0.0625q0.0625 0.046875 0.0625 0.140625q0 0.078125 -0.0625 0.125q-0.046875 0.046875 -0.171875 0.046875l-0.5 0l0 3.6875q0 0.375 -0.15625 0.671875q-0.109375 0.1875 -0.359375 0.390625q-0.234375 0.203125 -0.4375 0.296875q-0.203125 0.09375 -0.546875 0.09375l-1.046875 0q-0.125 0 -0.1875 -0.0625q-0.0625 -0.046875 -0.0625 -0.125q0 -0.09375 0.0625 -0.140625q0.0625 -0.046875 0.1875 -0.046875l1.0625 0q0.328125 0 0.578125 -0.171875q0.265625 -0.15625 0.4375 -0.484375q0.09375 -0.1875 0.09375 -0.46875l0 -1.109375q-0.59375 0.8125 -1.53125 0.8125q-0.75 0 -1.3125 -0.5625q-0.546875 -0.5625 -0.546875 -1.359375q0 -0.796875 0.546875 -1.359375q0.5625 -0.5625 1.3125 -0.5625q0.9375 0 1.53125 0.8125zm0 1.109375q0 -0.65625 -0.453125 -1.09375q-0.4375 -0.453125 -1.046875 -0.453125q-0.625 0 -1.078125 0.453125q-0.4375 0.453125 -0.4375 1.09375q0 0.65625 0.4375 1.109375q0.453125 0.4375 1.078125 0.4375q0.609375 0 1.046875 -0.4375q0.453125 -0.453125 0.453125 -1.109375zm2.588379 1.640625l0 -4.390625l-0.5 0q-0.125 0 -0.1875 -0.046875q-0.0625 -0.0625 -0.0625 -0.140625q0 -0.09375 0.0625 -0.140625q0.0625 -0.046875 0.1875 -0.046875l2.328125 0q0.6875 0 1.109375 0.40625q0.4375 0.390625 0.4375 0.921875q0 0.671875 -0.71875 1.09375q0.578125 0.203125 0.84375 0.546875q0.265625 0.34375 0.265625 0.765625q0 0.359375 -0.171875 0.671875q-0.171875 0.296875 -0.546875 0.515625q-0.359375 0.21875 -0.78125 0.21875l-2.765625 0q-0.125 0 -0.1875 -0.046875q-0.0625 -0.0625 -0.0625 -0.140625q0 -0.078125 0.0625 -0.125q0.0625 -0.0625 0.1875 -0.0625l0.5 0zm0.375 -2.484375l1.296875 0q0.421875 0 0.765625 -0.15625q0.265625 -0.125 0.40625 -0.34375q0.15625 -0.234375 0.15625 -0.484375q0 -0.34375 -0.328125 -0.625q-0.3125 -0.296875 -0.84375 -0.296875l-1.453125 0l0 1.90625zm0 2.484375l1.859375 0q0.359375 0 0.625 -0.15625q0.265625 -0.15625 0.390625 -0.390625q0.140625 -0.234375 0.140625 -0.484375q0 -0.28125 -0.203125 -0.53125q-0.1875 -0.265625 -0.53125 -0.40625q-0.34375 -0.140625 -0.953125 -0.140625l-1.328125 0l0 2.109375zm8.666504 -1.515625q0 0.84375 -0.609375 1.4375q-0.59375 0.59375 -1.453125 0.59375q-0.859375 0 -1.46875 -0.59375q-0.59375 -0.609375 -0.59375 -1.4375q0 -0.84375 0.59375 -1.4375q0.609375 -0.609375 1.46875 -0.609375q0.859375 0 1.453125 0.59375q0.609375 0.59375 0.609375 1.453125zm-0.375 0q0 -0.703125 -0.5 -1.1875q-0.484375 -0.484375 -1.1875 -0.484375q-0.703125 0 -1.203125 0.5q-0.5 0.484375 -0.5 1.171875q0 0.6875 0.5 1.1875q0.5 0.484375 1.203125 0.484375q0.703125 0 1.1875 -0.484375q0.5 -0.5 0.5 -1.1875zm3.963379 -0.09375l1.6875 1.609375q0.171875 0 0.21875 0.015625q0.046875 0.015625 0.078125 0.078125q0.03125 0.046875 0.03125 0.09375q0 0.078125 -0.0625 0.140625q-0.046875 0.046875 -0.1875 0.046875l-1.1875 0q-0.140625 0 -0.203125 -0.046875q-0.046875 -0.0625 -0.046875 -0.140625q0 -0.078125 0.046875 -0.125q0.0625 -0.0625 0.203125 -0.0625l0.609375 0l-1.4375 -1.375l-1.421875 1.375l0.609375 0q0.125 0 0.1875 0.0625q0.0625 0.046875 0.0625 0.125q0 0.078125 -0.0625 0.140625q-0.0625 0.046875 -0.1875 0.046875l-1.203125 0q-0.125 0 -0.1875 -0.046875q-0.0625 -0.0625 -0.0625 -0.140625q0 -0.046875 0.03125 -0.09375q0.046875 -0.0625 0.078125 -0.078125q0.046875 -0.015625 0.21875 -0.015625l1.6875 -1.609375l-1.5 -1.453125q-0.15625 0 -0.203125 -0.015625q-0.046875 -0.015625 -0.078125 -0.0625q-0.03125 -0.046875 -0.03125 -0.109375q0 -0.078125 0.046875 -0.125q0.0625 -0.0625 0.203125 -0.0625l1.015625 0q0.125 0 0.171875 0.0625q0.0625 0.046875 0.0625 0.140625q0 0.078125 -0.0625 0.125q-0.046875 0.046875 -0.171875 0.046875l-0.453125 0l1.25 1.203125l1.25 -1.203125l-0.4375 0q-0.125 0 -0.1875 -0.046875q-0.0625 -0.046875 -0.0625 -0.140625q0 -0.078125 0.046875 -0.125q0.0625 -0.0625 0.203125 -0.0625l1.0 0q0.140625 0 0.1875 0.0625q0.0625 0.046875 0.0625 0.140625q0 0.046875 -0.03125 0.09375q-0.03125 0.046875 -0.078125 0.0625q-0.03125 0.015625 -0.203125 0.015625l-1.5 1.453125z" fill-rule="nonzero"/><path fill="#ebe3fd" d="m279.6653 36.7654l0 23.653542l21.937012 0l-10.753296 -11.611546l10.753296 -12.041996z" fill-rule="evenodd"/><path stroke="#8b6bda" stroke-width="1.0" stroke-linejoin="round" stroke-linecap="butt" d="m279.6653 36.7654l0 23.653542l21.937012 0l-10.753296 -11.611546l10.753296 -12.041996z" fill-rule="evenodd"/><path fill="#000000" fill-opacity="0.0" d="m74.89402 29.25032l167.3071 0" fill-rule="evenodd"/><path stroke="#ffffff" stroke-width="1.0" stroke-linejoin="round" stroke-linecap="butt" d="m80.52229 29.25032l161.6788 0" fill-rule="evenodd"/><path stroke="#ffffff" stroke-width="1.0" stroke-linecap="butt" d="m80.52229 29.25032l-2.378273 -1.665287l-2.3782806 1.665287l2.3782806 1.665287z" fill-rule="evenodd"/></g></svg>