<svg version="1.1" viewBox="0.0 0.0 317.1023622047244 192.3779527559055" fill="none" stroke="none" stroke-linecap="square" stroke-miterlimit="10" xmlns:xlink="http://www.w3.org/1999/xlink" xmlns="http://www.w3.org/2000/svg"><clipPath id="p.0"><path d="m0 0l317.10236 0l0 192.37796l-317.10236 0l0 -192.37796z" clip-rule="nonzero"/></clipPath><g clip-path="url(#p.0)"><path fill="#000000" fill-opacity="0.0" d="m0 0l317.10236 0l0 192.37796l-317.10236 0z" fill-rule="evenodd"/><path fill="#cfe2f3" d="m20.42391 95.82113l0 0c0 -15.664009 12.204645 -28.362206 27.259844 -28.362206l0 0c7.229759 0 14.163406 2.9881516 19.27562 8.307098c5.112213 5.318947 7.9842224 12.532982 7.9842224 20.055107l0 0c0 15.664017 -12.204647 28.362206 -27.259842 28.362206l0 0c-15.055199 0 -27.259844 -12.698189 -27.259844 -28.362206z" fill-rule="evenodd"/><path stroke="#4e8aeb" stroke-width="1.0" stroke-linejoin="round" stroke-linecap="butt" d="m20.42391 95.82113l0 0c0 -15.664009 12.204645 -28.362206 27.259844 -28.362206l0 0c7.229759 0 14.163406 2.9881516 19.27562 8.307098c5.112213 5.318947 7.9842224 12.532982 7.9842224 20.055107l0 0c0 15.664017 -12.204647 28.362206 -27.259842 28.362206l0 0c-15.055199 0 -27.259844 -12.698189 -27.259844 -28.362206z" fill-rule="evenodd"/><path fill="#cfe2f3" d="m64.54436 104.59925l0 0c-3.8216896 8.244148 -12.474274 12.675972 -20.972725 10.742157c-8.498455 -1.933815 -14.653784 -9.735176 -14.919712 -18.909462c-0.26592827 -9.174286 5.4260406 -17.358437 13.796589 -19.837303c8.370544 -2.478859 17.263618 1.386055 21.555641 9.36805l-8.601128 5.1553497c-1.9510803 -4.07251 -6.15049 -6.1087646 -10.141632 -4.9175797c-3.9911423 1.1911774 -6.7253685 5.2968216 -6.6031914 9.915176c0.12217331 4.618355 3.068653 8.53598 7.1157837 9.461121c4.047127 0.92513275 8.13155 -1.385292 9.86393 -5.5797195z" fill-rule="evenodd"/><path stroke="#4e8aeb" stroke-width="1.0" stroke-linejoin="round" stroke-linecap="butt" d="m64.54436 104.59925l0 0c-3.8216896 8.244148 -12.474274 12.675972 -20.972725 10.742157c-8.498455 -1.933815 -14.653784 -9.735176 -14.919712 -18.909462c-0.26592827 -9.174286 5.4260406 -17.358437 13.796589 -19.837303c8.370544 -2.478859 17.263618 1.386055 21.555641 9.36805l-8.601128 5.1553497c-1.9510803 -4.07251 -6.15049 -6.1087646 -10.141632 -4.9175797c-3.9911423 1.1911774 -6.7253685 5.2968216 -6.6031914 9.915176c0.12217331 4.618355 3.068653 8.53598 7.1157837 9.461121c4.047127 0.92513275 8.13155 -1.385292 9.86393 -5.5797195z" fill-rule="evenodd"/><path fill="#000000" fill-opacity="0.0" d="m-0.06433858 127.13695l95.244095 0l0 20.850388l-95.244095 0z" fill-rule="evenodd"/><path fill="#000000" d="m12.689056 143.55008l-0.421875 0l-1.40625 -3.21875l-0.078125 0l0 4.390625l0.6875 0q0.125 0 0.171875 0.0625q0.0625 0.046875 0.0625 0.125q0 0.078125 -0.0625 0.140625q-0.046875 0.046875 -0.171875 0.046875l-1.359375 0q-0.140625 0 -0.203125 -0.046875q-0.046875 -0.0625 -0.046875 -0.140625q0 -0.078125 0.046875 -0.125q0.0625 -0.0625 0.203125 -0.0625l0.296875 0l0 -4.390625l-0.21875 0q-0.140625 0 -0.203125 -0.046875q-0.046875 -0.0625 -0.046875 -0.140625q0 -0.09375 0.046875 -0.140625q0.0625 -0.046875 0.203125 -0.046875l0.90625 0l1.390625 3.1875l1.375 -3.1875l0.90625 0q0.140625 0 0.1875 0.046875q0.0625 0.046875 0.0625 0.140625q0 0.078125 -0.0625 0.140625q-0.046875 0.046875 -0.1875 0.046875l-0.234375 0l0 4.390625l0.3125 0q0.140625 0 0.1875 0.0625q0.0625 0.046875 0.0625 0.125q0 0.078125 -0.0625 0.140625q-0.046875 0.046875 -0.1875 0.046875l-1.359375 0q-0.125 0 -0.1875 -0.046875q-0.0625 -0.0625 -0.0625 -0.140625q0 -0.078125 0.046875 -0.125q0.0625 -0.0625 0.203125 -0.0625l0.6875 0l0 -4.390625l-0.078125 0l-1.40625 3.21875zm6.229004 1.546875l0 -0.53125q-0.8125 0.671875 -1.71875 0.671875q-0.671875 0 -1.046875 -0.328125q-0.359375 -0.34375 -0.359375 -0.828125q0 -0.53125 0.484375 -0.921875q0.5 -0.40625 1.4375 -0.40625q0.25 0 0.546875 0.03125q0.3125 0.03125 0.65625 0.09375l0 -0.59375q0 -0.296875 -0.28125 -0.515625q-0.28125 -0.234375 -0.84375 -0.234375q-0.4375 0 -1.21875 0.25q-0.140625 0.046875 -0.171875 0.046875q-0.078125 0 -0.125 -0.046875q-0.046875 -0.0625 -0.046875 -0.140625q0 -0.078125 0.046875 -0.125q0.0625 -0.0625 0.5 -0.171875q0.671875 -0.1875 1.03125 -0.1875q0.703125 0 1.09375 0.34375q0.390625 0.34375 0.390625 0.78125l0 2.4375l0.484375 0q0.140625 0 0.1875 0.0625q0.0625 0.046875 0.0625 0.125q0 0.078125 -0.0625 0.140625q-0.046875 0.046875 -0.1875 0.046875l-0.859375 0zm0 -1.84375q-0.265625 -0.0625 -0.5625 -0.09375q-0.28125 -0.046875 -0.59375 -0.046875q-0.8125 0 -1.265625 0.34375q-0.34375 0.265625 -0.34375 0.625q0 0.328125 0.265625 0.5625q0.265625 0.234375 0.765625 0.234375q0.46875 0 0.875 -0.1875q0.421875 -0.203125 0.859375 -0.625l0 -0.8125zm4.525879 -3.859375l0 0.953125l-0.546875 0l0 -0.953125l0.546875 0zm0 1.890625l0 3.4375l1.453125 0q0.140625 0 0.1875 0.0625q0.0625 0.046875 0.0625 0.125q0 0.078125 -0.0625 0.140625q-0.046875 0.046875 -0.1875 0.046875l-3.265625 0q-0.140625 0 -0.203125 -0.046875q-0.046875 -0.0625 -0.046875 -0.140625q0 -0.078125 0.046875 -0.125q0.0625 -0.0625 0.203125 -0.0625l1.453125 0l0 -3.0625l-1.078125 0q-0.140625 0 -0.203125 -0.046875q-0.046875 -0.046875 -0.046875 -0.125q0 -0.09375 0.046875 -0.140625q0.0625 -0.0625 0.203125 -0.0625l1.4375 0zm4.010254 0l0 0.5625q0.390625 -0.390625 0.703125 -0.53125q0.3125 -0.15625 0.703125 -0.15625q0.421875 0 0.765625 0.1875q0.25 0.125 0.453125 0.4375q0.203125 0.296875 0.203125 0.625l0 2.3125l0.3125 0q0.125 0 0.171875 0.0625q0.0625 0.046875 0.0625 0.125q0 0.078125 -0.0625 0.140625q-0.046875 0.046875 -0.171875 0.046875l-1.0 0q-0.125 0 -0.1875 -0.046875q-0.0625 -0.0625 -0.0625 -0.140625q0 -0.078125 0.0625 -0.125q0.0625 -0.0625 0.1875 -0.0625l0.3125 0l0 -2.25q0 -0.40625 -0.28125 -0.671875q-0.28125 -0.265625 -0.765625 -0.265625q-0.359375 0 -0.640625 0.15625q-0.265625 0.140625 -0.765625 0.71875l0 2.3125l0.421875 0q0.140625 0 0.1875 0.0625q0.0625 0.046875 0.0625 0.125q0 0.078125 -0.0625 0.140625q-0.046875 0.046875 -0.1875 0.046875l-1.203125 0q-0.125 0 -0.1875 -0.046875q-0.0625 -0.0625 -0.0625 -0.140625q0 -0.078125 0.0625 -0.125q0.0625 -0.0625 0.1875 -0.0625l0.421875 0l0 -3.0625l-0.3125 0q-0.140625 0 -0.203125 -0.046875q-0.046875 -0.046875 -0.046875 -0.140625q0 -0.078125 0.046875 -0.125q0.0625 -0.0625 0.203125 -0.0625l0.671875 0zm5.400879 1.515625l0 1.921875l0.6875 0q0.125 0 0.1875 0.0625q0.0625 0.046875 0.0625 0.125q0 0.078125 -0.0625 0.140625q-0.0625 0.046875 -0.1875 0.046875l-1.546875 0q-0.140625 0 -0.203125 -0.046875q-0.046875 -0.0625 -0.046875 -0.140625q0 -0.078125 0.046875 -0.125q0.0625 -0.0625 0.203125 -0.0625l0.484375 0l0 -4.390625l-0.484375 0q-0.140625 0 -0.203125 -0.046875q-0.046875 -0.0625 -0.046875 -0.140625q0 -0.09375 0.046875 -0.140625q0.0625 -0.046875 0.203125 -0.046875l2.21875 0q0.703125 0 1.171875 0.4375q0.46875 0.4375 0.46875 0.984375q0 0.390625 -0.296875 0.75q-0.28125 0.34375 -0.96875 0.578125q0.390625 0.265625 0.671875 0.609375q0.28125 0.34375 0.90625 1.40625l0.28125 0q0.125 0 0.171875 0.0625q0.0625 0.046875 0.0625 0.125q0 0.078125 -0.0625 0.140625q-0.046875 0.046875 -0.171875 0.046875l-0.5 0q-0.6875 -1.21875 -1.0625 -1.640625q-0.375 -0.421875 -0.859375 -0.65625l-1.171875 0zm0 -0.359375l1.0 0q0.484375 0 0.875 -0.171875q0.40625 -0.1875 0.578125 -0.421875q0.171875 -0.234375 0.171875 -0.484375q0 -0.375 -0.375 -0.703125q-0.359375 -0.328125 -0.890625 -0.328125l-1.359375 0l0 2.109375zm8.604004 0.84375l-3.765625 0q0.09375 0.71875 0.59375 1.15625q0.515625 0.4375 1.25 0.4375q0.40625 0 0.859375 -0.140625q0.453125 -0.140625 0.75 -0.359375q0.078125 -0.0625 0.140625 -0.0625q0.0625 0 0.109375 0.0625q0.0625 0.046875 0.0625 0.109375q0 0.078125 -0.0625 0.15625q-0.21875 0.21875 -0.765625 0.40625q-0.53125 0.1875 -1.09375 0.1875q-0.953125 0 -1.59375 -0.609375q-0.625 -0.625 -0.625 -1.515625q0 -0.796875 0.59375 -1.375q0.59375 -0.578125 1.46875 -0.578125q0.90625 0 1.484375 0.59375q0.59375 0.59375 0.59375 1.53125zm-0.375 -0.375q-0.109375 -0.609375 -0.578125 -0.984375q-0.46875 -0.390625 -1.125 -0.390625q-0.640625 0 -1.109375 0.375q-0.453125 0.375 -0.578125 1.0l3.390625 0zm2.385254 -1.625l0 0.671875q0.328125 -0.390625 0.703125 -0.59375q0.375 -0.203125 0.890625 -0.203125q0.546875 0 1.0 0.265625q0.46875 0.25 0.71875 0.703125q0.25 0.453125 0.25 0.953125q0 0.796875 -0.5625 1.359375q-0.5625 0.5625 -1.40625 0.5625q-0.984375 0 -1.59375 -0.796875l0 2.21875l0.890625 0q0.140625 0 0.1875 0.046875q0.0625 0.046875 0.0625 0.140625q0 0.078125 -0.0625 0.125q-0.046875 0.0625 -0.1875 0.0625l-1.765625 0q-0.125 0 -0.1875 -0.0625q-0.046875 -0.046875 -0.046875 -0.125q0 -0.09375 0.046875 -0.140625q0.0625 -0.046875 0.1875 -0.046875l0.5 0l0 -4.765625l-0.5 0q-0.125 0 -0.1875 -0.046875q-0.046875 -0.046875 -0.046875 -0.140625q0 -0.078125 0.046875 -0.125q0.0625 -0.0625 0.1875 -0.0625l0.875 0zm3.203125 1.796875q0 -0.640625 -0.46875 -1.09375q-0.46875 -0.453125 -1.140625 -0.453125q-0.671875 0 -1.140625 0.453125q-0.453125 0.453125 -0.453125 1.09375q0 0.640625 0.453125 1.09375q0.46875 0.453125 1.140625 0.453125q0.671875 0 1.140625 -0.453125q0.46875 -0.453125 0.46875 -1.09375zm5.650879 0.125q0 0.84375 -0.609375 1.4375q-0.59375 0.59375 -1.453125 0.59375q-0.859375 0 -1.46875 -0.59375q-0.59375 -0.609375 -0.59375 -1.4375q0 -0.84375 0.59375 -1.4375q0.609375 -0.609375 1.46875 -0.609375q0.859375 0 1.453125 0.59375q0.609375 0.59375 0.609375 1.453125zm-0.375 0q0 -0.703125 -0.5 -1.1875q-0.484375 -0.484375 -1.1875 -0.484375q-0.703125 0 -1.203125 0.5q-0.5 0.484375 -0.5 1.171875q0 0.6875 0.5 1.1875q0.5 0.484375 1.203125 0.484375q0.703125 0 1.1875 -0.484375q0.5 -0.5 0.5 -1.1875zm4.932129 -1.671875q0 -0.125 0.046875 -0.1875q0.0625 -0.0625 0.140625 -0.0625q0.078125 0 0.125 0.0625q0.0625 0.0625 0.0625 0.1875l0 0.640625q0 0.125 -0.0625 0.1875q-0.046875 0.0625 -0.125 0.0625q-0.078125 0 -0.140625 -0.046875q-0.046875 -0.046875 -0.046875 -0.171875q-0.03125 -0.25 -0.28125 -0.421875q-0.359375 -0.25 -0.953125 -0.25q-0.609375 0 -0.953125 0.25q-0.265625 0.1875 -0.265625 0.421875q0 0.265625 0.3125 0.4375q0.203125 0.125 0.796875 0.1875q0.765625 0.078125 1.0625 0.1875q0.4375 0.15625 0.640625 0.4375q0.203125 0.265625 0.203125 0.578125q0 0.46875 -0.453125 0.84375q-0.4375 0.359375 -1.3125 0.359375q-0.875 0 -1.4375 -0.4375q0 0.140625 -0.015625 0.1875q-0.015625 0.046875 -0.0625 0.078125q-0.046875 0.03125 -0.109375 0.03125q-0.078125 0 -0.140625 -0.046875q-0.046875 -0.0625 -0.046875 -0.203125l0 -0.75q0 -0.140625 0.046875 -0.1875q0.0625 -0.0625 0.140625 -0.0625q0.078125 0 0.125 0.0625q0.0625 0.046875 0.0625 0.140625q0 0.203125 0.109375 0.328125q0.140625 0.21875 0.46875 0.359375q0.34375 0.140625 0.84375 0.140625q0.71875 0 1.0625 -0.265625q0.359375 -0.28125 0.359375 -0.578125q0 -0.34375 -0.359375 -0.546875q-0.359375 -0.203125 -1.046875 -0.265625q-0.6875 -0.078125 -0.984375 -0.1875q-0.296875 -0.125 -0.46875 -0.34375q-0.171875 -0.234375 -0.171875 -0.5q0 -0.46875 0.46875 -0.75q0.46875 -0.28125 1.109375 -0.28125q0.765625 0 1.25 0.375zm4.369629 -2.140625l0 0.953125l-0.546875 0l0 -0.953125l0.546875 0zm0 1.890625l0 3.4375l1.453125 0q0.140625 0 0.1875 0.0625q0.0625 0.046875 0.0625 0.125q0 0.078125 -0.0625 0.140625q-0.046875 0.046875 -0.1875 0.046875l-3.265625 0q-0.140625 0 -0.203125 -0.046875q-0.046875 -0.0625 -0.046875 -0.140625q0 -0.078125 0.046875 -0.125q0.0625 -0.0625 0.203125 -0.0625l1.453125 0l0 -3.0625l-1.078125 0q-0.140625 0 -0.203125 -0.046875q-0.046875 -0.046875 -0.046875 -0.125q0 -0.09375 0.046875 -0.140625q0.0625 -0.0625 0.203125 -0.0625l1.4375 0zm4.447754 0l2.015625 0q0.125 0 0.171875 0.0625q0.0625 0.046875 0.0625 0.140625q0 0.078125 -0.0625 0.125q-0.046875 0.046875 -0.171875 0.046875l-2.015625 0l0 2.46875q0 0.3125 0.25 0.53125q0.265625 0.21875 0.765625 0.21875q0.375 0 0.8125 -0.109375q0.4375 -0.125 0.671875 -0.265625q0.09375 -0.046875 0.140625 -0.046875q0.078125 0 0.125 0.0625q0.0625 0.046875 0.0625 0.109375q0 0.078125 -0.0625 0.125q-0.140625 0.15625 -0.6875 0.328125q-0.546875 0.15625 -1.03125 0.15625q-0.65625 0 -1.046875 -0.296875q-0.375 -0.3125 -0.375 -0.8125l0 -2.46875l-0.671875 0q-0.140625 0 -0.203125 -0.046875q-0.046875 -0.046875 -0.046875 -0.140625q0 -0.078125 0.046875 -0.125q0.0625 -0.0625 0.203125 -0.0625l0.671875 0l0 -1.078125q0 -0.140625 0.046875 -0.1875q0.0625 -0.0625 0.140625 -0.0625q0.09375 0 0.140625 0.0625q0.046875 0.046875 0.046875 0.1875l0 1.078125zm8.229004 1.921875q0 0.84375 -0.609375 1.4375q-0.59375 0.59375 -1.453125 0.59375q-0.859375 0 -1.46875 -0.59375q-0.59375 -0.609375 -0.59375 -1.4375q0 -0.84375 0.59375 -1.4375q0.609375 -0.609375 1.46875 -0.609375q0.859375 0 1.453125 0.59375q0.609375 0.59375 0.609375 1.453125zm-0.375 0q0 -0.703125 -0.5 -1.1875q-0.484375 -0.484375 -1.1875 -0.484375q-0.703125 0 -1.203125 0.5q-0.5 0.484375 -0.5 1.171875q0 0.6875 0.5 1.1875q0.5 0.484375 1.203125 0.484375q0.703125 0 1.1875 -0.484375q0.5 -0.5 0.5 -1.1875zm3.275879 -1.921875l0 0.9375q0.71875 -0.65625 1.078125 -0.828125q0.359375 -0.1875 0.65625 -0.1875q0.328125 0 0.609375 0.21875q0.28125 0.21875 0.28125 0.328125q0 0.09375 -0.0625 0.15625q-0.046875 0.046875 -0.125 0.046875q-0.046875 0 -0.078125 -0.015625q-0.03125 -0.015625 -0.109375 -0.109375q-0.15625 -0.15625 -0.28125 -0.203125q-0.109375 -0.0625 -0.21875 -0.0625q-0.234375 0 -0.578125 0.203125q-0.34375 0.1875 -1.171875 0.9375l0 2.015625l1.625 0q0.140625 0 0.1875 0.0625q0.0625 0.046875 0.0625 0.125q0 0.078125 -0.0625 0.140625q-0.046875 0.046875 -0.1875 0.046875l-2.890625 0q-0.140625 0 -0.203125 -0.046875q-0.046875 -0.046875 -0.046875 -0.140625q0 -0.0625 0.046875 -0.109375q0.0625 -0.0625 0.203125 -0.0625l0.890625 0l0 -3.078125l-0.6875 0q-0.125 0 -0.1875 -0.046875q-0.046875 -0.046875 -0.046875 -0.140625q0 -0.078125 0.046875 -0.125q0.0625 -0.0625 0.1875 -0.0625l1.0625 0zm5.854004 3.8125l-1.703125 -3.4375l-0.109375 0q-0.140625 0 -0.203125 -0.046875q-0.046875 -0.046875 -0.046875 -0.125q0 -0.0625 0.03125 -0.109375q0.03125 -0.046875 0.0625 -0.0625q0.046875 -0.03125 0.15625 -0.03125l1.0 0q0.140625 0 0.1875 0.0625q0.0625 0.046875 0.0625 0.140625q0 0.078125 -0.0625 0.125q-0.046875 0.046875 -0.1875 0.046875l-0.484375 0l1.5 3.03125l1.484375 -3.03125l-0.5 0q-0.125 0 -0.1875 -0.046875q-0.046875 -0.046875 -0.046875 -0.140625q0 -0.078125 0.046875 -0.125q0.0625 -0.0625 0.1875 -0.0625l1.015625 0q0.125 0 0.1875 0.0625q0.0625 0.046875 0.0625 0.140625q0 0.046875 -0.046875 0.09375q-0.03125 0.046875 -0.078125 0.0625q-0.03125 0.015625 -0.234375 0.015625l-2.34375 4.765625l0.578125 0q0.125 0 0.1875 0.046875q0.0625 0.046875 0.0625 0.140625q0 0.078125 -0.0625 0.125q-0.0625 0.0625 -0.1875 0.0625l-2.125 0q-0.140625 0 -0.203125 -0.0625q-0.046875 -0.046875 -0.046875 -0.125q0 -0.09375 0.046875 -0.140625q0.0625 -0.046875 0.203125 -0.046875l1.15625 0l0.640625 -1.328125z" fill-rule="nonzero"/><path fill="#ebe3fd" d="m57.881916 103.33819l0 23.65355l21.937008 0l-10.753281 -11.611549l10.753281 -12.042z" fill-rule="evenodd"/><path stroke="#8b6bda" stroke-width="1.0" stroke-linejoin="round" stroke-linecap="butt" d="m57.881916 103.33819l0 23.65355l21.937008 0l-10.753281 -11.611549l10.753281 -12.042z" fill-rule="evenodd"/><path fill="#000000" fill-opacity="0.0" d="m103.37139 81.17191l142.3937 0l0 30.614174l-142.3937 0z" fill-rule="evenodd"/><path stroke="#000000" stroke-width="1.0" stroke-linejoin="round" stroke-linecap="butt" d="m103.37139 81.17191l142.3937 0l0 30.614174l-142.3937 0z" fill-rule="evenodd"/><path fill="#000000" fill-opacity="0.0" d="m103.37138 81.09318l72.85039 0l0 30.708656l-72.85039 0z" fill-rule="evenodd"/><path fill="#000000" d="m117.52924 97.5063l-0.421875 0l-1.40625 -3.21875l-0.078125 0l0 4.390625l0.6875 0q0.125 0 0.171875 0.0625q0.0625 0.046875 0.0625 0.125q0 0.078125 -0.0625 0.140625q-0.046875 0.046875 -0.171875 0.046875l-1.359375 0q-0.140625 0 -0.203125 -0.046875q-0.046875 -0.0625 -0.046875 -0.140625q0 -0.078125 0.046875 -0.125q0.0625 -0.0625 0.203125 -0.0625l0.296875 0l0 -4.390625l-0.21875 0q-0.140625 0 -0.203125 -0.046875q-0.046875 -0.0625 -0.046875 -0.140625q0 -0.09375 0.046875 -0.140625q0.0625 -0.046875 0.203125 -0.046875l0.90625 0l1.390625 3.1875l1.375 -3.1875l0.90625 0q0.140625 0 0.1875 0.046875q0.0625 0.046875 0.0625 0.140625q0 0.078125 -0.0625 0.140625q-0.046875 0.046875 -0.1875 0.046875l-0.234375 0l0 4.390625l0.3125 0q0.140625 0 0.1875 0.0625q0.0625 0.046875 0.0625 0.125q0 0.078125 -0.0625 0.140625q-0.046875 0.046875 -0.1875 0.046875l-1.359375 0q-0.125 0 -0.1875 -0.046875q-0.0625 -0.0625 -0.0625 -0.140625q0 -0.078125 0.046875 -0.125q0.0625 -0.0625 0.203125 -0.0625l0.6875 0l0 -4.390625l-0.078125 0l-1.40625 3.21875zm6.432129 1.546875l0 -0.546875q-0.765625 0.6875 -1.640625 0.6875q-0.546875 0 -0.828125 -0.296875q-0.359375 -0.375 -0.359375 -0.890625l0 -2.390625l-0.5 0q-0.125 0 -0.1875 -0.046875q-0.046875 -0.046875 -0.046875 -0.140625q0 -0.078125 0.046875 -0.125q0.0625 -0.0625 0.1875 -0.0625l0.875 0l0 2.765625q0 0.359375 0.21875 0.59375q0.234375 0.234375 0.578125 0.234375q0.90625 0 1.65625 -0.828125l0 -2.390625l-0.6875 0q-0.125 0 -0.1875 -0.046875q-0.0625 -0.046875 -0.0625 -0.140625q0 -0.078125 0.0625 -0.125q0.0625 -0.0625 0.1875 -0.0625l1.046875 0l0 3.4375l0.3125 0q0.140625 0 0.1875 0.0625q0.0625 0.046875 0.0625 0.125q0 0.078125 -0.0625 0.140625q-0.046875 0.046875 -0.1875 0.046875l-0.671875 0zm3.369629 -3.8125l2.0156326 0q0.125 0 0.171875 0.0625q0.0625 0.046875 0.0625 0.140625q0 0.078125 -0.0625 0.125q-0.046875 0.046875 -0.171875 0.046875l-2.0156326 0l0 2.46875q0 0.3125 0.25 0.53125q0.265625 0.21875 0.7656326 0.21875q0.375 0 0.8125 -0.109375q0.4375 -0.125 0.671875 -0.265625q0.09375 -0.046875 0.140625 -0.046875q0.078125 0 0.125 0.0625q0.0625 0.046875 0.0625 0.109375q0 0.078125 -0.0625 0.125q-0.140625 0.15625 -0.6875 0.328125q-0.546875 0.15625 -1.03125 0.15625q-0.6562576 0 -1.0468826 -0.296875q-0.375 -0.3125 -0.375 -0.8125l0 -2.46875l-0.671875 0q-0.140625 0 -0.203125 -0.046875q-0.046875 -0.046875 -0.046875 -0.140625q0 -0.078125 0.046875 -0.125q0.0625 -0.0625 0.203125 -0.0625l0.671875 0l0 -1.078125q0 -0.140625 0.046875 -0.1875q0.0625 -0.0625 0.140625 -0.0625q0.09375 0 0.140625 0.0625q0.046875 0.046875 0.046875 0.1875l0 1.078125zm7.2290115 3.8125l0 -0.53125q-0.8125 0.671875 -1.71875 0.671875q-0.671875 0 -1.046875 -0.328125q-0.359375 -0.34375 -0.359375 -0.828125q0 -0.53125 0.484375 -0.921875q0.5 -0.40625 1.4375 -0.40625q0.25 0 0.546875 0.03125q0.3125 0.03125 0.65625 0.09375l0 -0.59375q0 -0.296875 -0.28125 -0.515625q-0.28125 -0.234375 -0.84375 -0.234375q-0.4375 0 -1.21875 0.25q-0.140625 0.046875 -0.171875 0.046875q-0.078125 0 -0.125 -0.046875q-0.046875 -0.0625 -0.046875 -0.140625q0 -0.078125 0.046875 -0.125q0.0625 -0.0625 0.5 -0.171875q0.671875 -0.1875 1.03125 -0.1875q0.703125 0 1.09375 0.34375q0.390625 0.34375 0.390625 0.78125l0 2.4375l0.484375 0q0.140625 0 0.1875 0.0625q0.0625 0.046875 0.0625 0.125q0 0.078125 -0.0625 0.140625q-0.046875 0.046875 -0.1875 0.046875l-0.859375 0zm0 -1.84375q-0.265625 -0.0625 -0.5625 -0.09375q-0.28125 -0.046875 -0.59375 -0.046875q-0.8125 0 -1.265625 0.34375q-0.34375 0.265625 -0.34375 0.625q0 0.328125 0.265625 0.5625q0.265625 0.234375 0.765625 0.234375q0.46875 0 0.875 -0.1875q0.421875 -0.203125 0.859375 -0.625l0 -0.8125zm2.947754 -3.671875l0 2.453125q0.671875 -0.875 1.609375 -0.875q0.8125 0 1.375 0.59375q0.578125 0.578125 0.578125 1.4375q0 0.859375 -0.578125 1.453125q-0.578125 0.59375 -1.375 0.59375q-0.96875 0 -1.609375 -0.859375l0 0.71875l-0.875 0q-0.125 0 -0.1875 -0.046875q-0.046875 -0.0625 -0.046875 -0.140625q0 -0.078125 0.046875 -0.125q0.0625 -0.0625 0.1875 -0.0625l0.5 0l0 -4.765625l-0.5 0q-0.125 0 -0.1875 -0.046875q-0.046875 -0.0625 -0.046875 -0.140625q0 -0.078125 0.046875 -0.125q0.0625 -0.0625 0.1875 -0.0625l0.875 0zm3.203125 3.625q0 -0.703125 -0.484375 -1.1875q-0.46875 -0.484375 -1.125 -0.484375q-0.640625 0 -1.125 0.484375q-0.46875 0.484375 -0.46875 1.1875q0 0.6875 0.46875 1.1875q0.484375 0.484375 1.125 0.484375q0.65625 0 1.125 -0.484375q0.484375 -0.5 0.484375 -1.1875zm3.775879 -3.625l0 5.140625l1.453125 0q0.125 0 0.1875 0.0625q0.0625 0.046875 0.0625 0.125q0 0.078125 -0.0625 0.140625q-0.0625 0.046875 -0.1875 0.046875l-3.28125 0q-0.125 0 -0.1875 -0.046875q-0.046875 -0.0625 -0.046875 -0.140625q0 -0.078125 0.046875 -0.125q0.0625 -0.0625 0.1875 -0.0625l1.453125 0l0 -4.765625l-1.0625 0q-0.125 0 -0.1875 -0.046875q-0.0625 -0.0625 -0.0625 -0.140625q0 -0.078125 0.046875 -0.125q0.0625 -0.0625 0.203125 -0.0625l1.4375 0zm7.213379 3.703125l-3.765625 0q0.09375 0.71875 0.59375 1.15625q0.515625 0.4375 1.25 0.4375q0.40625 0 0.859375 -0.140625q0.453125 -0.140625 0.75 -0.359375q0.078125 -0.0625 0.140625 -0.0625q0.0625 0 0.109375 0.0625q0.0625 0.046875 0.0625 0.109375q0 0.078125 -0.0625 0.15625q-0.21875 0.21875 -0.765625 0.40625q-0.53125 0.1875 -1.09375 0.1875q-0.953125 0 -1.59375 -0.609375q-0.625 -0.625 -0.625 -1.515625q0 -0.796875 0.59375 -1.375q0.59375 -0.578125 1.46875 -0.578125q0.90625 0 1.484375 0.59375q0.59375 0.59375 0.59375 1.53125zm-0.375 -0.375q-0.109375 -0.609375 -0.578125 -0.984375q-0.46875 -0.390625 -1.125 -0.390625q-0.640625 0 -1.109375 0.375q-0.453125 0.375 -0.578125 1.0l3.390625 0zm4.010254 0.640625l-0.421875 0l-1.40625 -3.21875l-0.078125 0l0 4.390625l0.6875 0q0.125 0 0.171875 0.0625q0.0625 0.046875 0.0625 0.125q0 0.078125 -0.0625 0.140625q-0.046875 0.046875 -0.171875 0.046875l-1.359375 0q-0.140625 0 -0.203125 -0.046875q-0.046875 -0.0625 -0.046875 -0.140625q0 -0.078125 0.046875 -0.125q0.0625 -0.0625 0.203125 -0.0625l0.296875 0l0 -4.390625l-0.21875 0q-0.140625 0 -0.203125 -0.046875q-0.046875 -0.0625 -0.046875 -0.140625q0 -0.09375 0.046875 -0.140625q0.0625 -0.046875 0.203125 -0.046875l0.90625 0l1.390625 3.1875l1.375 -3.1875l0.90625 0q0.140625 0 0.1875 0.046875q0.0625 0.046875 0.0625 0.140625q0 0.078125 -0.0625 0.140625q-0.046875 0.046875 -0.1875 0.046875l-0.234375 0l0 4.390625l0.3125 0q0.140625 0 0.1875 0.0625q0.0625 0.046875 0.0625 0.125q0 0.078125 -0.0625 0.140625q-0.046875 0.046875 -0.1875 0.046875l-1.359375 0q-0.125 0 -0.1875 -0.046875q-0.0625 -0.0625 -0.0625 -0.140625q0 -0.078125 0.046875 -0.125q0.0625 -0.0625 0.203125 -0.0625l0.6875 0l0 -4.390625l-0.078125 0l-1.40625 3.21875zm6.229004 1.546875l0 -0.53125q-0.8125 0.671875 -1.71875 0.671875q-0.671875 0 -1.046875 -0.328125q-0.359375 -0.34375 -0.359375 -0.828125q0 -0.53125 0.484375 -0.921875q0.5 -0.40625 1.4375 -0.40625q0.25 0 0.546875 0.03125q0.3125 0.03125 0.65625 0.09375l0 -0.59375q0 -0.296875 -0.28125 -0.515625q-0.28125 -0.234375 -0.84375 -0.234375q-0.4375 0 -1.21875 0.25q-0.140625 0.046875 -0.171875 0.046875q-0.078125 0 -0.125 -0.046875q-0.046875 -0.0625 -0.046875 -0.140625q0 -0.078125 0.046875 -0.125q0.0625 -0.0625 0.5 -0.171875q0.671875 -0.1875 1.03125 -0.1875q0.703125 0 1.09375 0.34375q0.390625 0.34375 0.390625 0.78125l0 2.4375l0.484375 0q0.140625 0 0.1875 0.0625q0.0625 0.046875 0.0625 0.125q0 0.078125 -0.0625 0.140625q-0.046875 0.046875 -0.1875 0.046875l-0.859375 0zm0 -1.84375q-0.265625 -0.0625 -0.5625 -0.09375q-0.28125 -0.046875 -0.59375 -0.046875q-0.8125 0 -1.265625 0.34375q-0.34375 0.265625 -0.34375 0.625q0 0.328125 0.265625 0.5625q0.265625 0.234375 0.765625 0.234375q0.46875 0 0.875 -0.1875q0.421875 -0.203125 0.859375 -0.625l0 -0.8125zm2.947754 -1.96875l0 0.671875q0.328125 -0.390625 0.703125 -0.59375q0.375 -0.203125 0.890625 -0.203125q0.546875 0 1.0 0.265625q0.46875 0.25 0.71875 0.703125q0.25 0.453125 0.25 0.953125q0 0.796875 -0.5625 1.359375q-0.5625 0.5625 -1.40625 0.5625q-0.984375 0 -1.59375 -0.796875l0 2.21875l0.890625 0q0.140625 0 0.1875 0.046875q0.0625 0.046875 0.0625 0.140625q0 0.078125 -0.0625 0.125q-0.046875 0.0625 -0.1875 0.0625l-1.765625 0q-0.125 0 -0.1875 -0.0625q-0.046875 -0.046875 -0.046875 -0.125q0 -0.09375 0.046875 -0.140625q0.0625 -0.046875 0.1875 -0.046875l0.5 0l0 -4.765625l-0.5 0q-0.125 0 -0.1875 -0.046875q-0.046875 -0.046875 -0.046875 -0.140625q0 -0.078125 0.046875 -0.125q0.0625 -0.0625 0.1875 -0.0625l0.875 0zm3.203125 1.796875q0 -0.640625 -0.46875 -1.09375q-0.46875 -0.453125 -1.140625 -0.453125q-0.671875 0 -1.140625 0.453125q-0.453125 0.453125 -0.453125 1.09375q0 0.640625 0.453125 1.09375q0.46875 0.453125 1.140625 0.453125q0.671875 0 1.140625 -0.453125q0.46875 -0.453125 0.46875 -1.09375zm1.3227539 -0.546875l3.984375 -2.21875q0.09375 -0.0625 0.140625 -0.0625q0.078125 0 0.125 0.0625q0.0625 0.046875 0.0625 0.125q0 0.109375 -0.15625 0.203125l-3.40625 1.890625l3.40625 1.90625q0.15625 0.078125 0.15625 0.1875q0 0.078125 -0.0625 0.140625q-0.046875 0.046875 -0.125 0.046875q-0.046875 0 -0.140625 -0.0625l-3.984375 -2.21875z" fill-rule="nonzero"/><path fill="#000000" fill-opacity="0.0" d="m176.22179 80.780716l28.157486 0l0 30.708664l-28.157486 0z" fill-rule="evenodd"/><path fill="#000000" d="m177.72179 96.72509l0 1.640625l0.6875 0q0.140625 0 0.1875 0.0625q0.0625 0.046875 0.0625 0.125q0 0.078125 -0.0625 0.140625q-0.046875 0.046875 -0.1875 0.046875l-1.546875 0q-0.140625 0 -0.203125 -0.046875q-0.046875 -0.0625 -0.046875 -0.140625q0 -0.078125 0.046875 -0.125q0.0625 -0.0625 0.203125 -0.0625l0.5 0l0 -4.390625l-0.5 0q-0.140625 0 -0.203125 -0.046875q-0.046875 -0.0625 -0.046875 -0.140625q0 -0.09375 0.046875 -0.140625q0.0625 -0.046875 0.203125 -0.046875l1.546875 0q0.140625 0 0.1875 0.046875q0.0625 0.046875 0.0625 0.140625q0 0.078125 -0.0625 0.140625q-0.046875 0.046875 -0.1875 0.046875l-0.6875 0l0 2.265625l2.546875 -2.265625l-0.40625 0q-0.125 0 -0.1875 -0.046875q-0.0625 -0.0625 -0.0625 -0.140625q0 -0.09375 0.0625 -0.140625q0.0625 -0.046875 0.1875 -0.046875l1.09375 0q0.125 0 0.1875 0.046875q0.0625 0.046875 0.0625 0.140625q0 0.078125 -0.0625 0.140625q-0.0625 0.046875 -0.1875 0.046875l-0.15625 0l-2.03125 1.8125q0.453125 0.1875 0.75 0.46875q0.3125 0.265625 0.578125 0.78125q0.15625 0.28125 0.578125 1.328125l0.46875 0q0.140625 0 0.1875 0.0625q0.0625 0.046875 0.0625 0.125q0 0.078125 -0.0625 0.140625q-0.046875 0.046875 -0.1875 0.046875l-0.71875 0q-0.578125 -1.59375 -0.96875 -2.046875q-0.390625 -0.453125 -0.984375 -0.640625l-0.75 0.671875zm8.604004 0.203125l-3.765625 0q0.09375 0.71875 0.59375 1.15625q0.515625 0.4375 1.25 0.4375q0.40625 0 0.859375 -0.140625q0.453125 -0.140625 0.75 -0.359375q0.078125 -0.0625 0.140625 -0.0625q0.0625 0 0.109375 0.0625q0.0625 0.046875 0.0625 0.109375q0 0.078125 -0.0625 0.15625q-0.21875 0.21875 -0.765625 0.40625q-0.53125 0.1875 -1.09375 0.1875q-0.953125 0 -1.59375 -0.609375q-0.625 -0.625 -0.625 -1.515625q0 -0.796875 0.59375 -1.375q0.59375 -0.578125 1.46875 -0.578125q0.90625 0 1.484375 0.59375q0.59375 0.59375 0.59375 1.53125zm-0.375 -0.375q-0.109375 -0.609375 -0.578125 -0.984375q-0.46875 -0.390625 -1.125 -0.390625q-0.640625 0 -1.109375 0.375q-0.453125 0.375 -0.578125 1.0l3.390625 0zm3.791504 2.1875l-1.703125 -3.4375l-0.109375 0q-0.140625 0 -0.203125 -0.046875q-0.046875 -0.046875 -0.046875 -0.125q0 -0.0625 0.03125 -0.109375q0.03125 -0.046875 0.0625 -0.0625q0.046875 -0.03125 0.15625 -0.03125l1.0 0q0.140625 0 0.1875 0.0625q0.0625 0.046875 0.0625 0.140625q0 0.078125 -0.0625 0.125q-0.046875 0.046875 -0.1875 0.046875l-0.484375 0l1.5 3.03125l1.484375 -3.03125l-0.5 0q-0.125 0 -0.1875 -0.046875q-0.046875 -0.046875 -0.046875 -0.140625q0 -0.078125 0.046875 -0.125q0.0625 -0.0625 0.1875 -0.0625l1.015625 0q0.125 0 0.1875 0.0625q0.0625 0.046875 0.0625 0.140625q0 0.046875 -0.046875 0.09375q-0.03125 0.046875 -0.078125 0.0625q-0.03125 0.015625 -0.234375 0.015625l-2.34375 4.765625l0.578125 0q0.125 0 0.1875 0.046875q0.0625 0.046875 0.0625 0.140625q0 0.078125 -0.0625 0.125q-0.0625 0.0625 -0.1875 0.0625l-2.125 0q-0.140625 0 -0.203125 -0.0625q-0.046875 -0.046875 -0.046875 -0.125q0 -0.09375 0.046875 -0.140625q0.0625 -0.046875 0.203125 -0.046875l1.15625 0l0.640625 -1.328125zm4.650879 -1.328125l1.203125 0l-1.3125 2.421875q-0.109375 0.21875 -0.28125 0.21875q-0.109375 0 -0.1875 -0.078125q-0.078125 -0.0625 -0.078125 -0.171875q0 -0.046875 0.015625 -0.109375l0.640625 -2.28125z" fill-rule="nonzero"/><path fill="#000000" fill-opacity="0.0" d="m200.41339 81.12455l45.354324 0l0 30.708664l-45.354324 0z" fill-rule="evenodd"/><path fill="#000000" d="m203.38214 99.08455l-0.5 0l-1.859375 -4.765625l-0.296875 0q-0.09375 0 -0.140625 -0.015625q-0.046875 -0.03125 -0.078125 -0.078125q-0.015625 -0.046875 -0.015625 -0.09375q0 -0.0625 0.015625 -0.109375q0.03125 -0.046875 0.078125 -0.0625q0.046875 -0.015625 0.140625 -0.015625l1.375 0q0.109375 0 0.140625 0.015625q0.046875 0.015625 0.078125 0.0625q0.03125 0.046875 0.03125 0.109375q0 0.046875 -0.03125 0.09375q-0.03125 0.046875 -0.078125 0.078125q-0.03125 0.015625 -0.140625 0.015625l-0.703125 0l1.71875 4.390625l0.015625 0l1.703125 -4.390625l-0.703125 0q-0.109375 0 -0.15625 -0.015625q-0.046875 -0.03125 -0.078125 -0.078125q-0.015625 -0.046875 -0.015625 -0.09375q0 -0.0625 0.03125 -0.109375q0.03125 -0.046875 0.0625 -0.0625q0.046875 -0.015625 0.15625 -0.015625l1.359375 0q0.109375 0 0.15625 0.015625q0.046875 0.015625 0.0625 0.0625q0.03125 0.046875 0.03125 0.109375q0 0.046875 -0.03125 0.09375q-0.015625 0.046875 -0.0625 0.078125q-0.046875 0.015625 -0.15625 0.015625l-0.28125 0l-1.828125 4.765625zm6.197754 0l0 -0.53125q-0.8125 0.671875 -1.71875 0.671875q-0.671875 0 -1.046875 -0.328125q-0.359375 -0.34375 -0.359375 -0.828125q0 -0.53125 0.484375 -0.921875q0.5 -0.40625 1.4375 -0.40625q0.25 0 0.546875 0.03125q0.3125 0.03125 0.65625 0.09375l0 -0.59375q0 -0.296875 -0.28125 -0.515625q-0.28125 -0.234375 -0.84375 -0.234375q-0.4375 0 -1.21875 0.25q-0.140625 0.046875 -0.171875 0.046875q-0.078125 0 -0.125 -0.046875q-0.046875 -0.0625 -0.046875 -0.140625q0 -0.078125 0.046875 -0.125q0.0625 -0.0625 0.5 -0.171875q0.671875 -0.1875 1.03125 -0.1875q0.703125 0 1.09375 0.34375q0.390625 0.34375 0.390625 0.78125l0 2.4375l0.484375 0q0.140625 0 0.1875 0.0625q0.0625 0.046875 0.0625 0.125q0 0.078125 -0.0625 0.140625q-0.046875 0.046875 -0.1875 0.046875l-0.859375 0zm0 -1.84375q-0.265625 -0.0625 -0.5625 -0.09375q-0.28125 -0.046875 -0.59375 -0.046875q-0.8125 0 -1.265625 0.34375q-0.34375 0.265625 -0.34375 0.625q0 0.328125 0.265625 0.5625q0.265625 0.234375 0.765625 0.234375q0.46875 0 0.875 -0.1875q0.421875 -0.203125 0.859375 -0.625l0 -0.8125zm4.525879 -3.671875l0 5.140625l1.453125 0q0.125 0 0.1875 0.0625q0.0625 0.046875 0.0625 0.125q0 0.078125 -0.0625 0.140625q-0.0625 0.046875 -0.1875 0.046875l-3.28125 0q-0.125 0 -0.1875 -0.046875q-0.046875 -0.0625 -0.046875 -0.140625q0 -0.078125 0.046875 -0.125q0.0625 -0.0625 0.1875 -0.0625l1.453125 0l0 -4.765625l-1.0625 0q-0.125 0 -0.1875 -0.046875q-0.0625 -0.0625 -0.0625 -0.140625q0 -0.078125 0.046875 -0.125q0.0625 -0.0625 0.203125 -0.0625l1.4375 0zm6.479004 5.515625l0 -0.546875q-0.765625 0.6875 -1.640625 0.6875q-0.546875 0 -0.828125 -0.296875q-0.359375 -0.375 -0.359375 -0.890625l0 -2.390625l-0.5 0q-0.125 0 -0.1875 -0.046875q-0.046875 -0.046875 -0.046875 -0.140625q0 -0.078125 0.046875 -0.125q0.0625 -0.0625 0.1875 -0.0625l0.875 0l0 2.765625q0 0.359375 0.21875 0.59375q0.234375 0.234375 0.578125 0.234375q0.90625 0 1.65625 -0.828125l0 -2.390625l-0.6875 0q-0.125 0 -0.1875 -0.046875q-0.0625 -0.046875 -0.0625 -0.140625q0 -0.078125 0.0625 -0.125q0.0625 -0.0625 0.1875 -0.0625l1.046875 0l0 3.4375l0.3125 0q0.140625 0 0.1875 0.0625q0.0625 0.046875 0.0625 0.125q0 0.078125 -0.0625 0.140625q-0.046875 0.046875 -0.1875 0.046875l-0.671875 0zm6.135254 -1.8125l-3.765625 0q0.09375 0.71875 0.59375 1.15625q0.515625 0.4375 1.25 0.4375q0.40625 0 0.859375 -0.140625q0.453125 -0.140625 0.75 -0.359375q0.078125 -0.0625 0.140625 -0.0625q0.0625 0 0.109375 0.0625q0.0625 0.046875 0.0625 0.109375q0 0.078125 -0.0625 0.15625q-0.21875 0.21875 -0.765625 0.40625q-0.53125 0.1875 -1.09375 0.1875q-0.953125 0 -1.59375 -0.609375q-0.625 -0.625 -0.625 -1.515625q0 -0.796875 0.59375 -1.375q0.59375 -0.578125 1.46875 -0.578125q0.90625 0 1.484375 0.59375q0.59375 0.59375 0.59375 1.53125zm-0.375 -0.375q-0.109375 -0.609375 -0.578125 -0.984375q-0.46875 -0.390625 -1.125 -0.390625q-0.640625 0 -1.109375 0.375q-0.453125 0.375 -0.578125 1.0l3.390625 0zm6.041504 -0.375l-3.984375 2.21875q-0.09375 0.0625 -0.15625 0.0625q-0.0625 0 -0.125 -0.046875q-0.046875 -0.0625 -0.046875 -0.140625q0 -0.109375 0.140625 -0.1875l3.421875 -1.90625l-3.421875 -1.890625q-0.140625 -0.09375 -0.140625 -0.203125q0 -0.078125 0.046875 -0.125q0.0625 -0.0625 0.140625 -0.0625q0.046875 0 0.140625 0.0625l3.984375 2.21875z" fill-rule="nonzero"/><path fill="#cfe2f3" d="m242.28488 29.101507l0 0c0 -15.664014 12.204651 -28.362206 27.259857 -28.362206l0 0c7.2297363 0 14.163391 2.9881525 19.275604 8.307097c5.112213 5.318945 7.9842224 12.532983 7.9842224 20.055107l0 0c0 15.664011 -12.204651 28.362204 -27.259827 28.362204l0 0c-15.055206 0 -27.259857 -12.698193 -27.259857 -28.362204z" fill-rule="evenodd"/><path stroke="#4e8aeb" stroke-width="1.0" stroke-linejoin="round" stroke-linecap="butt" d="m242.28488 29.101507l0 0c0 -15.664014 12.204651 -28.362206 27.259857 -28.362206l0 0c7.2297363 0 14.163391 2.9881525 19.275604 8.307097c5.112213 5.318945 7.9842224 12.532983 7.9842224 20.055107l0 0c0 15.664011 -12.204651 28.362204 -27.259827 28.362204l0 0c-15.055206 0 -27.259857 -12.698193 -27.259857 -28.362204z" fill-rule="evenodd"/><path fill="#cfe2f3" d="m286.40533 37.879623l0 0c-3.8216858 8.244152 -12.474274 12.67598 -20.972717 10.742161c-8.498474 -1.9338188 -14.653793 -9.735176 -14.9197235 -18.909462c-0.26593018 -9.174288 5.4260406 -17.358437 13.796585 -19.837301c8.370544 -2.4788642 17.26361 1.3860502 21.555634 9.368044l-8.601105 5.1553555c-1.9510803 -4.072508 -6.1505127 -6.1087646 -10.141632 -4.9175854c-3.99115 1.1911812 -6.7253723 5.2968235 -6.6032104 9.915178c0.12219238 4.6183567 3.0686646 8.535982 7.1157837 9.461119c4.0471497 0.92513657 8.131561 -1.385292 9.863922 -5.579712z" fill-rule="evenodd"/><path stroke="#4e8aeb" stroke-width="1.0" stroke-linejoin="round" stroke-linecap="butt" d="m286.40533 37.879623l0 0c-3.8216858 8.244152 -12.474274 12.67598 -20.972717 10.742161c-8.498474 -1.9338188 -14.653793 -9.735176 -14.9197235 -18.909462c-0.26593018 -9.174288 5.4260406 -17.358437 13.796585 -19.837301c8.370544 -2.4788642 17.26361 1.3860502 21.555634 9.368044l-8.601105 5.1553555c-1.9510803 -4.072508 -6.1505127 -6.1087646 -10.141632 -4.9175854c-3.99115 1.1911812 -6.7253723 5.2968235 -6.6032104 9.915178c0.12219238 4.6183567 3.0686646 8.535982 7.1157837 9.461119c4.0471497 0.92513657 8.131561 -1.385292 9.863922 -5.579712z" fill-rule="evenodd"/><path fill="#000000" fill-opacity="0.0" d="m221.92258 60.29659l95.24411 0l0 20.850391l-95.24411 0z" fill-rule="evenodd"/><path fill="#000000" d="m254.56343 76.537834l-2.4375 0l-0.484375 1.34375l0.703125 0q0.125 0 0.1875 0.0625q0.0625 0.046875 0.0625 0.125q0 0.078125 -0.0625 0.140625q-0.0625 0.046875 -0.1875 0.046875l-1.375 0q-0.140625 0 -0.203125 -0.046875q-0.046875 -0.0625 -0.046875 -0.140625q0 -0.078125 0.046875 -0.125q0.0625 -0.0625 0.203125 -0.0625l0.28125 0l1.625 -4.390625l-1.09375 0q-0.125 0 -0.1875 -0.046875q-0.046875 -0.0625 -0.046875 -0.140625q0 -0.09375 0.046875 -0.140625q0.0625 -0.046875 0.1875 -0.046875l1.859375 0l1.8125 4.765625l0.28125 0q0.125 0 0.1875 0.0625q0.0625 0.046875 0.0625 0.125q0 0.078125 -0.0625 0.140625q-0.0625 0.046875 -0.1875 0.046875l-1.375 0q-0.140625 0 -0.203125 -0.046875q-0.046875 -0.0625 -0.046875 -0.140625q0 -0.078125 0.046875 -0.125q0.0625 -0.0625 0.203125 -0.0625l0.703125 0l-0.5 -1.34375zm-0.140625 -0.375l-1.03125 -2.671875l-0.125 0l-1.0 2.671875l2.15625 0zm6.1352386 -3.421875l0 5.140625l0.484375 0q0.140625 0 0.1875 0.0625q0.0625 0.046875 0.0625 0.125q0 0.078125 -0.0625 0.140625q-0.046875 0.046875 -0.1875 0.046875l-0.859375 0l0 -0.734375q-0.640625 0.875 -1.640625 0.875q-0.5 0 -0.96875 -0.265625q-0.453125 -0.265625 -0.71875 -0.75q-0.265625 -0.5 -0.265625 -1.015625q0 -0.53125 0.265625 -1.015625q0.265625 -0.5 0.71875 -0.765625q0.46875 -0.265625 0.984375 -0.265625q0.953125 0 1.625 0.875l0 -2.078125l-0.5 0q-0.140625 0 -0.203125 -0.046875q-0.046875 -0.0625 -0.046875 -0.140625q0 -0.078125 0.046875 -0.125q0.0625 -0.0625 0.203125 -0.0625l0.875 0zm-0.375 3.625q0 -0.703125 -0.484375 -1.1875q-0.46875 -0.484375 -1.125 -0.484375q-0.65625 0 -1.140625 0.484375q-0.46875 0.484375 -0.46875 1.1875q0 0.6875 0.46875 1.1875q0.484375 0.484375 1.140625 0.484375q0.65625 0 1.125 -0.484375q0.484375 -0.5 0.484375 -1.1875zm5.775879 -3.625l0 5.140625l0.484375 0q0.140625 0 0.1875 0.0625q0.0625 0.046875 0.0625 0.125q0 0.078125 -0.0625 0.140625q-0.046875 0.046875 -0.1875 0.046875l-0.859375 0l0 -0.734375q-0.640625 0.875 -1.640625 0.875q-0.5 0 -0.96875 -0.265625q-0.453125 -0.265625 -0.71875 -0.75q-0.265625 -0.5 -0.265625 -1.015625q0 -0.53125 0.265625 -1.015625q0.265625 -0.5 0.71875 -0.765625q0.46875 -0.265625 0.984375 -0.265625q0.953125 0 1.625 0.875l0 -2.078125l-0.5 0q-0.140625 0 -0.203125 -0.046875q-0.046875 -0.0625 -0.046875 -0.140625q0 -0.078125 0.046875 -0.125q0.0625 -0.0625 0.203125 -0.0625l0.875 0zm-0.375 3.625q0 -0.703125 -0.484375 -1.1875q-0.46875 -0.484375 -1.125 -0.484375q-0.65625 0 -1.140625 0.484375q-0.46875 0.484375 -0.46875 1.1875q0 0.6875 0.46875 1.1875q0.484375 0.484375 1.140625 0.484375q0.65625 0 1.125 -0.484375q0.484375 -0.5 0.484375 -1.1875zm3.525879 -1.921875l0 0.9375q0.71875 -0.65625 1.078125 -0.828125q0.359375 -0.1875 0.65625 -0.1875q0.328125 0 0.609375 0.21875q0.28125 0.21875 0.28125 0.328125q0 0.09375 -0.0625 0.15625q-0.046875 0.046875 -0.125 0.046875q-0.046875 0 -0.078125 -0.015625q-0.03125 -0.015625 -0.109375 -0.109375q-0.15625 -0.15625 -0.28125 -0.203125q-0.109375 -0.0625 -0.21875 -0.0625q-0.234375 0 -0.578125 0.203125q-0.34375 0.1875 -1.171875 0.9375l0 2.015625l1.625 0q0.140625 0 0.1875 0.0625q0.0625 0.046875 0.0625 0.125q0 0.078125 -0.0625 0.140625q-0.046875 0.046875 -0.1875 0.046875l-2.890625 0q-0.140625 0 -0.203125 -0.046875q-0.046875 -0.046875 -0.046875 -0.140625q0 -0.0625 0.046875 -0.109375q0.0625 -0.0625 0.203125 -0.0625l0.890625 0l0 -3.078125l-0.6875 0q-0.125 0 -0.1875 -0.046875q-0.046875 -0.046875 -0.046875 -0.140625q0 -0.078125 0.046875 -0.125q0.0625 -0.0625 0.1875 -0.0625l1.0625 0zm7.838379 2.0l-3.765625 0q0.09375 0.71875 0.59375 1.15625q0.515625 0.4375 1.25 0.4375q0.40625 0 0.859375 -0.140625q0.453125 -0.140625 0.75 -0.359375q0.078125 -0.0625 0.140625 -0.0625q0.0625 0 0.109375 0.0625q0.0625 0.046875 0.0625 0.109375q0 0.078125 -0.0625 0.15625q-0.21875 0.21875 -0.765625 0.40625q-0.53125 0.1875 -1.09375 0.1875q-0.953125 0 -1.59375 -0.609375q-0.625 -0.625 -0.625 -1.515625q0 -0.796875 0.59375 -1.375q0.59375 -0.578125 1.46875 -0.578125q0.90625 0 1.484375 0.59375q0.59375 0.59375 0.59375 1.53125zm-0.375 -0.375q-0.109375 -0.609375 -0.578125 -0.984375q-0.46875 -0.390625 -1.125 -0.390625q-0.640625 0 -1.109375 0.375q-0.453125 0.375 -0.578125 1.0l3.390625 0zm4.994629 -1.375q0 -0.125 0.046875 -0.1875q0.0625 -0.0625 0.140625 -0.0625q0.078125 0 0.125 0.0625q0.0625 0.0625 0.0625 0.1875l0 0.640625q0 0.125 -0.0625 0.1875q-0.046875 0.0625 -0.125 0.0625q-0.078125 0 -0.140625 -0.046875q-0.046875 -0.046875 -0.046875 -0.171875q-0.03125 -0.25 -0.28125 -0.421875q-0.359375 -0.25 -0.953125 -0.25q-0.609375 0 -0.953125 0.25q-0.265625 0.1875 -0.265625 0.421875q0 0.265625 0.3125 0.4375q0.203125 0.125 0.796875 0.1875q0.765625 0.078125 1.0625 0.1875q0.4375 0.15625 0.640625 0.4375q0.203125 0.265625 0.203125 0.578125q0 0.46875 -0.453125 0.84375q-0.4375 0.359375 -1.3125 0.359375q-0.875 0 -1.4375 -0.4375q0 0.140625 -0.015625 0.1875q-0.015625 0.046875 -0.0625 0.078125q-0.046875 0.03125 -0.109375 0.03125q-0.078125 0 -0.140625 -0.046875q-0.046875 -0.0625 -0.046875 -0.203125l0 -0.75q0 -0.140625 0.046875 -0.1875q0.0625 -0.0625 0.140625 -0.0625q0.078125 0 0.125 0.0625q0.0625 0.046875 0.0625 0.140625q0 0.203125 0.109375 0.328125q0.140625 0.21875 0.46875 0.359375q0.34375 0.140625 0.84375 0.140625q0.71875 0 1.0625 -0.265625q0.359375 -0.28125 0.359375 -0.578125q0 -0.34375 -0.359375 -0.546875q-0.359375 -0.203125 -1.046875 -0.265625q-0.6875 -0.078125 -0.984375 -0.1875q-0.296875 -0.125 -0.46875 -0.34375q-0.171875 -0.234375 -0.171875 -0.5q0 -0.46875 0.46875 -0.75q0.46875 -0.28125 1.109375 -0.28125q0.765625 0 1.25 0.375zm5.400879 0q0 -0.125 0.046875 -0.1875q0.0625 -0.0625 0.140625 -0.0625q0.078125 0 0.125 0.0625q0.0625 0.0625 0.0625 0.1875l0 0.640625q0 0.125 -0.0625 0.1875q-0.046875 0.0625 -0.125 0.0625q-0.078125 0 -0.140625 -0.046875q-0.046875 -0.046875 -0.046875 -0.171875q-0.03125 -0.25 -0.28125 -0.421875q-0.359375 -0.25 -0.953125 -0.25q-0.609375 0 -0.953125 0.25q-0.265625 0.1875 -0.265625 0.421875q0 0.265625 0.3125 0.4375q0.203125 0.125 0.796875 0.1875q0.765625 0.078125 1.0625 0.1875q0.4375 0.15625 0.640625 0.4375q0.203125 0.265625 0.203125 0.578125q0 0.46875 -0.453125 0.84375q-0.4375 0.359375 -1.3125 0.359375q-0.875 0 -1.4375 -0.4375q0 0.140625 -0.015625 0.1875q-0.015625 0.046875 -0.0625 0.078125q-0.046875 0.03125 -0.109375 0.03125q-0.078125 0 -0.140625 -0.046875q-0.046875 -0.0625 -0.046875 -0.203125l0 -0.75q0 -0.140625 0.046875 -0.1875q0.0625 -0.0625 0.140625 -0.0625q0.078125 0 0.125 0.0625q0.0625 0.046875 0.0625 0.140625q0 0.203125 0.109375 0.328125q0.140625 0.21875 0.46875 0.359375q0.34375 0.140625 0.84375 0.140625q0.71875 0 1.0625 -0.265625q0.359375 -0.28125 0.359375 -0.578125q0 -0.34375 -0.359375 -0.546875q-0.359375 -0.203125 -1.046875 -0.265625q-0.6875 -0.078125 -0.984375 -0.1875q-0.296875 -0.125 -0.46875 -0.34375q-0.171875 -0.234375 -0.171875 -0.5q0 -0.46875 0.46875 -0.75q0.46875 -0.28125 1.109375 -0.28125q0.765625 0 1.25 0.375z" fill-rule="nonzero"/><path fill="#ebe3fd" d="m279.7429 36.61857l0 23.653542l21.937012 0l-10.753296 -11.611549l10.753296 -12.041992z" fill-rule="evenodd"/><path stroke="#8b6bda" stroke-width="1.0" stroke-linejoin="round" stroke-linecap="butt" d="m279.7429 36.61857l0 23.653542l21.937012 0l-10.753296 -11.611549l10.753296 -12.041992z" fill-rule="evenodd"/><path fill="#cfe2f3" d="m242.28357 140.14923l0 0c0 -15.664009 12.204651 -28.362198 27.259857 -28.362198l0 0c7.2297363 0 14.163391 2.9881516 19.275604 8.307098c5.112213 5.318939 7.9842224 12.532974 7.9842224 20.0551l0 0c0 15.664017 -12.204651 28.362213 -27.259827 28.362213l0 0c-15.055206 0 -27.259857 -12.698196 -27.259857 -28.362213z" fill-rule="evenodd"/><path stroke="#4e8aeb" stroke-width="1.0" stroke-linejoin="round" stroke-linecap="butt" d="m242.28357 140.14923l0 0c0 -15.664009 12.204651 -28.362198 27.259857 -28.362198l0 0c7.2297363 0 14.163391 2.9881516 19.275604 8.307098c5.112213 5.318939 7.9842224 12.532974 7.9842224 20.0551l0 0c0 15.664017 -12.204651 28.362213 -27.259827 28.362213l0 0c-15.055206 0 -27.259857 -12.698196 -27.259857 -28.362213z" fill-rule="evenodd"/><path fill="#cfe2f3" d="m286.40402 148.92735l0 0c-3.8216858 8.244156 -12.474274 12.67598 -20.972717 10.742157c-8.498474 -1.9338074 -14.653793 -9.735168 -14.9197235 -18.909454c-0.26593018 -9.174286 5.4260406 -17.358437 13.796585 -19.837303c8.370544 -2.4788666 17.26361 1.3860474 21.555634 9.36805l-8.601105 5.1553497c-1.9510803 -4.07251 -6.1505127 -6.1087646 -10.141632 -4.9175873c-3.99115 1.1911774 -6.7253723 5.296829 -6.6032104 9.915176c0.12219238 4.6183624 3.0686646 8.53598 7.1157837 9.461121c4.0471497 0.9251404 8.131561 -1.3852844 9.863922 -5.579712z" fill-rule="evenodd"/><path stroke="#4e8aeb" stroke-width="1.0" stroke-linejoin="round" stroke-linecap="butt" d="m286.40402 148.92735l0 0c-3.8216858 8.244156 -12.474274 12.67598 -20.972717 10.742157c-8.498474 -1.9338074 -14.653793 -9.735168 -14.9197235 -18.909454c-0.26593018 -9.174286 5.4260406 -17.358437 13.796585 -19.837303c8.370544 -2.4788666 17.26361 1.3860474 21.555634 9.36805l-8.601105 5.1553497c-1.9510803 -4.07251 -6.1505127 -6.1087646 -10.141632 -4.9175873c-3.99115 1.1911774 -6.7253723 5.296829 -6.6032104 9.915176c0.12219238 4.6183624 3.0686646 8.53598 7.1157837 9.461121c4.0471497 0.9251404 8.131561 -1.3852844 9.863922 -5.579712z" fill-rule="evenodd"/><path fill="#000000" fill-opacity="0.0" d="m221.9223 170.78871l95.24411 0l0 20.850403l-95.24411 0z" fill-rule="evenodd"/><path fill="#000000" d="m250.00334 183.9831l0 4.390625l2.453125 0l0 -1.46875q0 -0.125 0.046875 -0.171875q0.0625 -0.0625 0.140625 -0.0625q0.078125 0 0.125 0.0625q0.0625 0.046875 0.0625 0.171875l0 1.84375l-4.078125 0q-0.140625 0 -0.203125 -0.046875q-0.046875 -0.0625 -0.046875 -0.140625q0 -0.078125 0.046875 -0.125q0.0625 -0.0625 0.203125 -0.0625l0.875 0l0 -4.390625l-0.875 0q-0.140625 0 -0.203125 -0.046875q-0.046875 -0.0625 -0.046875 -0.140625q0 -0.09375 0.046875 -0.140625q0.0625 -0.046875 0.203125 -0.046875l2.125 0q0.140625 0 0.1875 0.046875q0.0625 0.046875 0.0625 0.140625q0 0.078125 -0.0625 0.140625q-0.046875 0.046875 -0.1875 0.046875l-0.875 0zm8.103989 2.875q0 0.84375 -0.609375 1.4375q-0.59375 0.59375 -1.453125 0.59375q-0.85935974 0 -1.4687347 -0.59375q-0.59375 -0.609375 -0.59375 -1.4375q0 -0.84375 0.59375 -1.4375q0.609375 -0.609375 1.4687347 -0.609375q0.859375 0 1.453125 0.59375q0.609375 0.59375 0.609375 1.453125zm-0.375 0q0 -0.703125 -0.5 -1.1875q-0.484375 -0.484375 -1.1875 -0.484375q-0.70310974 0 -1.2031097 0.5q-0.5 0.484375 -0.5 1.171875q0 0.6875 0.5 1.1875q0.5 0.484375 1.2031097 0.484375q0.703125 0 1.1875 -0.484375q0.5 -0.5 0.5 -1.1875zm5.244629 -1.546875l0 -0.125q0 -0.125 0.046875 -0.1875q0.0625 -0.0625 0.140625 -0.0625q0.09375 0 0.140625 0.0625q0.046875 0.0625 0.046875 0.1875l0 0.84375q0 0.140625 -0.046875 0.203125q-0.046875 0.046875 -0.140625 0.046875q-0.078125 0 -0.125 -0.046875q-0.046875 -0.0625 -0.0625 -0.171875q-0.015625 -0.3125 -0.40625 -0.59375q-0.375 -0.28125 -1.03125 -0.28125q-0.828125 0 -1.25 0.515625q-0.421875 0.515625 -0.421875 1.171875q0 0.71875 0.46875 1.1875q0.46875 0.46875 1.21875 0.46875q0.421875 0 0.859375 -0.15625q0.453125 -0.171875 0.8125 -0.515625q0.09375 -0.09375 0.171875 -0.09375q0.078125 0 0.125 0.0625q0.046875 0.046875 0.046875 0.125q0 0.1875 -0.4375 0.46875q-0.71875 0.46875 -1.59375 0.46875q-0.890625 0 -1.46875 -0.5625q-0.578125 -0.578125 -0.578125 -1.453125q0 -0.890625 0.578125 -1.46875q0.59375 -0.59375 1.484375 -0.59375q0.859375 0 1.421875 0.5zm4.932129 3.4375l0 -0.53125q-0.8125 0.671875 -1.71875 0.671875q-0.671875 0 -1.046875 -0.328125q-0.359375 -0.34375 -0.359375 -0.828125q0 -0.53125 0.484375 -0.921875q0.5 -0.40625 1.4375 -0.40625q0.25 0 0.546875 0.03125q0.3125 0.03125 0.65625 0.09375l0 -0.59375q0 -0.296875 -0.28125 -0.515625q-0.28125 -0.234375 -0.84375 -0.234375q-0.4375 0 -1.21875 0.25q-0.140625 0.046875 -0.171875 0.046875q-0.078125 0 -0.125 -0.046875q-0.046875 -0.0625 -0.046875 -0.140625q0 -0.078125 0.046875 -0.125q0.0625 -0.0625 0.5 -0.171875q0.671875 -0.1875 1.03125 -0.1875q0.703125 0 1.09375 0.34375q0.390625 0.34375 0.390625 0.78125l0 2.4375l0.484375 0q0.140625 0 0.1875 0.0625q0.0625 0.046875 0.0625 0.125q0 0.078125 -0.0625 0.140625q-0.046875 0.046875 -0.1875 0.046875l-0.859375 0zm0 -1.84375q-0.265625 -0.0625 -0.5625 -0.09375q-0.28125 -0.046875 -0.59375 -0.046875q-0.8125 0 -1.265625 0.34375q-0.34375 0.265625 -0.34375 0.625q0 0.328125 0.265625 0.5625q0.265625 0.234375 0.765625 0.234375q0.46875 0 0.875 -0.1875q0.421875 -0.203125 0.859375 -0.625l0 -0.8125zm3.572754 -1.96875l2.015625 0q0.125 0 0.171875 0.0625q0.0625 0.046875 0.0625 0.140625q0 0.078125 -0.0625 0.125q-0.046875 0.046875 -0.171875 0.046875l-2.015625 0l0 2.46875q0 0.3125 0.25 0.53125q0.265625 0.21875 0.765625 0.21875q0.375 0 0.8125 -0.109375q0.4375 -0.125 0.671875 -0.265625q0.09375 -0.046875 0.140625 -0.046875q0.078125 0 0.125 0.0625q0.0625 0.046875 0.0625 0.109375q0 0.078125 -0.0625 0.125q-0.140625 0.15625 -0.6875 0.328125q-0.546875 0.15625 -1.03125 0.15625q-0.65625 0 -1.046875 -0.296875q-0.375 -0.3125 -0.375 -0.8125l0 -2.46875l-0.671875 0q-0.140625 0 -0.203125 -0.046875q-0.046875 -0.046875 -0.046875 -0.140625q0 -0.078125 0.046875 -0.125q0.0625 -0.0625 0.203125 -0.0625l0.671875 0l0 -1.078125q0 -0.140625 0.046875 -0.1875q0.0625 -0.0625 0.140625 -0.0625q0.09375 0 0.140625 0.0625q0.046875 0.046875 0.046875 0.1875l0 1.078125zm6.354004 -1.890625l0 0.953125l-0.546875 0l0 -0.953125l0.546875 0zm0 1.890625l0 3.4375l1.453125 0q0.140625 0 0.1875 0.0625q0.0625 0.046875 0.0625 0.125q0 0.078125 -0.0625 0.140625q-0.046875 0.046875 -0.1875 0.046875l-3.265625 0q-0.140625 0 -0.203125 -0.046875q-0.046875 -0.0625 -0.046875 -0.140625q0 -0.078125 0.046875 -0.125q0.0625 -0.0625 0.203125 -0.0625l1.453125 0l0 -3.0625l-1.078125 0q-0.140625 0 -0.203125 -0.046875q-0.046875 -0.046875 -0.046875 -0.125q0 -0.09375 0.046875 -0.140625q0.0625 -0.0625 0.203125 -0.0625l1.4375 0zm7.275879 1.921875q0 0.84375 -0.609375 1.4375q-0.59375 0.59375 -1.453125 0.59375q-0.859375 0 -1.46875 -0.59375q-0.59375 -0.609375 -0.59375 -1.4375q0 -0.84375 0.59375 -1.4375q0.609375 -0.609375 1.46875 -0.609375q0.859375 0 1.453125 0.59375q0.609375 0.59375 0.609375 1.453125zm-0.375 0q0 -0.703125 -0.5 -1.1875q-0.484375 -0.484375 -1.1875 -0.484375q-0.703125 0 -1.203125 0.5q-0.5 0.484375 -0.5 1.171875q0 0.6875 0.5 1.1875q0.5 0.484375 1.203125 0.484375q0.703125 0 1.1875 -0.484375q0.5 -0.5 0.5 -1.1875zm2.510254 -1.921875l0 0.5625q0.390625 -0.390625 0.703125 -0.53125q0.3125 -0.15625 0.703125 -0.15625q0.421875 0 0.765625 0.1875q0.25 0.125 0.453125 0.4375q0.203125 0.296875 0.203125 0.625l0 2.3125l0.3125 0q0.125 0 0.171875 0.0625q0.0625 0.046875 0.0625 0.125q0 0.078125 -0.0625 0.140625q-0.046875 0.046875 -0.171875 0.046875l-1.0 0q-0.125 0 -0.1875 -0.046875q-0.0625 -0.0625 -0.0625 -0.140625q0 -0.078125 0.0625 -0.125q0.0625 -0.0625 0.1875 -0.0625l0.3125 0l0 -2.25q0 -0.40625 -0.28125 -0.671875q-0.28125 -0.265625 -0.765625 -0.265625q-0.359375 0 -0.640625 0.15625q-0.265625 0.140625 -0.765625 0.71875l0 2.3125l0.421875 0q0.140625 0 0.1875 0.0625q0.0625 0.046875 0.0625 0.125q0 0.078125 -0.0625 0.140625q-0.046875 0.046875 -0.1875 0.046875l-1.203125 0q-0.125 0 -0.1875 -0.046875q-0.0625 -0.0625 -0.0625 -0.140625q0 -0.078125 0.0625 -0.125q0.0625 -0.0625 0.1875 -0.0625l0.421875 0l0 -3.0625l-0.3125 0q-0.140625 0 -0.203125 -0.046875q-0.046875 -0.046875 -0.046875 -0.140625q0 -0.078125 0.046875 -0.125q0.0625 -0.0625 0.203125 -0.0625l0.671875 0z" fill-rule="nonzero"/><path fill="#ebe3fd" d="m279.74158 147.66629l0 23.65355l21.937012 0l-10.753296 -11.611542l10.753296 -12.042007z" fill-rule="evenodd"/><path stroke="#8b6bda" stroke-width="1.0" stroke-linejoin="round" stroke-linecap="butt" d="m279.74158 147.66629l0 23.65355l21.937012 0l-10.753296 -11.611542l10.753296 -12.042007z" fill-rule="evenodd"/><path fill="#000000" fill-opacity="0.0" d="m74.943596 95.82113l28.44094 0.62992096" fill-rule="evenodd"/><path stroke="#000000" stroke-width="1.0" stroke-linejoin="round" stroke-linecap="butt" d="m80.570496 95.94576l22.814041 0.5052948" fill-rule="evenodd"/><path fill="#000000" stroke="#000000" stroke-width="1.0" stroke-linecap="butt" d="m80.57049 95.94576l-2.3408127 -1.7175446l-2.4145737 1.6122208l2.3408203 1.7175369z" fill-rule="evenodd"/><path fill="#000000" fill-opacity="0.0" d="m223.09055 111.83321l0 28.314964l19.181107 0" fill-rule="evenodd"/><path stroke="#000000" stroke-width="1.0" stroke-linejoin="round" stroke-linecap="butt" d="m223.09055 111.83321l0 28.314964l19.181107 0" fill-rule="evenodd"/><path fill="#000000" fill-opacity="0.0" d="m242.28488 29.101507l-52.0 0l0 51.685036" fill-rule="evenodd"/><path stroke="#000000" stroke-width="1.0" stroke-linejoin="round" stroke-linecap="butt" d="m242.28488 29.101507l-52.0 0l0 51.685036" fill-rule="evenodd"/></g></svg>