<svg version="1.1" viewBox="0.0 0.0 317.1023622047244 192.3779527559055" fill="none" stroke="none" stroke-linecap="square" stroke-miterlimit="10" xmlns:xlink="http://www.w3.org/1999/xlink" xmlns="http://www.w3.org/2000/svg"><clipPath id="p.0"><path d="m0 0l317.10236 0l0 192.37796l-317.10236 0l0 -192.37796z" clip-rule="nonzero"/></clipPath><g clip-path="url(#p.0)"><path fill="#000000" fill-opacity="0.0" d="m0 0l317.10236 0l0 192.37796l-317.10236 0z" fill-rule="evenodd"/><path fill="#cfe2f3" d="m20.488214 29.36575l0 0c0 -15.664013 12.204645 -28.362204 27.259844 -28.362204l0 0c7.229759 0 14.163406 2.988152 19.275616 8.307097c5.112213 5.318945 7.9842224 12.532984 7.9842224 20.055107l0 0c0 15.664013 -12.204643 28.362206 -27.259838 28.362206l0 0c-15.055199 0 -27.259844 -12.698193 -27.259844 -28.362206z" fill-rule="evenodd"/><path stroke="#4e8aeb" stroke-width="1.0" stroke-linejoin="round" stroke-linecap="butt" d="m20.488214 29.36575l0 0c0 -15.664013 12.204645 -28.362204 27.259844 -28.362204l0 0c7.229759 0 14.163406 2.988152 19.275616 8.307097c5.112213 5.318945 7.9842224 12.532984 7.9842224 20.055107l0 0c0 15.664013 -12.204643 28.362206 -27.259838 28.362206l0 0c-15.055199 0 -27.259844 -12.698193 -27.259844 -28.362206z" fill-rule="evenodd"/><path fill="#cfe2f3" d="m64.60866 38.143867l0 0c-3.8216858 8.244152 -12.47427 12.675976 -20.972721 10.742161c-8.498451 -1.9338188 -14.653784 -9.735176 -14.919712 -18.909462c-0.26592827 -9.174288 5.4260406 -17.358437 13.796589 -19.837303c8.370544 -2.4788642 17.263618 1.3860502 21.555645 9.368045l-8.601131 5.1553555c-1.9510803 -4.07251 -6.15049 -6.1087666 -10.141632 -4.9175854c-3.9911423 1.1911793 -6.7253685 5.2968216 -6.6031914 9.915178c0.122177124 4.6183567 3.068653 8.535982 7.1157837 9.461119c4.047127 0.92513657 8.13155 -1.385292 9.86393 -5.5797157z" fill-rule="evenodd"/><path stroke="#4e8aeb" stroke-width="1.0" stroke-linejoin="round" stroke-linecap="butt" d="m64.60866 38.143867l0 0c-3.8216858 8.244152 -12.47427 12.675976 -20.972721 10.742161c-8.498451 -1.9338188 -14.653784 -9.735176 -14.919712 -18.909462c-0.26592827 -9.174288 5.4260406 -17.358437 13.796589 -19.837303c8.370544 -2.4788642 17.263618 1.3860502 21.555645 9.368045l-8.601131 5.1553555c-1.9510803 -4.07251 -6.15049 -6.1087666 -10.141632 -4.9175854c-3.9911423 1.1911793 -6.7253685 5.2968216 -6.6031914 9.915178c0.122177124 4.6183567 3.068653 8.535982 7.1157837 9.461119c4.047127 0.92513657 8.13155 -1.385292 9.86393 -5.5797157z" fill-rule="evenodd"/><path fill="#000000" fill-opacity="0.0" d="m-3.4120734E-5 60.68157l95.24409 0l0 20.850391l-95.24409 0z" fill-rule="evenodd"/><path fill="#000000" d="m12.753361 77.09469l-0.421875 0l-1.40625 -3.21875l-0.078125 0l0 4.390625l0.6875 0q0.125 0 0.171875 0.0625q0.0625 0.046875 0.0625 0.125q0 0.078125 -0.0625 0.140625q-0.046875 0.046875 -0.171875 0.046875l-1.359375 0q-0.140625 0 -0.203125 -0.046875q-0.046875 -0.0625 -0.046875 -0.140625q0 -0.078125 0.046875 -0.125q0.0625 -0.0625 0.203125 -0.0625l0.296875 0l0 -4.390625l-0.21875 0q-0.140625 0 -0.203125 -0.046875q-0.046875 -0.0625 -0.046875 -0.140625q0 -0.09375 0.046875 -0.140625q0.0625 -0.046875 0.203125 -0.046875l0.90625 0l1.390625 3.1875l1.375 -3.1875l0.90625 0q0.140625 0 0.1875 0.046875q0.0625 0.046875 0.0625 0.140625q0 0.078125 -0.0625 0.140625q-0.046875 0.046875 -0.1875 0.046875l-0.234375 0l0 4.390625l0.3125 0q0.140625 0 0.1875 0.0625q0.0625 0.046875 0.0625 0.125q0 0.078125 -0.0625 0.140625q-0.046875 0.046875 -0.1875 0.046875l-1.359375 0q-0.125 0 -0.1875 -0.046875q-0.0625 -0.0625 -0.0625 -0.140625q0 -0.078125 0.046875 -0.125q0.0625 -0.0625 0.203125 -0.0625l0.6875 0l0 -4.390625l-0.078125 0l-1.40625 3.21875zm6.229004 1.546875l0 -0.53125q-0.8125 0.671875 -1.71875 0.671875q-0.671875 0 -1.046875 -0.328125q-0.359375 -0.34375 -0.359375 -0.828125q0 -0.53125 0.484375 -0.921875q0.5 -0.40625 1.4375 -0.40625q0.25 0 0.546875 0.03125q0.3125 0.03125 0.65625 0.09375l0 -0.59375q0 -0.296875 -0.28125 -0.515625q-0.28125 -0.234375 -0.84375 -0.234375q-0.4375 0 -1.21875 0.25q-0.140625 0.046875 -0.171875 0.046875q-0.078125 0 -0.125 -0.046875q-0.046875 -0.0625 -0.046875 -0.140625q0 -0.078125 0.046875 -0.125q0.0625 -0.0625 0.5 -0.171875q0.671875 -0.1875 1.03125 -0.1875q0.703125 0 1.09375 0.34375q0.390625 0.34375 0.390625 0.78125l0 2.4375l0.484375 0q0.140625 0 0.1875 0.0625q0.0625 0.046875 0.0625 0.125q0 0.078125 -0.0625 0.140625q-0.046875 0.046875 -0.1875 0.046875l-0.859375 0zm0 -1.84375q-0.265625 -0.0625 -0.5625 -0.09375q-0.28125 -0.046875 -0.59375 -0.046875q-0.8125 0 -1.265625 0.34375q-0.34375 0.265625 -0.34375 0.625q0 0.328125 0.265625 0.5625q0.265625 0.234375 0.765625 0.234375q0.46875 0 0.875 -0.1875q0.421875 -0.203125 0.859375 -0.625l0 -0.8125zm4.525879 -3.859375l0 0.953125l-0.546875 0l0 -0.953125l0.546875 0zm0 1.890625l0 3.4375l1.453125 0q0.140625 0 0.1875 0.0625q0.0625 0.046875 0.0625 0.125q0 0.078125 -0.0625 0.140625q-0.046875 0.046875 -0.1875 0.046875l-3.265625 0q-0.140625 0 -0.203125 -0.046875q-0.046875 -0.0625 -0.046875 -0.140625q0 -0.078125 0.046875 -0.125q0.0625 -0.0625 0.203125 -0.0625l1.453125 0l0 -3.0625l-1.078125 0q-0.140625 0 -0.203125 -0.046875q-0.046875 -0.046875 -0.046875 -0.125q0 -0.09375 0.046875 -0.140625q0.0625 -0.0625 0.203125 -0.0625l1.4375 0zm4.010254 0l0 0.5625q0.390625 -0.390625 0.703125 -0.53125q0.3125 -0.15625 0.703125 -0.15625q0.421875 0 0.765625 0.1875q0.25 0.125 0.453125 0.4375q0.203125 0.296875 0.203125 0.625l0 2.3125l0.3125 0q0.125 0 0.171875 0.0625q0.0625 0.046875 0.0625 0.125q0 0.078125 -0.0625 0.140625q-0.046875 0.046875 -0.171875 0.046875l-1.0 0q-0.125 0 -0.1875 -0.046875q-0.0625 -0.0625 -0.0625 -0.140625q0 -0.078125 0.0625 -0.125q0.0625 -0.0625 0.1875 -0.0625l0.3125 0l0 -2.25q0 -0.40625 -0.28125 -0.671875q-0.28125 -0.265625 -0.765625 -0.265625q-0.359375 0 -0.640625 0.15625q-0.265625 0.140625 -0.765625 0.71875l0 2.3125l0.421875 0q0.140625 0 0.1875 0.0625q0.0625 0.046875 0.0625 0.125q0 0.078125 -0.0625 0.140625q-0.046875 0.046875 -0.1875 0.046875l-1.203125 0q-0.125 0 -0.1875 -0.046875q-0.0625 -0.0625 -0.0625 -0.140625q0 -0.078125 0.0625 -0.125q0.0625 -0.0625 0.1875 -0.0625l0.421875 0l0 -3.0625l-0.3125 0q-0.140625 0 -0.203125 -0.046875q-0.046875 -0.046875 -0.046875 -0.140625q0 -0.078125 0.046875 -0.125q0.0625 -0.0625 0.203125 -0.0625l0.671875 0zm5.400879 1.515625l0 1.921875l0.6875 0q0.125 0 0.1875 0.0625q0.0625 0.046875 0.0625 0.125q0 0.078125 -0.0625 0.140625q-0.0625 0.046875 -0.1875 0.046875l-1.546875 0q-0.140625 0 -0.203125 -0.046875q-0.046875 -0.0625 -0.046875 -0.140625q0 -0.078125 0.046875 -0.125q0.0625 -0.0625 0.203125 -0.0625l0.484375 0l0 -4.390625l-0.484375 0q-0.140625 0 -0.203125 -0.046875q-0.046875 -0.0625 -0.046875 -0.140625q0 -0.09375 0.046875 -0.140625q0.0625 -0.046875 0.203125 -0.046875l2.21875 0q0.703125 0 1.171875 0.4375q0.46875 0.4375 0.46875 0.984375q0 0.390625 -0.296875 0.75q-0.28125 0.34375 -0.96875 0.578125q0.390625 0.265625 0.671875 0.609375q0.28125 0.34375 0.90625 1.40625l0.28125 0q0.125 0 0.171875 0.0625q0.0625 0.046875 0.0625 0.125q0 0.078125 -0.0625 0.140625q-0.046875 0.046875 -0.171875 0.046875l-0.5 0q-0.6875 -1.21875 -1.0625 -1.640625q-0.375 -0.421875 -0.859375 -0.65625l-1.171875 0zm0 -0.359375l1.0 0q0.484375 0 0.875 -0.171875q0.40625 -0.1875 0.578125 -0.421875q0.171875 -0.234375 0.171875 -0.484375q0 -0.375 -0.375 -0.703125q-0.359375 -0.328125 -0.890625 -0.328125l-1.359375 0l0 2.109375zm8.604004 0.84375l-3.765625 0q0.09375 0.71875 0.59375 1.15625q0.515625 0.4375 1.25 0.4375q0.40625 0 0.859375 -0.140625q0.453125 -0.140625 0.75 -0.359375q0.078125 -0.0625 0.140625 -0.0625q0.0625 0 0.109375 0.0625q0.0625 0.046875 0.0625 0.109375q0 0.078125 -0.0625 0.15625q-0.21875 0.21875 -0.765625 0.40625q-0.53125 0.1875 -1.09375 0.1875q-0.953125 0 -1.59375 -0.609375q-0.625 -0.625 -0.625 -1.515625q0 -0.796875 0.59375 -1.375q0.59375 -0.578125 1.46875 -0.578125q0.90625 0 1.484375 0.59375q0.59375 0.59375 0.59375 1.53125zm-0.375 -0.375q-0.109375 -0.609375 -0.578125 -0.984375q-0.46875 -0.390625 -1.125 -0.390625q-0.640625 0 -1.109375 0.375q-0.453125 0.375 -0.578125 1.0l3.390625 0zm2.385254 -1.625l0 0.671875q0.328125 -0.390625 0.703125 -0.59375q0.375 -0.203125 0.890625 -0.203125q0.546875 0 1.0 0.265625q0.46875 0.25 0.71875 0.703125q0.25 0.453125 0.25 0.953125q0 0.796875 -0.5625 1.359375q-0.5625 0.5625 -1.40625 0.5625q-0.984375 0 -1.59375 -0.796875l0 2.21875l0.890625 0q0.140625 0 0.1875 0.046875q0.0625 0.046875 0.0625 0.140625q0 0.078125 -0.0625 0.125q-0.046875 0.0625 -0.1875 0.0625l-1.765625 0q-0.125 0 -0.1875 -0.0625q-0.046875 -0.046875 -0.046875 -0.125q0 -0.09375 0.046875 -0.140625q0.0625 -0.046875 0.1875 -0.046875l0.5 0l0 -4.765625l-0.5 0q-0.125 0 -0.1875 -0.046875q-0.046875 -0.046875 -0.046875 -0.140625q0 -0.078125 0.046875 -0.125q0.0625 -0.0625 0.1875 -0.0625l0.875 0zm3.203125 1.796875q0 -0.640625 -0.46875 -1.09375q-0.46875 -0.453125 -1.140625 -0.453125q-0.671875 0 -1.140625 0.453125q-0.453125 0.453125 -0.453125 1.09375q0 0.640625 0.453125 1.09375q0.46875 0.453125 1.140625 0.453125q0.671875 0 1.140625 -0.453125q0.46875 -0.453125 0.46875 -1.09375zm5.650879 0.125q0 0.84375 -0.609375 1.4375q-0.59375 0.59375 -1.453125 0.59375q-0.859375 0 -1.46875 -0.59375q-0.59375 -0.609375 -0.59375 -1.4375q0 -0.84375 0.59375 -1.4375q0.609375 -0.609375 1.46875 -0.609375q0.859375 0 1.453125 0.59375q0.609375 0.59375 0.609375 1.453125zm-0.375 0q0 -0.703125 -0.5 -1.1875q-0.484375 -0.484375 -1.1875 -0.484375q-0.703125 0 -1.203125 0.5q-0.5 0.484375 -0.5 1.171875q0 0.6875 0.5 1.1875q0.5 0.484375 1.203125 0.484375q0.703125 0 1.1875 -0.484375q0.5 -0.5 0.5 -1.1875zm4.932129 -1.671875q0 -0.125 0.046875 -0.1875q0.0625 -0.0625 0.140625 -0.0625q0.078125 0 0.125 0.0625q0.0625 0.0625 0.0625 0.1875l0 0.640625q0 0.125 -0.0625 0.1875q-0.046875 0.0625 -0.125 0.0625q-0.078125 0 -0.140625 -0.046875q-0.046875 -0.046875 -0.046875 -0.171875q-0.03125 -0.25 -0.28125 -0.421875q-0.359375 -0.25 -0.953125 -0.25q-0.609375 0 -0.953125 0.25q-0.265625 0.1875 -0.265625 0.421875q0 0.265625 0.3125 0.4375q0.203125 0.125 0.796875 0.1875q0.765625 0.078125 1.0625 0.1875q0.4375 0.15625 0.640625 0.4375q0.203125 0.265625 0.203125 0.578125q0 0.46875 -0.453125 0.84375q-0.4375 0.359375 -1.3125 0.359375q-0.875 0 -1.4375 -0.4375q0 0.140625 -0.015625 0.1875q-0.015625 0.046875 -0.0625 0.078125q-0.046875 0.03125 -0.109375 0.03125q-0.078125 0 -0.140625 -0.046875q-0.046875 -0.0625 -0.046875 -0.203125l0 -0.75q0 -0.140625 0.046875 -0.1875q0.0625 -0.0625 0.140625 -0.0625q0.078125 0 0.125 0.0625q0.0625 0.046875 0.0625 0.140625q0 0.203125 0.109375 0.328125q0.140625 0.21875 0.46875 0.359375q0.34375 0.140625 0.84375 0.140625q0.71875 0 1.0625 -0.265625q0.359375 -0.28125 0.359375 -0.578125q0 -0.34375 -0.359375 -0.546875q-0.359375 -0.203125 -1.046875 -0.265625q-0.6875 -0.078125 -0.984375 -0.1875q-0.296875 -0.125 -0.46875 -0.34375q-0.171875 -0.234375 -0.171875 -0.5q0 -0.46875 0.46875 -0.75q0.46875 -0.28125 1.109375 -0.28125q0.765625 0 1.25 0.375zm4.369629 -2.140625l0 0.953125l-0.546875 0l0 -0.953125l0.546875 0zm0 1.890625l0 3.4375l1.453125 0q0.140625 0 0.1875 0.0625q0.0625 0.046875 0.0625 0.125q0 0.078125 -0.0625 0.140625q-0.046875 0.046875 -0.1875 0.046875l-3.265625 0q-0.140625 0 -0.203125 -0.046875q-0.046875 -0.0625 -0.046875 -0.140625q0 -0.078125 0.046875 -0.125q0.0625 -0.0625 0.203125 -0.0625l1.453125 0l0 -3.0625l-1.078125 0q-0.140625 0 -0.203125 -0.046875q-0.046875 -0.046875 -0.046875 -0.125q0 -0.09375 0.046875 -0.140625q0.0625 -0.0625 0.203125 -0.0625l1.4375 0zm4.4477577 0l2.015625 0q0.125 0 0.171875 0.0625q0.0625 0.046875 0.0625 0.140625q0 0.078125 -0.0625 0.125q-0.046875 0.046875 -0.171875 0.046875l-2.015625 0l0 2.46875q0 0.3125 0.25 0.53125q0.265625 0.21875 0.765625 0.21875q0.375 0 0.8125 -0.109375q0.4375 -0.125 0.671875 -0.265625q0.09375 -0.046875 0.140625 -0.046875q0.078125 0 0.125 0.0625q0.0625 0.046875 0.0625 0.109375q0 0.078125 -0.0625 0.125q-0.140625 0.15625 -0.6875 0.328125q-0.546875 0.15625 -1.03125 0.15625q-0.65625 0 -1.046875 -0.296875q-0.375 -0.3125 -0.375 -0.8125l0 -2.46875l-0.671875 0q-0.140625 0 -0.203125 -0.046875q-0.046875 -0.046875 -0.046875 -0.140625q0 -0.078125 0.046875 -0.125q0.0625 -0.0625 0.203125 -0.0625l0.671875 0l0 -1.078125q0 -0.140625 0.046875 -0.1875q0.0625 -0.0625 0.140625 -0.0625q0.09375 0 0.140625 0.0625q0.046875 0.046875 0.046875 0.1875l0 1.078125zm8.229004 1.921875q0 0.84375 -0.609375 1.4375q-0.59375 0.59375 -1.453125 0.59375q-0.859375 0 -1.46875 -0.59375q-0.59375 -0.609375 -0.59375 -1.4375q0 -0.84375 0.59375 -1.4375q0.609375 -0.609375 1.46875 -0.609375q0.859375 0 1.453125 0.59375q0.609375 0.59375 0.609375 1.453125zm-0.375 0q0 -0.703125 -0.5 -1.1875q-0.484375 -0.484375 -1.1875 -0.484375q-0.703125 0 -1.203125 0.5q-0.5 0.484375 -0.5 1.171875q0 0.6875 0.5 1.1875q0.5 0.484375 1.203125 0.484375q0.703125 0 1.1875 -0.484375q0.5 -0.5 0.5 -1.1875zm3.275879 -1.921875l0 0.9375q0.71875 -0.65625 1.078125 -0.828125q0.359375 -0.1875 0.65625 -0.1875q0.328125 0 0.609375 0.21875q0.28125 0.21875 0.28125 0.328125q0 0.09375 -0.0625 0.15625q-0.046875 0.046875 -0.125 0.046875q-0.046875 0 -0.078125 -0.015625q-0.03125 -0.015625 -0.109375 -0.109375q-0.15625 -0.15625 -0.28125 -0.203125q-0.109375 -0.0625 -0.21875 -0.0625q-0.234375 0 -0.578125 0.203125q-0.34375 0.1875 -1.171875 0.9375l0 2.015625l1.625 0q0.140625 0 0.1875 0.0625q0.0625 0.046875 0.0625 0.125q0 0.078125 -0.0625 0.140625q-0.046875 0.046875 -0.1875 0.046875l-2.890625 0q-0.140625 0 -0.203125 -0.046875q-0.046875 -0.046875 -0.046875 -0.140625q0 -0.0625 0.046875 -0.109375q0.0625 -0.0625 0.203125 -0.0625l0.890625 0l0 -3.078125l-0.6875 0q-0.125 0 -0.1875 -0.046875q-0.046875 -0.046875 -0.046875 -0.140625q0 -0.078125 0.046875 -0.125q0.0625 -0.0625 0.1875 -0.0625l1.0625 0zm5.854004 3.8125l-1.703125 -3.4375l-0.109375 0q-0.140625 0 -0.203125 -0.046875q-0.046875 -0.046875 -0.046875 -0.125q0 -0.0625 0.03125 -0.109375q0.03125 -0.046875 0.0625 -0.0625q0.046875 -0.03125 0.15625 -0.03125l1.0 0q0.140625 0 0.1875 0.0625q0.0625 0.046875 0.0625 0.140625q0 0.078125 -0.0625 0.125q-0.046875 0.046875 -0.1875 0.046875l-0.484375 0l1.5 3.03125l1.484375 -3.03125l-0.5 0q-0.125 0 -0.1875 -0.046875q-0.046875 -0.046875 -0.046875 -0.140625q0 -0.078125 0.046875 -0.125q0.0625 -0.0625 0.1875 -0.0625l1.015625 0q0.125 0 0.1875 0.0625q0.0625 0.046875 0.0625 0.140625q0 0.046875 -0.046875 0.09375q-0.03125 0.046875 -0.078125 0.0625q-0.03125 0.015625 -0.234375 0.015625l-2.34375 4.765625l0.578125 0q0.125 0 0.1875 0.046875q0.0625 0.046875 0.0625 0.140625q0 0.078125 -0.0625 0.125q-0.0625 0.0625 -0.1875 0.0625l-2.125 0q-0.140625 0 -0.203125 -0.0625q-0.046875 -0.046875 -0.046875 -0.125q0 -0.09375 0.046875 -0.140625q0.0625 -0.046875 0.203125 -0.046875l1.15625 0l0.640625 -1.328125z" fill-rule="nonzero"/><path fill="#ebe3fd" d="m57.94622 36.88281l0 23.653545l21.937004 0l-10.753281 -11.611549l10.753281 -12.041996z" fill-rule="evenodd"/><path stroke="#8b6bda" stroke-width="1.0" stroke-linejoin="round" stroke-linecap="butt" d="m57.94622 36.88281l0 23.653545l21.937004 0l-10.753281 -11.611549l10.753281 -12.041996z" fill-rule="evenodd"/><path fill="#000000" fill-opacity="0.0" d="m119.76378 14.082606l77.5748 0l0 30.70866l-77.5748 0z" fill-rule="evenodd"/><path stroke="#000000" stroke-width="1.0" stroke-linejoin="round" stroke-linecap="butt" d="m119.76378 14.082606l77.5748 0l0 30.70866l-77.5748 0z" fill-rule="evenodd"/><path fill="#000000" d="m136.15347 29.933231l0 1.734375l1.265625 0q0.125 0 0.171875 0.0625q0.0625 0.046875 0.0625 0.125q0 0.078125 -0.0625 0.140625q-0.046875 0.046875 -0.171875 0.046875l-2.140625 0q-0.125 0 -0.1875 -0.046875q-0.0625 -0.0625 -0.0625 -0.140625q0 -0.078125 0.0625 -0.125q0.0625 -0.0625 0.1875 -0.0625l0.5 0l0 -4.390625l-0.5 0q-0.125 0 -0.1875 -0.046875q-0.0625 -0.0625 -0.0625 -0.140625q0 -0.09375 0.0625 -0.140625q0.0625 -0.046875 0.1875 -0.046875l2.140625 0q0.765625 0 1.25 0.453125q0.484375 0.4375 0.484375 1.046875q0 0.359375 -0.15625 0.640625q-0.15625 0.28125 -0.375 0.453125q-0.34375 0.234375 -0.6875 0.359375q-0.25 0.078125 -0.640625 0.078125l-1.140625 0zm0 -0.375l1.171875 0q0.40625 0 0.765625 -0.171875q0.359375 -0.1875 0.515625 -0.453125q0.171875 -0.265625 0.171875 -0.53125q0 -0.4375 -0.375 -0.78125q-0.375 -0.34375 -0.9375 -0.34375l-1.3125 0l0 2.28125zm7.260254 2.484375l0 -0.53125q-0.8125 0.671875 -1.71875 0.671875q-0.671875 0 -1.046875 -0.328125q-0.359375 -0.34375 -0.359375 -0.828125q0 -0.53125 0.484375 -0.921875q0.5 -0.40625 1.4375 -0.40625q0.25 0 0.546875 0.03125q0.3125 0.03125 0.65625 0.09375l0 -0.59375q0 -0.296875 -0.28125 -0.515625q-0.28125 -0.234375 -0.84375 -0.234375q-0.4375 0 -1.21875 0.25q-0.140625 0.046875 -0.171875 0.046875q-0.078125 0 -0.125 -0.046875q-0.046875 -0.0625 -0.046875 -0.140625q0 -0.078125 0.046875 -0.125q0.0625 -0.0625 0.5 -0.171875q0.671875 -0.1875 1.03125 -0.1875q0.703125 0 1.09375 0.34375q0.390625 0.34375 0.390625 0.78125l0 2.4375l0.484375 0q0.140625 0 0.1875 0.0625q0.0625 0.046875 0.0625 0.125q0 0.078125 -0.0625 0.140625q-0.046875 0.046875 -0.1875 0.046875l-0.859375 0zm0 -1.84375q-0.265625 -0.0625 -0.5625 -0.09375q-0.28125 -0.046875 -0.59375 -0.046875q-0.8125 0 -1.265625 0.34375q-0.34375 0.265625 -0.34375 0.625q0 0.328125 0.265625 0.5625q0.265625 0.234375 0.765625 0.234375q0.46875 0 0.875 -0.1875q0.421875 -0.203125 0.859375 -0.625l0 -0.8125zm4.525879 -3.859375l0 0.953125l-0.546875 0l0 -0.953125l0.546875 0zm0 1.890625l0 3.4375l1.453125 0q0.140625 0 0.1875 0.0625q0.0625 0.046875 0.0625 0.125q0 0.078125 -0.0625 0.140625q-0.046875 0.046875 -0.1875 0.046875l-3.265625 0q-0.140625 0 -0.203125 -0.046875q-0.046875 -0.0625 -0.046875 -0.140625q0 -0.078125 0.046875 -0.125q0.0625 -0.0625 0.203125 -0.0625l1.453125 0l0 -3.0625l-1.078125 0q-0.140625 0 -0.203125 -0.046875q-0.046875 -0.046875 -0.046875 -0.125q0 -0.09375 0.046875 -0.140625q0.0625 -0.0625 0.203125 -0.0625l1.4375 0zm4.775879 0l0 0.9375q0.71875 -0.65625 1.078125 -0.828125q0.359375 -0.1875 0.65625 -0.1875q0.328125 0 0.609375 0.21875q0.28125 0.21875 0.28125 0.328125q0 0.09375 -0.0625 0.15625q-0.046875 0.046875 -0.125 0.046875q-0.046875 0 -0.078125 -0.015625q-0.03125 -0.015625 -0.109375 -0.109375q-0.15625 -0.15625 -0.28125 -0.203125q-0.109375 -0.0625 -0.21875 -0.0625q-0.234375 0 -0.578125 0.203125q-0.34375 0.1875 -1.171875 0.9375l0 2.015625l1.625 0q0.140625 0 0.1875 0.0625q0.0625 0.046875 0.0625 0.125q0 0.078125 -0.0625 0.140625q-0.046875 0.046875 -0.1875 0.046875l-2.890625 0q-0.140625 0 -0.203125 -0.046875q-0.046875 -0.046875 -0.046875 -0.140625q0 -0.0625 0.046875 -0.109375q0.0625 -0.0625 0.203125 -0.0625l0.890625 0l0 -3.078125l-0.6875 0q-0.125 0 -0.1875 -0.046875q-0.046875 -0.046875 -0.046875 -0.140625q0 -0.078125 0.046875 -0.125q0.0625 -0.0625 0.1875 -0.0625l1.0625 0zm3.572754 1.25l3.984375 -2.21875q0.09375 -0.0625 0.140625 -0.0625q0.078125 0 0.125 0.0625q0.0625 0.046875 0.0625 0.125q0 0.109375 -0.15625 0.203125l-3.40625 1.890625l3.40625 1.90625q0.15625 0.078125 0.15625 0.1875q0 0.078125 -0.0625 0.140625q-0.046875 0.046875 -0.125 0.046875q-0.046875 0 -0.140625 -0.0625l-3.984375 -2.21875zm7.463379 -1.4375l0 -1.265625q0 -0.140625 0.046875 -0.1875q0.0625 -0.0625 0.140625 -0.0625q0.078125 0 0.125 0.0625q0.0625 0.046875 0.0625 0.1875l0 1.265625l1.1875 -0.390625q0.09375 -0.03125 0.140625 -0.03125q0.0625 0 0.109375 0.0625q0.0625 0.046875 0.0625 0.125q0 0.0625 -0.046875 0.109375q-0.03125 0.046875 -0.140625 0.09375l-1.203125 0.390625l0.75 1.015625q0.0625 0.09375 0.0625 0.15625q0 0.078125 -0.0625 0.140625q-0.046875 0.046875 -0.125 0.046875q-0.09375 0 -0.1875 -0.125l-0.734375 -1.03125l-0.75 1.03125q-0.09375 0.125 -0.1875 0.125q-0.078125 0 -0.140625 -0.046875q-0.046875 -0.0625 -0.046875 -0.140625q0 -0.0625 0.078125 -0.15625l0.734375 -1.015625l-1.203125 -0.40625q-0.109375 -0.03125 -0.140625 -0.078125q-0.03125 -0.046875 -0.03125 -0.109375q0 -0.078125 0.046875 -0.125q0.046875 -0.0625 0.125 -0.0625q0.046875 0 0.125 0.03125l1.203125 0.390625zm4.869629 2.671875l1.203125 0l-1.3125 2.421875q-0.109375 0.21875 -0.28125 0.21875q-0.109375 0 -0.1875 -0.078125q-0.078125 -0.0625 -0.078125 -0.171875q0 -0.046875 0.015625 -0.109375l0.640625 -2.28125zm5.932129 -2.671875l0 -1.265625q0 -0.140625 0.046875 -0.1875q0.0625 -0.0625 0.140625 -0.0625q0.078125 0 0.125 0.0625q0.0625 0.046875 0.0625 0.1875l0 1.265625l1.1875 -0.390625q0.09375 -0.03125 0.140625 -0.03125q0.0625 0 0.109375 0.0625q0.0625 0.046875 0.0625 0.125q0 0.0625 -0.046875 0.109375q-0.03125 0.046875 -0.140625 0.09375l-1.203125 0.390625l0.75 1.015625q0.0625 0.09375 0.0625 0.15625q0 0.078125 -0.0625 0.140625q-0.046875 0.046875 -0.125 0.046875q-0.09375 0 -0.1875 -0.125l-0.734375 -1.03125l-0.75 1.03125q-0.09375 0.125 -0.1875 0.125q-0.078125 0 -0.140625 -0.046875q-0.046875 -0.0625 -0.046875 -0.140625q0 -0.0625 0.078125 -0.15625l0.734375 -1.015625l-1.203125 -0.40625q-0.109375 -0.03125 -0.140625 -0.078125q-0.03125 -0.046875 -0.03125 -0.109375q0 -0.078125 0.046875 -0.125q0.046875 -0.0625 0.125 -0.0625q0.046875 0 0.125 0.03125l1.203125 0.390625zm7.869629 1.4375l-3.984375 2.21875q-0.09375 0.0625 -0.15625 0.0625q-0.0625 0 -0.125 -0.046875q-0.046875 -0.0625 -0.046875 -0.140625q0 -0.109375 0.140625 -0.1875l3.421875 -1.90625l-3.421875 -1.890625q-0.140625 -0.09375 -0.140625 -0.203125q0 -0.078125 0.046875 -0.125q0.0625 -0.0625 0.140625 -0.0625q0.046875 0 0.140625 0.0625l3.984375 2.21875z" fill-rule="nonzero"/><path fill="#000000" fill-opacity="0.0" d="m75.0079 29.36575l44.755905 0.062992096" fill-rule="evenodd"/><path stroke="#000000" stroke-width="1.0" stroke-linejoin="round" stroke-linecap="butt" d="m80.63617 29.373672l39.127632 0.05506897" fill-rule="evenodd"/><path fill="#000000" stroke="#000000" stroke-width="1.0" stroke-linecap="butt" d="m80.63617 29.37367l-2.3759308 -1.6686325l-2.3806152 1.6619377l2.3759308 1.6686325z" fill-rule="evenodd"/><path fill="#cfe2f3" d="m242.22003 29.380835l0 0c0 -15.664014 12.204636 -28.362206 27.259827 -28.362206l0 0c7.229767 0 14.163422 2.9881525 19.275635 8.307097c5.112213 5.318945 7.9842224 12.532983 7.9842224 20.055107l0 0c0 15.664011 -12.204651 28.362204 -27.259857 28.362204l0 0c-15.055191 0 -27.259827 -12.698193 -27.259827 -28.362204z" fill-rule="evenodd"/><path stroke="#4e8aeb" stroke-width="1.0" stroke-linejoin="round" stroke-linecap="butt" d="m242.22003 29.380835l0 0c0 -15.664014 12.204636 -28.362206 27.259827 -28.362206l0 0c7.229767 0 14.163422 2.9881525 19.275635 8.307097c5.112213 5.318945 7.9842224 12.532983 7.9842224 20.055107l0 0c0 15.664011 -12.204651 28.362204 -27.259857 28.362204l0 0c-15.055191 0 -27.259827 -12.698193 -27.259827 -28.362204z" fill-rule="evenodd"/><path fill="#cfe2f3" d="m286.34048 38.15895l0 0c-3.8216858 8.244152 -12.474274 12.67598 -20.972748 10.742161c-8.498444 -1.9338188 -14.653778 -9.735172 -14.919693 -18.909462c-0.26593018 -9.174286 5.4260406 -17.358437 13.796585 -19.837301c8.370544 -2.4788642 17.26361 1.3860502 21.555634 9.368044l-8.601135 5.1553555c-1.9510803 -4.072508 -6.150482 -6.1087646 -10.141632 -4.9175854c-3.9911194 1.1911812 -6.725342 5.2968235 -6.60318 9.915178c0.122161865 4.6183567 3.0686646 8.535982 7.1157837 9.461119c4.047119 0.92513657 8.131561 -1.385292 9.863922 -5.579712z" fill-rule="evenodd"/><path stroke="#4e8aeb" stroke-width="1.0" stroke-linejoin="round" stroke-linecap="butt" d="m286.34048 38.15895l0 0c-3.8216858 8.244152 -12.474274 12.67598 -20.972748 10.742161c-8.498444 -1.9338188 -14.653778 -9.735172 -14.919693 -18.909462c-0.26593018 -9.174286 5.4260406 -17.358437 13.796585 -19.837301c8.370544 -2.4788642 17.26361 1.3860502 21.555634 9.368044l-8.601135 5.1553555c-1.9510803 -4.072508 -6.150482 -6.1087646 -10.141632 -4.9175854c-3.9911194 1.1911812 -6.725342 5.2968235 -6.60318 9.915178c0.122161865 4.6183567 3.0686646 8.535982 7.1157837 9.461119c4.047119 0.92513657 8.131561 -1.385292 9.863922 -5.579712z" fill-rule="evenodd"/><path fill="#000000" fill-opacity="0.0" d="m221.85826 60.667175l95.244095 0l0 20.850395l-95.244095 0z" fill-rule="evenodd"/><path fill="#000000" d="m254.49911 76.908424l-2.4375 0l-0.484375 1.34375l0.703125 0q0.125 0 0.1875 0.0625q0.0625 0.046875 0.0625 0.125q0 0.078125 -0.0625 0.140625q-0.0625 0.046875 -0.1875 0.046875l-1.375 0q-0.140625 0 -0.203125 -0.046875q-0.046875 -0.0625 -0.046875 -0.140625q0 -0.078125 0.046875 -0.125q0.0625 -0.0625 0.203125 -0.0625l0.28125 0l1.625 -4.390625l-1.09375 0q-0.125 0 -0.1875 -0.046875q-0.046875 -0.0625 -0.046875 -0.140625q0 -0.09375 0.046875 -0.140625q0.0625 -0.046875 0.1875 -0.046875l1.859375 0l1.8125 4.765625l0.28125 0q0.125 0 0.1875 0.0625q0.0625 0.046875 0.0625 0.125q0 0.078125 -0.0625 0.140625q-0.0625 0.046875 -0.1875 0.046875l-1.375 0q-0.140625 0 -0.203125 -0.046875q-0.046875 -0.0625 -0.046875 -0.140625q0 -0.078125 0.046875 -0.125q0.0625 -0.0625 0.203125 -0.0625l0.703125 0l-0.5 -1.34375zm-0.140625 -0.375l-1.03125 -2.671875l-0.125 0l-1.0 2.671875l2.15625 0zm6.135254 -3.421875l0 5.140625l0.484375 0q0.140625 0 0.1875 0.0625q0.0625 0.046875 0.0625 0.125q0 0.078125 -0.0625 0.140625q-0.046875 0.046875 -0.1875 0.046875l-0.859375 0l0 -0.734375q-0.640625 0.875 -1.640625 0.875q-0.5 0 -0.96875 -0.265625q-0.453125 -0.265625 -0.71875 -0.75q-0.265625 -0.5 -0.265625 -1.015625q0 -0.53125 0.265625 -1.015625q0.265625 -0.5 0.71875 -0.765625q0.46875 -0.265625 0.984375 -0.265625q0.953125 0 1.625 0.875l0 -2.078125l-0.5 0q-0.140625 0 -0.203125 -0.046875q-0.046875 -0.0625 -0.046875 -0.140625q0 -0.078125 0.046875 -0.125q0.0625 -0.0625 0.203125 -0.0625l0.875 0zm-0.375 3.625q0 -0.703125 -0.484375 -1.1875q-0.46875 -0.484375 -1.125 -0.484375q-0.65625 0 -1.140625 0.484375q-0.46875 0.484375 -0.46875 1.1875q0 0.6875 0.46875 1.1875q0.484375 0.484375 1.140625 0.484375q0.65625 0 1.125 -0.484375q0.484375 -0.5 0.484375 -1.1875zm5.775879 -3.625l0 5.140625l0.484375 0q0.140625 0 0.1875 0.0625q0.0625 0.046875 0.0625 0.125q0 0.078125 -0.0625 0.140625q-0.046875 0.046875 -0.1875 0.046875l-0.859375 0l0 -0.734375q-0.640625 0.875 -1.640625 0.875q-0.5 0 -0.96875 -0.265625q-0.453125 -0.265625 -0.71875 -0.75q-0.265625 -0.5 -0.265625 -1.015625q0 -0.53125 0.265625 -1.015625q0.265625 -0.5 0.71875 -0.765625q0.46875 -0.265625 0.984375 -0.265625q0.953125 0 1.625 0.875l0 -2.078125l-0.5 0q-0.140625 0 -0.203125 -0.046875q-0.046875 -0.0625 -0.046875 -0.140625q0 -0.078125 0.046875 -0.125q0.0625 -0.0625 0.203125 -0.0625l0.875 0zm-0.375 3.625q0 -0.703125 -0.484375 -1.1875q-0.46875 -0.484375 -1.125 -0.484375q-0.65625 0 -1.140625 0.484375q-0.46875 0.484375 -0.46875 1.1875q0 0.6875 0.46875 1.1875q0.484375 0.484375 1.140625 0.484375q0.65625 0 1.125 -0.484375q0.484375 -0.5 0.484375 -1.1875zm3.525879 -1.921875l0 0.9375q0.71875 -0.65625 1.078125 -0.828125q0.359375 -0.1875 0.65625 -0.1875q0.328125 0 0.609375 0.21875q0.28125 0.21875 0.28125 0.328125q0 0.09375 -0.0625 0.15625q-0.046875 0.046875 -0.125 0.046875q-0.046875 0 -0.078125 -0.015625q-0.03125 -0.015625 -0.109375 -0.109375q-0.15625 -0.15625 -0.28125 -0.203125q-0.109375 -0.0625 -0.21875 -0.0625q-0.234375 0 -0.578125 0.203125q-0.34375 0.1875 -1.171875 0.9375l0 2.015625l1.625 0q0.140625 0 0.1875 0.0625q0.0625 0.046875 0.0625 0.125q0 0.078125 -0.0625 0.140625q-0.046875 0.046875 -0.1875 0.046875l-2.890625 0q-0.140625 0 -0.203125 -0.046875q-0.046875 -0.046875 -0.046875 -0.140625q0 -0.0625 0.046875 -0.109375q0.0625 -0.0625 0.203125 -0.0625l0.890625 0l0 -3.078125l-0.6875 0q-0.125 0 -0.1875 -0.046875q-0.046875 -0.046875 -0.046875 -0.140625q0 -0.078125 0.046875 -0.125q0.0625 -0.0625 0.1875 -0.0625l1.0625 0zm7.838379 2.0l-3.765625 0q0.09375 0.71875 0.59375 1.15625q0.515625 0.4375 1.25 0.4375q0.40625 0 0.859375 -0.140625q0.453125 -0.140625 0.75 -0.359375q0.078125 -0.0625 0.140625 -0.0625q0.0625 0 0.109375 0.0625q0.0625 0.046875 0.0625 0.109375q0 0.078125 -0.0625 0.15625q-0.21875 0.21875 -0.765625 0.40625q-0.53125 0.1875 -1.09375 0.1875q-0.953125 0 -1.59375 -0.609375q-0.625 -0.625 -0.625 -1.515625q0 -0.796875 0.59375 -1.375q0.59375 -0.578125 1.46875 -0.578125q0.90625 0 1.484375 0.59375q0.59375 0.59375 0.59375 1.53125zm-0.375 -0.375q-0.109375 -0.609375 -0.578125 -0.984375q-0.46875 -0.390625 -1.125 -0.390625q-0.640625 0 -1.109375 0.375q-0.453125 0.375 -0.578125 1.0l3.390625 0zm4.994629 -1.375q0 -0.125 0.046875 -0.1875q0.0625 -0.0625 0.140625 -0.0625q0.078125 0 0.125 0.0625q0.0625 0.0625 0.0625 0.1875l0 0.640625q0 0.125 -0.0625 0.1875q-0.046875 0.0625 -0.125 0.0625q-0.078125 0 -0.140625 -0.046875q-0.046875 -0.046875 -0.046875 -0.171875q-0.03125 -0.25 -0.28125 -0.421875q-0.359375 -0.25 -0.953125 -0.25q-0.609375 0 -0.953125 0.25q-0.265625 0.1875 -0.265625 0.421875q0 0.265625 0.3125 0.4375q0.203125 0.125 0.796875 0.1875q0.765625 0.078125 1.0625 0.1875q0.4375 0.15625 0.640625 0.4375q0.203125 0.265625 0.203125 0.578125q0 0.46875 -0.453125 0.84375q-0.4375 0.359375 -1.3125 0.359375q-0.875 0 -1.4375 -0.4375q0 0.140625 -0.015625 0.1875q-0.015625 0.046875 -0.0625 0.078125q-0.046875 0.03125 -0.109375 0.03125q-0.078125 0 -0.140625 -0.046875q-0.046875 -0.0625 -0.046875 -0.203125l0 -0.75q0 -0.140625 0.046875 -0.1875q0.0625 -0.0625 0.140625 -0.0625q0.078125 0 0.125 0.0625q0.0625 0.046875 0.0625 0.140625q0 0.203125 0.109375 0.328125q0.140625 0.21875 0.46875 0.359375q0.34375 0.140625 0.84375 0.140625q0.71875 0 1.0625 -0.265625q0.359375 -0.28125 0.359375 -0.578125q0 -0.34375 -0.359375 -0.546875q-0.359375 -0.203125 -1.046875 -0.265625q-0.6875 -0.078125 -0.984375 -0.1875q-0.296875 -0.125 -0.46875 -0.34375q-0.171875 -0.234375 -0.171875 -0.5q0 -0.46875 0.46875 -0.75q0.46875 -0.28125 1.109375 -0.28125q0.765625 0 1.25 0.375zm5.400879 0q0 -0.125 0.046875 -0.1875q0.0625 -0.0625 0.140625 -0.0625q0.078125 0 0.125 0.0625q0.0625 0.0625 0.0625 0.1875l0 0.640625q0 0.125 -0.0625 0.1875q-0.046875 0.0625 -0.125 0.0625q-0.078125 0 -0.140625 -0.046875q-0.046875 -0.046875 -0.046875 -0.171875q-0.03125 -0.25 -0.28125 -0.421875q-0.359375 -0.25 -0.953125 -0.25q-0.609375 0 -0.953125 0.25q-0.265625 0.1875 -0.265625 0.421875q0 0.265625 0.3125 0.4375q0.203125 0.125 0.796875 0.1875q0.765625 0.078125 1.0625 0.1875q0.4375 0.15625 0.640625 0.4375q0.203125 0.265625 0.203125 0.578125q0 0.46875 -0.453125 0.84375q-0.4375 0.359375 -1.3125 0.359375q-0.875 0 -1.4375 -0.4375q0 0.140625 -0.015625 0.1875q-0.015625 0.046875 -0.0625 0.078125q-0.046875 0.03125 -0.109375 0.03125q-0.078125 0 -0.140625 -0.046875q-0.046875 -0.0625 -0.046875 -0.203125l0 -0.75q0 -0.140625 0.046875 -0.1875q0.0625 -0.0625 0.140625 -0.0625q0.078125 0 0.125 0.0625q0.0625 0.046875 0.0625 0.140625q0 0.203125 0.109375 0.328125q0.140625 0.21875 0.46875 0.359375q0.34375 0.140625 0.84375 0.140625q0.71875 0 1.0625 -0.265625q0.359375 -0.28125 0.359375 -0.578125q0 -0.34375 -0.359375 -0.546875q-0.359375 -0.203125 -1.046875 -0.265625q-0.6875 -0.078125 -0.984375 -0.1875q-0.296875 -0.125 -0.46875 -0.34375q-0.171875 -0.234375 -0.171875 -0.5q0 -0.46875 0.46875 -0.75q0.46875 -0.28125 1.109375 -0.28125q0.765625 0 1.25 0.375z" fill-rule="nonzero"/><path fill="#ebe3fd" d="m279.67804 36.897896l0 23.653542l21.937012 0l-10.753296 -11.611549l10.753296 -12.041992z" fill-rule="evenodd"/><path stroke="#8b6bda" stroke-width="1.0" stroke-linejoin="round" stroke-linecap="butt" d="m279.67804 36.897896l0 23.653542l21.937012 0l-10.753296 -11.611549l10.753296 -12.041992z" fill-rule="evenodd"/><path fill="#cfe2f3" d="m242.3466 139.35486l0 0c0 -15.664017 12.204651 -28.362206 27.259842 -28.362206l0 0c7.229767 0 14.163422 2.9881516 19.275635 8.307098c5.112213 5.318939 7.9842224 12.532982 7.9842224 20.055107l0 0c0 15.664017 -12.204651 28.362198 -27.259857 28.362198l0 0c-15.055191 0 -27.259842 -12.698181 -27.259842 -28.362198z" fill-rule="evenodd"/><path stroke="#4e8aeb" stroke-width="1.0" stroke-linejoin="round" stroke-linecap="butt" d="m242.3466 139.35486l0 0c0 -15.664017 12.204651 -28.362206 27.259842 -28.362206l0 0c7.229767 0 14.163422 2.9881516 19.275635 8.307098c5.112213 5.318939 7.9842224 12.532982 7.9842224 20.055107l0 0c0 15.664017 -12.204651 28.362198 -27.259857 28.362198l0 0c-15.055191 0 -27.259842 -12.698181 -27.259842 -28.362198z" fill-rule="evenodd"/><path fill="#cfe2f3" d="m286.46704 148.13298l0 0c-3.8216858 8.244141 -12.474274 12.675964 -20.972717 10.742157c-8.498444 -1.9338226 -14.653778 -9.735184 -14.919708 -18.90947c-0.26593018 -9.174286 5.426056 -17.358437 13.7966 -19.837296c8.370544 -2.4788666 17.26361 1.3860474 21.555634 9.368042l-8.601135 5.1553497c-1.9510803 -4.07251 -6.150482 -6.1087646 -10.141632 -4.9175873c-3.99115 1.1911926 -6.7253723 5.296829 -6.60318 9.915192c0.122161865 4.618347 3.068634 8.53598 7.1157837 9.461105c4.047119 0.9251404 8.131531 -1.3852844 9.863922 -5.579712z" fill-rule="evenodd"/><path stroke="#4e8aeb" stroke-width="1.0" stroke-linejoin="round" stroke-linecap="butt" d="m286.46704 148.13298l0 0c-3.8216858 8.244141 -12.474274 12.675964 -20.972717 10.742157c-8.498444 -1.9338226 -14.653778 -9.735184 -14.919708 -18.90947c-0.26593018 -9.174286 5.426056 -17.358437 13.7966 -19.837296c8.370544 -2.4788666 17.26361 1.3860474 21.555634 9.368042l-8.601135 5.1553497c-1.9510803 -4.07251 -6.150482 -6.1087646 -10.141632 -4.9175873c-3.99115 1.1911926 -6.7253723 5.296829 -6.60318 9.915192c0.122161865 4.618347 3.068634 8.53598 7.1157837 9.461105c4.047119 0.9251404 8.131531 -1.3852844 9.863922 -5.579712z" fill-rule="evenodd"/><path fill="#000000" fill-opacity="0.0" d="m221.85826 170.52426l95.244095 0l0 20.850388l-95.244095 0z" fill-rule="evenodd"/><path fill="#000000" d="m249.9393 183.71863l0 4.390625l2.453125 0l0 -1.46875q0 -0.125 0.046875 -0.171875q0.0625 -0.0625 0.140625 -0.0625q0.078125 0 0.125 0.0625q0.0625 0.046875 0.0625 0.171875l0 1.84375l-4.078125 0q-0.140625 0 -0.203125 -0.046875q-0.046875 -0.0625 -0.046875 -0.140625q0 -0.078125 0.046875 -0.125q0.0625 -0.0625 0.203125 -0.0625l0.875 0l0 -4.390625l-0.875 0q-0.140625 0 -0.203125 -0.046875q-0.046875 -0.0625 -0.046875 -0.140625q0 -0.09375 0.046875 -0.140625q0.0625 -0.046875 0.203125 -0.046875l2.125 0q0.140625 0 0.1875 0.046875q0.0625 0.046875 0.0625 0.140625q0 0.078125 -0.0625 0.140625q-0.046875 0.046875 -0.1875 0.046875l-0.875 0zm8.104004 2.875q0 0.84375 -0.609375 1.4375q-0.59375 0.59375 -1.453125 0.59375q-0.859375 0 -1.46875 -0.59375q-0.59375 -0.609375 -0.59375 -1.4375q0 -0.84375 0.59375 -1.4375q0.609375 -0.609375 1.46875 -0.609375q0.859375 0 1.453125 0.59375q0.609375 0.59375 0.609375 1.453125zm-0.375 0q0 -0.703125 -0.5 -1.1875q-0.484375 -0.484375 -1.1875 -0.484375q-0.703125 0 -1.203125 0.5q-0.5 0.484375 -0.5 1.171875q0 0.6875 0.5 1.1875q0.5 0.484375 1.203125 0.484375q0.703125 0 1.1875 -0.484375q0.5 -0.5 0.5 -1.1875zm5.244629 -1.546875l0 -0.125q0 -0.125 0.046875 -0.1875q0.0625 -0.0625 0.140625 -0.0625q0.09375 0 0.140625 0.0625q0.046875 0.0625 0.046875 0.1875l0 0.84375q0 0.140625 -0.046875 0.203125q-0.046875 0.046875 -0.140625 0.046875q-0.078125 0 -0.125 -0.046875q-0.046875 -0.0625 -0.0625 -0.171875q-0.015625 -0.3125 -0.40625 -0.59375q-0.375 -0.28125 -1.03125 -0.28125q-0.828125 0 -1.25 0.515625q-0.421875 0.515625 -0.421875 1.171875q0 0.71875 0.46875 1.1875q0.46875 0.46875 1.21875 0.46875q0.421875 0 0.859375 -0.15625q0.453125 -0.171875 0.8125 -0.515625q0.09375 -0.09375 0.171875 -0.09375q0.078125 0 0.125 0.0625q0.046875 0.046875 0.046875 0.125q0 0.1875 -0.4375 0.46875q-0.71875 0.46875 -1.59375 0.46875q-0.890625 0 -1.46875 -0.5625q-0.578125 -0.578125 -0.578125 -1.453125q0 -0.890625 0.578125 -1.46875q0.59375 -0.59375 1.484375 -0.59375q0.859375 0 1.421875 0.5zm4.932129 3.4375l0 -0.53125q-0.8125 0.671875 -1.71875 0.671875q-0.671875 0 -1.046875 -0.328125q-0.359375 -0.34375 -0.359375 -0.828125q0 -0.53125 0.484375 -0.921875q0.5 -0.40625 1.4375 -0.40625q0.25 0 0.546875 0.03125q0.3125 0.03125 0.65625 0.09375l0 -0.59375q0 -0.296875 -0.28125 -0.515625q-0.28125 -0.234375 -0.84375 -0.234375q-0.4375 0 -1.21875 0.25q-0.140625 0.046875 -0.171875 0.046875q-0.078125 0 -0.125 -0.046875q-0.046875 -0.0625 -0.046875 -0.140625q0 -0.078125 0.046875 -0.125q0.0625 -0.0625 0.5 -0.171875q0.671875 -0.1875 1.03125 -0.1875q0.703125 0 1.09375 0.34375q0.390625 0.34375 0.390625 0.78125l0 2.4375l0.484375 0q0.140625 0 0.1875 0.0625q0.0625 0.046875 0.0625 0.125q0 0.078125 -0.0625 0.140625q-0.046875 0.046875 -0.1875 0.046875l-0.859375 0zm0 -1.84375q-0.265625 -0.0625 -0.5625 -0.09375q-0.28125 -0.046875 -0.59375 -0.046875q-0.8125 0 -1.265625 0.34375q-0.34375 0.265625 -0.34375 0.625q0 0.328125 0.265625 0.5625q0.265625 0.234375 0.765625 0.234375q0.46875 0 0.875 -0.1875q0.421875 -0.203125 0.859375 -0.625l0 -0.8125zm3.572754 -1.96875l2.015625 0q0.125 0 0.171875 0.0625q0.0625 0.046875 0.0625 0.140625q0 0.078125 -0.0625 0.125q-0.046875 0.046875 -0.171875 0.046875l-2.015625 0l0 2.46875q0 0.3125 0.25 0.53125q0.265625 0.21875 0.765625 0.21875q0.375 0 0.8125 -0.109375q0.4375 -0.125 0.671875 -0.265625q0.09375 -0.046875 0.140625 -0.046875q0.078125 0 0.125 0.0625q0.0625 0.046875 0.0625 0.109375q0 0.078125 -0.0625 0.125q-0.140625 0.15625 -0.6875 0.328125q-0.546875 0.15625 -1.03125 0.15625q-0.65625 0 -1.046875 -0.296875q-0.375 -0.3125 -0.375 -0.8125l0 -2.46875l-0.671875 0q-0.140625 0 -0.203125 -0.046875q-0.046875 -0.046875 -0.046875 -0.140625q0 -0.078125 0.046875 -0.125q0.0625 -0.0625 0.203125 -0.0625l0.671875 0l0 -1.078125q0 -0.140625 0.046875 -0.1875q0.0625 -0.0625 0.140625 -0.0625q0.09375 0 0.140625 0.0625q0.046875 0.046875 0.046875 0.1875l0 1.078125zm6.354004 -1.890625l0 0.953125l-0.546875 0l0 -0.953125l0.546875 0zm0 1.890625l0 3.4375l1.453125 0q0.140625 0 0.1875 0.0625q0.0625 0.046875 0.0625 0.125q0 0.078125 -0.0625 0.140625q-0.046875 0.046875 -0.1875 0.046875l-3.265625 0q-0.140625 0 -0.203125 -0.046875q-0.046875 -0.0625 -0.046875 -0.140625q0 -0.078125 0.046875 -0.125q0.0625 -0.0625 0.203125 -0.0625l1.453125 0l0 -3.0625l-1.078125 0q-0.140625 0 -0.203125 -0.046875q-0.046875 -0.046875 -0.046875 -0.125q0 -0.09375 0.046875 -0.140625q0.0625 -0.0625 0.203125 -0.0625l1.4375 0zm7.275879 1.921875q0 0.84375 -0.609375 1.4375q-0.59375 0.59375 -1.453125 0.59375q-0.859375 0 -1.46875 -0.59375q-0.59375 -0.609375 -0.59375 -1.4375q0 -0.84375 0.59375 -1.4375q0.609375 -0.609375 1.46875 -0.609375q0.859375 0 1.453125 0.59375q0.609375 0.59375 0.609375 1.453125zm-0.375 0q0 -0.703125 -0.5 -1.1875q-0.484375 -0.484375 -1.1875 -0.484375q-0.703125 0 -1.203125 0.5q-0.5 0.484375 -0.5 1.171875q0 0.6875 0.5 1.1875q0.5 0.484375 1.203125 0.484375q0.703125 0 1.1875 -0.484375q0.5 -0.5 0.5 -1.1875zm2.510254 -1.921875l0 0.5625q0.390625 -0.390625 0.703125 -0.53125q0.3125 -0.15625 0.703125 -0.15625q0.421875 0 0.765625 0.1875q0.25 0.125 0.453125 0.4375q0.203125 0.296875 0.203125 0.625l0 2.3125l0.3125 0q0.125 0 0.171875 0.0625q0.0625 0.046875 0.0625 0.125q0 0.078125 -0.0625 0.140625q-0.046875 0.046875 -0.171875 0.046875l-1.0 0q-0.125 0 -0.1875 -0.046875q-0.0625 -0.0625 -0.0625 -0.140625q0 -0.078125 0.0625 -0.125q0.0625 -0.0625 0.1875 -0.0625l0.3125 0l0 -2.25q0 -0.40625 -0.28125 -0.671875q-0.28125 -0.265625 -0.765625 -0.265625q-0.359375 0 -0.640625 0.15625q-0.265625 0.140625 -0.765625 0.71875l0 2.3125l0.421875 0q0.140625 0 0.1875 0.0625q0.0625 0.046875 0.0625 0.125q0 0.078125 -0.0625 0.140625q-0.046875 0.046875 -0.1875 0.046875l-1.203125 0q-0.125 0 -0.1875 -0.046875q-0.0625 -0.0625 -0.0625 -0.140625q0 -0.078125 0.0625 -0.125q0.0625 -0.0625 0.1875 -0.0625l0.421875 0l0 -3.0625l-0.3125 0q-0.140625 0 -0.203125 -0.046875q-0.046875 -0.046875 -0.046875 -0.140625q0 -0.078125 0.046875 -0.125q0.0625 -0.0625 0.203125 -0.0625l0.671875 0z" fill-rule="nonzero"/><path fill="#ebe3fd" d="m279.8046 146.87192l0 23.653534l21.937012 0l-10.753265 -11.611542l10.753265 -12.041992z" fill-rule="evenodd"/><path stroke="#8b6bda" stroke-width="1.0" stroke-linejoin="round" stroke-linecap="butt" d="m279.8046 146.87192l0 23.653534l21.937012 0l-10.753265 -11.611542l10.753265 -12.041992z" fill-rule="evenodd"/><path fill="#000000" fill-opacity="0.0" d="m197.33858 29.436937l44.881897 -0.062992096" fill-rule="evenodd"/><path stroke="#000000" stroke-width="1.0" stroke-linejoin="round" stroke-linecap="butt" d="m197.33858 29.436937l44.881897 -0.062992096" fill-rule="evenodd"/><path fill="#000000" fill-opacity="0.0" d="m131.93796 123.9747l53.228348 0l0 30.708664l-53.228348 0z" fill-rule="evenodd"/><path stroke="#000000" stroke-width="1.0" stroke-linejoin="round" stroke-linecap="butt" d="m131.93796 123.9747l53.228348 0l0 30.708664l-53.228348 0z" fill-rule="evenodd"/><path fill="#000000" d="m146.36513 137.16907l0 -0.125q0 -0.140625 0.046875 -0.1875q0.0625 -0.0625 0.140625 -0.0625q0.09375 0 0.140625 0.0625q0.046875 0.046875 0.046875 0.1875l0 0.9375q0 0.125 -0.046875 0.1875q-0.046875 0.0625 -0.140625 0.0625q-0.078125 0 -0.125 -0.046875q-0.046875 -0.0625 -0.0625 -0.1875q-0.015625 -0.359375 -0.375 -0.65625q-0.359375 -0.296875 -0.9375 -0.296875q-0.609375 0 -0.96875 0.3125q-0.359375 0.3125 -0.359375 0.734375q0 0.234375 0.09375 0.421875q0.109375 0.171875 0.265625 0.28125q0.171875 0.109375 0.375 0.1875q0.21875 0.0625 0.671875 0.125q0.75 0.125 1.03125 0.25q0.390625 0.171875 0.578125 0.484375q0.203125 0.296875 0.203125 0.71875q0 0.625 -0.515625 1.078125q-0.5 0.4375 -1.359375 0.4375q-0.953125 0 -1.53125 -0.59375l0 0.203125q0 0.140625 -0.0625 0.203125q-0.046875 0.046875 -0.125 0.046875q-0.078125 0 -0.140625 -0.046875q-0.046875 -0.0625 -0.046875 -0.203125l0 -1.015625q0 -0.140625 0.046875 -0.1875q0.0625 -0.0625 0.140625 -0.0625q0.078125 0 0.125 0.0625q0.046875 0.046875 0.0625 0.15625q0.015625 0.40625 0.421875 0.75q0.421875 0.328125 1.109375 0.328125q0.703125 0 1.09375 -0.34375q0.40625 -0.359375 0.40625 -0.828125q0 -0.296875 -0.15625 -0.515625q-0.15625 -0.234375 -0.453125 -0.359375q-0.21875 -0.09375 -0.875 -0.203125q-0.921875 -0.15625 -1.328125 -0.46875q-0.40625 -0.328125 -0.40625 -0.90625q0 -0.578125 0.453125 -1.0q0.46875 -0.421875 1.234375 -0.421875q0.78125 0 1.328125 0.5zm6.088379 2.953125l-3.765625 0q0.09375 0.71875 0.59375 1.15625q0.515625 0.4375 1.25 0.4375q0.40625 0 0.859375 -0.140625q0.453125 -0.140625 0.75 -0.359375q0.078125 -0.0625 0.140625 -0.0625q0.0625 0 0.109375 0.0625q0.0625 0.046875 0.0625 0.109375q0 0.078125 -0.0625 0.15625q-0.21875 0.21875 -0.765625 0.40625q-0.53125 0.1875 -1.09375 0.1875q-0.953125 0 -1.59375 -0.609375q-0.625 -0.625 -0.625 -1.515625q0 -0.796875 0.59375 -1.375q0.59375 -0.578125 1.46875 -0.578125q0.90625 0 1.484375 0.59375q0.59375 0.59375 0.59375 1.53125zm-0.375 -0.375q-0.109375 -0.609375 -0.578125 -0.984375q-0.46875 -0.390625 -1.125 -0.390625q-0.640625 0 -1.109375 0.375q-0.453125 0.375 -0.578125 1.0l3.390625 0zm3.010254 -1.625l2.015625 0q0.125 0 0.171875 0.0625q0.0625 0.046875 0.0625 0.140625q0 0.078125 -0.0625 0.125q-0.046875 0.046875 -0.171875 0.046875l-2.015625 0l0 2.46875q0 0.3125 0.25 0.53125q0.265625 0.21875 0.765625 0.21875q0.375 0 0.8125 -0.109375q0.4375 -0.125 0.671875 -0.265625q0.09375 -0.046875 0.140625 -0.046875q0.078125 0 0.125 0.0625q0.0625 0.046875 0.0625 0.109375q0 0.078125 -0.0625 0.125q-0.140625 0.15625 -0.6875 0.328125q-0.546875 0.15625 -1.03125 0.15625q-0.65625 0 -1.046875 -0.296875q-0.375 -0.3125 -0.375 -0.8125l0 -2.46875l-0.671875 0q-0.140625 0 -0.203125 -0.046875q-0.046875 -0.046875 -0.046875 -0.140625q0 -0.078125 0.046875 -0.125q0.0625 -0.0625 0.203125 -0.0625l0.671875 0l0 -1.078125q0 -0.140625 0.046875 -0.1875q0.0625 -0.0625 0.140625 -0.0625q0.09375 0 0.140625 0.0625q0.046875 0.046875 0.046875 0.1875l0 1.078125zm3.900879 1.25l3.984375 -2.21875q0.09375 -0.0625 0.140625 -0.0625q0.078125 0 0.125 0.0625q0.0625 0.046875 0.0625 0.125q0 0.109375 -0.15625 0.203125l-3.40625 1.890625l3.40625 1.90625q0.15625 0.078125 0.15625 0.1875q0 0.078125 -0.0625 0.140625q-0.046875 0.046875 -0.125 0.046875q-0.046875 0 -0.140625 -0.0625l-3.984375 -2.21875zm7.463379 -1.4375l0 -1.265625q0 -0.140625 0.046875 -0.1875q0.0625 -0.0625 0.140625 -0.0625q0.078125 0 0.125 0.0625q0.0625 0.046875 0.0625 0.1875l0 1.265625l1.1875 -0.390625q0.09375 -0.03125 0.140625 -0.03125q0.0625 0 0.109375 0.0625q0.0625 0.046875 0.0625 0.125q0 0.0625 -0.046875 0.109375q-0.03125 0.046875 -0.140625 0.09375l-1.203125 0.390625l0.75 1.015625q0.0625 0.09375 0.0625 0.15625q0 0.078125 -0.0625 0.140625q-0.046875 0.046875 -0.125 0.046875q-0.09375 0 -0.1875 -0.125l-0.734375 -1.03125l-0.75 1.03125q-0.09375 0.125 -0.1875 0.125q-0.078125 0 -0.140625 -0.046875q-0.046875 -0.0625 -0.046875 -0.140625q0 -0.0625 0.078125 -0.15625l0.734375 -1.015625l-1.203125 -0.40625q-0.109375 -0.03125 -0.140625 -0.078125q-0.03125 -0.046875 -0.03125 -0.109375q0 -0.078125 0.046875 -0.125q0.046875 -0.0625 0.125 -0.0625q0.046875 0 0.125 0.03125l1.203125 0.390625zm7.869629 1.4375l-3.984375 2.21875q-0.09375 0.0625 -0.15625 0.0625q-0.0625 0 -0.125 -0.046875q-0.046875 -0.0625 -0.046875 -0.140625q0 -0.109375 0.140625 -0.1875l3.421875 -1.90625l-3.421875 -1.890625q-0.140625 -0.09375 -0.140625 -0.203125q0 -0.078125 0.046875 -0.125q0.0625 -0.0625 0.140625 -0.0625q0.046875 0 0.140625 0.0625l3.984375 2.21875z" fill-rule="nonzero"/><path fill="#000000" fill-opacity="0.0" d="m158.55118 44.791267l0 79.18111" fill-rule="evenodd"/><path stroke="#000000" stroke-width="1.0" stroke-linejoin="round" stroke-linecap="butt" d="m158.55118 44.791267l0 79.18111" fill-rule="evenodd"/><path fill="#000000" fill-opacity="0.0" d="m185.1663 139.32903l57.16536 0.03149414" fill-rule="evenodd"/><path stroke="#000000" stroke-width="1.0" stroke-linejoin="round" stroke-linecap="butt" d="m185.1663 139.32903l57.16536 0.03149414" fill-rule="evenodd"/></g></svg>