<svg version="1.1" viewBox="0.0 0.0 328.4409448818898 82.39370078740157" fill="none" stroke="none" stroke-linecap="square" stroke-miterlimit="10" xmlns:xlink="http://www.w3.org/1999/xlink" xmlns="http://www.w3.org/2000/svg"><clipPath id="p.0"><path d="m0 0l328.44095 0l0 82.3937l-328.44095 0l0 -82.3937z" clip-rule="nonzero"/></clipPath><g clip-path="url(#p.0)"><path fill="#000000" fill-opacity="0.0" d="m0 0l328.44095 0l0 82.3937l-328.44095 0z" fill-rule="evenodd"/><path fill="#cfe2f3" d="m12.691707 29.323868l0 0c0 -15.664013 12.204648 -28.362206 27.259842 -28.362206l0 0c7.229759 0 14.163406 2.9881523 19.27562 8.307097c5.1122093 5.318945 7.984226 12.532984 7.984226 20.055107l0 0c0 15.664013 -12.204651 28.362206 -27.259846 28.362206l0 0c-15.055195 0 -27.259842 -12.698193 -27.259842 -28.362206z" fill-rule="evenodd"/><path stroke="#4e8aeb" stroke-width="1.0" stroke-linejoin="round" stroke-linecap="butt" d="m12.691707 29.323868l0 0c0 -15.664013 12.204648 -28.362206 27.259842 -28.362206l0 0c7.229759 0 14.163406 2.9881523 19.27562 8.307097c5.1122093 5.318945 7.984226 12.532984 7.984226 20.055107l0 0c0 15.664013 -12.204651 28.362206 -27.259846 28.362206l0 0c-15.055195 0 -27.259842 -12.698193 -27.259842 -28.362206z" fill-rule="evenodd"/><path fill="#cfe2f3" d="m56.812153 38.101986l0 0c-3.8216896 8.244152 -12.474274 12.675976 -20.972725 10.742161c-8.498451 -1.9338188 -14.653782 -9.735176 -14.91971 -18.909462c-0.26592827 -9.174288 5.4260426 -17.358437 13.796587 -19.837303c8.370544 -2.4788642 17.263618 1.3860502 21.555645 9.368045l-8.601131 5.1553555c-1.9510765 -4.07251 -6.15049 -6.1087666 -10.141632 -4.9175854c-3.9911423 1.1911793 -6.7253685 5.2968216 -6.6031914 9.915178c0.122177124 4.6183567 3.068657 8.535982 7.1157837 9.461119c4.0471306 0.92513657 8.13155 -1.385292 9.86393 -5.5797157z" fill-rule="evenodd"/><path stroke="#4e8aeb" stroke-width="1.0" stroke-linejoin="round" stroke-linecap="butt" d="m56.812153 38.101986l0 0c-3.8216896 8.244152 -12.474274 12.675976 -20.972725 10.742161c-8.498451 -1.9338188 -14.653782 -9.735176 -14.91971 -18.909462c-0.26592827 -9.174288 5.4260426 -17.358437 13.796587 -19.837303c8.370544 -2.4788642 17.263618 1.3860502 21.555645 9.368045l-8.601131 5.1553555c-1.9510765 -4.07251 -6.15049 -6.1087666 -10.141632 -4.9175854c-3.9911423 1.1911793 -6.7253685 5.2968216 -6.6031914 9.915178c0.122177124 4.6183567 3.068657 8.535982 7.1157837 9.461119c4.0471306 0.92513657 8.13155 -1.385292 9.86393 -5.5797157z" fill-rule="evenodd"/><path fill="#000000" fill-opacity="0.0" d="m-0.06692756 60.582676l77.5748 0l0 20.850391l-77.5748 0z" fill-rule="evenodd"/><path fill="#000000" d="m23.739275 76.82393l-2.4375 0l-0.484375 1.34375l0.703125 0q0.125 0 0.1875 0.0625q0.0625 0.046875 0.0625 0.125q0 0.078125 -0.0625 0.140625q-0.0625 0.046875 -0.1875 0.046875l-1.375 0q-0.140625 0 -0.203125 -0.046875q-0.046875 -0.0625 -0.046875 -0.140625q0 -0.078125 0.046875 -0.125q0.0625 -0.0625 0.203125 -0.0625l0.28125 0l1.625 -4.390625l-1.09375 0q-0.125 0 -0.1875 -0.046875q-0.046875 -0.0625 -0.046875 -0.140625q0 -0.09375 0.046875 -0.140625q0.0625 -0.046875 0.1875 -0.046875l1.859375 0l1.8125 4.765625l0.28125 0q0.125 0 0.1875 0.0625q0.0625 0.046875 0.0625 0.125q0 0.078125 -0.0625 0.140625q-0.0625 0.046875 -0.1875 0.046875l-1.375 0q-0.140625 0 -0.203125 -0.046875q-0.046875 -0.0625 -0.046875 -0.140625q0 -0.078125 0.046875 -0.125q0.0625 -0.0625 0.203125 -0.0625l0.703125 0l-0.5 -1.34375zm-0.140625 -0.375l-1.03125 -2.671875l-0.125 0l-1.0 2.671875l2.15625 0zm6.135254 -3.421875l0 5.140625l0.484375 0q0.140625 0 0.1875 0.0625q0.0625 0.046875 0.0625 0.125q0 0.078125 -0.0625 0.140625q-0.046875 0.046875 -0.1875 0.046875l-0.859375 0l0 -0.734375q-0.640625 0.875 -1.640625 0.875q-0.5 0 -0.96875 -0.265625q-0.453125 -0.265625 -0.71875 -0.75q-0.265625 -0.5 -0.265625 -1.015625q0 -0.53125 0.265625 -1.015625q0.265625 -0.5 0.71875 -0.765625q0.46875 -0.265625 0.984375 -0.265625q0.953125 0 1.625 0.875l0 -2.078125l-0.5 0q-0.140625 0 -0.203125 -0.046875q-0.046875 -0.0625 -0.046875 -0.140625q0 -0.078125 0.046875 -0.125q0.0625 -0.0625 0.203125 -0.0625l0.875 0zm-0.375 3.625q0 -0.703125 -0.484375 -1.1875q-0.46875 -0.484375 -1.125 -0.484375q-0.65625 0 -1.140625 0.484375q-0.46875 0.484375 -0.46875 1.1875q0 0.6875 0.46875 1.1875q0.484375 0.484375 1.140625 0.484375q0.65625 0 1.125 -0.484375q0.484375 -0.5 0.484375 -1.1875zm5.775877 -3.625l0 5.140625l0.484375 0q0.140625 0 0.1875 0.0625q0.0625 0.046875 0.0625 0.125q0 0.078125 -0.0625 0.140625q-0.046875 0.046875 -0.1875 0.046875l-0.859375 0l0 -0.734375q-0.640625 0.875 -1.640625 0.875q-0.5 0 -0.96875 -0.265625q-0.4531231 -0.265625 -0.7187481 -0.75q-0.265625 -0.5 -0.265625 -1.015625q0 -0.53125 0.265625 -1.015625q0.265625 -0.5 0.7187481 -0.765625q0.46875 -0.265625 0.984375 -0.265625q0.953125 0 1.625 0.875l0 -2.078125l-0.5 0q-0.140625 0 -0.203125 -0.046875q-0.046875 -0.0625 -0.046875 -0.140625q0 -0.078125 0.046875 -0.125q0.0625 -0.0625 0.203125 -0.0625l0.875 0zm-0.375 3.625q0 -0.703125 -0.484375 -1.1875q-0.46875 -0.484375 -1.125 -0.484375q-0.65625 0 -1.140625 0.484375q-0.4687481 0.484375 -0.4687481 1.1875q0 0.6875 0.4687481 1.1875q0.484375 0.484375 1.140625 0.484375q0.65625 0 1.125 -0.484375q0.484375 -0.5 0.484375 -1.1875zm3.525879 -1.921875l0 0.9375q0.71875 -0.65625 1.078125 -0.828125q0.359375 -0.1875 0.65625 -0.1875q0.328125 0 0.609375 0.21875q0.28125 0.21875 0.28125 0.328125q0 0.09375 -0.0625 0.15625q-0.046875 0.046875 -0.125 0.046875q-0.046875 0 -0.078125 -0.015625q-0.03125 -0.015625 -0.109375 -0.109375q-0.15625 -0.15625 -0.28125 -0.203125q-0.109375 -0.0625 -0.21875 -0.0625q-0.234375 0 -0.578125 0.203125q-0.34375 0.1875 -1.171875 0.9375l0 2.015625l1.625 0q0.140625 0 0.1875 0.0625q0.0625 0.046875 0.0625 0.125q0 0.078125 -0.0625 0.140625q-0.046875 0.046875 -0.1875 0.046875l-2.890625 0q-0.140625 0 -0.203125 -0.046875q-0.046875 -0.046875 -0.046875 -0.140625q0 -0.0625 0.046875 -0.109375q0.0625 -0.0625 0.203125 -0.0625l0.890625 0l0 -3.078125l-0.6875 0q-0.125 0 -0.1875 -0.046875q-0.046875 -0.046875 -0.046875 -0.140625q0 -0.078125 0.046875 -0.125q0.0625 -0.0625 0.1875 -0.0625l1.0625 0zm7.838379 2.0l-3.765625 0q0.09375 0.71875 0.59375 1.15625q0.515625 0.4375 1.25 0.4375q0.40625 0 0.859375 -0.140625q0.453125 -0.140625 0.75 -0.359375q0.078125 -0.0625 0.140625 -0.0625q0.0625 0 0.109375 0.0625q0.0625 0.046875 0.0625 0.109375q0 0.078125 -0.0625 0.15625q-0.21875 0.21875 -0.765625 0.40625q-0.53125 0.1875 -1.09375 0.1875q-0.953125 0 -1.59375 -0.609375q-0.625 -0.625 -0.625 -1.515625q0 -0.796875 0.59375 -1.375q0.59375 -0.578125 1.46875 -0.578125q0.90625 0 1.484375 0.59375q0.59375 0.59375 0.59375 1.53125zm-0.375 -0.375q-0.109375 -0.609375 -0.578125 -0.984375q-0.46875 -0.390625 -1.125 -0.390625q-0.640625 0 -1.109375 0.375q-0.453125 0.375 -0.578125 1.0l3.390625 0zm4.994629 -1.375q0 -0.125 0.046875 -0.1875q0.0625 -0.0625 0.140625 -0.0625q0.078125 0 0.125 0.0625q0.0625 0.0625 0.0625 0.1875l0 0.640625q0 0.125 -0.0625 0.1875q-0.046875 0.0625 -0.125 0.0625q-0.078125 0 -0.140625 -0.046875q-0.046875 -0.046875 -0.046875 -0.171875q-0.03125 -0.25 -0.28125 -0.421875q-0.359375 -0.25 -0.953125 -0.25q-0.609375 0 -0.953125 0.25q-0.265625 0.1875 -0.265625 0.421875q0 0.265625 0.3125 0.4375q0.203125 0.125 0.796875 0.1875q0.765625 0.078125 1.0625 0.1875q0.4375 0.15625 0.640625 0.4375q0.203125 0.265625 0.203125 0.578125q0 0.46875 -0.453125 0.84375q-0.4375 0.359375 -1.3125 0.359375q-0.875 0 -1.4375 -0.4375q0 0.140625 -0.015625 0.1875q-0.015625 0.046875 -0.0625 0.078125q-0.046875 0.03125 -0.109375 0.03125q-0.078125 0 -0.140625 -0.046875q-0.046875 -0.0625 -0.046875 -0.203125l0 -0.75q0 -0.140625 0.046875 -0.1875q0.0625 -0.0625 0.140625 -0.0625q0.078125 0 0.125 0.0625q0.0625 0.046875 0.0625 0.140625q0 0.203125 0.109375 0.328125q0.140625 0.21875 0.46875 0.359375q0.34375 0.140625 0.84375 0.140625q0.71875 0 1.0625 -0.265625q0.359375 -0.28125 0.359375 -0.578125q0 -0.34375 -0.359375 -0.546875q-0.359375 -0.203125 -1.046875 -0.265625q-0.6875 -0.078125 -0.984375 -0.1875q-0.296875 -0.125 -0.46875 -0.34375q-0.171875 -0.234375 -0.171875 -0.5q0 -0.46875 0.46875 -0.75q0.46875 -0.28125 1.109375 -0.28125q0.765625 0 1.25 0.375zm5.400879 0q0 -0.125 0.046875 -0.1875q0.0625 -0.0625 0.140625 -0.0625q0.078125 0 0.125 0.0625q0.0625 0.0625 0.0625 0.1875l0 0.640625q0 0.125 -0.0625 0.1875q-0.046875 0.0625 -0.125 0.0625q-0.078125 0 -0.140625 -0.046875q-0.046875 -0.046875 -0.046875 -0.171875q-0.03125 -0.25 -0.28125 -0.421875q-0.359375 -0.25 -0.953125 -0.25q-0.609375 0 -0.953125 0.25q-0.265625 0.1875 -0.265625 0.421875q0 0.265625 0.3125 0.4375q0.203125 0.125 0.796875 0.1875q0.765625 0.078125 1.0625 0.1875q0.4375 0.15625 0.640625 0.4375q0.203125 0.265625 0.203125 0.578125q0 0.46875 -0.453125 0.84375q-0.4375 0.359375 -1.3125 0.359375q-0.875 0 -1.4375 -0.4375q0 0.140625 -0.015625 0.1875q-0.015625 0.046875 -0.0625 0.078125q-0.046875 0.03125 -0.109375 0.03125q-0.078125 0 -0.140625 -0.046875q-0.046875 -0.0625 -0.046875 -0.203125l0 -0.75q0 -0.140625 0.046875 -0.1875q0.0625 -0.0625 0.140625 -0.0625q0.078125 0 0.125 0.0625q0.0625 0.046875 0.0625 0.140625q0 0.203125 0.109375 0.328125q0.140625 0.21875 0.46875 0.359375q0.34375 0.140625 0.84375 0.140625q0.71875 0 1.0625 -0.265625q0.359375 -0.28125 0.359375 -0.578125q0 -0.34375 -0.359375 -0.546875q-0.359375 -0.203125 -1.046875 -0.265625q-0.6875 -0.078125 -0.984375 -0.1875q-0.296875 -0.125 -0.46875 -0.34375q-0.171875 -0.234375 -0.171875 -0.5q0 -0.46875 0.46875 -0.75q0.46875 -0.28125 1.109375 -0.28125q0.765625 0 1.25 0.375z" fill-rule="nonzero"/><path fill="#ebe3fd" d="m50.14971 36.840927l0 23.653545l21.937012 0l-10.753284 -11.611549l10.753284 -12.041996z" fill-rule="evenodd"/><path stroke="#8b6bda" stroke-width="1.0" stroke-linejoin="round" stroke-linecap="butt" d="m50.14971 36.840927l0 23.653545l21.937012 0l-10.753284 -11.611549l10.753284 -12.041996z" fill-rule="evenodd"/><path fill="#cfe2f3" d="m240.4816 29.366905l0 0c0 -15.664014 12.204651 -28.362206 27.259857 -28.362206l0 0c7.2297363 0 14.163391 2.9881523 19.275604 8.307097c5.112213 5.318946 7.9842224 12.532983 7.9842224 20.055107l0 0c0 15.664013 -12.204651 28.362206 -27.259827 28.362206l0 0c-15.055206 0 -27.259857 -12.698193 -27.259857 -28.362206z" fill-rule="evenodd"/><path stroke="#4e8aeb" stroke-width="1.0" stroke-linejoin="round" stroke-linecap="butt" d="m240.4816 29.366905l0 0c0 -15.664014 12.204651 -28.362206 27.259857 -28.362206l0 0c7.2297363 0 14.163391 2.9881523 19.275604 8.307097c5.112213 5.318946 7.9842224 12.532983 7.9842224 20.055107l0 0c0 15.664013 -12.204651 28.362206 -27.259827 28.362206l0 0c-15.055206 0 -27.259857 -12.698193 -27.259857 -28.362206z" fill-rule="evenodd"/><path fill="#000000" fill-opacity="0.0" d="m207.5617 60.538364l120.944885 0l0 20.850391l-120.944885 0z" fill-rule="evenodd"/><path fill="#000000" d="m223.34811 76.77962l-2.4375 0l-0.484375 1.34375l0.703125 0q0.125 0 0.1875 0.0625q0.0625 0.046875 0.0625 0.125q0 0.078125 -0.0625 0.140625q-0.0625 0.046875 -0.1875 0.046875l-1.375 0q-0.140625 0 -0.203125 -0.046875q-0.046875 -0.0625 -0.046875 -0.140625q0 -0.078125 0.046875 -0.125q0.0625 -0.0625 0.203125 -0.0625l0.28125 0l1.625 -4.390625l-1.09375 0q-0.125 0 -0.1875 -0.046875q-0.046875 -0.0625 -0.046875 -0.140625q0 -0.09375 0.046875 -0.140625q0.0625 -0.046875 0.1875 -0.046875l1.859375 0l1.8125 4.765625l0.28125 0q0.125 0 0.1875 0.0625q0.0625 0.046875 0.0625 0.125q0 0.078125 -0.0625 0.140625q-0.0625 0.046875 -0.1875 0.046875l-1.375 0q-0.140625 0 -0.203125 -0.046875q-0.046875 -0.0625 -0.046875 -0.140625q0 -0.078125 0.046875 -0.125q0.0625 -0.0625 0.203125 -0.0625l0.703125 0l-0.5 -1.34375zm-0.140625 -0.375l-1.03125 -2.671875l-0.125 0l-1.0 2.671875l2.15625 0zm6.135254 -3.421875l0 5.140625l0.484375 0q0.140625 0 0.1875 0.0625q0.0625 0.046875 0.0625 0.125q0 0.078125 -0.0625 0.140625q-0.046875 0.046875 -0.1875 0.046875l-0.859375 0l0 -0.734375q-0.640625 0.875 -1.640625 0.875q-0.5 0 -0.96875 -0.265625q-0.453125 -0.265625 -0.71875 -0.75q-0.265625 -0.5 -0.265625 -1.015625q0 -0.53125 0.265625 -1.015625q0.265625 -0.5 0.71875 -0.765625q0.46875 -0.265625 0.984375 -0.265625q0.953125 0 1.625 0.875l0 -2.078125l-0.5 0q-0.140625 0 -0.203125 -0.046875q-0.046875 -0.0625 -0.046875 -0.140625q0 -0.078125 0.046875 -0.125q0.0625 -0.0625 0.203125 -0.0625l0.875 0zm-0.375 3.625q0 -0.703125 -0.484375 -1.1875q-0.46875 -0.484375 -1.125 -0.484375q-0.65625 0 -1.140625 0.484375q-0.46875 0.484375 -0.46875 1.1875q0 0.6875 0.46875 1.1875q0.484375 0.484375 1.140625 0.484375q0.65625 0 1.125 -0.484375q0.484375 -0.5 0.484375 -1.1875zm2.275879 -1.921875l0 0.375q0.46875 -0.5 0.953125 -0.5q0.28125 0 0.5 0.15625q0.21875 0.140625 0.359375 0.453125q0.25 -0.3125 0.5 -0.453125q0.25 -0.15625 0.5 -0.15625q0.40625 0 0.640625 0.265625q0.3125 0.328125 0.3125 0.71875l0 2.578125l0.3125 0q0.125 0 0.1875 0.0625q0.0625 0.046875 0.0625 0.125q0 0.078125 -0.0625 0.140625q-0.0625 0.046875 -0.1875 0.046875l-0.6875 0l0 -2.90625q0 -0.28125 -0.171875 -0.46875q-0.171875 -0.1875 -0.390625 -0.1875q-0.203125 0 -0.4375 0.15625q-0.21875 0.140625 -0.5 0.59375l0 2.4375l0.3125 0q0.125 0 0.1875 0.0625q0.0625 0.046875 0.0625 0.125q0 0.078125 -0.0625 0.140625q-0.0625 0.046875 -0.1875 0.046875l-0.6875 0l0 -2.890625q0 -0.296875 -0.171875 -0.484375q-0.171875 -0.1875 -0.390625 -0.1875q-0.1875 0 -0.390625 0.125q-0.265625 0.1875 -0.5625 0.625l0 2.4375l0.3125 0q0.140625 0 0.1875 0.0625q0.0625 0.046875 0.0625 0.125q0 0.078125 -0.0625 0.140625q-0.046875 0.046875 -0.1875 0.046875l-0.984375 0q-0.140625 0 -0.203125 -0.046875q-0.046875 -0.0625 -0.046875 -0.140625q0 -0.078125 0.046875 -0.125q0.0625 -0.0625 0.203125 -0.0625l0.3125 0l0 -3.0625l-0.3125 0q-0.140625 0 -0.203125 -0.046875q-0.046875 -0.046875 -0.046875 -0.140625q0 -0.078125 0.046875 -0.125q0.0625 -0.0625 0.203125 -0.0625l0.671875 0zm7.275879 -1.890625l0 0.953125l-0.546875 0l0 -0.953125l0.546875 0zm0 1.890625l0 3.4375l1.453125 0q0.140625 0 0.1875 0.0625q0.0625 0.046875 0.0625 0.125q0 0.078125 -0.0625 0.140625q-0.046875 0.046875 -0.1875 0.046875l-3.265625 0q-0.140625 0 -0.203125 -0.046875q-0.046875 -0.0625 -0.046875 -0.140625q0 -0.078125 0.046875 -0.125q0.0625 -0.0625 0.203125 -0.0625l1.453125 0l0 -3.0625l-1.078125 0q-0.140625 0 -0.203125 -0.046875q-0.046875 -0.046875 -0.046875 -0.125q0 -0.09375 0.046875 -0.140625q0.0625 -0.0625 0.203125 -0.0625l1.4375 0zm4.010254 0l0 0.5625q0.390625 -0.390625 0.703125 -0.53125q0.3125 -0.15625 0.703125 -0.15625q0.421875 0 0.765625 0.1875q0.25 0.125 0.453125 0.4375q0.203125 0.296875 0.203125 0.625l0 2.3125l0.3125 0q0.125 0 0.171875 0.0625q0.0625 0.046875 0.0625 0.125q0 0.078125 -0.0625 0.140625q-0.046875 0.046875 -0.171875 0.046875l-1.0 0q-0.125 0 -0.1875 -0.046875q-0.0625 -0.0625 -0.0625 -0.140625q0 -0.078125 0.0625 -0.125q0.0625 -0.0625 0.1875 -0.0625l0.3125 0l0 -2.25q0 -0.40625 -0.28125 -0.671875q-0.28125 -0.265625 -0.765625 -0.265625q-0.359375 0 -0.640625 0.15625q-0.265625 0.140625 -0.765625 0.71875l0 2.3125l0.421875 0q0.140625 0 0.1875 0.0625q0.0625 0.046875 0.0625 0.125q0 0.078125 -0.0625 0.140625q-0.046875 0.046875 -0.1875 0.046875l-1.203125 0q-0.125 0 -0.1875 -0.046875q-0.0625 -0.0625 -0.0625 -0.140625q0 -0.078125 0.0625 -0.125q0.0625 -0.0625 0.1875 -0.0625l0.421875 0l0 -3.0625l-0.3125 0q-0.140625 0 -0.203125 -0.046875q-0.046875 -0.046875 -0.046875 -0.140625q0 -0.078125 0.046875 -0.125q0.0625 -0.0625 0.203125 -0.0625l0.671875 0zm6.791504 -1.890625l0 0.953125l-0.546875 0l0 -0.953125l0.546875 0zm0 1.890625l0 3.4375l1.453125 0q0.140625 0 0.1875 0.0625q0.0625 0.046875 0.0625 0.125q0 0.078125 -0.0625 0.140625q-0.046875 0.046875 -0.1875 0.046875l-3.265625 0q-0.140625 0 -0.203125 -0.046875q-0.046875 -0.0625 -0.046875 -0.140625q0 -0.078125 0.046875 -0.125q0.0625 -0.0625 0.203125 -0.0625l1.453125 0l0 -3.0625l-1.078125 0q-0.140625 0 -0.203125 -0.046875q-0.046875 -0.046875 -0.046875 -0.125q0 -0.09375 0.046875 -0.140625q0.0625 -0.0625 0.203125 -0.0625l1.4375 0zm6.432129 0.25q0 -0.125 0.046875 -0.1875q0.0625 -0.0625 0.140625 -0.0625q0.078125 0 0.125 0.0625q0.0625 0.0625 0.0625 0.1875l0 0.640625q0 0.125 -0.0625 0.1875q-0.046875 0.0625 -0.125 0.0625q-0.078125 0 -0.140625 -0.046875q-0.046875 -0.046875 -0.046875 -0.171875q-0.03125 -0.25 -0.28125 -0.421875q-0.359375 -0.25 -0.953125 -0.25q-0.609375 0 -0.953125 0.25q-0.265625 0.1875 -0.265625 0.421875q0 0.265625 0.3125 0.4375q0.203125 0.125 0.796875 0.1875q0.765625 0.078125 1.0625 0.1875q0.4375 0.15625 0.640625 0.4375q0.203125 0.265625 0.203125 0.578125q0 0.46875 -0.453125 0.84375q-0.4375 0.359375 -1.3125 0.359375q-0.875 0 -1.4375 -0.4375q0 0.140625 -0.015625 0.1875q-0.015625 0.046875 -0.0625 0.078125q-0.046875 0.03125 -0.109375 0.03125q-0.078125 0 -0.140625 -0.046875q-0.046875 -0.0625 -0.046875 -0.203125l0 -0.75q0 -0.140625 0.046875 -0.1875q0.0625 -0.0625 0.140625 -0.0625q0.078125 0 0.125 0.0625q0.0625 0.046875 0.0625 0.140625q0 0.203125 0.109375 0.328125q0.140625 0.21875 0.46875 0.359375q0.34375 0.140625 0.84375 0.140625q0.71875 0 1.0625 -0.265625q0.359375 -0.28125 0.359375 -0.578125q0 -0.34375 -0.359375 -0.546875q-0.359375 -0.203125 -1.046875 -0.265625q-0.6875 -0.078125 -0.984375 -0.1875q-0.296875 -0.125 -0.46875 -0.34375q-0.171875 -0.234375 -0.171875 -0.5q0 -0.46875 0.46875 -0.75q0.46875 -0.28125 1.109375 -0.28125q0.765625 0 1.25 0.375zm3.416504 -0.25l2.015625 0q0.125 0 0.171875 0.0625q0.0625 0.046875 0.0625 0.140625q0 0.078125 -0.0625 0.125q-0.046875 0.046875 -0.171875 0.046875l-2.015625 0l0 2.46875q0 0.3125 0.25 0.53125q0.265625 0.21875 0.765625 0.21875q0.375 0 0.8125 -0.109375q0.4375 -0.125 0.671875 -0.265625q0.09375 -0.046875 0.140625 -0.046875q0.078125 0 0.125 0.0625q0.0625 0.046875 0.0625 0.109375q0 0.078125 -0.0625 0.125q-0.140625 0.15625 -0.6875 0.328125q-0.546875 0.15625 -1.03125 0.15625q-0.65625 0 -1.046875 -0.296875q-0.375 -0.3125 -0.375 -0.8125l0 -2.46875l-0.671875 0q-0.140625 0 -0.203125 -0.046875q-0.046875 -0.046875 -0.046875 -0.140625q0 -0.078125 0.046875 -0.125q0.0625 -0.0625 0.203125 -0.0625l0.671875 0l0 -1.078125q0 -0.140625 0.046875 -0.1875q0.0625 -0.0625 0.140625 -0.0625q0.09375 0 0.140625 0.0625q0.046875 0.046875 0.046875 0.1875l0 1.078125zm5.729004 0l0 0.9375q0.71875 -0.65625 1.078125 -0.828125q0.359375 -0.1875 0.65625 -0.1875q0.328125 0 0.609375 0.21875q0.28125 0.21875 0.28125 0.328125q0 0.09375 -0.0625 0.15625q-0.046875 0.046875 -0.125 0.046875q-0.046875 0 -0.078125 -0.015625q-0.03125 -0.015625 -0.109375 -0.109375q-0.15625 -0.15625 -0.28125 -0.203125q-0.109375 -0.0625 -0.21875 -0.0625q-0.234375 0 -0.578125 0.203125q-0.34375 0.1875 -1.171875 0.9375l0 2.015625l1.625 0q0.140625 0 0.1875 0.0625q0.0625 0.046875 0.0625 0.125q0 0.078125 -0.0625 0.140625q-0.046875 0.046875 -0.1875 0.046875l-2.890625 0q-0.140625 0 -0.203125 -0.046875q-0.046875 -0.046875 -0.046875 -0.140625q0 -0.0625 0.046875 -0.109375q0.0625 -0.0625 0.203125 -0.0625l0.890625 0l0 -3.078125l-0.6875 0q-0.125 0 -0.1875 -0.046875q-0.046875 -0.046875 -0.046875 -0.140625q0 -0.078125 0.046875 -0.125q0.0625 -0.0625 0.1875 -0.0625l1.0625 0zm6.900879 3.8125l0 -0.53125q-0.8125 0.671875 -1.71875 0.671875q-0.671875 0 -1.046875 -0.328125q-0.359375 -0.34375 -0.359375 -0.828125q0 -0.53125 0.484375 -0.921875q0.5 -0.40625 1.4375 -0.40625q0.25 0 0.546875 0.03125q0.3125 0.03125 0.65625 0.09375l0 -0.59375q0 -0.296875 -0.28125 -0.515625q-0.28125 -0.234375 -0.84375 -0.234375q-0.4375 0 -1.21875 0.25q-0.140625 0.046875 -0.171875 0.046875q-0.078125 0 -0.125 -0.046875q-0.046875 -0.0625 -0.046875 -0.140625q0 -0.078125 0.046875 -0.125q0.0625 -0.0625 0.5 -0.171875q0.671875 -0.1875 1.03125 -0.1875q0.703125 0 1.09375 0.34375q0.390625 0.34375 0.390625 0.78125l0 2.4375l0.484375 0q0.140625 0 0.1875 0.0625q0.0625 0.046875 0.0625 0.125q0 0.078125 -0.0625 0.140625q-0.046875 0.046875 -0.1875 0.046875l-0.859375 0zm0 -1.84375q-0.265625 -0.0625 -0.5625 -0.09375q-0.28125 -0.046875 -0.59375 -0.046875q-0.8125 0 -1.265625 0.34375q-0.34375 0.265625 -0.34375 0.625q0 0.328125 0.265625 0.5625q0.265625 0.234375 0.765625 0.234375q0.46875 0 0.875 -0.1875q0.421875 -0.203125 0.859375 -0.625l0 -0.8125zm3.572754 -1.96875l2.015625 0q0.125 0 0.171875 0.0625q0.0625 0.046875 0.0625 0.140625q0 0.078125 -0.0625 0.125q-0.046875 0.046875 -0.171875 0.046875l-2.015625 0l0 2.46875q0 0.3125 0.25 0.53125q0.265625 0.21875 0.765625 0.21875q0.375 0 0.8125 -0.109375q0.4375 -0.125 0.671875 -0.265625q0.09375 -0.046875 0.140625 -0.046875q0.078125 0 0.125 0.0625q0.0625 0.046875 0.0625 0.109375q0 0.078125 -0.0625 0.125q-0.140625 0.15625 -0.6875 0.328125q-0.546875 0.15625 -1.03125 0.15625q-0.65625 0 -1.046875 -0.296875q-0.375 -0.3125 -0.375 -0.8125l0 -2.46875l-0.671875 0q-0.140625 0 -0.203125 -0.046875q-0.046875 -0.046875 -0.046875 -0.140625q0 -0.078125 0.046875 -0.125q0.0625 -0.0625 0.203125 -0.0625l0.671875 0l0 -1.078125q0 -0.140625 0.046875 -0.1875q0.0625 -0.0625 0.140625 -0.0625q0.09375 0 0.140625 0.0625q0.046875 0.046875 0.046875 0.1875l0 1.078125zm6.354004 -1.890625l0 0.953125l-0.546875 0l0 -0.953125l0.546875 0zm0 1.890625l0 3.4375l1.453125 0q0.140625 0 0.1875 0.0625q0.0625 0.046875 0.0625 0.125q0 0.078125 -0.0625 0.140625q-0.046875 0.046875 -0.1875 0.046875l-3.265625 0q-0.140625 0 -0.203125 -0.046875q-0.046875 -0.0625 -0.046875 -0.140625q0 -0.078125 0.046875 -0.125q0.0625 -0.0625 0.203125 -0.0625l1.453125 0l0 -3.0625l-1.078125 0q-0.140625 0 -0.203125 -0.046875q-0.046875 -0.046875 -0.046875 -0.125q0 -0.09375 0.046875 -0.140625q0.0625 -0.0625 0.203125 -0.0625l1.4375 0zm5.541504 3.8125l-0.625 0l-1.515625 -3.4375l-0.390625 0q-0.125 0 -0.1875 -0.046875q-0.046875 -0.046875 -0.046875 -0.140625q0 -0.078125 0.046875 -0.125q0.0625 -0.0625 0.1875 -0.0625l1.390625 0q0.125 0 0.1875 0.0625q0.0625 0.046875 0.0625 0.140625q0 0.078125 -0.0625 0.125q-0.0625 0.046875 -0.1875 0.046875l-0.609375 0l1.34375 3.0625l0.171875 0l1.328125 -3.0625l-0.625 0q-0.125 0 -0.1875 -0.046875q-0.046875 -0.046875 -0.046875 -0.140625q0 -0.078125 0.046875 -0.125q0.0625 -0.0625 0.1875 -0.0625l1.390625 0q0.140625 0 0.1875 0.0625q0.0625 0.046875 0.0625 0.140625q0 0.078125 -0.0625 0.125q-0.046875 0.046875 -0.1875 0.046875l-0.375 0l-1.484375 3.4375zm7.072754 -1.8125l-3.765625 0q0.09375 0.71875 0.59375 1.15625q0.515625 0.4375 1.25 0.4375q0.40625 0 0.859375 -0.140625q0.453125 -0.140625 0.75 -0.359375q0.078125 -0.0625 0.140625 -0.0625q0.0625 0 0.109375 0.0625q0.0625 0.046875 0.0625 0.109375q0 0.078125 -0.0625 0.15625q-0.21875 0.21875 -0.765625 0.40625q-0.53125 0.1875 -1.09375 0.1875q-0.953125 0 -1.59375 -0.609375q-0.625 -0.625 -0.625 -1.515625q0 -0.796875 0.59375 -1.375q0.59375 -0.578125 1.46875 -0.578125q0.90625 0 1.484375 0.59375q0.59375 0.59375 0.59375 1.53125zm-0.375 -0.375q-0.109375 -0.609375 -0.578125 -0.984375q-0.46875 -0.390625 -1.125 -0.390625q-0.640625 0 -1.109375 0.375q-0.453125 0.375 -0.578125 1.0l3.390625 0zm5.557129 -2.578125l0 3.078125q0 0.78125 -0.515625 1.3125q-0.515625 0.515625 -1.25 0.515625q-0.5 0 -0.890625 -0.203125q-0.375 -0.21875 -0.640625 -0.65625q-0.265625 -0.4375 -0.265625 -0.96875l0 -3.078125l-0.3125 0q-0.125 0 -0.1875 -0.046875q-0.0625 -0.0625 -0.0625 -0.140625q0 -0.09375 0.0625 -0.140625q0.0625 -0.046875 0.1875 -0.046875l1.359375 0q0.140625 0 0.1875 0.046875q0.0625 0.046875 0.0625 0.140625q0 0.078125 -0.0625 0.140625q-0.046875 0.046875 -0.1875 0.046875l-0.671875 0l0 3.078125q0 0.609375 0.40625 1.046875q0.421875 0.421875 1.0 0.421875q0.359375 0 0.65625 -0.171875q0.3125 -0.171875 0.53125 -0.515625q0.234375 -0.34375 0.234375 -0.78125l0 -3.078125l-0.6875 0q-0.125 0 -0.1875 -0.046875q-0.0625 -0.0625 -0.0625 -0.140625q0 -0.09375 0.0625 -0.140625q0.0625 -0.046875 0.1875 -0.046875l1.359375 0q0.140625 0 0.1875 0.046875q0.0625 0.046875 0.0625 0.140625q0 0.078125 -0.0625 0.140625q-0.046875 0.046875 -0.1875 0.046875l-0.3125 0zm2.416504 0.953125l0 0.5625q0.390625 -0.390625 0.703125 -0.53125q0.3125 -0.15625 0.703125 -0.15625q0.421875 0 0.765625 0.1875q0.25 0.125 0.453125 0.4375q0.203125 0.296875 0.203125 0.625l0 2.3125l0.3125 0q0.125 0 0.171875 0.0625q0.0625 0.046875 0.0625 0.125q0 0.078125 -0.0625 0.140625q-0.046875 0.046875 -0.171875 0.046875l-1.0 0q-0.125 0 -0.1875 -0.046875q-0.0625 -0.0625 -0.0625 -0.140625q0 -0.078125 0.0625 -0.125q0.0625 -0.0625 0.1875 -0.0625l0.3125 0l0 -2.25q0 -0.40625 -0.28125 -0.671875q-0.28125 -0.265625 -0.765625 -0.265625q-0.359375 0 -0.640625 0.15625q-0.265625 0.140625 -0.765625 0.71875l0 2.3125l0.421875 0q0.140625 0 0.1875 0.0625q0.0625 0.046875 0.0625 0.125q0 0.078125 -0.0625 0.140625q-0.046875 0.046875 -0.1875 0.046875l-1.203125 0q-0.125 0 -0.1875 -0.046875q-0.0625 -0.0625 -0.0625 -0.140625q0 -0.078125 0.0625 -0.125q0.0625 -0.0625 0.1875 -0.0625l0.421875 0l0 -3.0625l-0.3125 0q-0.140625 0 -0.203125 -0.046875q-0.046875 -0.046875 -0.046875 -0.140625q0 -0.078125 0.046875 -0.125q0.0625 -0.0625 0.203125 -0.0625l0.671875 0zm6.791504 -1.890625l0 0.953125l-0.546875 0l0 -0.953125l0.546875 0zm0 1.890625l0 3.4375l1.453125 0q0.140625 0 0.1875 0.0625q0.0625 0.046875 0.0625 0.125q0 0.078125 -0.0625 0.140625q-0.046875 0.046875 -0.1875 0.046875l-3.265625 0q-0.140625 0 -0.203125 -0.046875q-0.046875 -0.0625 -0.046875 -0.140625q0 -0.078125 0.046875 -0.125q0.0625 -0.0625 0.203125 -0.0625l1.453125 0l0 -3.0625l-1.078125 0q-0.140625 0 -0.203125 -0.046875q-0.046875 -0.046875 -0.046875 -0.125q0 -0.09375 0.046875 -0.140625q0.0625 -0.0625 0.203125 -0.0625l1.4375 0zm4.447754 0l2.015625 0q0.125 0 0.171875 0.0625q0.0625 0.046875 0.0625 0.140625q0 0.078125 -0.0625 0.125q-0.046875 0.046875 -0.171875 0.046875l-2.015625 0l0 2.46875q0 0.3125 0.25 0.53125q0.265625 0.21875 0.765625 0.21875q0.375 0 0.8125 -0.109375q0.4375 -0.125 0.671875 -0.265625q0.09375 -0.046875 0.140625 -0.046875q0.078125 0 0.125 0.0625q0.0625 0.046875 0.0625 0.109375q0 0.078125 -0.0625 0.125q-0.140625 0.15625 -0.6875 0.328125q-0.546875 0.15625 -1.03125 0.15625q-0.65625 0 -1.046875 -0.296875q-0.375 -0.3125 -0.375 -0.8125l0 -2.46875l-0.671875 0q-0.140625 0 -0.203125 -0.046875q-0.046875 -0.046875 -0.046875 -0.140625q0 -0.078125 0.046875 -0.125q0.0625 -0.0625 0.203125 -0.0625l0.671875 0l0 -1.078125q0 -0.140625 0.046875 -0.1875q0.0625 -0.0625 0.140625 -0.0625q0.09375 0 0.140625 0.0625q0.046875 0.046875 0.046875 0.1875l0 1.078125z" fill-rule="nonzero"/><path fill="#cfe2f3" d="m253.29417 10.467468l29.480637 0l0 9.9585705l-19.5242 0l0 3.9601498l19.461884 0l0 9.8941765l-19.397095 0l0 4.022064l19.459412 0l0 9.961048l-29.480637 0z" fill-rule="evenodd"/><path stroke="#4e8aeb" stroke-width="1.0" stroke-linejoin="round" stroke-linecap="butt" d="m253.29417 10.467468l29.480637 0l0 9.9585705l-19.5242 0l0 3.9601498l19.461884 0l0 9.8941765l-19.397095 0l0 4.022064l19.459412 0l0 9.961048l-29.480637 0z" fill-rule="evenodd"/><path fill="#ebe3fd" d="m277.9396 36.883965l0 23.653545l21.937012 0l-10.753296 -11.611549l10.753296 -12.041996z" fill-rule="evenodd"/><path stroke="#8b6bda" stroke-width="1.0" stroke-linejoin="round" stroke-linecap="butt" d="m277.9396 36.883965l0 23.653545l21.937012 0l-10.753296 -11.611549l10.753296 -12.041996z" fill-rule="evenodd"/><path fill="#000000" fill-opacity="0.0" d="m67.211395 29.323868l173.25984 0.031496048" fill-rule="evenodd"/><path stroke="#000000" stroke-width="1.0" stroke-linejoin="round" stroke-linecap="butt" d="m72.83967 29.32489l167.63156 0.03047371" fill-rule="evenodd"/><path fill="#000000" stroke="#000000" stroke-width="1.0" stroke-linecap="butt" d="m72.83967 29.32489l-2.3779755 -1.6657181l-2.3785782 1.664854l2.3779755 1.66572z" fill-rule="evenodd"/></g></svg>