<svg version="1.1" viewBox="0.0 0.0 317.1023622047244 192.3779527559055" fill="none" stroke="none" stroke-linecap="square" stroke-miterlimit="10" xmlns:xlink="http://www.w3.org/1999/xlink" xmlns="http://www.w3.org/2000/svg"><clipPath id="p.0"><path d="m0 0l317.10236 0l0 192.37796l-317.10236 0l0 -192.37796z" clip-rule="nonzero"/></clipPath><g clip-path="url(#p.0)"><path fill="#000000" fill-opacity="0.0" d="m0 0l317.10236 0l0 192.37796l-317.10236 0z" fill-rule="evenodd"/><path fill="#a7cd9f" d="m20.287565 42.146023l0 0c0 -15.664011 12.204645 -28.362202 27.25984 -28.362202l0 0c7.229763 0 14.16341 2.9881525 19.275623 8.307097c5.112213 5.318945 7.9842224 12.532984 7.9842224 20.055105l0 0c0 15.664013 -12.204647 28.36221 -27.259846 28.36221l0 0c-15.055195 0 -27.25984 -12.698196 -27.25984 -28.36221z" fill-rule="evenodd"/><path stroke="#82ba7a" stroke-width="1.0" stroke-linejoin="round" stroke-linecap="butt" d="m20.287565 42.146023l0 0c0 -15.664011 12.204645 -28.362202 27.25984 -28.362202l0 0c7.229763 0 14.16341 2.9881525 19.275623 8.307097c5.112213 5.318945 7.9842224 12.532984 7.9842224 20.055105l0 0c0 15.664013 -12.204647 28.36221 -27.259846 28.36221l0 0c-15.055195 0 -27.25984 -12.698196 -27.25984 -28.36221z" fill-rule="evenodd"/><path fill="#000000" fill-opacity="0.0" d="m-0.200684 73.461845l95.244095 0l0 20.850388l-95.244095 0z" fill-rule="evenodd"/><path fill="#ffffff" d="m26.008034 86.65622l0 4.390625l1.265625 0q0.125 0 0.1875 0.0625q0.0625 0.046875 0.0625 0.125q0 0.078125 -0.0625 0.140625q-0.0625 0.046875 -0.1875 0.046875l-2.90625 0q-0.125 0 -0.1875 -0.046875q-0.0625 -0.0625 -0.0625 -0.140625q0 -0.078125 0.0625 -0.125q0.0625 -0.0625 0.1875 -0.0625l1.265625 0l0 -4.390625l-1.265625 0q-0.125 0 -0.1875 -0.046875q-0.0625 -0.0625 -0.0625 -0.140625q0 -0.09375 0.0625 -0.140625q0.0625 -0.046875 0.1875 -0.046875l2.90625 0q0.125 0 0.1875 0.046875q0.0625 0.046875 0.0625 0.140625q0 0.078125 -0.0625 0.140625q-0.0625 0.046875 -0.1875 0.046875l-1.265625 0zm4.010254 0.953125l0 0.5625q0.390625 -0.390625 0.703125 -0.53125q0.3125 -0.15625 0.703125 -0.15625q0.421875 0 0.765625 0.1875q0.25 0.125 0.453125 0.4375q0.203125 0.296875 0.203125 0.625l0 2.3125l0.3125 0q0.125 0 0.171875 0.0625q0.0625 0.046875 0.0625 0.125q0 0.078125 -0.0625 0.140625q-0.046875 0.046875 -0.171875 0.046875l-1.0 0q-0.125 0 -0.1875 -0.046875q-0.0625 -0.0625 -0.0625 -0.140625q0 -0.078125 0.0625 -0.125q0.0625 -0.0625 0.1875 -0.0625l0.3125 0l0 -2.25q0 -0.40625 -0.28125 -0.671875q-0.28125 -0.265625 -0.765625 -0.265625q-0.359375 0 -0.640625 0.15625q-0.265625 0.140625 -0.765625 0.71875l0 2.3125l0.421875 0q0.140625 0 0.1875 0.0625q0.0625 0.046875 0.0625 0.125q0 0.078125 -0.0625 0.140625q-0.046875 0.046875 -0.1875 0.046875l-1.203125 0q-0.125 0 -0.1875 -0.046875q-0.0625 -0.0625 -0.0625 -0.140625q0 -0.078125 0.0625 -0.125q0.0625 -0.0625 0.1875 -0.0625l0.421875 0l0 -3.0625l-0.3125 0q-0.140625 0 -0.203125 -0.046875q-0.046875 -0.046875 -0.046875 -0.140625q0 -0.078125 0.046875 -0.125q0.0625 -0.0625 0.203125 -0.0625l0.671875 0zm5.838379 0l2.015625 0q0.125 0 0.171875 0.0625q0.0625 0.046875 0.0625 0.140625q0 0.078125 -0.0625 0.125q-0.046875 0.046875 -0.171875 0.046875l-2.015625 0l0 2.46875q0 0.3125 0.25 0.53125q0.265625 0.21875 0.765625 0.21875q0.375 0 0.8125 -0.109375q0.4375 -0.125 0.671875 -0.265625q0.09375 -0.046875 0.140625 -0.046875q0.078125 0 0.125 0.0625q0.0625 0.046875 0.0625 0.109375q0 0.078125 -0.0625 0.125q-0.140625 0.15625 -0.6875 0.328125q-0.546875 0.15625 -1.03125 0.15625q-0.65625 0 -1.046875 -0.296875q-0.375 -0.3125 -0.375 -0.8125l0 -2.46875l-0.671875 0q-0.140625 0 -0.203125 -0.046875q-0.046875 -0.046875 -0.046875 -0.140625q0 -0.078125 0.046875 -0.125q0.0625 -0.0625 0.203125 -0.0625l0.671875 0l0 -1.078125q0 -0.140625 0.046875 -0.1875q0.0625 -0.0625 0.140625 -0.0625q0.09375 0 0.140625 0.0625q0.046875 0.046875 0.046875 0.1875l0 1.078125zm8.166504 2.0l-3.765625 0q0.09375 0.71875 0.59375 1.15625q0.515625 0.4375 1.25 0.4375q0.40625 0 0.859375 -0.140625q0.453125 -0.140625 0.75 -0.359375q0.078125 -0.0625 0.140625 -0.0625q0.0625 0 0.109375 0.0625q0.0625 0.046875 0.0625 0.109375q0 0.078125 -0.0625 0.15625q-0.21875 0.21875 -0.765625 0.40625q-0.53125 0.1875 -1.09375 0.1875q-0.953125 0 -1.59375 -0.609375q-0.625 -0.625 -0.625 -1.515625q0 -0.796875 0.59375 -1.375q0.59375 -0.578125 1.46875 -0.578125q0.90625 0 1.484375 0.59375q0.59375 0.59375 0.59375 1.53125zm-0.375 -0.375q-0.109375 -0.609375 -0.578125 -0.984375q-0.46875 -0.390625 -1.125 -0.390625q-0.640625 0 -1.109375 0.375q-0.453125 0.375 -0.578125 1.0l3.390625 0zm3.338379 -1.625l0 0.9375q0.71875 -0.65625 1.078125 -0.828125q0.359375 -0.1875 0.65625 -0.1875q0.328125 0 0.609375 0.21875q0.28125 0.21875 0.28125 0.328125q0 0.09375 -0.0625 0.15625q-0.046875 0.046875 -0.125 0.046875q-0.046875 0 -0.078125 -0.015625q-0.03125 -0.015625 -0.109375 -0.109375q-0.15625 -0.15625 -0.28125 -0.203125q-0.109375 -0.0625 -0.21875 -0.0625q-0.234375 0 -0.578125 0.203125q-0.34375 0.1875 -1.171875 0.9375l0 2.015625l1.625 0q0.140625 0 0.1875 0.0625q0.0625 0.046875 0.0625 0.125q0 0.078125 -0.0625 0.140625q-0.046875 0.046875 -0.1875 0.046875l-2.890625 0q-0.140625 0 -0.203125 -0.046875q-0.046875 -0.046875 -0.046875 -0.140625q0 -0.0625 0.046875 -0.109375q0.0625 -0.0625 0.203125 -0.0625l0.890625 0l0 -3.078125l-0.6875 0q-0.125 0 -0.1875 -0.046875q-0.046875 -0.046875 -0.046875 -0.140625q0 -0.078125 0.046875 -0.125q0.0625 -0.0625 0.1875 -0.0625l1.0625 0zm5.588379 0.375l0 3.0625l1.625 0q0.125 0 0.1875 0.0625q0.0625 0.046875 0.0625 0.125q0 0.078125 -0.0625 0.140625q-0.0625 0.046875 -0.1875 0.046875l-2.890625 0q-0.125 0 -0.1875 -0.046875q-0.0625 -0.0625 -0.0625 -0.140625q0 -0.078125 0.0625 -0.125q0.0625 -0.0625 0.1875 -0.0625l0.890625 0l0 -3.0625l-0.796875 0q-0.125 0 -0.1875 -0.046875q-0.0625 -0.046875 -0.0625 -0.140625q0 -0.078125 0.0625 -0.125q0.0625 -0.0625 0.1875 -0.0625l0.796875 0l0 -0.546875q0 -0.46875 0.375 -0.8125q0.390625 -0.34375 1.015625 -0.34375q0.515625 0 1.109375 0.09375q0.21875 0.03125 0.265625 0.09375q0.046875 0.046875 0.046875 0.125q0 0.078125 -0.046875 0.125q-0.046875 0.046875 -0.140625 0.046875q-0.03125 0 -0.125 -0.015625q-0.65625 -0.09375 -1.109375 -0.09375q-0.484375 0 -0.75 0.234375q-0.265625 0.234375 -0.265625 0.546875l0 0.546875l1.734375 0q0.125 0 0.1875 0.0625q0.0625 0.046875 0.0625 0.140625q0 0.078125 -0.0625 0.125q-0.0625 0.046875 -0.1875 0.046875l-1.734375 0zm6.713379 3.4375l0 -0.53125q-0.8125 0.671875 -1.71875 0.671875q-0.671875 0 -1.046875 -0.328125q-0.359375 -0.34375 -0.359375 -0.828125q0 -0.53125 0.484375 -0.921875q0.5 -0.40625 1.4375 -0.40625q0.25 0 0.546875 0.03125q0.3125 0.03125 0.65625 0.09375l0 -0.59375q0 -0.296875 -0.28125 -0.515625q-0.28125 -0.234375 -0.84375 -0.234375q-0.4375 0 -1.21875 0.25q-0.140625 0.046875 -0.171875 0.046875q-0.078125 0 -0.125 -0.046875q-0.046875 -0.0625 -0.046875 -0.140625q0 -0.078125 0.046875 -0.125q0.0625 -0.0625 0.5 -0.171875q0.671875 -0.1875 1.03125 -0.1875q0.703125 0 1.09375 0.34375q0.390625 0.34375 0.390625 0.78125l0 2.4375l0.484375 0q0.140625 0 0.1875 0.0625q0.0625 0.046875 0.0625 0.125q0 0.078125 -0.0625 0.140625q-0.046875 0.046875 -0.1875 0.046875l-0.859375 0zm0 -1.84375q-0.265625 -0.0625 -0.5625 -0.09375q-0.28125 -0.046875 -0.59375 -0.046875q-0.8125 0 -1.265625 0.34375q-0.34375 0.265625 -0.34375 0.625q0 0.328125 0.265625 0.5625q0.265625 0.234375 0.765625 0.234375q0.46875 0 0.875 -0.1875q0.421875 -0.203125 0.859375 -0.625l0 -0.8125zm5.869629 -1.59375l0 -0.125q0 -0.125 0.046875 -0.1875q0.0625 -0.0625 0.140625 -0.0625q0.09375 0 0.140625 0.0625q0.046875 0.0625 0.046875 0.1875l0 0.84375q0 0.140625 -0.046875 0.203125q-0.046875 0.046875 -0.140625 0.046875q-0.078125 0 -0.125 -0.046875q-0.046875 -0.0625 -0.0625 -0.171875q-0.015625 -0.3125 -0.40625 -0.59375q-0.375 -0.28125 -1.03125 -0.28125q-0.828125 0 -1.25 0.515625q-0.421875 0.515625 -0.421875 1.171875q0 0.71875 0.46875 1.1875q0.46875 0.46875 1.21875 0.46875q0.421875 0 0.859375 -0.15625q0.453125 -0.171875 0.8125 -0.515625q0.09375 -0.09375 0.171875 -0.09375q0.078125 0 0.125 0.0625q0.046875 0.046875 0.046875 0.125q0 0.1875 -0.4375 0.46875q-0.71875 0.46875 -1.59375 0.46875q-0.890625 0 -1.46875 -0.5625q-0.578125 -0.578125 -0.578125 -1.453125q0 -0.890625 0.578125 -1.46875q0.59375 -0.59375 1.484375 -0.59375q0.859375 0 1.421875 0.5zm5.869629 1.625l-3.765625 0q0.09375 0.71875 0.59375 1.15625q0.515625 0.4375 1.25 0.4375q0.40625 0 0.859375 -0.140625q0.453125 -0.140625 0.75 -0.359375q0.078125 -0.0625 0.140625 -0.0625q0.0625 0 0.109375 0.0625q0.0625 0.046875 0.0625 0.109375q0 0.078125 -0.0625 0.15625q-0.21875 0.21875 -0.765625 0.40625q-0.53125 0.1875 -1.09375 0.1875q-0.953125 0 -1.59375 -0.609375q-0.625 -0.625 -0.625 -1.515625q0 -0.796875 0.59375 -1.375q0.59375 -0.578125 1.46875 -0.578125q0.90625 0 1.484375 0.59375q0.59375 0.59375 0.59375 1.53125zm-0.375 -0.375q-0.109375 -0.609375 -0.578125 -0.984375q-0.46875 -0.390625 -1.125 -0.390625q-0.640625 0 -1.109375 0.375q-0.453125 0.375 -0.578125 1.0l3.390625 0z" fill-rule="nonzero"/><path fill="#a7cd9f" d="m52.637794 24.228216l0 36.031494l-10.645668 0l0 -36.031494z" fill-rule="evenodd"/><path stroke="#82ba7a" stroke-width="1.0" stroke-linejoin="round" stroke-linecap="butt" d="m52.637794 24.228216l0 36.031494l-10.645668 0l0 -36.031494z" fill-rule="evenodd"/><path fill="#a7cd9f" d="m37.343834 51.5668l20.157478 0l0 10.645668l-20.157478 0z" fill-rule="evenodd"/><path stroke="#82ba7a" stroke-width="1.0" stroke-linejoin="round" stroke-linecap="butt" d="m37.343834 51.5668l20.157478 0l0 10.645668l-20.157478 0z" fill-rule="evenodd"/><path fill="#a7cd9f" d="m37.343834 22.27546l20.157478 0l0 10.645668l-20.157478 0z" fill-rule="evenodd"/><path stroke="#82ba7a" stroke-width="1.0" stroke-linejoin="round" stroke-linecap="butt" d="m37.343834 22.27546l20.157478 0l0 10.645668l-20.157478 0z" fill-rule="evenodd"/><path fill="#a7cd9f" d="m52.151737 32.263893l0 20.031494l-9.826771 0l0 -20.031494z" fill-rule="evenodd"/><path fill="#ebe3fd" d="m57.74557 49.663086l0 23.653542l21.937008 0l-10.753281 -11.611549l10.753281 -12.041992z" fill-rule="evenodd"/><path stroke="#8b6bda" stroke-width="1.0" stroke-linejoin="round" stroke-linecap="butt" d="m57.74557 49.663086l0 23.653542l21.937008 0l-10.753281 -11.611549l10.753281 -12.041992z" fill-rule="evenodd"/><path fill="#cfe2f3" d="m131.21796 42.322796l0 0c0 -15.664015 12.204651 -28.362206 27.259842 -28.362206l0 0c7.2297516 0 14.163406 2.9881525 19.27562 8.307097c5.112213 5.318945 7.9842224 12.532984 7.9842224 20.055109l0 0c0 15.664013 -12.204651 28.362202 -27.259842 28.362202l0 0c-15.055191 0 -27.259842 -12.698189 -27.259842 -28.362202z" fill-rule="evenodd"/><path stroke="#4e8aeb" stroke-width="1.0" stroke-linejoin="round" stroke-linecap="butt" d="m131.21796 42.322796l0 0c0 -15.664015 12.204651 -28.362206 27.259842 -28.362206l0 0c7.2297516 0 14.163406 2.9881525 19.27562 8.307097c5.112213 5.318945 7.9842224 12.532984 7.9842224 20.055109l0 0c0 15.664013 -12.204651 28.362202 -27.259842 28.362202l0 0c-15.055191 0 -27.259842 -12.698189 -27.259842 -28.362202z" fill-rule="evenodd"/><path fill="#cfe2f3" d="m175.3384 51.100914l0 0c-3.8216858 8.244152 -12.474274 12.675976 -20.972717 10.742157c-8.498459 -1.933815 -14.653778 -9.735172 -14.919708 -18.909462c-0.26593018 -9.174286 5.4260406 -17.358435 13.796585 -19.8373c8.370544 -2.4788647 17.26361 1.3860493 21.555649 9.368042l-8.601135 5.1553574c-1.9510803 -4.07251 -6.1504974 -6.1087666 -10.141632 -4.9175873c-3.99115 1.1911812 -6.7253723 5.2968254 -6.603195 9.91518c0.122177124 4.618355 3.0686493 8.535984 7.1157837 9.461117c4.0471344 0.92513657 8.131546 -1.385292 9.863937 -5.579712z" fill-rule="evenodd"/><path stroke="#4e8aeb" stroke-width="1.0" stroke-linejoin="round" stroke-linecap="butt" d="m175.3384 51.100914l0 0c-3.8216858 8.244152 -12.474274 12.675976 -20.972717 10.742157c-8.498459 -1.933815 -14.653778 -9.735172 -14.919708 -18.909462c-0.26593018 -9.174286 5.4260406 -17.358435 13.796585 -19.8373c8.370544 -2.4788647 17.26361 1.3860493 21.555649 9.368042l-8.601135 5.1553574c-1.9510803 -4.07251 -6.1504974 -6.1087666 -10.141632 -4.9175873c-3.99115 1.1911812 -6.7253723 5.2968254 -6.603195 9.91518c0.122177124 4.618355 3.0686493 8.535984 7.1157837 9.461117c4.0471344 0.92513657 8.131546 -1.385292 9.863937 -5.579712z" fill-rule="evenodd"/><path fill="#000000" fill-opacity="0.0" d="m110.729706 73.63861l95.244095 0l0 20.850395l-95.244095 0z" fill-rule="evenodd"/><path fill="#ffffff" d="m149.17767 86.957985l0 -0.25q0 -0.140625 0.046875 -0.1875q0.046875 -0.0625 0.140625 -0.0625q0.078125 0 0.125 0.0625q0.046875 0.046875 0.046875 0.1875l0 1.015625q0 0.140625 -0.046875 0.203125q-0.046875 0.046875 -0.125 0.046875q-0.078125 0 -0.140625 -0.046875q-0.046875 -0.0625 -0.046875 -0.171875q-0.03125 -0.375 -0.40625 -0.65625q-0.5 -0.390625 -1.15625 -0.390625q-0.421875 0 -0.8125 0.1875q-0.28125 0.140625 -0.4375 0.328125q-0.296875 0.34375 -0.46875 0.765625q-0.125 0.3125 -0.125 0.703125l0 0.640625q0 0.828125 0.59375 1.4375q0.609375 0.609375 1.390625 0.609375q0.484375 0 0.859375 -0.203125q0.375 -0.21875 0.71875 -0.640625q0.078125 -0.078125 0.171875 -0.078125q0.078125 0 0.125 0.046875q0.046875 0.046875 0.046875 0.125q0 0.09375 -0.1875 0.296875q-0.359375 0.40625 -0.8125 0.609375q-0.4375 0.203125 -0.90625 0.203125q-0.40625 0 -0.8125 -0.15625q-0.3125 -0.109375 -0.53125 -0.265625q-0.203125 -0.15625 -0.5 -0.53125q-0.296875 -0.390625 -0.40625 -0.703125q-0.109375 -0.3125 -0.109375 -0.703125l0 -0.75q0 -0.546875 0.28125 -1.109375q0.296875 -0.578125 0.796875 -0.875q0.515625 -0.3125 1.109375 -0.3125q0.921875 0 1.578125 0.625zm3.963379 -0.875l0 5.140625l1.453125 0q0.125 0 0.1875 0.0625q0.0625 0.046875 0.0625 0.125q0 0.078125 -0.0625 0.140625q-0.0625 0.046875 -0.1875 0.046875l-3.28125 0q-0.125 0 -0.1875 -0.046875q-0.046875 -0.0625 -0.046875 -0.140625q0 -0.078125 0.046875 -0.125q0.0625 -0.0625 0.1875 -0.0625l1.453125 0l0 -4.765625l-1.0625 0q-0.125 0 -0.1875 -0.046875q-0.0625 -0.0625 -0.0625 -0.140625q0 -0.078125 0.046875 -0.125q0.0625 -0.0625 0.203125 -0.0625l1.4375 0zm6.275879 5.515625l0 -0.53125q-0.8125 0.671875 -1.71875 0.671875q-0.671875 0 -1.046875 -0.328125q-0.359375 -0.34375 -0.359375 -0.828125q0 -0.53125 0.484375 -0.921875q0.5 -0.40625 1.4375 -0.40625q0.25 0 0.546875 0.03125q0.3125 0.03125 0.65625 0.09375l0 -0.59375q0 -0.296875 -0.28125 -0.515625q-0.28125 -0.234375 -0.84375 -0.234375q-0.4375 0 -1.21875 0.25q-0.140625 0.046875 -0.171875 0.046875q-0.078125 0 -0.125 -0.046875q-0.046875 -0.0625 -0.046875 -0.140625q0 -0.078125 0.046875 -0.125q0.0625 -0.0625 0.5 -0.171875q0.671875 -0.1875 1.03125 -0.1875q0.703125 0 1.09375 0.34375q0.390625 0.34375 0.390625 0.78125l0 2.4375l0.484375 0q0.140625 0 0.1875 0.0625q0.0625 0.046875 0.0625 0.125q0 0.078125 -0.0625 0.140625q-0.046875 0.046875 -0.1875 0.046875l-0.859375 0zm0 -1.84375q-0.265625 -0.0625 -0.5625 -0.09375q-0.28125 -0.046875 -0.59375 -0.046875q-0.8125 0 -1.265625 0.34375q-0.34375 0.265625 -0.34375 0.625q0 0.328125 0.265625 0.5625q0.265625 0.234375 0.765625 0.234375q0.46875 0 0.875 -0.1875q0.421875 -0.203125 0.859375 -0.625l0 -0.8125zm5.557129 -1.71875q0 -0.125 0.046875 -0.1875q0.0625 -0.0625 0.140625 -0.0625q0.078125 0 0.125 0.0625q0.0625 0.0625 0.0625 0.1875l0 0.640625q0 0.125 -0.0625 0.1875q-0.046875 0.0625 -0.125 0.0625q-0.078125 0 -0.140625 -0.046875q-0.046875 -0.046875 -0.046875 -0.171875q-0.03125 -0.25 -0.28125 -0.421875q-0.359375 -0.25 -0.953125 -0.25q-0.609375 0 -0.953125 0.25q-0.265625 0.1875 -0.265625 0.421875q0 0.265625 0.3125 0.4375q0.203125 0.125 0.796875 0.1875q0.765625 0.078125 1.0625 0.1875q0.4375 0.15625 0.640625 0.4375q0.203125 0.265625 0.203125 0.578125q0 0.46875 -0.453125 0.84375q-0.4375 0.359375 -1.3125 0.359375q-0.875 0 -1.4375 -0.4375q0 0.140625 -0.015625 0.1875q-0.015625 0.046875 -0.0625 0.078125q-0.046875 0.03125 -0.109375 0.03125q-0.078125 0 -0.140625 -0.046875q-0.046875 -0.0625 -0.046875 -0.203125l0 -0.75q0 -0.140625 0.046875 -0.1875q0.0625 -0.0625 0.140625 -0.0625q0.078125 0 0.125 0.0625q0.0625 0.046875 0.0625 0.140625q0 0.203125 0.109375 0.328125q0.140625 0.21875 0.46875 0.359375q0.34375 0.140625 0.84375 0.140625q0.71875 0 1.0625 -0.265625q0.359375 -0.28125 0.359375 -0.578125q0 -0.34375 -0.359375 -0.546875q-0.359375 -0.203125 -1.046875 -0.265625q-0.6875 -0.078125 -0.984375 -0.1875q-0.296875 -0.125 -0.46875 -0.34375q-0.171875 -0.234375 -0.171875 -0.5q0 -0.46875 0.46875 -0.75q0.46875 -0.28125 1.109375 -0.28125q0.765625 0 1.25 0.375zm5.400879 0q0 -0.125 0.046875 -0.1875q0.0625 -0.0625 0.140625 -0.0625q0.078125 0 0.125 0.0625q0.0625 0.0625 0.0625 0.1875l0 0.640625q0 0.125 -0.0625 0.1875q-0.046875 0.0625 -0.125 0.0625q-0.078125 0 -0.140625 -0.046875q-0.046875 -0.046875 -0.046875 -0.171875q-0.03125 -0.25 -0.28125 -0.421875q-0.359375 -0.25 -0.953125 -0.25q-0.609375 0 -0.953125 0.25q-0.265625 0.1875 -0.265625 0.421875q0 0.265625 0.3125 0.4375q0.203125 0.125 0.796875 0.1875q0.765625 0.078125 1.0625 0.1875q0.4375 0.15625 0.640625 0.4375q0.203125 0.265625 0.203125 0.578125q0 0.46875 -0.453125 0.84375q-0.4375 0.359375 -1.3125 0.359375q-0.875 0 -1.4375 -0.4375q0 0.140625 -0.015625 0.1875q-0.015625 0.046875 -0.0625 0.078125q-0.046875 0.03125 -0.109375 0.03125q-0.078125 0 -0.140625 -0.046875q-0.046875 -0.0625 -0.046875 -0.203125l0 -0.75q0 -0.140625 0.046875 -0.1875q0.0625 -0.0625 0.140625 -0.0625q0.078125 0 0.125 0.0625q0.0625 0.046875 0.0625 0.140625q0 0.203125 0.109375 0.328125q0.140625 0.21875 0.46875 0.359375q0.34375 0.140625 0.84375 0.140625q0.71875 0 1.0625 -0.265625q0.359375 -0.28125 0.359375 -0.578125q0 -0.34375 -0.359375 -0.546875q-0.359375 -0.203125 -1.046875 -0.265625q-0.6875 -0.078125 -0.984375 -0.1875q-0.296875 -0.125 -0.46875 -0.34375q-0.171875 -0.234375 -0.171875 -0.5q0 -0.46875 0.46875 -0.75q0.46875 -0.28125 1.109375 -0.28125q0.765625 0 1.25 0.375z" fill-rule="nonzero"/><path fill="#ebe3fd" d="m168.67596 49.839855l0 23.653545l21.936996 0l-10.753281 -11.611549l10.753281 -12.041996z" fill-rule="evenodd"/><path stroke="#8b6bda" stroke-width="1.0" stroke-linejoin="round" stroke-linecap="butt" d="m168.67596 49.839855l0 23.653545l21.936996 0l-10.753281 -11.611549l10.753281 -12.041996z" fill-rule="evenodd"/><path fill="#cfe2f3" d="m241.72832 42.217644l0 0c0 -15.664013 12.204651 -28.362206 27.259842 -28.362206l0 0c7.229767 0 14.163422 2.9881525 19.275635 8.307097c5.112213 5.318945 7.9842224 12.532982 7.9842224 20.055107l0 0c0 15.664013 -12.204651 28.362206 -27.259857 28.362206l0 0c-15.055191 0 -27.259842 -12.698193 -27.259842 -28.362206z" fill-rule="evenodd"/><path stroke="#4e8aeb" stroke-width="1.0" stroke-linejoin="round" stroke-linecap="butt" d="m241.72832 42.217644l0 0c0 -15.664013 12.204651 -28.362206 27.259842 -28.362206l0 0c7.229767 0 14.163422 2.9881525 19.275635 8.307097c5.112213 5.318945 7.9842224 12.532982 7.9842224 20.055107l0 0c0 15.664013 -12.204651 28.362206 -27.259857 28.362206l0 0c-15.055191 0 -27.259842 -12.698193 -27.259842 -28.362206z" fill-rule="evenodd"/><path fill="#000000" fill-opacity="0.0" d="m221.6588 73.388794l95.244095 0l0 20.850395l-95.244095 0z" fill-rule="evenodd"/><path fill="#ffffff" d="m259.9791 88.86442l0 2.109375l2.84375 0l0 -1.078125q0 -0.140625 0.046875 -0.1875q0.046875 -0.0625 0.125 -0.0625q0.09375 0 0.140625 0.0625q0.046875 0.046875 0.046875 0.1875l0 1.453125l-4.0625 0q-0.140625 0 -0.203125 -0.046875q-0.046875 -0.0625 -0.046875 -0.140625q0 -0.078125 0.046875 -0.125q0.0625 -0.0625 0.203125 -0.0625l0.484375 0l0 -4.390625l-0.484375 0q-0.140625 0 -0.203125 -0.046875q-0.046875 -0.0625 -0.046875 -0.140625q0 -0.09375 0.046875 -0.140625q0.0625 -0.046875 0.203125 -0.046875l3.875 0l0 1.265625q0 0.140625 -0.0625 0.203125q-0.046875 0.046875 -0.125 0.046875q-0.078125 0 -0.140625 -0.046875q-0.046875 -0.0625 -0.046875 -0.203125l0 -0.890625l-2.640625 0l0 1.90625l1.328125 0l0 -0.40625q0 -0.140625 0.046875 -0.1875q0.046875 -0.0625 0.140625 -0.0625q0.078125 0 0.125 0.0625q0.046875 0.046875 0.046875 0.1875l0 1.203125q0 0.125 -0.046875 0.1875q-0.046875 0.0625 -0.125 0.0625q-0.09375 0 -0.140625 -0.0625q-0.046875 -0.0625 -0.046875 -0.1875l0 -0.421875l-1.328125 0zm5.400879 -1.328125l0 0.5625q0.390625 -0.390625 0.703125 -0.53125q0.3125 -0.15625 0.703125 -0.15625q0.421875 0 0.765625 0.1875q0.25 0.125 0.453125 0.4375q0.203125 0.296875 0.203125 0.625l0 2.3125l0.3125 0q0.125 0 0.171875 0.0625q0.0625 0.046875 0.0625 0.125q0 0.078125 -0.0625 0.140625q-0.046875 0.046875 -0.171875 0.046875l-1.0 0q-0.125 0 -0.1875 -0.046875q-0.0625 -0.0625 -0.0625 -0.140625q0 -0.078125 0.0625 -0.125q0.0625 -0.0625 0.1875 -0.0625l0.3125 0l0 -2.25q0 -0.40625 -0.28125 -0.671875q-0.28125 -0.265625 -0.765625 -0.265625q-0.359375 0 -0.640625 0.15625q-0.265625 0.140625 -0.765625 0.71875l0 2.3125l0.421875 0q0.140625 0 0.1875 0.0625q0.0625 0.046875 0.0625 0.125q0 0.078125 -0.0625 0.140625q-0.046875 0.046875 -0.1875 0.046875l-1.203125 0q-0.125 0 -0.1875 -0.046875q-0.0625 -0.0625 -0.0625 -0.140625q0 -0.078125 0.0625 -0.125q0.0625 -0.0625 0.1875 -0.0625l0.421875 0l0 -3.0625l-0.3125 0q-0.140625 0 -0.203125 -0.046875q-0.046875 -0.046875 -0.046875 -0.140625q0 -0.078125 0.046875 -0.125q0.0625 -0.0625 0.203125 -0.0625l0.671875 0zm7.869629 3.8125l0 -0.546875q-0.765625 0.6875 -1.640625 0.6875q-0.546875 0 -0.828125 -0.296875q-0.359375 -0.375 -0.359375 -0.890625l0 -2.390625l-0.5 0q-0.125 0 -0.1875 -0.046875q-0.046875 -0.046875 -0.046875 -0.140625q0 -0.078125 0.046875 -0.125q0.0625 -0.0625 0.1875 -0.0625l0.875 0l0 2.765625q0 0.359375 0.21875 0.59375q0.234375 0.234375 0.578125 0.234375q0.90625 0 1.65625 -0.828125l0 -2.390625l-0.6875 0q-0.125 0 -0.1875 -0.046875q-0.0625 -0.046875 -0.0625 -0.140625q0 -0.078125 0.0625 -0.125q0.0625 -0.0625 0.1875 -0.0625l1.046875 0l0 3.4375l0.3125 0q0.140625 0 0.1875 0.0625q0.0625 0.046875 0.0625 0.125q0 0.078125 -0.0625 0.140625q-0.046875 0.046875 -0.1875 0.046875l-0.671875 0zm2.447754 -3.8125l0 0.375q0.46875 -0.5 0.953125 -0.5q0.28125 0 0.5 0.15625q0.21875 0.140625 0.359375 0.453125q0.25 -0.3125 0.5 -0.453125q0.25 -0.15625 0.5 -0.15625q0.40625 0 0.640625 0.265625q0.3125 0.328125 0.3125 0.71875l0 2.578125l0.3125 0q0.125 0 0.1875 0.0625q0.0625 0.046875 0.0625 0.125q0 0.078125 -0.0625 0.140625q-0.0625 0.046875 -0.1875 0.046875l-0.6875 0l0 -2.90625q0 -0.28125 -0.171875 -0.46875q-0.171875 -0.1875 -0.390625 -0.1875q-0.203125 0 -0.4375 0.15625q-0.21875 0.140625 -0.5 0.59375l0 2.4375l0.3125 0q0.125 0 0.1875 0.0625q0.0625 0.046875 0.0625 0.125q0 0.078125 -0.0625 0.140625q-0.0625 0.046875 -0.1875 0.046875l-0.6875 0l0 -2.890625q0 -0.296875 -0.171875 -0.484375q-0.171875 -0.1875 -0.390625 -0.1875q-0.1875 0 -0.390625 0.125q-0.265625 0.1875 -0.5625 0.625l0 2.4375l0.3125 0q0.140625 0 0.1875 0.0625q0.0625 0.046875 0.0625 0.125q0 0.078125 -0.0625 0.140625q-0.046875 0.046875 -0.1875 0.046875l-0.984375 0q-0.140625 0 -0.203125 -0.046875q-0.046875 -0.0625 -0.046875 -0.140625q0 -0.078125 0.046875 -0.125q0.0625 -0.0625 0.203125 -0.0625l0.3125 0l0 -3.0625l-0.3125 0q-0.140625 0 -0.203125 -0.046875q-0.046875 -0.046875 -0.046875 -0.140625q0 -0.078125 0.046875 -0.125q0.0625 -0.0625 0.203125 -0.0625l0.671875 0z" fill-rule="nonzero"/><path fill="#cfe2f3" d="m254.5409 23.318207l29.480621 0l0 9.958572l-19.52417 0l0 3.9601479l19.461884 0l0 9.8941765l-19.397125 0l0 4.022064l19.459412 0l0 9.961048l-29.480621 0z" fill-rule="evenodd"/><path stroke="#4e8aeb" stroke-width="1.0" stroke-linejoin="round" stroke-linecap="butt" d="m254.5409 23.318207l29.480621 0l0 9.958572l-19.52417 0l0 3.9601479l19.461884 0l0 9.8941765l-19.397125 0l0 4.022064l19.459412 0l0 9.961048l-29.480621 0z" fill-rule="evenodd"/><path fill="#ebe3fd" d="m279.18634 49.734703l0 23.653542l21.936981 0l-10.753265 -11.611546l10.753265 -12.041996z" fill-rule="evenodd"/><path stroke="#8b6bda" stroke-width="1.0" stroke-linejoin="round" stroke-linecap="butt" d="m279.18634 49.734703l0 23.653542l21.936981 0l-10.753265 -11.611546l10.753265 -12.041996z" fill-rule="evenodd"/><path fill="#fff176" d="m96.01717 133.8382l125.07087 0l0 44.755905l-125.07087 0z" fill-rule="evenodd"/><path stroke="#ffffff" stroke-width="1.0" stroke-linejoin="round" stroke-linecap="butt" d="m96.01717 133.8382l125.07087 0l0 44.755905l-125.07087 0z" fill-rule="evenodd"/><path fill="#000000" d="m121.411736 155.10489l0 1.421875q0.6875 -0.84375 1.484375 -1.265625q0.8125 -0.4375 1.890625 -0.4375q1.15625 0 2.125 0.546875q0.96875 0.53125 1.5000076 1.5q0.546875 0.953125 0.546875 2.0q0 1.6875 -1.2031326 2.890625q-1.203125 1.1875 -2.953125 1.1875q-2.09375 0 -3.390625 -1.703125l0 4.6875l1.890625 0q0.28125 0 0.390625 0.109375q0.125 0.109375 0.125 0.28125q0 0.171875 -0.125 0.28125q-0.109375 0.109375 -0.390625 0.109375l-3.71875 0q-0.28125 0 -0.40625 -0.109375q-0.109375 -0.09375 -0.109375 -0.28125q0 -0.171875 0.109375 -0.28125q0.125 -0.109375 0.40625 -0.109375l1.046875 0l0 -10.046875l-1.046875 0q-0.28125 0 -0.40625 -0.109375q-0.109375 -0.109375 -0.109375 -0.28125q0 -0.171875 0.109375 -0.28125q0.125 -0.109375 0.40625 -0.109375l1.828125 0zm6.7500076 3.765625q0 -1.34375 -0.9843826 -2.296875q-0.96875 -0.96875 -2.375 -0.96875q-1.421875 0 -2.40625 0.96875q-0.984375 0.96875 -0.984375 2.296875q0 1.359375 0.984375 2.328125q0.984375 0.953125 2.40625 0.953125q1.390625 0 2.375 -0.953125q0.9843826 -0.96875 0.9843826 -2.328125zm9.82373 4.265625l0 -1.125q-1.6875 1.4375 -3.625 1.4375q-1.40625 0 -2.1875 -0.703125q-0.78125 -0.71875 -0.78125 -1.75q0 -1.140625 1.03125 -1.984375q1.046875 -0.84375 3.03125 -0.84375q0.546875 0 1.171875 0.078125q0.625 0.0625 1.359375 0.21875l0 -1.265625q0 -0.640625 -0.59375 -1.109375q-0.59375 -0.484375 -1.78125 -0.484375q-0.90625 0 -2.546875 0.53125q-0.296875 0.09375 -0.375 0.09375q-0.15625 0 -0.265625 -0.109375q-0.109375 -0.109375 -0.109375 -0.28125q0 -0.15625 0.09375 -0.25q0.140625 -0.140625 1.0625 -0.375q1.4375 -0.390625 2.1875 -0.390625q1.46875 0 2.296875 0.734375q0.828125 0.71875 0.828125 1.640625l0 5.15625l1.03125 0q0.296875 0 0.40625 0.109375q0.125 0.109375 0.125 0.28125q0 0.171875 -0.125 0.28125q-0.109375 0.109375 -0.40625 0.109375l-1.828125 0zm0 -3.875q-0.546875 -0.15625 -1.15625 -0.234375q-0.609375 -0.078125 -1.28125 -0.078125q-1.703125 0 -2.65625 0.734375q-0.734375 0.546875 -0.734375 1.3125q0 0.703125 0.546875 1.1875q0.5625 0.484375 1.625 0.484375q1.0 0 1.859375 -0.40625q0.875 -0.40625 1.796875 -1.28125l0 -1.71875zm12.41748 -3.375l0 -0.25q0 -0.296875 0.109375 -0.40625q0.109375 -0.125 0.28125 -0.125q0.171875 0 0.28125 0.125q0.109375 0.109375 0.109375 0.40625l0 1.75q0 0.296875 -0.109375 0.421875q-0.109375 0.109375 -0.28125 0.109375q-0.15625 0 -0.265625 -0.09375q-0.109375 -0.109375 -0.125 -0.359375q-0.0625 -0.671875 -0.875 -1.265625q-0.796875 -0.59375 -2.171875 -0.59375q-1.734375 0 -2.640625 1.09375q-0.90625 1.078125 -0.90625 2.484375q0 1.515625 0.984375 2.5q1.0 0.984375 2.578125 0.984375q0.921875 0 1.859375 -0.328125q0.9375 -0.34375 1.703125 -1.09375q0.1875 -0.171875 0.34375 -0.171875q0.15625 0 0.265625 0.109375q0.109375 0.09375 0.109375 0.25q0 0.40625 -0.9375 1.015625q-1.515625 1.0 -3.375 1.0q-1.875 0 -3.09375 -1.203125q-1.203125 -1.203125 -1.203125 -3.046875q0 -1.890625 1.234375 -3.125q1.234375 -1.25 3.125 -1.25q1.78125 0 3.0 1.0625zm6.5737305 3.78125l0 3.46875l-1.828125 0q-0.28125 0 -0.40625 -0.109375q-0.125 -0.109375 -0.125 -0.28125q0 -0.171875 0.125 -0.28125q0.125 -0.109375 0.40625 -0.109375l1.046875 0l0 -10.078125l-1.046875 0q-0.28125 0 -0.40625 -0.109375q-0.125 -0.109375 -0.125 -0.28125q0 -0.171875 0.125 -0.28125q0.125 -0.109375 0.40625 -0.109375l1.828125 0l0 7.171875l3.3124847 -2.78125l-0.40623474 0q-0.28125 0 -0.40625 -0.109375q-0.109375 -0.109375 -0.109375 -0.28125q0 -0.171875 0.109375 -0.28125q0.125 -0.109375 0.40625 -0.109375l2.4999847 0q0.28125 0 0.40625 0.109375q0.125 0.109375 0.125 0.28125q0 0.171875 -0.125 0.28125q-0.125 0.109375 -0.40625 0.109375l-0.90625 0l-3.0468597 2.546875l3.8593597 3.921875l0.890625 0q0.296875 0 0.40625 0.109375q0.125 0.109375 0.125 0.28125q0 0.171875 -0.125 0.28125q-0.109375 0.109375 -0.40625 0.109375l-2.515625 0q-0.28125 0 -0.40625 -0.109375q-0.109375 -0.109375 -0.109375 -0.28125q0 -0.171875 0.109375 -0.28125q0.125 -0.109375 0.40625 -0.109375l0.546875 0l-3.3437347 -3.4375l-0.890625 0.75zm15.21434 3.46875l0 -1.125q-1.6875 1.4375 -3.625 1.4375q-1.40625 0 -2.1875 -0.703125q-0.78125 -0.71875 -0.78125 -1.75q0 -1.140625 1.03125 -1.984375q1.046875 -0.84375 3.03125 -0.84375q0.546875 0 1.171875 0.078125q0.625 0.0625 1.359375 0.21875l0 -1.265625q0 -0.640625 -0.59375 -1.109375q-0.59375 -0.484375 -1.78125 -0.484375q-0.90625 0 -2.546875 0.53125q-0.296875 0.09375 -0.375 0.09375q-0.15625 0 -0.265625 -0.109375q-0.109375 -0.109375 -0.109375 -0.28125q0 -0.15625 0.09375 -0.25q0.140625 -0.140625 1.0625 -0.375q1.4375 -0.390625 2.1875 -0.390625q1.46875 0 2.296875 0.734375q0.828125 0.71875 0.828125 1.640625l0 5.15625l1.03125 0q0.296875 0 0.40625 0.109375q0.125 0.109375 0.125 0.28125q0 0.171875 -0.125 0.28125q-0.109375 0.109375 -0.40625 0.109375l-1.828125 0zm0 -3.875q-0.546875 -0.15625 -1.15625 -0.234375q-0.609375 -0.078125 -1.28125 -0.078125q-1.703125 0 -2.65625 0.734375q-0.734375 0.546875 -0.734375 1.3125q0 0.703125 0.546875 1.1875q0.5625 0.484375 1.625 0.484375q1.0 0 1.859375 -0.40625q0.875 -0.40625 1.796875 -1.28125l0 -1.71875zm11.79248 -2.734375l0 -1.421875l1.828125 0q0.265625 0 0.390625 0.109375q0.125 0.109375 0.125 0.28125q0 0.171875 -0.125 0.28125q-0.125 0.109375 -0.390625 0.109375l-1.0625 0l0 7.78125q0 0.78125 -0.328125 1.40625q-0.21875 0.40625 -0.75 0.828125q-0.515625 0.4375 -0.9375 0.625q-0.421875 0.1875 -1.140625 0.1875l-2.203125 0q-0.28125 0 -0.40625 -0.109375q-0.125 -0.09375 -0.125 -0.28125q0 -0.171875 0.125 -0.28125q0.125 -0.109375 0.40625 -0.109375l2.234375 0q0.6875 0 1.234375 -0.359375q0.546875 -0.34375 0.921875 -1.015625q0.203125 -0.390625 0.203125 -1.0l0 -2.328125q-1.265625 1.71875 -3.234375 1.71875q-1.609375 0 -2.78125 -1.1875q-1.15625 -1.203125 -1.15625 -2.890625q0 -1.671875 1.15625 -2.859375q1.171875 -1.1875 2.78125 -1.1875q1.96875 0 3.234375 1.703125zm0 2.34375q0 -1.359375 -0.953125 -2.3125q-0.9375 -0.953125 -2.25 -0.953125q-1.296875 0 -2.234375 0.953125q-0.9375 0.953125 -0.9375 2.3125q0 1.375 0.9375 2.328125q0.9375 0.953125 2.234375 0.953125q1.3125 0 2.25 -0.953125q0.953125 -0.953125 0.953125 -2.328125zm12.995605 0.4375l-7.953125 0q0.21875 1.515625 1.28125 2.4375q1.0625 0.921875 2.625 0.921875q0.875 0 1.828125 -0.28125q0.953125 -0.296875 1.5625 -0.765625q0.171875 -0.140625 0.296875 -0.140625q0.15625 0 0.265625 0.125q0.109375 0.109375 0.109375 0.265625q0 0.15625 -0.15625 0.296875q-0.4375 0.46875 -1.578125 0.875q-1.140625 0.40625 -2.328125 0.40625q-2.0 0 -3.34375 -1.3125q-1.34375 -1.3125 -1.34375 -3.1875q0 -1.6875 1.25 -2.90625q1.265625 -1.21875 3.125 -1.21875q1.90625 0 3.140625 1.25q1.234375 1.25 1.21875 3.234375zm-0.796875 -0.796875q-0.234375 -1.28125 -1.21875 -2.09375q-0.984375 -0.8125 -2.34375 -0.8125q-1.375 0 -2.359375 0.8125q-0.96875 0.796875 -1.21875 2.09375l7.140625 0z" fill-rule="nonzero"/><path fill="#fff176" d="m96.014435 115.49465l49.133865 0l0 18.519691l-49.133865 0z" fill-rule="evenodd"/><path stroke="#ffffff" stroke-width="1.0" stroke-linejoin="round" stroke-linecap="butt" d="m96.014435 115.49465l49.133865 0l0 18.519691l-49.133865 0z" fill-rule="evenodd"/></g></svg>