<svg version="1.1" viewBox="0.0 0.0 469.0577427821522 297.5301837270341" fill="none" stroke="none" stroke-linecap="square" stroke-miterlimit="10" xmlns:xlink="http://www.w3.org/1999/xlink" xmlns="http://www.w3.org/2000/svg"><clipPath id="p.0"><path d="m0 0l469.05774 0l0 297.53018l-469.05774 0l0 -297.53018z" clip-rule="nonzero"/></clipPath><g clip-path="url(#p.0)"><path fill="#000000" fill-opacity="0.0" d="m0 0l469.05774 0l0 297.53018l-469.05774 0z" fill-rule="evenodd"/><path fill="#cfe2f3" d="m50.34517 141.60022l0 0c0 -15.664017 12.204647 -28.362206 27.259842 -28.362206l0 0c7.229759 0 14.163406 2.9881516 19.27562 8.307091c5.112213 5.318947 7.9842224 12.5329895 7.9842224 20.055115l0 0c0 15.664017 -12.204643 28.362198 -27.259842 28.362198l0 0c-15.055195 0 -27.259842 -12.698181 -27.259842 -28.362198z" fill-rule="evenodd"/><path stroke="#4e8aeb" stroke-width="1.0" stroke-linejoin="round" stroke-linecap="butt" d="m50.34517 141.60022l0 0c0 -15.664017 12.204647 -28.362206 27.259842 -28.362206l0 0c7.229759 0 14.163406 2.9881516 19.27562 8.307091c5.112213 5.318947 7.9842224 12.5329895 7.9842224 20.055115l0 0c0 15.664017 -12.204643 28.362198 -27.259842 28.362198l0 0c-15.055195 0 -27.259842 -12.698181 -27.259842 -28.362198z" fill-rule="evenodd"/><path fill="#cfe2f3" d="m94.465614 150.37833l0 0c-3.8216858 8.244156 -12.474274 12.67598 -20.972725 10.742172c-8.498451 -1.9338226 -14.653782 -9.735184 -14.919708 -18.90947c-0.26593018 -9.174286 5.4260406 -17.358437 13.796585 -19.837296c8.370544 -2.4788666 17.263618 1.3860474 21.555649 9.368042l-8.601135 5.1553497c-1.9510727 -4.07251 -6.15049 -6.1087646 -10.141632 -4.9175873c-3.9911423 1.1911926 -6.7253647 5.296829 -6.6031876 9.915192c0.122177124 4.618347 3.0686493 8.53598 7.1157837 9.461105c4.047127 0.9251404 8.131546 -1.3852844 9.86393 -5.579712z" fill-rule="evenodd"/><path stroke="#4e8aeb" stroke-width="1.0" stroke-linejoin="round" stroke-linecap="butt" d="m94.465614 150.37833l0 0c-3.8216858 8.244156 -12.474274 12.67598 -20.972725 10.742172c-8.498451 -1.9338226 -14.653782 -9.735184 -14.919708 -18.90947c-0.26593018 -9.174286 5.4260406 -17.358437 13.796585 -19.837296c8.370544 -2.4788666 17.263618 1.3860474 21.555649 9.368042l-8.601135 5.1553497c-1.9510727 -4.07251 -6.15049 -6.1087646 -10.141632 -4.9175873c-3.9911423 1.1911926 -6.7253647 5.296829 -6.6031876 9.915192c0.122177124 4.618347 3.0686493 8.53598 7.1157837 9.461105c4.047127 0.9251404 8.131546 -1.3852844 9.86393 -5.579712z" fill-rule="evenodd"/><path fill="#000000" fill-opacity="0.0" d="m-0.001312336 172.77121l155.2126 0l0 20.850403l-155.2126 0z" fill-rule="evenodd"/><path fill="#000000" d="m15.685066 185.96559l0 4.390625l1.265625 0q0.125 0 0.1875 0.0625q0.0625 0.046875 0.0625 0.125q0 0.078125 -0.0625 0.140625q-0.0625 0.046875 -0.1875 0.046875l-2.90625 0q-0.125 0 -0.1875 -0.046875q-0.0625 -0.0625 -0.0625 -0.140625q0 -0.078125 0.0625 -0.125q0.0625 -0.0625 0.1875 -0.0625l1.265625 0l0 -4.390625l-1.265625 0q-0.125 0 -0.1875 -0.046875q-0.0625 -0.0625 -0.0625 -0.140625q0 -0.09375 0.0625 -0.140625q0.0625 -0.046875 0.1875 -0.046875l2.90625 0q0.125 0 0.1875 0.046875q0.0625 0.046875 0.0625 0.140625q0 0.078125 -0.0625 0.140625q-0.0625 0.046875 -0.1875 0.046875l-1.265625 0zm3.525879 0.953125l0 0.375q0.46875 -0.5 0.953125 -0.5q0.28125 0 0.5 0.15625q0.21875 0.140625 0.359375 0.453125q0.25 -0.3125 0.5 -0.453125q0.25 -0.15625 0.5 -0.15625q0.40625 0 0.640625 0.265625q0.3125 0.328125 0.3125 0.71875l0 2.578125l0.3125 0q0.125 0 0.1875 0.0625q0.0625 0.046875 0.0625 0.125q0 0.078125 -0.0625 0.140625q-0.0625 0.046875 -0.1875 0.046875l-0.6875 0l0 -2.90625q0 -0.28125 -0.171875 -0.46875q-0.171875 -0.1875 -0.390625 -0.1875q-0.203125 0 -0.4375 0.15625q-0.21875 0.140625 -0.5 0.59375l0 2.4375l0.3125 0q0.125 0 0.1875 0.0625q0.0625 0.046875 0.0625 0.125q0 0.078125 -0.0625 0.140625q-0.0625 0.046875 -0.1875 0.046875l-0.6875 0l0 -2.890625q0 -0.296875 -0.171875 -0.484375q-0.171875 -0.1875 -0.390625 -0.1875q-0.1875 0 -0.390625 0.125q-0.265625 0.1875 -0.5625 0.625l0 2.4375l0.3125 0q0.140625 0 0.1875 0.0625q0.0625 0.046875 0.0625 0.125q0 0.078125 -0.0625 0.140625q-0.046875 0.046875 -0.1875 0.046875l-0.984375 0q-0.140625 0 -0.203125 -0.046875q-0.046875 -0.0625 -0.046875 -0.140625q0 -0.078125 0.046875 -0.125q0.0625 -0.0625 0.203125 -0.0625l0.3125 0l0 -3.0625l-0.3125 0q-0.140625 0 -0.203125 -0.046875q-0.046875 -0.046875 -0.046875 -0.140625q0 -0.078125 0.046875 -0.125q0.0625 -0.0625 0.203125 -0.0625l0.671875 0zm8.150879 3.8125l0 -0.53125q-0.8125 0.671875 -1.71875 0.671875q-0.671875 0 -1.046875 -0.328125q-0.359375 -0.34375 -0.359375 -0.828125q0 -0.53125 0.484375 -0.921875q0.5 -0.40625 1.4375 -0.40625q0.25 0 0.546875 0.03125q0.3125 0.03125 0.65625 0.09375l0 -0.59375q0 -0.296875 -0.28125 -0.515625q-0.28125 -0.234375 -0.84375 -0.234375q-0.4375 0 -1.21875 0.25q-0.140625 0.046875 -0.171875 0.046875q-0.078125 0 -0.125 -0.046875q-0.046875 -0.0625 -0.046875 -0.140625q0 -0.078125 0.046875 -0.125q0.0625 -0.0625 0.5 -0.171875q0.671875 -0.1875 1.03125 -0.1875q0.703125 0 1.09375 0.34375q0.390625 0.34375 0.390625 0.78125l0 2.4375l0.484375 0q0.140625 0 0.1875 0.0625q0.0625 0.046875 0.0625 0.125q0 0.078125 -0.0625 0.140625q-0.046875 0.046875 -0.1875 0.046875l-0.859375 0zm0 -1.84375q-0.265625 -0.0625 -0.5625 -0.09375q-0.28125 -0.046875 -0.59375 -0.046875q-0.8125 0 -1.265625 0.34375q-0.34375 0.265625 -0.34375 0.625q0 0.328125 0.265625 0.5625q0.265625 0.234375 0.765625 0.234375q0.46875 0 0.875 -0.1875q0.421875 -0.203125 0.859375 -0.625l0 -0.8125zm5.572754 -1.28125l0 -0.6875l0.875 0q0.125 0 0.171875 0.0625q0.0625 0.046875 0.0625 0.140625q0 0.078125 -0.0625 0.125q-0.046875 0.046875 -0.171875 0.046875l-0.5 0l0 3.6875q0 0.375 -0.15625 0.671875q-0.109375 0.1875 -0.359375 0.390625q-0.234375 0.203125 -0.4375 0.296875q-0.203125 0.09375 -0.546875 0.09375l-1.046875 0q-0.125 0 -0.1875 -0.0625q-0.0625 -0.046875 -0.0625 -0.125q0 -0.09375 0.0625 -0.140625q0.0625 -0.046875 0.1875 -0.046875l1.0625 0q0.328125 0 0.578125 -0.171875q0.265625 -0.15625 0.4375 -0.484375q0.09375 -0.1875 0.09375 -0.46875l0 -1.109375q-0.59375 0.8125 -1.53125 0.8125q-0.75 0 -1.3125 -0.5625q-0.546875 -0.5625 -0.546875 -1.359375q0 -0.796875 0.546875 -1.359375q0.5625 -0.5625 1.3125 -0.5625q0.9375 0 1.53125 0.8125zm0 1.109375q0 -0.65625 -0.453125 -1.09375q-0.4375 -0.453125 -1.046875 -0.453125q-0.625 0 -1.078125 0.453125q-0.4375 0.453125 -0.4375 1.09375q0 0.65625 0.4375 1.109375q0.453125 0.4375 1.078125 0.4375q0.609375 0 1.046875 -0.4375q0.453125 -0.453125 0.453125 -1.109375zm6.166504 0.203125l-3.765625 0q0.09375 0.71875 0.59375 1.15625q0.515625 0.4375 1.25 0.4375q0.40625 0 0.859375 -0.140625q0.453125 -0.140625 0.75 -0.359375q0.078125 -0.0625 0.140625 -0.0625q0.0625 0 0.109375 0.0625q0.0625 0.046875 0.0625 0.109375q0 0.078125 -0.0625 0.15625q-0.21875 0.21875 -0.765625 0.40625q-0.53125 0.1875 -1.09375 0.1875q-0.953125 0 -1.59375 -0.609375q-0.625 -0.625 -0.625 -1.515625q0 -0.796875 0.59375 -1.375q0.59375 -0.578125 1.46875 -0.578125q0.90625 0 1.484375 0.59375q0.59375 0.59375 0.59375 1.53125zm-0.375 -0.375q-0.109375 -0.609375 -0.578125 -0.984375q-0.46875 -0.390625 -1.125 -0.390625q-0.640625 0 -1.109375 0.375q-0.453125 0.375 -0.578125 1.0l3.390625 0zm4.994629 0.46875l-2.4375 0l-0.484375 1.34375l0.703125 0q0.125 0 0.1875 0.0625q0.0625 0.046875 0.0625 0.125q0 0.078125 -0.0625 0.140625q-0.0625 0.046875 -0.1875 0.046875l-1.375 0q-0.140625 0 -0.203125 -0.046875q-0.046875 -0.0625 -0.046875 -0.140625q0 -0.078125 0.046875 -0.125q0.0625 -0.0625 0.203125 -0.0625l0.28125 0l1.625 -4.390625l-1.09375 0q-0.125 0 -0.1875 -0.046875q-0.046875 -0.0625 -0.046875 -0.140625q0 -0.09375 0.046875 -0.140625q0.0625 -0.046875 0.1875 -0.046875l1.859375 0l1.8125 4.765625l0.28125 0q0.125 0 0.1875 0.0625q0.0625 0.046875 0.0625 0.125q0 0.078125 -0.0625 0.140625q-0.0625 0.046875 -0.1875 0.046875l-1.375 0q-0.140625 0 -0.203125 -0.046875q-0.046875 -0.0625 -0.046875 -0.140625q0 -0.078125 0.046875 -0.125q0.0625 -0.0625 0.203125 -0.0625l0.703125 0l-0.5 -1.34375zm-0.140625 -0.375l-1.03125 -2.671875l-0.125 0l-1.0 2.671875l2.15625 0zm3.119629 -1.71875l0 0.5625q0.390625 -0.390625 0.703125 -0.53125q0.3125 -0.15625 0.703125 -0.15625q0.421875 0 0.765625 0.1875q0.25 0.125 0.453125 0.4375q0.203125 0.296875 0.203125 0.625l0 2.3125l0.3125 0q0.125 0 0.171875 0.0625q0.0625 0.046875 0.0625 0.125q0 0.078125 -0.0625 0.140625q-0.046875 0.046875 -0.171875 0.046875l-1.0 0q-0.125 0 -0.1875 -0.046875q-0.0625 -0.0625 -0.0625 -0.140625q0 -0.078125 0.0625 -0.125q0.0625 -0.0625 0.1875 -0.0625l0.3125 0l0 -2.25q0 -0.40625 -0.28125 -0.671875q-0.28125 -0.265625 -0.765625 -0.265625q-0.359375 0 -0.640625 0.15625q-0.265625 0.140625 -0.765625 0.71875l0 2.3125l0.421875 0q0.140625 0 0.1875 0.0625q0.0625 0.046875 0.0625 0.125q0 0.078125 -0.0625 0.140625q-0.046875 0.046875 -0.1875 0.046875l-1.203125 0q-0.125 0 -0.1875 -0.046875q-0.0625 -0.0625 -0.0625 -0.140625q0 -0.078125 0.0625 -0.125q0.0625 -0.0625 0.1875 -0.0625l0.421875 0l0 -3.0625l-0.3125 0q-0.140625 0 -0.203125 -0.046875q-0.046875 -0.046875 -0.046875 -0.140625q0 -0.078125 0.046875 -0.125q0.0625 -0.0625 0.203125 -0.0625l0.671875 0zm8.416504 -1.703125l0 5.140625l0.484375 0q0.140625 0 0.1875 0.0625q0.0625 0.046875 0.0625 0.125q0 0.078125 -0.0625 0.140625q-0.046875 0.046875 -0.1875 0.046875l-0.859375 0l0 -0.734375q-0.640625 0.875 -1.640625 0.875q-0.5 0 -0.96875 -0.265625q-0.453125 -0.265625 -0.71875 -0.75q-0.265625 -0.5 -0.265625 -1.015625q0 -0.53125 0.265625 -1.015625q0.265625 -0.5 0.71875 -0.765625q0.46875 -0.265625 0.984375 -0.265625q0.953125 0 1.625 0.875l0 -2.078125l-0.5 0q-0.140625 0 -0.203125 -0.046875q-0.046875 -0.0625 -0.046875 -0.140625q0 -0.078125 0.046875 -0.125q0.0625 -0.0625 0.203125 -0.0625l0.875 0zm-0.375 3.625q0 -0.703125 -0.484375 -1.1875q-0.46875 -0.484375 -1.125 -0.484375q-0.65625 0 -1.140625 0.484375q-0.46875 0.484375 -0.46875 1.1875q0 0.6875 0.46875 1.1875q0.484375 0.484375 1.140625 0.484375q0.65625 0 1.125 -0.484375q0.484375 -0.5 0.484375 -1.1875zm3.525879 -1.921875l0 0.9375q0.71875 -0.65625 1.078125 -0.828125q0.359375 -0.1875 0.65625 -0.1875q0.328125 0 0.609375 0.21875q0.28125 0.21875 0.28125 0.328125q0 0.09375 -0.0625 0.15625q-0.046875 0.046875 -0.125 0.046875q-0.046875 0 -0.078125 -0.015625q-0.03125 -0.015625 -0.109375 -0.109375q-0.15625 -0.15625 -0.28125 -0.203125q-0.109375 -0.0625 -0.21875 -0.0625q-0.234375 0 -0.578125 0.203125q-0.34375 0.1875 -1.171875 0.9375l0 2.015625l1.625 0q0.140625 0 0.1875 0.0625q0.0625 0.046875 0.0625 0.125q0 0.078125 -0.0625 0.140625q-0.046875 0.046875 -0.1875 0.046875l-2.890625 0q-0.140625 0 -0.203125 -0.046875q-0.046875 -0.046875 -0.046875 -0.140625q0 -0.0625 0.046875 -0.109375q0.0625 -0.0625 0.203125 -0.0625l0.890625 0l0 -3.078125l-0.6875 0q-0.125 0 -0.1875 -0.046875q-0.046875 -0.046875 -0.046875 -0.140625q0 -0.078125 0.046875 -0.125q0.0625 -0.0625 0.1875 -0.0625l1.0625 0zm7.900879 1.921875q0 0.84375 -0.609375 1.4375q-0.59375 0.59375 -1.453125 0.59375q-0.859375 0 -1.46875 -0.59375q-0.59375 -0.609375 -0.59375 -1.4375q0 -0.84375 0.59375 -1.4375q0.609375 -0.609375 1.46875 -0.609375q0.859375 0 1.453125 0.59375q0.609375 0.59375 0.609375 1.453125zm-0.375 0q0 -0.703125 -0.5 -1.1875q-0.484375 -0.484375 -1.1875 -0.484375q-0.703125 0 -1.203125 0.5q-0.5 0.484375 -0.5 1.171875q0 0.6875 0.5 1.1875q0.5 0.484375 1.203125 0.484375q0.703125 0 1.1875 -0.484375q0.5 -0.5 0.5 -1.1875zm3.900879 -3.8125l0 0.953125l-0.546875 0l0 -0.953125l0.546875 0zm0 1.890625l0 3.4375l1.453125 0q0.140625 0 0.1875 0.0625q0.0625 0.046875 0.0625 0.125q0 0.078125 -0.0625 0.140625q-0.046875 0.046875 -0.1875 0.046875l-3.265625 0q-0.140625 0 -0.203125 -0.046875q-0.046875 -0.0625 -0.046875 -0.140625q0 -0.078125 0.046875 -0.125q0.0625 -0.0625 0.203125 -0.0625l1.453125 0l0 -3.0625l-1.078125 0q-0.140625 0 -0.203125 -0.046875q-0.046875 -0.046875 -0.046875 -0.125q0 -0.09375 0.046875 -0.140625q0.0625 -0.0625 0.203125 -0.0625l1.4375 0zm7.025879 -1.703125l0 5.140625l0.484375 0q0.140625 0 0.1875 0.0625q0.0625 0.046875 0.0625 0.125q0 0.078125 -0.0625 0.140625q-0.046875 0.046875 -0.1875 0.046875l-0.859375 0l0 -0.734375q-0.640625 0.875 -1.640625 0.875q-0.5 0 -0.96875 -0.265625q-0.453125 -0.265625 -0.71875 -0.75q-0.265625 -0.5 -0.265625 -1.015625q0 -0.53125 0.265625 -1.015625q0.265625 -0.5 0.71875 -0.765625q0.46875 -0.265625 0.984375 -0.265625q0.953125 0 1.625 0.875l0 -2.078125l-0.5 0q-0.140625 0 -0.203125 -0.046875q-0.046875 -0.0625 -0.046875 -0.140625q0 -0.078125 0.046875 -0.125q0.0625 -0.0625 0.203125 -0.0625l0.875 0zm-0.375 3.625q0 -0.703125 -0.484375 -1.1875q-0.46875 -0.484375 -1.125 -0.484375q-0.65625 0 -1.140625 0.484375q-0.46875 0.484375 -0.46875 1.1875q0 0.6875 0.46875 1.1875q0.484375 0.484375 1.140625 0.484375q0.65625 0 1.125 -0.484375q0.484375 -0.5 0.484375 -1.1875zm2.510254 1.515625l0 -4.390625l-0.3125 0q-0.125 0 -0.1875 -0.046875q-0.0625 -0.0625 -0.0625 -0.140625q0 -0.09375 0.0625 -0.140625q0.0625 -0.046875 0.1875 -0.046875l1.984375 0q0.46875 0 0.84375 0.203125q0.390625 0.1875 0.59375 0.421875q0.359375 0.421875 0.53125 0.890625q0.125 0.34375 0.125 0.796875l0 0.515625q0 0.5625 -0.25 1.09375q-0.25 0.53125 -0.828125 0.921875q-0.4375 0.296875 -1.015625 0.296875l-1.984375 0q-0.125 0 -0.1875 -0.046875q-0.0625 -0.0625 -0.0625 -0.140625q0 -0.078125 0.0625 -0.125q0.0625 -0.0625 0.1875 -0.0625l0.3125 0zm0.375 0l1.34375 0q0.453125 0 0.859375 -0.296875q0.40625 -0.296875 0.609375 -0.71875q0.21875 -0.4375 0.21875 -0.84375l0 -0.671875q0 -0.34375 -0.109375 -0.609375q-0.171875 -0.390625 -0.453125 -0.75q-0.15625 -0.1875 -0.46875 -0.34375q-0.3125 -0.15625 -0.65625 -0.15625l-1.34375 0l0 4.390625zm4.900879 0l0 -4.390625l-0.5 0q-0.125 0 -0.1875 -0.046875q-0.0625 -0.0625 -0.0625 -0.140625q0 -0.09375 0.0625 -0.140625q0.0625 -0.046875 0.1875 -0.046875l2.328125 0q0.6875 0 1.109375 0.40625q0.4375 0.390625 0.4375 0.921875q0 0.671875 -0.71875 1.09375q0.578125 0.203125 0.84375 0.546875q0.265625 0.34375 0.265625 0.765625q0 0.359375 -0.171875 0.671875q-0.171875 0.296875 -0.546875 0.515625q-0.359375 0.21875 -0.78125 0.21875l-2.765625 0q-0.125 0 -0.1875 -0.046875q-0.0625 -0.0625 -0.0625 -0.140625q0 -0.078125 0.0625 -0.125q0.0625 -0.0625 0.1875 -0.0625l0.5 0zm0.375 -2.484375l1.296875 0q0.421875 0 0.765625 -0.15625q0.265625 -0.125 0.40625 -0.34375q0.15625 -0.234375 0.15625 -0.484375q0 -0.34375 -0.328125 -0.625q-0.3125 -0.296875 -0.84375 -0.296875l-1.453125 0l0 1.90625zm0 2.484375l1.859375 0q0.359375 0 0.625 -0.15625q0.265625 -0.15625 0.390625 -0.390625q0.140625 -0.234375 0.140625 -0.484375q0 -0.28125 -0.203125 -0.53125q-0.1875 -0.265625 -0.53125 -0.40625q-0.34375 -0.140625 -0.953125 -0.140625l-1.328125 0l0 2.109375zm5.400879 -1.921875l0 1.921875l0.6875 0q0.125 0 0.1875 0.0625q0.0625 0.046875 0.0625 0.125q0 0.078125 -0.0625 0.140625q-0.0625 0.046875 -0.1875 0.046875l-1.546875 0q-0.140625 0 -0.203125 -0.046875q-0.046875 -0.0625 -0.046875 -0.140625q0 -0.078125 0.046875 -0.125q0.0625 -0.0625 0.203125 -0.0625l0.484375 0l0 -4.390625l-0.484375 0q-0.140625 0 -0.203125 -0.046875q-0.046875 -0.0625 -0.046875 -0.140625q0 -0.09375 0.046875 -0.140625q0.0625 -0.046875 0.203125 -0.046875l2.21875 0q0.703125 0 1.171875 0.4375q0.46875 0.4375 0.46875 0.984375q0 0.390625 -0.296875 0.75q-0.28125 0.34375 -0.96875 0.578125q0.390625 0.265625 0.671875 0.609375q0.28125 0.34375 0.90625 1.40625l0.28125 0q0.125 0 0.171875 0.0625q0.0625 0.046875 0.0625 0.125q0 0.078125 -0.0625 0.140625q-0.046875 0.046875 -0.171875 0.046875l-0.5 0q-0.6875 -1.21875 -1.0625 -1.640625q-0.375 -0.421875 -0.859375 -0.65625l-1.171875 0zm0 -0.359375l1.0 0q0.484375 0 0.875 -0.171875q0.40625 -0.1875 0.578125 -0.421875q0.171875 -0.234375 0.171875 -0.484375q0 -0.375 -0.375 -0.703125q-0.359375 -0.328125 -0.890625 -0.328125l-1.359375 0l0 2.109375zm8.604004 0.84375l-3.765625 0q0.09375 0.71875 0.59375 1.15625q0.515625 0.4375 1.25 0.4375q0.40625 0 0.859375 -0.140625q0.453125 -0.140625 0.75 -0.359375q0.078125 -0.0625 0.140625 -0.0625q0.0625 0 0.109375 0.0625q0.0625 0.046875 0.0625 0.109375q0 0.078125 -0.0625 0.15625q-0.21875 0.21875 -0.765625 0.40625q-0.53125 0.1875 -1.09375 0.1875q-0.953125 0 -1.59375 -0.609375q-0.625 -0.625 -0.625 -1.515625q0 -0.796875 0.59375 -1.375q0.59375 -0.578125 1.46875 -0.578125q0.90625 0 1.484375 0.59375q0.59375 0.59375 0.59375 1.53125zm-0.375 -0.375q-0.109375 -0.609375 -0.578125 -0.984375q-0.46875 -0.390625 -1.125 -0.390625q-0.640625 0 -1.109375 0.375q-0.453125 0.375 -0.578125 1.0l3.390625 0zm2.385254 -1.625l0 0.671875q0.328125 -0.390625 0.703125 -0.59375q0.375 -0.203125 0.890625 -0.203125q0.546875 0 1.0 0.265625q0.46875 0.25 0.71875 0.703125q0.25 0.453125 0.25 0.953125q0 0.796875 -0.5625 1.359375q-0.5625 0.5625 -1.40625 0.5625q-0.984375 0 -1.59375 -0.796875l0 2.21875l0.890625 0q0.140625 0 0.1875 0.046875q0.0625 0.046875 0.0625 0.140625q0 0.078125 -0.0625 0.125q-0.046875 0.0625 -0.1875 0.0625l-1.765625 0q-0.125 0 -0.1875 -0.0625q-0.046875 -0.046875 -0.046875 -0.125q0 -0.09375 0.046875 -0.140625q0.0625 -0.046875 0.1875 -0.046875l0.5 0l0 -4.765625l-0.5 0q-0.125 0 -0.1875 -0.046875q-0.046875 -0.046875 -0.046875 -0.140625q0 -0.078125 0.046875 -0.125q0.0625 -0.0625 0.1875 -0.0625l0.875 0zm3.203125 1.796875q0 -0.640625 -0.46875 -1.09375q-0.46875 -0.453125 -1.140625 -0.453125q-0.671875 0 -1.140625 0.453125q-0.453125 0.453125 -0.453125 1.09375q0 0.640625 0.453125 1.09375q0.46875 0.453125 1.140625 0.453125q0.671875 0 1.140625 -0.453125q0.46875 -0.453125 0.46875 -1.09375zm5.650879 0.125q0 0.84375 -0.609375 1.4375q-0.59375 0.59375 -1.453125 0.59375q-0.859375 0 -1.46875 -0.59375q-0.59375 -0.609375 -0.59375 -1.4375q0 -0.84375 0.59375 -1.4375q0.609375 -0.609375 1.46875 -0.609375q0.859375 0 1.453125 0.59375q0.609375 0.59375 0.609375 1.453125zm-0.375 0q0 -0.703125 -0.5 -1.1875q-0.484375 -0.484375 -1.1875 -0.484375q-0.703125 0 -1.203125 0.5q-0.5 0.484375 -0.5 1.171875q0 0.6875 0.5 1.1875q0.5 0.484375 1.203125 0.484375q0.703125 0 1.1875 -0.484375q0.5 -0.5 0.5 -1.1875zm4.932129 -1.671875q0 -0.125 0.046875 -0.1875q0.0625 -0.0625 0.140625 -0.0625q0.078125 0 0.125 0.0625q0.0625 0.0625 0.0625 0.1875l0 0.640625q0 0.125 -0.0625 0.1875q-0.046875 0.0625 -0.125 0.0625q-0.078125 0 -0.140625 -0.046875q-0.046875 -0.046875 -0.046875 -0.171875q-0.03125 -0.25 -0.28125 -0.421875q-0.359375 -0.25 -0.953125 -0.25q-0.609375 0 -0.953125 0.25q-0.265625 0.1875 -0.265625 0.421875q0 0.265625 0.3125 0.4375q0.203125 0.125 0.796875 0.1875q0.765625 0.078125 1.0625 0.1875q0.4375 0.15625 0.640625 0.4375q0.203125 0.265625 0.203125 0.578125q0 0.46875 -0.453125 0.84375q-0.4375 0.359375 -1.3125 0.359375q-0.875 0 -1.4375 -0.4375q0 0.140625 -0.015625 0.1875q-0.015625 0.046875 -0.0625 0.078125q-0.046875 0.03125 -0.109375 0.03125q-0.078125 0 -0.140625 -0.046875q-0.046875 -0.0625 -0.046875 -0.203125l0 -0.75q0 -0.140625 0.046875 -0.1875q0.0625 -0.0625 0.140625 -0.0625q0.078125 0 0.125 0.0625q0.0625 0.046875 0.0625 0.140625q0 0.203125 0.109375 0.328125q0.140625 0.21875 0.46875 0.359375q0.34375 0.140625 0.84375 0.140625q0.71875 0 1.0625 -0.265625q0.359375 -0.28125 0.359375 -0.578125q0 -0.34375 -0.359375 -0.546875q-0.359375 -0.203125 -1.046875 -0.265625q-0.6875 -0.078125 -0.984375 -0.1875q-0.296875 -0.125 -0.46875 -0.34375q-0.171875 -0.234375 -0.171875 -0.5q0 -0.46875 0.46875 -0.75q0.46875 -0.28125 1.109375 -0.28125q0.765625 0 1.25 0.375zm4.369629 -2.140625l0 0.953125l-0.546875 0l0 -0.953125l0.546875 0zm0 1.890625l0 3.4375l1.453125 0q0.140625 0 0.1875 0.0625q0.0625 0.046875 0.0625 0.125q0 0.078125 -0.0625 0.140625q-0.046875 0.046875 -0.1875 0.046875l-3.265625 0q-0.140625 0 -0.203125 -0.046875q-0.046875 -0.0625 -0.046875 -0.140625q0 -0.078125 0.046875 -0.125q0.0625 -0.0625 0.203125 -0.0625l1.453125 0l0 -3.0625l-1.078125 0q-0.140625 0 -0.203125 -0.046875q-0.046875 -0.046875 -0.046875 -0.125q0 -0.09375 0.046875 -0.140625q0.0625 -0.0625 0.203125 -0.0625l1.4375 0zm4.447754 0l2.015625 0q0.125 0 0.171875 0.0625q0.0625 0.046875 0.0625 0.140625q0 0.078125 -0.0625 0.125q-0.046875 0.046875 -0.171875 0.046875l-2.015625 0l0 2.46875q0 0.3125 0.25 0.53125q0.265625 0.21875 0.765625 0.21875q0.375 0 0.8125 -0.109375q0.4375 -0.125 0.671875 -0.265625q0.09375 -0.046875 0.140625 -0.046875q0.078125 0 0.125 0.0625q0.0625 0.046875 0.0625 0.109375q0 0.078125 -0.0625 0.125q-0.140625 0.15625 -0.6875 0.328125q-0.546875 0.15625 -1.03125 0.15625q-0.65625 0 -1.046875 -0.296875q-0.375 -0.3125 -0.375 -0.8125l0 -2.46875l-0.671875 0q-0.140625 0 -0.203125 -0.046875q-0.046875 -0.046875 -0.046875 -0.140625q0 -0.078125 0.046875 -0.125q0.0625 -0.0625 0.203125 -0.0625l0.671875 0l0 -1.078125q0 -0.140625 0.046875 -0.1875q0.0625 -0.0625 0.140625 -0.0625q0.09375 0 0.140625 0.0625q0.046875 0.046875 0.046875 0.1875l0 1.078125zm8.228996 1.921875q0 0.84375 -0.609375 1.4375q-0.59375 0.59375 -1.453125 0.59375q-0.859375 0 -1.4687424 -0.59375q-0.59375 -0.609375 -0.59375 -1.4375q0 -0.84375 0.59375 -1.4375q0.6093674 -0.609375 1.4687424 -0.609375q0.859375 0 1.453125 0.59375q0.609375 0.59375 0.609375 1.453125zm-0.375 0q0 -0.703125 -0.5 -1.1875q-0.484375 -0.484375 -1.1875 -0.484375q-0.703125 0 -1.2031174 0.5q-0.5 0.484375 -0.5 1.171875q0 0.6875 0.5 1.1875q0.49999237 0.484375 1.2031174 0.484375q0.703125 0 1.1875 -0.484375q0.5 -0.5 0.5 -1.1875zm3.275879 -1.921875l0 0.9375q0.71875 -0.65625 1.078125 -0.828125q0.359375 -0.1875 0.65625 -0.1875q0.328125 0 0.609375 0.21875q0.28125 0.21875 0.28125 0.328125q0 0.09375 -0.0625 0.15625q-0.046875 0.046875 -0.125 0.046875q-0.046875 0 -0.078125 -0.015625q-0.03125 -0.015625 -0.109375 -0.109375q-0.15625 -0.15625 -0.28125 -0.203125q-0.109375 -0.0625 -0.21875 -0.0625q-0.234375 0 -0.578125 0.203125q-0.34375 0.1875 -1.171875 0.9375l0 2.015625l1.625 0q0.140625 0 0.1875 0.0625q0.0625 0.046875 0.0625 0.125q0 0.078125 -0.0625 0.140625q-0.046875 0.046875 -0.1875 0.046875l-2.890625 0q-0.140625 0 -0.203125 -0.046875q-0.046875 -0.046875 -0.046875 -0.140625q0 -0.0625 0.046875 -0.109375q0.0625 -0.0625 0.203125 -0.0625l0.890625 0l0 -3.078125l-0.6875 0q-0.125 0 -0.1875 -0.046875q-0.046875 -0.046875 -0.046875 -0.140625q0 -0.078125 0.046875 -0.125q0.0625 -0.0625 0.1875 -0.0625l1.0625 0zm5.854004 3.8125l-1.703125 -3.4375l-0.109375 0q-0.140625 0 -0.203125 -0.046875q-0.046875 -0.046875 -0.046875 -0.125q0 -0.0625 0.03125 -0.109375q0.03125 -0.046875 0.0625 -0.0625q0.046875 -0.03125 0.15625 -0.03125l1.0 0q0.140625 0 0.1875 0.0625q0.0625 0.046875 0.0625 0.140625q0 0.078125 -0.0625 0.125q-0.046875 0.046875 -0.1875 0.046875l-0.484375 0l1.5 3.03125l1.484375 -3.03125l-0.5 0q-0.125 0 -0.1875 -0.046875q-0.046875 -0.046875 -0.046875 -0.140625q0 -0.078125 0.046875 -0.125q0.0625 -0.0625 0.1875 -0.0625l1.015625 0q0.125 0 0.1875 0.0625q0.0625 0.046875 0.0625 0.140625q0 0.046875 -0.046875 0.09375q-0.03125 0.046875 -0.078125 0.0625q-0.03125 0.015625 -0.234375 0.015625l-2.34375 4.765625l0.578125 0q0.125 0 0.1875 0.046875q0.0625 0.046875 0.0625 0.140625q0 0.078125 -0.0625 0.125q-0.0625 0.0625 -0.1875 0.0625l-2.125 0q-0.140625 0 -0.203125 -0.0625q-0.046875 -0.046875 -0.046875 -0.125q0 -0.09375 0.046875 -0.140625q0.0625 -0.046875 0.203125 -0.046875l1.15625 0l0.640625 -1.328125z" fill-rule="nonzero"/><path fill="#ebe3fd" d="m87.80318 149.11728l0 23.653534l21.937004 0l-10.753281 -11.611542l10.753281 -12.041992z" fill-rule="evenodd"/><path stroke="#8b6bda" stroke-width="1.0" stroke-linejoin="round" stroke-linecap="butt" d="m87.80318 149.11728l0 23.653534l21.937004 0l-10.753281 -11.611542l10.753281 -12.041992z" fill-rule="evenodd"/><path fill="#000000" fill-opacity="0.0" d="m191.86876 54.232468l113.70079 0l0 30.614174l-113.70079 0z" fill-rule="evenodd"/><path stroke="#000000" stroke-width="1.0" stroke-linejoin="round" stroke-linecap="butt" d="m191.86876 54.232468l113.70079 0l0 30.614174l-113.70079 0z" fill-rule="evenodd"/><path fill="#000000" fill-opacity="0.0" d="m191.8686 54.15373l40.850388 0l0 30.70866l-40.850388 0z" fill-rule="evenodd"/><path fill="#000000" d="m208.92955 70.56686l-0.421875 0l-1.4062653 -3.21875l-0.078125 0l0 4.390625l0.6875 0q0.125 0 0.17189026 0.0625q0.0625 0.046875 0.0625 0.125q0 0.078125 -0.0625 0.140625q-0.04689026 0.046875 -0.17189026 0.046875l-1.359375 0q-0.140625 0 -0.203125 -0.046875q-0.046875 -0.0625 -0.046875 -0.140625q0 -0.078125 0.046875 -0.125q0.0625 -0.0625 0.203125 -0.0625l0.296875 0l0 -4.390625l-0.21875 0q-0.140625 0 -0.203125 -0.046875q-0.046875 -0.0625 -0.046875 -0.140625q0 -0.09375 0.046875 -0.140625q0.0625 -0.046875 0.203125 -0.046875l0.90625 0l1.3906403 3.1875l1.375 -3.1875l0.90625 0q0.140625 0 0.1875 0.046875q0.0625 0.046875 0.0625 0.140625q0 0.078125 -0.0625 0.140625q-0.046875 0.046875 -0.1875 0.046875l-0.234375 0l0 4.390625l0.3125 0q0.140625 0 0.1875 0.0625q0.0625 0.046875 0.0625 0.125q0 0.078125 -0.0625 0.140625q-0.046875 0.046875 -0.1875 0.046875l-1.359375 0q-0.125 0 -0.1875 -0.046875q-0.0625 -0.0625 -0.0625 -0.140625q0 -0.078125 0.046875 -0.125q0.0625 -0.0625 0.203125 -0.0625l0.6875 0l0 -4.390625l-0.078125 0l-1.40625 3.21875zm6.229004 1.546875l0 -0.53125q-0.8125 0.671875 -1.71875 0.671875q-0.671875 0 -1.046875 -0.328125q-0.359375 -0.34375 -0.359375 -0.828125q0 -0.53125 0.484375 -0.921875q0.5 -0.40625 1.4375 -0.40625q0.25 0 0.546875 0.03125q0.3125 0.03125 0.65625 0.09375l0 -0.59375q0 -0.296875 -0.28125 -0.515625q-0.28125 -0.234375 -0.84375 -0.234375q-0.4375 0 -1.21875 0.25q-0.140625 0.046875 -0.171875 0.046875q-0.078125 0 -0.125 -0.046875q-0.046875 -0.0625 -0.046875 -0.140625q0 -0.078125 0.046875 -0.125q0.0625 -0.0625 0.5 -0.171875q0.671875 -0.1875 1.03125 -0.1875q0.703125 0 1.09375 0.34375q0.390625 0.34375 0.390625 0.78125l0 2.4375l0.484375 0q0.140625 0 0.1875 0.0625q0.0625 0.046875 0.0625 0.125q0 0.078125 -0.0625 0.140625q-0.046875 0.046875 -0.1875 0.046875l-0.859375 0zm0 -1.84375q-0.265625 -0.0625 -0.5625 -0.09375q-0.28125 -0.046875 -0.59375 -0.046875q-0.8125 0 -1.265625 0.34375q-0.34375 0.265625 -0.34375 0.625q0 0.328125 0.265625 0.5625q0.265625 0.234375 0.765625 0.234375q0.46875 0 0.875 -0.1875q0.421875 -0.203125 0.859375 -0.625l0 -0.8125zm2.947754 -1.96875l0 0.671875q0.328125 -0.390625 0.703125 -0.59375q0.375 -0.203125 0.890625 -0.203125q0.546875 0 1.0 0.265625q0.46875 0.25 0.71875 0.703125q0.25 0.453125 0.25 0.953125q0 0.796875 -0.5625 1.359375q-0.5625 0.5625 -1.40625 0.5625q-0.984375 0 -1.59375 -0.796875l0 2.21875l0.890625 0q0.140625 0 0.1875 0.046875q0.0625 0.046875 0.0625 0.140625q0 0.078125 -0.0625 0.125q-0.046875 0.0625 -0.1875 0.0625l-1.765625 0q-0.125 0 -0.1875 -0.0625q-0.046875 -0.046875 -0.046875 -0.125q0 -0.09375 0.046875 -0.140625q0.0625 -0.046875 0.1875 -0.046875l0.5 0l0 -4.765625l-0.5 0q-0.125 0 -0.1875 -0.046875q-0.046875 -0.046875 -0.046875 -0.140625q0 -0.078125 0.046875 -0.125q0.0625 -0.0625 0.1875 -0.0625l0.875 0zm3.203125 1.796875q0 -0.640625 -0.46875 -1.09375q-0.46875 -0.453125 -1.140625 -0.453125q-0.671875 0 -1.140625 0.453125q-0.453125 0.453125 -0.453125 1.09375q0 0.640625 0.453125 1.09375q0.46875 0.453125 1.140625 0.453125q0.671875 0 1.140625 -0.453125q0.46875 -0.453125 0.46875 -1.09375zm1.3227539 -0.546875l3.984375 -2.21875q0.09375 -0.0625 0.140625 -0.0625q0.078125 0 0.125 0.0625q0.0625 0.046875 0.0625 0.125q0 0.109375 -0.15625 0.203125l-3.40625 1.890625l3.40625 1.90625q0.15625 0.078125 0.15625 0.1875q0 0.078125 -0.0625 0.140625q-0.046875 0.046875 -0.125 0.046875q-0.046875 0 -0.140625 -0.0625l-3.984375 -2.21875z" fill-rule="nonzero"/><path fill="#000000" fill-opacity="0.0" d="m230.04724 54.185226l28.15747 0l0 30.708656l-28.15747 0z" fill-rule="evenodd"/><path fill="#000000" d="m231.54724 70.1296l0 1.640625l0.6875 0q0.140625 0 0.1875 0.0625q0.0625 0.046875 0.0625 0.125q0 0.078125 -0.0625 0.140625q-0.046875 0.046875 -0.1875 0.046875l-1.546875 0q-0.140625 0 -0.203125 -0.046875q-0.046875 -0.0625 -0.046875 -0.140625q0 -0.078125 0.046875 -0.125q0.0625 -0.0625 0.203125 -0.0625l0.5 0l0 -4.390625l-0.5 0q-0.140625 0 -0.203125 -0.046875q-0.046875 -0.0625 -0.046875 -0.140625q0 -0.09375 0.046875 -0.140625q0.0625 -0.046875 0.203125 -0.046875l1.546875 0q0.140625 0 0.1875 0.046875q0.0625 0.046875 0.0625 0.140625q0 0.078125 -0.0625 0.140625q-0.046875 0.046875 -0.1875 0.046875l-0.6875 0l0 2.265625l2.546875 -2.265625l-0.40625 0q-0.125 0 -0.1875 -0.046875q-0.0625 -0.0625 -0.0625 -0.140625q0 -0.09375 0.0625 -0.140625q0.0625 -0.046875 0.1875 -0.046875l1.09375 0q0.125 0 0.1875 0.046875q0.0625 0.046875 0.0625 0.140625q0 0.078125 -0.0625 0.140625q-0.0625 0.046875 -0.1875 0.046875l-0.15625 0l-2.03125 1.8125q0.453125 0.1875 0.75 0.46875q0.3125 0.265625 0.578125 0.78125q0.15625 0.28125 0.578125 1.328125l0.46875 0q0.140625 0 0.1875 0.0625q0.0625 0.046875 0.0625 0.125q0 0.078125 -0.0625 0.140625q-0.046875 0.046875 -0.1875 0.046875l-0.71875 0q-0.578125 -1.59375 -0.96875 -2.046875q-0.390625 -0.453125 -0.984375 -0.640625l-0.75 0.671875zm8.604004 0.203125l-3.765625 0q0.09375 0.71875 0.59375 1.15625q0.515625 0.4375 1.25 0.4375q0.40625 0 0.859375 -0.140625q0.453125 -0.140625 0.75 -0.359375q0.078125 -0.0625 0.140625 -0.0625q0.0625 0 0.109375 0.0625q0.0625 0.046875 0.0625 0.109375q0 0.078125 -0.0625 0.15625q-0.21875 0.21875 -0.765625 0.40625q-0.53125 0.1875 -1.09375 0.1875q-0.953125 0 -1.59375 -0.609375q-0.625 -0.625 -0.625 -1.515625q0 -0.796875 0.59375 -1.375q0.59375 -0.578125 1.46875 -0.578125q0.90625 0 1.484375 0.59375q0.59375 0.59375 0.59375 1.53125zm-0.375 -0.375q-0.109375 -0.609375 -0.578125 -0.984375q-0.46875 -0.390625 -1.125 -0.390625q-0.640625 0 -1.109375 0.375q-0.453125 0.375 -0.578125 1.0l3.390625 0zm3.791504 2.1875l-1.703125 -3.4375l-0.109375 0q-0.140625 0 -0.203125 -0.046875q-0.046875 -0.046875 -0.046875 -0.125q0 -0.0625 0.03125 -0.109375q0.03125 -0.046875 0.0625 -0.0625q0.046875 -0.03125 0.15625 -0.03125l1.0 0q0.140625 0 0.1875 0.0625q0.0625 0.046875 0.0625 0.140625q0 0.078125 -0.0625 0.125q-0.046875 0.046875 -0.1875 0.046875l-0.484375 0l1.5 3.03125l1.484375 -3.03125l-0.5 0q-0.125 0 -0.1875 -0.046875q-0.046875 -0.046875 -0.046875 -0.140625q0 -0.078125 0.046875 -0.125q0.0625 -0.0625 0.1875 -0.0625l1.015625 0q0.125 0 0.1875 0.0625q0.0625 0.046875 0.0625 0.140625q0 0.046875 -0.046875 0.09375q-0.03125 0.046875 -0.078125 0.0625q-0.03125 0.015625 -0.234375 0.015625l-2.34375 4.765625l0.578125 0q0.125 0 0.1875 0.046875q0.0625 0.046875 0.0625 0.140625q0 0.078125 -0.0625 0.125q-0.0625 0.0625 -0.1875 0.0625l-2.125 0q-0.140625 0 -0.203125 -0.0625q-0.046875 -0.046875 -0.046875 -0.125q0 -0.09375 0.046875 -0.140625q0.0625 -0.046875 0.203125 -0.046875l1.15625 0l0.640625 -1.328125zm4.650879 -1.328125l1.203125 0l-1.3125 2.421875q-0.109375 0.21875 -0.28125 0.21875q-0.109375 0 -0.1875 -0.078125q-0.078125 -0.0625 -0.078125 -0.171875q0 -0.046875 0.015625 -0.109375l0.640625 -2.28125z" fill-rule="nonzero"/><path fill="#000000" fill-opacity="0.0" d="m260.2257 54.15373l45.35434 0l0 30.70866l-45.35434 0z" fill-rule="evenodd"/><path fill="#000000" d="m263.19446 72.11373l-0.5 0l-1.859375 -4.765625l-0.296875 0q-0.09375 0 -0.140625 -0.015625q-0.046875 -0.03125 -0.078125 -0.078125q-0.015625 -0.046875 -0.015625 -0.09375q0 -0.0625 0.015625 -0.109375q0.03125 -0.046875 0.078125 -0.0625q0.046875 -0.015625 0.140625 -0.015625l1.375 0q0.109375 0 0.140625 0.015625q0.046875 0.015625 0.078125 0.0625q0.03125 0.046875 0.03125 0.109375q0 0.046875 -0.03125 0.09375q-0.03125 0.046875 -0.078125 0.078125q-0.03125 0.015625 -0.140625 0.015625l-0.703125 0l1.71875 4.390625l0.015625 0l1.703125 -4.390625l-0.703125 0q-0.109375 0 -0.15625 -0.015625q-0.046875 -0.03125 -0.078125 -0.078125q-0.015625 -0.046875 -0.015625 -0.09375q0 -0.0625 0.03125 -0.109375q0.03125 -0.046875 0.0625 -0.0625q0.046875 -0.015625 0.15625 -0.015625l1.359375 0q0.109375 0 0.15625 0.015625q0.046875 0.015625 0.0625 0.0625q0.03125 0.046875 0.03125 0.109375q0 0.046875 -0.03125 0.09375q-0.015625 0.046875 -0.0625 0.078125q-0.046875 0.015625 -0.15625 0.015625l-0.28125 0l-1.828125 4.765625zm6.197754 0l0 -0.53125q-0.8125 0.671875 -1.71875 0.671875q-0.671875 0 -1.046875 -0.328125q-0.359375 -0.34375 -0.359375 -0.828125q0 -0.53125 0.484375 -0.921875q0.5 -0.40625 1.4375 -0.40625q0.25 0 0.546875 0.03125q0.3125 0.03125 0.65625 0.09375l0 -0.59375q0 -0.296875 -0.28125 -0.515625q-0.28125 -0.234375 -0.84375 -0.234375q-0.4375 0 -1.21875 0.25q-0.140625 0.046875 -0.171875 0.046875q-0.078125 0 -0.125 -0.046875q-0.046875 -0.0625 -0.046875 -0.140625q0 -0.078125 0.046875 -0.125q0.0625 -0.0625 0.5 -0.171875q0.671875 -0.1875 1.03125 -0.1875q0.703125 0 1.09375 0.34375q0.390625 0.34375 0.390625 0.78125l0 2.4375l0.484375 0q0.140625 0 0.1875 0.0625q0.0625 0.046875 0.0625 0.125q0 0.078125 -0.0625 0.140625q-0.046875 0.046875 -0.1875 0.046875l-0.859375 0zm0 -1.84375q-0.265625 -0.0625 -0.5625 -0.09375q-0.28125 -0.046875 -0.59375 -0.046875q-0.8125 0 -1.265625 0.34375q-0.34375 0.265625 -0.34375 0.625q0 0.328125 0.265625 0.5625q0.265625 0.234375 0.765625 0.234375q0.46875 0 0.875 -0.1875q0.421875 -0.203125 0.859375 -0.625l0 -0.8125zm4.525879 -3.671875l0 5.140625l1.453125 0q0.125 0 0.1875 0.0625q0.0625 0.046875 0.0625 0.125q0 0.078125 -0.0625 0.140625q-0.0625 0.046875 -0.1875 0.046875l-3.28125 0q-0.125 0 -0.1875 -0.046875q-0.046875 -0.0625 -0.046875 -0.140625q0 -0.078125 0.046875 -0.125q0.0625 -0.0625 0.1875 -0.0625l1.453125 0l0 -4.765625l-1.0625 0q-0.125 0 -0.1875 -0.046875q-0.0625 -0.0625 -0.0625 -0.140625q0 -0.078125 0.046875 -0.125q0.0625 -0.0625 0.203125 -0.0625l1.4375 0zm6.479004 5.515625l0 -0.546875q-0.765625 0.6875 -1.640625 0.6875q-0.546875 0 -0.828125 -0.296875q-0.359375 -0.375 -0.359375 -0.890625l0 -2.390625l-0.5 0q-0.125 0 -0.1875 -0.046875q-0.046875 -0.046875 -0.046875 -0.140625q0 -0.078125 0.046875 -0.125q0.0625 -0.0625 0.1875 -0.0625l0.875 0l0 2.765625q0 0.359375 0.21875 0.59375q0.234375 0.234375 0.578125 0.234375q0.90625 0 1.65625 -0.828125l0 -2.390625l-0.6875 0q-0.125 0 -0.1875 -0.046875q-0.0625 -0.046875 -0.0625 -0.140625q0 -0.078125 0.0625 -0.125q0.0625 -0.0625 0.1875 -0.0625l1.046875 0l0 3.4375l0.3125 0q0.140625 0 0.1875 0.0625q0.0625 0.046875 0.0625 0.125q0 0.078125 -0.0625 0.140625q-0.046875 0.046875 -0.1875 0.046875l-0.671875 0zm6.135254 -1.8125l-3.765625 0q0.09375 0.71875 0.59375 1.15625q0.515625 0.4375 1.25 0.4375q0.40625 0 0.859375 -0.140625q0.453125 -0.140625 0.75 -0.359375q0.078125 -0.0625 0.140625 -0.0625q0.0625 0 0.109375 0.0625q0.0625 0.046875 0.0625 0.109375q0 0.078125 -0.0625 0.15625q-0.21875 0.21875 -0.765625 0.40625q-0.53125 0.1875 -1.09375 0.1875q-0.953125 0 -1.59375 -0.609375q-0.625 -0.625 -0.625 -1.515625q0 -0.796875 0.59375 -1.375q0.59375 -0.578125 1.46875 -0.578125q0.90625 0 1.484375 0.59375q0.59375 0.59375 0.59375 1.53125zm-0.375 -0.375q-0.109375 -0.609375 -0.578125 -0.984375q-0.46875 -0.390625 -1.125 -0.390625q-0.640625 0 -1.109375 0.375q-0.453125 0.375 -0.578125 1.0l3.390625 0zm6.041504 -0.375l-3.984375 2.21875q-0.09375 0.0625 -0.15625 0.0625q-0.0625 0 -0.125 -0.046875q-0.046875 -0.0625 -0.046875 -0.140625q0 -0.109375 0.140625 -0.1875l3.421875 -1.90625l-3.421875 -1.890625q-0.140625 -0.09375 -0.140625 -0.203125q0 -0.078125 0.046875 -0.125q0.0625 -0.0625 0.140625 -0.0625q0.046875 0 0.140625 0.0625l3.984375 2.21875z" fill-rule="nonzero"/><path fill="#cfe2f3" d="m399.2547 103.57918l0 0c0 -15.664009 12.204651 -28.362206 27.259857 -28.362206l0 0c7.2297363 0 14.163391 2.9881516 19.275604 8.307098c5.112213 5.318947 7.9842224 12.532982 7.9842224 20.055107l0 0c0 15.664017 -12.204651 28.362213 -27.259827 28.362213l0 0c-15.055206 0 -27.259857 -12.698196 -27.259857 -28.362213z" fill-rule="evenodd"/><path stroke="#4e8aeb" stroke-width="1.0" stroke-linejoin="round" stroke-linecap="butt" d="m399.2547 103.57918l0 0c0 -15.664009 12.204651 -28.362206 27.259857 -28.362206l0 0c7.2297363 0 14.163391 2.9881516 19.275604 8.307098c5.112213 5.318947 7.9842224 12.532982 7.9842224 20.055107l0 0c0 15.664017 -12.204651 28.362213 -27.259827 28.362213l0 0c-15.055206 0 -27.259857 -12.698196 -27.259857 -28.362213z" fill-rule="evenodd"/><path fill="#cfe2f3" d="m443.37515 112.3573l0 0c-3.8216858 8.244148 -12.474274 12.675972 -20.972717 10.742157c-8.498474 -1.933815 -14.653809 -9.735176 -14.919708 -18.909462c-0.26593018 -9.174286 5.4260254 -17.358437 13.79657 -19.837303c8.370544 -2.478859 17.26361 1.386055 21.555634 9.36805l-8.601105 5.1553497c-1.9510803 -4.072502 -6.1505127 -6.1087646 -10.141632 -4.9175797c-3.99115 1.1911774 -6.7253723 5.2968216 -6.6032104 9.915176c0.12219238 4.618355 3.0686646 8.53598 7.1157837 9.461121c4.0471497 0.92513275 8.131561 -1.385292 9.863953 -5.5797195z" fill-rule="evenodd"/><path stroke="#4e8aeb" stroke-width="1.0" stroke-linejoin="round" stroke-linecap="butt" d="m443.37515 112.3573l0 0c-3.8216858 8.244148 -12.474274 12.675972 -20.972717 10.742157c-8.498474 -1.933815 -14.653809 -9.735176 -14.919708 -18.909462c-0.26593018 -9.174286 5.4260254 -17.358437 13.79657 -19.837303c8.370544 -2.478859 17.26361 1.386055 21.555634 9.36805l-8.601105 5.1553497c-1.9510803 -4.072502 -6.1505127 -6.1087646 -10.141632 -4.9175797c-3.99115 1.1911774 -6.7253723 5.2968216 -6.6032104 9.915176c0.12219238 4.618355 3.0686646 8.53598 7.1157837 9.461121c4.0471497 0.92513275 8.131561 -1.385292 9.863953 -5.5797195z" fill-rule="evenodd"/><path fill="#000000" fill-opacity="0.0" d="m378.76642 134.89502l86.99213 0l0 20.850388l-86.99213 0z" fill-rule="evenodd"/><path fill="#000000" d="m411.6509 148.08939l0 4.390625l1.265625 0q0.125 0 0.1875 0.0625q0.0625 0.046875 0.0625 0.125q0 0.078125 -0.0625 0.140625q-0.0625 0.046875 -0.1875 0.046875l-2.90625 0q-0.125 0 -0.1875 -0.046875q-0.0625 -0.0625 -0.0625 -0.140625q0 -0.078125 0.0625 -0.125q0.0625 -0.0625 0.1875 -0.0625l1.265625 0l0 -4.390625l-1.265625 0q-0.125 0 -0.1875 -0.046875q-0.0625 -0.0625 -0.0625 -0.140625q0 -0.09375 0.0625 -0.140625q0.0625 -0.046875 0.1875 -0.046875l2.90625 0q0.125 0 0.1875 0.046875q0.0625 0.046875 0.0625 0.140625q0 0.078125 -0.0625 0.140625q-0.0625 0.046875 -0.1875 0.046875l-1.265625 0zm3.525879 0.953125l0 0.375q0.46875 -0.5 0.953125 -0.5q0.28125 0 0.5 0.15625q0.21875 0.140625 0.359375 0.453125q0.25 -0.3125 0.5 -0.453125q0.25 -0.15625 0.5 -0.15625q0.40625 0 0.640625 0.265625q0.3125 0.328125 0.3125 0.71875l0 2.578125l0.3125 0q0.125 0 0.1875 0.0625q0.0625 0.046875 0.0625 0.125q0 0.078125 -0.0625 0.140625q-0.0625 0.046875 -0.1875 0.046875l-0.6875 0l0 -2.90625q0 -0.28125 -0.171875 -0.46875q-0.171875 -0.1875 -0.390625 -0.1875q-0.203125 0 -0.4375 0.15625q-0.21875 0.140625 -0.5 0.59375l0 2.4375l0.3125 0q0.125 0 0.1875 0.0625q0.0625 0.046875 0.0625 0.125q0 0.078125 -0.0625 0.140625q-0.0625 0.046875 -0.1875 0.046875l-0.6875 0l0 -2.890625q0 -0.296875 -0.171875 -0.484375q-0.171875 -0.1875 -0.390625 -0.1875q-0.1875 0 -0.390625 0.125q-0.265625 0.1875 -0.5625 0.625l0 2.4375l0.3125 0q0.140625 0 0.1875 0.0625q0.0625 0.046875 0.0625 0.125q0 0.078125 -0.0625 0.140625q-0.046875 0.046875 -0.1875 0.046875l-0.984375 0q-0.140625 0 -0.203125 -0.046875q-0.046875 -0.0625 -0.046875 -0.140625q0 -0.078125 0.046875 -0.125q0.0625 -0.0625 0.203125 -0.0625l0.3125 0l0 -3.0625l-0.3125 0q-0.140625 0 -0.203125 -0.046875q-0.046875 -0.046875 -0.046875 -0.140625q0 -0.078125 0.046875 -0.125q0.0625 -0.0625 0.203125 -0.0625l0.671875 0zm8.150879 3.8125l0 -0.53125q-0.8125 0.671875 -1.71875 0.671875q-0.671875 0 -1.046875 -0.328125q-0.359375 -0.34375 -0.359375 -0.828125q0 -0.53125 0.484375 -0.921875q0.5 -0.40625 1.4375 -0.40625q0.25 0 0.546875 0.03125q0.3125 0.03125 0.65625 0.09375l0 -0.59375q0 -0.296875 -0.28125 -0.515625q-0.28125 -0.234375 -0.84375 -0.234375q-0.4375 0 -1.21875 0.25q-0.140625 0.046875 -0.171875 0.046875q-0.078125 0 -0.125 -0.046875q-0.046875 -0.0625 -0.046875 -0.140625q0 -0.078125 0.046875 -0.125q0.0625 -0.0625 0.5 -0.171875q0.671875 -0.1875 1.03125 -0.1875q0.703125 0 1.09375 0.34375q0.390625 0.34375 0.390625 0.78125l0 2.4375l0.484375 0q0.140625 0 0.1875 0.0625q0.0625 0.046875 0.0625 0.125q0 0.078125 -0.0625 0.140625q-0.046875 0.046875 -0.1875 0.046875l-0.859375 0zm0 -1.84375q-0.265625 -0.0625 -0.5625 -0.09375q-0.28125 -0.046875 -0.59375 -0.046875q-0.8125 0 -1.265625 0.34375q-0.34375 0.265625 -0.34375 0.625q0 0.328125 0.265625 0.5625q0.265625 0.234375 0.765625 0.234375q0.46875 0 0.875 -0.1875q0.421875 -0.203125 0.859375 -0.625l0 -0.8125zm5.572754 -1.28125l0 -0.6875l0.875 0q0.125 0 0.171875 0.0625q0.0625 0.046875 0.0625 0.140625q0 0.078125 -0.0625 0.125q-0.046875 0.046875 -0.171875 0.046875l-0.5 0l0 3.6875q0 0.375 -0.15625 0.671875q-0.109375 0.1875 -0.359375 0.390625q-0.234375 0.203125 -0.4375 0.296875q-0.203125 0.09375 -0.546875 0.09375l-1.046875 0q-0.125 0 -0.1875 -0.0625q-0.0625 -0.046875 -0.0625 -0.125q0 -0.09375 0.0625 -0.140625q0.0625 -0.046875 0.1875 -0.046875l1.0625 0q0.328125 0 0.578125 -0.171875q0.265625 -0.15625 0.4375 -0.484375q0.09375 -0.1875 0.09375 -0.46875l0 -1.109375q-0.59375 0.8125 -1.53125 0.8125q-0.75 0 -1.3125 -0.5625q-0.546875 -0.5625 -0.546875 -1.359375q0 -0.796875 0.546875 -1.359375q0.5625 -0.5625 1.3125 -0.5625q0.9375 0 1.53125 0.8125zm0 1.109375q0 -0.65625 -0.453125 -1.09375q-0.4375 -0.453125 -1.046875 -0.453125q-0.625 0 -1.078125 0.453125q-0.4375 0.453125 -0.4375 1.09375q0 0.65625 0.4375 1.109375q0.453125 0.4375 1.078125 0.4375q0.609375 0 1.046875 -0.4375q0.453125 -0.453125 0.453125 -1.109375zm6.166504 0.203125l-3.765625 0q0.09375 0.71875 0.59375 1.15625q0.515625 0.4375 1.25 0.4375q0.40625 0 0.859375 -0.140625q0.453125 -0.140625 0.75 -0.359375q0.078125 -0.0625 0.140625 -0.0625q0.0625 0 0.109375 0.0625q0.0625 0.046875 0.0625 0.109375q0 0.078125 -0.0625 0.15625q-0.21875 0.21875 -0.765625 0.40625q-0.53125 0.1875 -1.09375 0.1875q-0.953125 0 -1.59375 -0.609375q-0.625 -0.625 -0.625 -1.515625q0 -0.796875 0.59375 -1.375q0.59375 -0.578125 1.46875 -0.578125q0.90625 0 1.484375 0.59375q0.59375 0.59375 0.59375 1.53125zm-0.375 -0.375q-0.109375 -0.609375 -0.578125 -0.984375q-0.46875 -0.390625 -1.125 -0.390625q-0.640625 0 -1.109375 0.375q-0.453125 0.375 -0.578125 1.0l3.390625 0z" fill-rule="nonzero"/><path fill="#ebe3fd" d="m436.7127 111.09624l0 23.65355l21.937012 0l-10.753296 -11.611549l10.753296 -12.042z" fill-rule="evenodd"/><path stroke="#8b6bda" stroke-width="1.0" stroke-linejoin="round" stroke-linecap="butt" d="m436.7127 111.09624l0 23.65355l21.937012 0l-10.753296 -11.611549l10.753296 -12.042z" fill-rule="evenodd"/><path fill="#cfe2f3" d="m216.78827 237.54588l0 0c0 -15.664017 12.204636 -28.362213 27.259842 -28.362213l0 0c7.2297516 0 14.163406 2.9881592 19.27562 8.307098c5.112213 5.3189545 7.9842224 12.5329895 7.9842224 20.055115l0 0c0 15.664017 -12.204651 28.362198 -27.259842 28.362198l0 0c-15.055206 0 -27.259842 -12.698181 -27.259842 -28.362198z" fill-rule="evenodd"/><path stroke="#4e8aeb" stroke-width="1.0" stroke-linejoin="round" stroke-linecap="butt" d="m216.78827 237.54588l0 0c0 -15.664017 12.204636 -28.362213 27.259842 -28.362213l0 0c7.2297516 0 14.163406 2.9881592 19.27562 8.307098c5.112213 5.3189545 7.9842224 12.5329895 7.9842224 20.055115l0 0c0 15.664017 -12.204651 28.362198 -27.259842 28.362198l0 0c-15.055206 0 -27.259842 -12.698181 -27.259842 -28.362198z" fill-rule="evenodd"/><path fill="#cfe2f3" d="m260.90872 246.324l0 0c-3.8216858 8.244141 -12.474289 12.675964 -20.972733 10.742157c-8.498459 -1.9338226 -14.653793 -9.735184 -14.919708 -18.90947c-0.26593018 -9.174286 5.4260406 -17.358429 13.796585 -19.837296c8.370544 -2.4788666 17.26361 1.3860474 21.555634 9.368042l-8.60112 5.1553497c-1.9510803 -4.07251 -6.1504974 -6.1087646 -10.141632 -4.9175873c-3.99115 1.1911926 -6.7253723 5.296829 -6.603195 9.915192c0.122177124 4.618347 3.0686493 8.53598 7.1157837 9.461105c4.0471344 0.9251404 8.131546 -1.3852844 9.863937 -5.579712z" fill-rule="evenodd"/><path stroke="#4e8aeb" stroke-width="1.0" stroke-linejoin="round" stroke-linecap="butt" d="m260.90872 246.324l0 0c-3.8216858 8.244141 -12.474289 12.675964 -20.972733 10.742157c-8.498459 -1.9338226 -14.653793 -9.735184 -14.919708 -18.90947c-0.26593018 -9.174286 5.4260406 -17.358429 13.796585 -19.837296c8.370544 -2.4788666 17.26361 1.3860474 21.555634 9.368042l-8.60112 5.1553497c-1.9510803 -4.07251 -6.1504974 -6.1087646 -10.141632 -4.9175873c-3.99115 1.1911926 -6.7253723 5.296829 -6.603195 9.915192c0.122177124 4.618347 3.0686493 8.53598 7.1157837 9.461105c4.0471344 0.9251404 8.131546 -1.3852844 9.863937 -5.579712z" fill-rule="evenodd"/><path fill="#000000" fill-opacity="0.0" d="m196.30002 268.8617l95.24408 0l0 20.850403l-95.24408 0z" fill-rule="evenodd"/><path fill="#000000" d="m221.24579 282.18106l0 -0.25q0 -0.140625 0.046875 -0.1875q0.046875 -0.0625 0.140625 -0.0625q0.078125 0 0.125 0.0625q0.046875 0.046875 0.046875 0.1875l0 1.015625q0 0.140625 -0.046875 0.203125q-0.046875 0.046875 -0.125 0.046875q-0.078125 0 -0.140625 -0.046875q-0.046875 -0.0625 -0.046875 -0.171875q-0.03125 -0.375 -0.40625 -0.65625q-0.5 -0.390625 -1.15625 -0.390625q-0.421875 0 -0.8125 0.1875q-0.28125 0.140625 -0.4375 0.328125q-0.296875 0.34375 -0.46875 0.765625q-0.125 0.3125 -0.125 0.703125l0 0.640625q0 0.828125 0.59375 1.4375q0.609375 0.609375 1.390625 0.609375q0.484375 0 0.859375 -0.203125q0.375 -0.21875 0.71875 -0.640625q0.078125 -0.078125 0.171875 -0.078125q0.078125 0 0.125 0.046875q0.046875 0.046875 0.046875 0.125q0 0.09375 -0.1875 0.296875q-0.359375 0.40625 -0.8125 0.609375q-0.4375 0.203125 -0.90625 0.203125q-0.40625 0 -0.8125 -0.15625q-0.3125 -0.109375 -0.53125 -0.265625q-0.203125 -0.15625 -0.5 -0.53125q-0.296875 -0.390625 -0.40625 -0.703125q-0.109375 -0.3125 -0.109375 -0.703125l0 -0.75q0 -0.546875 0.28125 -1.109375q0.296875 -0.578125 0.796875 -0.875q0.515625 -0.3125 1.109375 -0.3125q0.921875 0 1.578125 0.625zm5.838379 2.75q0 0.84375 -0.609375 1.4375q-0.59375 0.59375 -1.453125 0.59375q-0.859375 0 -1.46875 -0.59375q-0.59375 -0.609375 -0.59375 -1.4375q0 -0.84375 0.59375 -1.4375q0.609375 -0.609375 1.46875 -0.609375q0.859375 0 1.453125 0.59375q0.609375 0.59375 0.609375 1.453125zm-0.375 0q0 -0.703125 -0.5 -1.1875q-0.484375 -0.484375 -1.1875 -0.484375q-0.703125 0 -1.203125 0.5q-0.5 0.484375 -0.5 1.171875q0 0.6875 0.5 1.1875q0.5 0.484375 1.203125 0.484375q0.703125 0 1.1875 -0.484375q0.5 -0.5 0.5 -1.1875zm5.775879 0q0 0.84375 -0.609375 1.4375q-0.59375 0.59375 -1.453125 0.59375q-0.859375 0 -1.46875 -0.59375q-0.59375 -0.609375 -0.59375 -1.4375q0 -0.84375 0.59375 -1.4375q0.609375 -0.609375 1.46875 -0.609375q0.859375 0 1.453125 0.59375q0.609375 0.59375 0.609375 1.453125zm-0.375 0q0 -0.703125 -0.5 -1.1875q-0.484375 -0.484375 -1.1875 -0.484375q-0.703125 0 -1.203125 0.5q-0.5 0.484375 -0.5 1.171875q0 0.6875 0.5 1.1875q0.5 0.484375 1.203125 0.484375q0.703125 0 1.1875 -0.484375q0.5 -0.5 0.5 -1.1875zm3.275879 -1.921875l0 0.9375q0.71875 -0.65625 1.078125 -0.828125q0.359375 -0.1875 0.65625 -0.1875q0.328125 0 0.609375 0.21875q0.28125 0.21875 0.28125 0.328125q0 0.09375 -0.0625 0.15625q-0.046875 0.046875 -0.125 0.046875q-0.046875 0 -0.078125 -0.015625q-0.03125 -0.015625 -0.109375 -0.109375q-0.15625 -0.15625 -0.28125 -0.203125q-0.109375 -0.0625 -0.21875 -0.0625q-0.234375 0 -0.578125 0.203125q-0.34375 0.1875 -1.171875 0.9375l0 2.015625l1.625 0q0.140625 0 0.1875 0.0625q0.0625 0.046875 0.0625 0.125q0 0.078125 -0.0625 0.140625q-0.046875 0.046875 -0.1875 0.046875l-2.890625 0q-0.140625 0 -0.203125 -0.046875q-0.046875 -0.046875 -0.046875 -0.140625q0 -0.0625 0.046875 -0.109375q0.0625 -0.0625 0.203125 -0.0625l0.890625 0l0 -3.078125l-0.6875 0q-0.125 0 -0.1875 -0.046875q-0.046875 -0.046875 -0.046875 -0.140625q0 -0.078125 0.046875 -0.125q0.0625 -0.0625 0.1875 -0.0625l1.0625 0zm7.650879 -1.703125l0 5.140625l0.484375 0q0.140625 0 0.1875 0.0625q0.0625 0.046875 0.0625 0.125q0 0.078125 -0.0625 0.140625q-0.046875 0.046875 -0.1875 0.046875l-0.859375 0l0 -0.734375q-0.640625 0.875 -1.640625 0.875q-0.5 0 -0.96875 -0.265625q-0.453125 -0.265625 -0.71875 -0.75q-0.265625 -0.5 -0.265625 -1.015625q0 -0.53125 0.265625 -1.015625q0.265625 -0.5 0.71875 -0.765625q0.46875 -0.265625 0.984375 -0.265625q0.953125 0 1.625 0.875l0 -2.078125l-0.5 0q-0.140625 0 -0.203125 -0.046875q-0.046875 -0.0625 -0.046875 -0.140625q0 -0.078125 0.046875 -0.125q0.0625 -0.0625 0.203125 -0.0625l0.875 0zm-0.375 3.625q0 -0.703125 -0.484375 -1.1875q-0.46875 -0.484375 -1.125 -0.484375q-0.65625 0 -1.140625 0.484375q-0.46875 0.484375 -0.46875 1.1875q0 0.6875 0.46875 1.1875q0.484375 0.484375 1.140625 0.484375q0.65625 0 1.125 -0.484375q0.484375 -0.5 0.484375 -1.1875zm4.150879 -3.8125l0 0.953125l-0.546875 0l0 -0.953125l0.546875 0zm0 1.890625l0 3.4375l1.453125 0q0.140625 0 0.1875 0.0625q0.0625 0.046875 0.0625 0.125q0 0.078125 -0.0625 0.140625q-0.046875 0.046875 -0.1875 0.046875l-3.265625 0q-0.140625 0 -0.203125 -0.046875q-0.046875 -0.0625 -0.046875 -0.140625q0 -0.078125 0.046875 -0.125q0.0625 -0.0625 0.203125 -0.0625l1.453125 0l0 -3.0625l-1.078125 0q-0.140625 0 -0.203125 -0.046875q-0.046875 -0.046875 -0.046875 -0.125q0 -0.09375 0.046875 -0.140625q0.0625 -0.0625 0.203125 -0.0625l1.4375 0zm4.010254 0l0 0.5625q0.390625 -0.390625 0.703125 -0.53125q0.3125 -0.15625 0.703125 -0.15625q0.421875 0 0.765625 0.1875q0.25 0.125 0.453125 0.4375q0.203125 0.296875 0.203125 0.625l0 2.3125l0.3125 0q0.125 0 0.171875 0.0625q0.0625 0.046875 0.0625 0.125q0 0.078125 -0.0625 0.140625q-0.046875 0.046875 -0.171875 0.046875l-1.0 0q-0.125 0 -0.1875 -0.046875q-0.0625 -0.0625 -0.0625 -0.140625q0 -0.078125 0.0625 -0.125q0.0625 -0.0625 0.1875 -0.0625l0.3125 0l0 -2.25q0 -0.40625 -0.28125 -0.671875q-0.28125 -0.265625 -0.765625 -0.265625q-0.359375 0 -0.640625 0.15625q-0.265625 0.140625 -0.765625 0.71875l0 2.3125l0.421875 0q0.140625 0 0.1875 0.0625q0.0625 0.046875 0.0625 0.125q0 0.078125 -0.0625 0.140625q-0.046875 0.046875 -0.1875 0.046875l-1.203125 0q-0.125 0 -0.1875 -0.046875q-0.0625 -0.0625 -0.0625 -0.140625q0 -0.078125 0.0625 -0.125q0.0625 -0.0625 0.1875 -0.0625l0.421875 0l0 -3.0625l-0.3125 0q-0.140625 0 -0.203125 -0.046875q-0.046875 -0.046875 -0.046875 -0.140625q0 -0.078125 0.046875 -0.125q0.0625 -0.0625 0.203125 -0.0625l0.671875 0zm7.666504 3.8125l0 -0.53125q-0.8125 0.671875 -1.71875 0.671875q-0.671875 0 -1.046875 -0.328125q-0.359375 -0.34375 -0.359375 -0.828125q0 -0.53125 0.484375 -0.921875q0.5 -0.40625 1.4375 -0.40625q0.25 0 0.546875 0.03125q0.3125 0.03125 0.65625 0.09375l0 -0.59375q0 -0.296875 -0.28125 -0.515625q-0.28125 -0.234375 -0.84375 -0.234375q-0.4375 0 -1.21875 0.25q-0.140625 0.046875 -0.171875 0.046875q-0.078125 0 -0.125 -0.046875q-0.046875 -0.0625 -0.046875 -0.140625q0 -0.078125 0.046875 -0.125q0.0625 -0.0625 0.5 -0.171875q0.671875 -0.1875 1.03125 -0.1875q0.703125 0 1.09375 0.34375q0.390625 0.34375 0.390625 0.78125l0 2.4375l0.484375 0q0.140625 0 0.1875 0.0625q0.0625 0.046875 0.0625 0.125q0 0.078125 -0.0625 0.140625q-0.046875 0.046875 -0.1875 0.046875l-0.859375 0zm0 -1.84375q-0.265625 -0.0625 -0.5625 -0.09375q-0.28125 -0.046875 -0.59375 -0.046875q-0.8125 0 -1.265625 0.34375q-0.34375 0.265625 -0.34375 0.625q0 0.328125 0.265625 0.5625q0.265625 0.234375 0.765625 0.234375q0.46875 0 0.875 -0.1875q0.421875 -0.203125 0.859375 -0.625l0 -0.8125zm3.572754 -1.96875l2.015625 0q0.125 0 0.171875 0.0625q0.0625 0.046875 0.0625 0.140625q0 0.078125 -0.0625 0.125q-0.046875 0.046875 -0.171875 0.046875l-2.015625 0l0 2.46875q0 0.3125 0.25 0.53125q0.265625 0.21875 0.765625 0.21875q0.375 0 0.8125 -0.109375q0.4375 -0.125 0.671875 -0.265625q0.09375 -0.046875 0.140625 -0.046875q0.078125 0 0.125 0.0625q0.0625 0.046875 0.0625 0.109375q0 0.078125 -0.0625 0.125q-0.140625 0.15625 -0.6875 0.328125q-0.546875 0.15625 -1.03125 0.15625q-0.65625 0 -1.046875 -0.296875q-0.375 -0.3125 -0.375 -0.8125l0 -2.46875l-0.671875 0q-0.140625 0 -0.203125 -0.046875q-0.046875 -0.046875 -0.046875 -0.140625q0 -0.078125 0.046875 -0.125q0.0625 -0.0625 0.203125 -0.0625l0.671875 0l0 -1.078125q0 -0.140625 0.046875 -0.1875q0.0625 -0.0625 0.140625 -0.0625q0.09375 0 0.140625 0.0625q0.046875 0.046875 0.046875 0.1875l0 1.078125zm8.166504 2.0l-3.765625 0q0.09375 0.71875 0.59375 1.15625q0.515625 0.4375 1.25 0.4375q0.40625 0 0.859375 -0.140625q0.453125 -0.140625 0.75 -0.359375q0.078125 -0.0625 0.140625 -0.0625q0.0625 0 0.109375 0.0625q0.0625 0.046875 0.0625 0.109375q0 0.078125 -0.0625 0.15625q-0.21875 0.21875 -0.765625 0.40625q-0.53125 0.1875 -1.09375 0.1875q-0.953125 0 -1.59375 -0.609375q-0.625 -0.625 -0.625 -1.515625q0 -0.796875 0.59375 -1.375q0.59375 -0.578125 1.46875 -0.578125q0.90625 0 1.484375 0.59375q0.59375 0.59375 0.59375 1.53125zm-0.375 -0.375q-0.109375 -0.609375 -0.578125 -0.984375q-0.46875 -0.390625 -1.125 -0.390625q-0.640625 0 -1.109375 0.375q-0.453125 0.375 -0.578125 1.0l3.390625 0z" fill-rule="nonzero"/><path fill="#ebe3fd" d="m254.24626 245.06294l0 23.65355l21.937027 0l-10.753296 -11.611542l10.753296 -12.042007z" fill-rule="evenodd"/><path stroke="#8b6bda" stroke-width="1.0" stroke-linejoin="round" stroke-linecap="butt" d="m254.24626 245.06294l0 23.65355l21.937027 0l-10.753296 -11.611542l10.753296 -12.042007z" fill-rule="evenodd"/><path fill="#000000" fill-opacity="0.0" d="m217.6543 -7.6299213E-4l53.228333 0l0 30.708662l-53.228333 0z" fill-rule="evenodd"/><path stroke="#000000" stroke-width="1.0" stroke-linejoin="round" stroke-linecap="butt" d="m217.6543 -7.6299213E-4l53.228333 0l0 30.708662l-53.228333 0z" fill-rule="evenodd"/><path fill="#000000" d="m232.08145 13.193611l0 -0.125q0 -0.140625 0.046875 -0.1875q0.0625 -0.0625 0.140625 -0.0625q0.09375 0 0.140625 0.0625q0.046875 0.046875 0.046875 0.1875l0 0.9375q0 0.125 -0.046875 0.1875q-0.046875 0.0625 -0.140625 0.0625q-0.078125 0 -0.125 -0.046875q-0.046875 -0.0625 -0.0625 -0.1875q-0.015625 -0.359375 -0.375 -0.65625q-0.359375 -0.296875 -0.9375 -0.296875q-0.609375 0 -0.96875 0.3125q-0.359375 0.3125 -0.359375 0.734375q0 0.234375 0.09375 0.421875q0.109375 0.171875 0.265625 0.28125q0.171875 0.109375 0.375 0.1875q0.21875 0.0625 0.671875 0.125q0.75 0.125 1.03125 0.25q0.390625 0.171875 0.578125 0.484375q0.203125 0.296875 0.203125 0.71875q0 0.625 -0.515625 1.078125q-0.5 0.4375 -1.359375 0.4375q-0.953125 0 -1.53125 -0.59375l0 0.203125q0 0.140625 -0.0625 0.203125q-0.046875 0.046875 -0.125 0.046875q-0.078125 0 -0.140625 -0.046875q-0.046875 -0.0625 -0.046875 -0.203125l0 -1.015625q0 -0.140625 0.046875 -0.1875q0.0625 -0.0625 0.140625 -0.0625q0.078125 0 0.125 0.0625q0.046875 0.046875 0.0625 0.15625q0.015625 0.40625 0.421875 0.75q0.421875 0.328125 1.109375 0.328125q0.703125 0 1.09375 -0.34375q0.40625 -0.359375 0.40625 -0.828125q0 -0.296875 -0.15625 -0.515625q-0.15625 -0.234375 -0.453125 -0.359375q-0.21875 -0.09375 -0.875 -0.203125q-0.921875 -0.15625 -1.328125 -0.46875q-0.40625 -0.328125 -0.40625 -0.90625q0 -0.578125 0.453125 -1.0q0.46875 -0.421875 1.234375 -0.421875q0.78125 0 1.328125 0.5zm3.322754 0.953125l2.015625 0q0.125 0 0.171875 0.0625q0.0625 0.046875 0.0625 0.140625q0 0.078125 -0.0625 0.125q-0.046875 0.046875 -0.171875 0.046875l-2.015625 0l0 2.46875q0 0.3125 0.25 0.53125q0.265625 0.21875 0.765625 0.21875q0.375 0 0.8125 -0.109375q0.4375 -0.125 0.671875 -0.265625q0.09375 -0.046875 0.140625 -0.046875q0.078125 0 0.125 0.0625q0.0625 0.046875 0.0625 0.109375q0 0.078125 -0.0625 0.125q-0.140625 0.15625 -0.6875 0.328125q-0.546875 0.15625 -1.03125 0.15625q-0.65625 0 -1.046875 -0.296875q-0.375 -0.3125 -0.375 -0.8125l0 -2.46875l-0.671875 0q-0.140625 0 -0.203125 -0.046875q-0.046875 -0.046875 -0.046875 -0.140625q0 -0.078125 0.046875 -0.125q0.0625 -0.0625 0.203125 -0.0625l0.671875 0l0 -1.078125q0 -0.140625 0.046875 -0.1875q0.0625 -0.0625 0.140625 -0.0625q0.09375 0 0.140625 0.0625q0.046875 0.046875 0.046875 0.1875l0 1.078125zm5.729004 0l0 0.9375q0.71875 -0.65625 1.078125 -0.828125q0.359375 -0.1875 0.65625 -0.1875q0.328125 0 0.609375 0.21875q0.28125 0.21875 0.28125 0.328125q0 0.09375 -0.0625 0.15625q-0.046875 0.046875 -0.125 0.046875q-0.046875 0 -0.078125 -0.015625q-0.03125 -0.015625 -0.109375 -0.109375q-0.15625 -0.15625 -0.28125 -0.203125q-0.109375 -0.0625 -0.21875 -0.0625q-0.234375 0 -0.578125 0.203125q-0.34375 0.1875 -1.171875 0.9375l0 2.015625l1.625 0q0.140625 0 0.1875 0.0625q0.0625 0.046875 0.0625 0.125q0 0.078125 -0.0625 0.140625q-0.046875 0.046875 -0.1875 0.046875l-2.890625 0q-0.140625 0 -0.203125 -0.046875q-0.046875 -0.046875 -0.046875 -0.140625q0 -0.0625 0.046875 -0.109375q0.0625 -0.0625 0.203125 -0.0625l0.890625 0l0 -3.078125l-0.6875 0q-0.125 0 -0.1875 -0.046875q-0.046875 -0.046875 -0.046875 -0.140625q0 -0.078125 0.046875 -0.125q0.0625 -0.0625 0.1875 -0.0625l1.0625 0zm6.025879 -1.890625l0 0.953125l-0.546875 0l0 -0.953125l0.546875 0zm0 1.890625l0 3.4375l1.453125 0q0.140625 0 0.1875 0.0625q0.0625 0.046875 0.0625 0.125q0 0.078125 -0.0625 0.140625q-0.046875 0.046875 -0.1875 0.046875l-3.265625 0q-0.140625 0 -0.203125 -0.046875q-0.046875 -0.0625 -0.046875 -0.140625q0 -0.078125 0.046875 -0.125q0.0625 -0.0625 0.203125 -0.0625l1.453125 0l0 -3.0625l-1.078125 0q-0.140625 0 -0.203125 -0.046875q-0.046875 -0.046875 -0.046875 -0.125q0 -0.09375 0.046875 -0.140625q0.0625 -0.0625 0.203125 -0.0625l1.4375 0zm4.010254 0l0 0.5625q0.390625 -0.390625 0.703125 -0.53125q0.3125 -0.15625 0.703125 -0.15625q0.421875 0 0.765625 0.1875q0.25 0.125 0.453125 0.4375q0.203125 0.296875 0.203125 0.625l0 2.3125l0.3125 0q0.125 0 0.171875 0.0625q0.0625 0.046875 0.0625 0.125q0 0.078125 -0.0625 0.140625q-0.046875 0.046875 -0.171875 0.046875l-1.0 0q-0.125 0 -0.1875 -0.046875q-0.0625 -0.0625 -0.0625 -0.140625q0 -0.078125 0.0625 -0.125q0.0625 -0.0625 0.1875 -0.0625l0.3125 0l0 -2.25q0 -0.40625 -0.28125 -0.671875q-0.28125 -0.265625 -0.765625 -0.265625q-0.359375 0 -0.640625 0.15625q-0.265625 0.140625 -0.765625 0.71875l0 2.3125l0.421875 0q0.140625 0 0.1875 0.0625q0.0625 0.046875 0.0625 0.125q0 0.078125 -0.0625 0.140625q-0.046875 0.046875 -0.1875 0.046875l-1.203125 0q-0.125 0 -0.1875 -0.046875q-0.0625 -0.0625 -0.0625 -0.140625q0 -0.078125 0.0625 -0.125q0.0625 -0.0625 0.1875 -0.0625l0.421875 0l0 -3.0625l-0.3125 0q-0.140625 0 -0.203125 -0.046875q-0.046875 -0.046875 -0.046875 -0.140625q0 -0.078125 0.046875 -0.125q0.0625 -0.0625 0.203125 -0.0625l0.671875 0zm7.838379 0.6875l0 -0.6875l0.875 0q0.125 0 0.171875 0.0625q0.0625 0.046875 0.0625 0.140625q0 0.078125 -0.0625 0.125q-0.046875 0.046875 -0.171875 0.046875l-0.5 0l0 3.6875q0 0.375 -0.15625 0.671875q-0.109375 0.1875 -0.359375 0.390625q-0.234375 0.203125 -0.4375 0.296875q-0.203125 0.09375 -0.546875 0.09375l-1.046875 0q-0.125 0 -0.1875 -0.0625q-0.0625 -0.046875 -0.0625 -0.125q0 -0.09375 0.0625 -0.140625q0.0625 -0.046875 0.1875 -0.046875l1.0625 0q0.328125 0 0.578125 -0.171875q0.265625 -0.15625 0.4375 -0.484375q0.09375 -0.1875 0.09375 -0.46875l0 -1.109375q-0.59375 0.8125 -1.53125 0.8125q-0.75 0 -1.3125 -0.5625q-0.546875 -0.5625 -0.546875 -1.359375q0 -0.796875 0.546875 -1.359375q0.5625 -0.5625 1.3125 -0.5625q0.9375 0 1.53125 0.8125zm0 1.109375q0 -0.65625 -0.453125 -1.09375q-0.4375 -0.453125 -1.046875 -0.453125q-0.625 0 -1.078125 0.453125q-0.4375 0.453125 -0.4375 1.09375q0 0.65625 0.4375 1.109375q0.453125 0.4375 1.078125 0.4375q0.609375 0 1.046875 -0.4375q0.453125 -0.453125 0.453125 -1.109375z" fill-rule="nonzero"/><path fill="#000000" fill-opacity="0.0" d="m191.86876 126.13974l113.70079 0l0 30.614166l-113.70079 0z" fill-rule="evenodd"/><path stroke="#000000" stroke-width="1.0" stroke-linejoin="round" stroke-linecap="butt" d="m191.86876 126.13974l113.70079 0l0 30.614166l-113.70079 0z" fill-rule="evenodd"/><path fill="#000000" fill-opacity="0.0" d="m191.8686 126.061l40.850388 0l0 30.708672l-40.850388 0z" fill-rule="evenodd"/><path fill="#000000" d="m208.92955 142.47412l-0.421875 0l-1.4062653 -3.21875l-0.078125 0l0 4.390625l0.6875 0q0.125 0 0.17189026 0.0625q0.0625 0.046875 0.0625 0.125q0 0.078125 -0.0625 0.140625q-0.04689026 0.046875 -0.17189026 0.046875l-1.359375 0q-0.140625 0 -0.203125 -0.046875q-0.046875 -0.0625 -0.046875 -0.140625q0 -0.078125 0.046875 -0.125q0.0625 -0.0625 0.203125 -0.0625l0.296875 0l0 -4.390625l-0.21875 0q-0.140625 0 -0.203125 -0.046875q-0.046875 -0.0625 -0.046875 -0.140625q0 -0.09375 0.046875 -0.140625q0.0625 -0.046875 0.203125 -0.046875l0.90625 0l1.3906403 3.1875l1.375 -3.1875l0.90625 0q0.140625 0 0.1875 0.046875q0.0625 0.046875 0.0625 0.140625q0 0.078125 -0.0625 0.140625q-0.046875 0.046875 -0.1875 0.046875l-0.234375 0l0 4.390625l0.3125 0q0.140625 0 0.1875 0.0625q0.0625 0.046875 0.0625 0.125q0 0.078125 -0.0625 0.140625q-0.046875 0.046875 -0.1875 0.046875l-1.359375 0q-0.125 0 -0.1875 -0.046875q-0.0625 -0.0625 -0.0625 -0.140625q0 -0.078125 0.046875 -0.125q0.0625 -0.0625 0.203125 -0.0625l0.6875 0l0 -4.390625l-0.078125 0l-1.40625 3.21875zm6.229004 1.546875l0 -0.53125q-0.8125 0.671875 -1.71875 0.671875q-0.671875 0 -1.046875 -0.328125q-0.359375 -0.34375 -0.359375 -0.828125q0 -0.53125 0.484375 -0.921875q0.5 -0.40625 1.4375 -0.40625q0.25 0 0.546875 0.03125q0.3125 0.03125 0.65625 0.09375l0 -0.59375q0 -0.296875 -0.28125 -0.515625q-0.28125 -0.234375 -0.84375 -0.234375q-0.4375 0 -1.21875 0.25q-0.140625 0.046875 -0.171875 0.046875q-0.078125 0 -0.125 -0.046875q-0.046875 -0.0625 -0.046875 -0.140625q0 -0.078125 0.046875 -0.125q0.0625 -0.0625 0.5 -0.171875q0.671875 -0.1875 1.03125 -0.1875q0.703125 0 1.09375 0.34375q0.390625 0.34375 0.390625 0.78125l0 2.4375l0.484375 0q0.140625 0 0.1875 0.0625q0.0625 0.046875 0.0625 0.125q0 0.078125 -0.0625 0.140625q-0.046875 0.046875 -0.1875 0.046875l-0.859375 0zm0 -1.84375q-0.265625 -0.0625 -0.5625 -0.09375q-0.28125 -0.046875 -0.59375 -0.046875q-0.8125 0 -1.265625 0.34375q-0.34375 0.265625 -0.34375 0.625q0 0.328125 0.265625 0.5625q0.265625 0.234375 0.765625 0.234375q0.46875 0 0.875 -0.1875q0.421875 -0.203125 0.859375 -0.625l0 -0.8125zm2.947754 -1.96875l0 0.671875q0.328125 -0.390625 0.703125 -0.59375q0.375 -0.203125 0.890625 -0.203125q0.546875 0 1.0 0.265625q0.46875 0.25 0.71875 0.703125q0.25 0.453125 0.25 0.953125q0 0.796875 -0.5625 1.359375q-0.5625 0.5625 -1.40625 0.5625q-0.984375 0 -1.59375 -0.796875l0 2.21875l0.890625 0q0.140625 0 0.1875 0.046875q0.0625 0.046875 0.0625 0.140625q0 0.078125 -0.0625 0.125q-0.046875 0.0625 -0.1875 0.0625l-1.765625 0q-0.125 0 -0.1875 -0.0625q-0.046875 -0.046875 -0.046875 -0.125q0 -0.09375 0.046875 -0.140625q0.0625 -0.046875 0.1875 -0.046875l0.5 0l0 -4.765625l-0.5 0q-0.125 0 -0.1875 -0.046875q-0.046875 -0.046875 -0.046875 -0.140625q0 -0.078125 0.046875 -0.125q0.0625 -0.0625 0.1875 -0.0625l0.875 0zm3.203125 1.796875q0 -0.640625 -0.46875 -1.09375q-0.46875 -0.453125 -1.140625 -0.453125q-0.671875 0 -1.140625 0.453125q-0.453125 0.453125 -0.453125 1.09375q0 0.640625 0.453125 1.09375q0.46875 0.453125 1.140625 0.453125q0.671875 0 1.140625 -0.453125q0.46875 -0.453125 0.46875 -1.09375zm1.3227539 -0.546875l3.984375 -2.21875q0.09375 -0.0625 0.140625 -0.0625q0.078125 0 0.125 0.0625q0.0625 0.046875 0.0625 0.125q0 0.109375 -0.15625 0.203125l-3.40625 1.890625l3.40625 1.90625q0.15625 0.078125 0.15625 0.1875q0 0.078125 -0.0625 0.140625q-0.046875 0.046875 -0.125 0.046875q-0.046875 0 -0.140625 -0.0625l-3.984375 -2.21875z" fill-rule="nonzero"/><path fill="#000000" fill-opacity="0.0" d="m230.04724 126.0925l28.15747 0l0 30.708664l-28.15747 0z" fill-rule="evenodd"/><path fill="#000000" d="m231.54724 142.03687l0 1.640625l0.6875 0q0.140625 0 0.1875 0.0625q0.0625 0.046875 0.0625 0.125q0 0.078125 -0.0625 0.140625q-0.046875 0.046875 -0.1875 0.046875l-1.546875 0q-0.140625 0 -0.203125 -0.046875q-0.046875 -0.0625 -0.046875 -0.140625q0 -0.078125 0.046875 -0.125q0.0625 -0.0625 0.203125 -0.0625l0.5 0l0 -4.390625l-0.5 0q-0.140625 0 -0.203125 -0.046875q-0.046875 -0.0625 -0.046875 -0.140625q0 -0.09375 0.046875 -0.140625q0.0625 -0.046875 0.203125 -0.046875l1.546875 0q0.140625 0 0.1875 0.046875q0.0625 0.046875 0.0625 0.140625q0 0.078125 -0.0625 0.140625q-0.046875 0.046875 -0.1875 0.046875l-0.6875 0l0 2.265625l2.546875 -2.265625l-0.40625 0q-0.125 0 -0.1875 -0.046875q-0.0625 -0.0625 -0.0625 -0.140625q0 -0.09375 0.0625 -0.140625q0.0625 -0.046875 0.1875 -0.046875l1.09375 0q0.125 0 0.1875 0.046875q0.0625 0.046875 0.0625 0.140625q0 0.078125 -0.0625 0.140625q-0.0625 0.046875 -0.1875 0.046875l-0.15625 0l-2.03125 1.8125q0.453125 0.1875 0.75 0.46875q0.3125 0.265625 0.578125 0.78125q0.15625 0.28125 0.578125 1.328125l0.46875 0q0.140625 0 0.1875 0.0625q0.0625 0.046875 0.0625 0.125q0 0.078125 -0.0625 0.140625q-0.046875 0.046875 -0.1875 0.046875l-0.71875 0q-0.578125 -1.59375 -0.96875 -2.046875q-0.390625 -0.453125 -0.984375 -0.640625l-0.75 0.671875zm8.604004 0.203125l-3.765625 0q0.09375 0.71875 0.59375 1.15625q0.515625 0.4375 1.25 0.4375q0.40625 0 0.859375 -0.140625q0.453125 -0.140625 0.75 -0.359375q0.078125 -0.0625 0.140625 -0.0625q0.0625 0 0.109375 0.0625q0.0625 0.046875 0.0625 0.109375q0 0.078125 -0.0625 0.15625q-0.21875 0.21875 -0.765625 0.40625q-0.53125 0.1875 -1.09375 0.1875q-0.953125 0 -1.59375 -0.609375q-0.625 -0.625 -0.625 -1.515625q0 -0.796875 0.59375 -1.375q0.59375 -0.578125 1.46875 -0.578125q0.90625 0 1.484375 0.59375q0.59375 0.59375 0.59375 1.53125zm-0.375 -0.375q-0.109375 -0.609375 -0.578125 -0.984375q-0.46875 -0.390625 -1.125 -0.390625q-0.640625 0 -1.109375 0.375q-0.453125 0.375 -0.578125 1.0l3.390625 0zm3.791504 2.1875l-1.703125 -3.4375l-0.109375 0q-0.140625 0 -0.203125 -0.046875q-0.046875 -0.046875 -0.046875 -0.125q0 -0.0625 0.03125 -0.109375q0.03125 -0.046875 0.0625 -0.0625q0.046875 -0.03125 0.15625 -0.03125l1.0 0q0.140625 0 0.1875 0.0625q0.0625 0.046875 0.0625 0.140625q0 0.078125 -0.0625 0.125q-0.046875 0.046875 -0.1875 0.046875l-0.484375 0l1.5 3.03125l1.484375 -3.03125l-0.5 0q-0.125 0 -0.1875 -0.046875q-0.046875 -0.046875 -0.046875 -0.140625q0 -0.078125 0.046875 -0.125q0.0625 -0.0625 0.1875 -0.0625l1.015625 0q0.125 0 0.1875 0.0625q0.0625 0.046875 0.0625 0.140625q0 0.046875 -0.046875 0.09375q-0.03125 0.046875 -0.078125 0.0625q-0.03125 0.015625 -0.234375 0.015625l-2.34375 4.765625l0.578125 0q0.125 0 0.1875 0.046875q0.0625 0.046875 0.0625 0.140625q0 0.078125 -0.0625 0.125q-0.0625 0.0625 -0.1875 0.0625l-2.125 0q-0.140625 0 -0.203125 -0.0625q-0.046875 -0.046875 -0.046875 -0.125q0 -0.09375 0.046875 -0.140625q0.0625 -0.046875 0.203125 -0.046875l1.15625 0l0.640625 -1.328125zm4.650879 -1.328125l1.203125 0l-1.3125 2.421875q-0.109375 0.21875 -0.28125 0.21875q-0.109375 0 -0.1875 -0.078125q-0.078125 -0.0625 -0.078125 -0.171875q0 -0.046875 0.015625 -0.109375l0.640625 -2.28125z" fill-rule="nonzero"/><path fill="#000000" fill-opacity="0.0" d="m260.2257 126.061l45.35434 0l0 30.708672l-45.35434 0z" fill-rule="evenodd"/><path fill="#000000" d="m263.19446 144.021l-0.5 0l-1.859375 -4.765625l-0.296875 0q-0.09375 0 -0.140625 -0.015625q-0.046875 -0.03125 -0.078125 -0.078125q-0.015625 -0.046875 -0.015625 -0.09375q0 -0.0625 0.015625 -0.109375q0.03125 -0.046875 0.078125 -0.0625q0.046875 -0.015625 0.140625 -0.015625l1.375 0q0.109375 0 0.140625 0.015625q0.046875 0.015625 0.078125 0.0625q0.03125 0.046875 0.03125 0.109375q0 0.046875 -0.03125 0.09375q-0.03125 0.046875 -0.078125 0.078125q-0.03125 0.015625 -0.140625 0.015625l-0.703125 0l1.71875 4.390625l0.015625 0l1.703125 -4.390625l-0.703125 0q-0.109375 0 -0.15625 -0.015625q-0.046875 -0.03125 -0.078125 -0.078125q-0.015625 -0.046875 -0.015625 -0.09375q0 -0.0625 0.03125 -0.109375q0.03125 -0.046875 0.0625 -0.0625q0.046875 -0.015625 0.15625 -0.015625l1.359375 0q0.109375 0 0.15625 0.015625q0.046875 0.015625 0.0625 0.0625q0.03125 0.046875 0.03125 0.109375q0 0.046875 -0.03125 0.09375q-0.015625 0.046875 -0.0625 0.078125q-0.046875 0.015625 -0.15625 0.015625l-0.28125 0l-1.828125 4.765625zm6.197754 0l0 -0.53125q-0.8125 0.671875 -1.71875 0.671875q-0.671875 0 -1.046875 -0.328125q-0.359375 -0.34375 -0.359375 -0.828125q0 -0.53125 0.484375 -0.921875q0.5 -0.40625 1.4375 -0.40625q0.25 0 0.546875 0.03125q0.3125 0.03125 0.65625 0.09375l0 -0.59375q0 -0.296875 -0.28125 -0.515625q-0.28125 -0.234375 -0.84375 -0.234375q-0.4375 0 -1.21875 0.25q-0.140625 0.046875 -0.171875 0.046875q-0.078125 0 -0.125 -0.046875q-0.046875 -0.0625 -0.046875 -0.140625q0 -0.078125 0.046875 -0.125q0.0625 -0.0625 0.5 -0.171875q0.671875 -0.1875 1.03125 -0.1875q0.703125 0 1.09375 0.34375q0.390625 0.34375 0.390625 0.78125l0 2.4375l0.484375 0q0.140625 0 0.1875 0.0625q0.0625 0.046875 0.0625 0.125q0 0.078125 -0.0625 0.140625q-0.046875 0.046875 -0.1875 0.046875l-0.859375 0zm0 -1.84375q-0.265625 -0.0625 -0.5625 -0.09375q-0.28125 -0.046875 -0.59375 -0.046875q-0.8125 0 -1.265625 0.34375q-0.34375 0.265625 -0.34375 0.625q0 0.328125 0.265625 0.5625q0.265625 0.234375 0.765625 0.234375q0.46875 0 0.875 -0.1875q0.421875 -0.203125 0.859375 -0.625l0 -0.8125zm4.525879 -3.671875l0 5.140625l1.453125 0q0.125 0 0.1875 0.0625q0.0625 0.046875 0.0625 0.125q0 0.078125 -0.0625 0.140625q-0.0625 0.046875 -0.1875 0.046875l-3.28125 0q-0.125 0 -0.1875 -0.046875q-0.046875 -0.0625 -0.046875 -0.140625q0 -0.078125 0.046875 -0.125q0.0625 -0.0625 0.1875 -0.0625l1.453125 0l0 -4.765625l-1.0625 0q-0.125 0 -0.1875 -0.046875q-0.0625 -0.0625 -0.0625 -0.140625q0 -0.078125 0.046875 -0.125q0.0625 -0.0625 0.203125 -0.0625l1.4375 0zm6.479004 5.515625l0 -0.546875q-0.765625 0.6875 -1.640625 0.6875q-0.546875 0 -0.828125 -0.296875q-0.359375 -0.375 -0.359375 -0.890625l0 -2.390625l-0.5 0q-0.125 0 -0.1875 -0.046875q-0.046875 -0.046875 -0.046875 -0.140625q0 -0.078125 0.046875 -0.125q0.0625 -0.0625 0.1875 -0.0625l0.875 0l0 2.765625q0 0.359375 0.21875 0.59375q0.234375 0.234375 0.578125 0.234375q0.90625 0 1.65625 -0.828125l0 -2.390625l-0.6875 0q-0.125 0 -0.1875 -0.046875q-0.0625 -0.046875 -0.0625 -0.140625q0 -0.078125 0.0625 -0.125q0.0625 -0.0625 0.1875 -0.0625l1.046875 0l0 3.4375l0.3125 0q0.140625 0 0.1875 0.0625q0.0625 0.046875 0.0625 0.125q0 0.078125 -0.0625 0.140625q-0.046875 0.046875 -0.1875 0.046875l-0.671875 0zm6.135254 -1.8125l-3.765625 0q0.09375 0.71875 0.59375 1.15625q0.515625 0.4375 1.25 0.4375q0.40625 0 0.859375 -0.140625q0.453125 -0.140625 0.75 -0.359375q0.078125 -0.0625 0.140625 -0.0625q0.0625 0 0.109375 0.0625q0.0625 0.046875 0.0625 0.109375q0 0.078125 -0.0625 0.15625q-0.21875 0.21875 -0.765625 0.40625q-0.53125 0.1875 -1.09375 0.1875q-0.953125 0 -1.59375 -0.609375q-0.625 -0.625 -0.625 -1.515625q0 -0.796875 0.59375 -1.375q0.59375 -0.578125 1.46875 -0.578125q0.90625 0 1.484375 0.59375q0.59375 0.59375 0.59375 1.53125zm-0.375 -0.375q-0.109375 -0.609375 -0.578125 -0.984375q-0.46875 -0.390625 -1.125 -0.390625q-0.640625 0 -1.109375 0.375q-0.453125 0.375 -0.578125 1.0l3.390625 0zm6.041504 -0.375l-3.984375 2.21875q-0.09375 0.0625 -0.15625 0.0625q-0.0625 0 -0.125 -0.046875q-0.046875 -0.0625 -0.046875 -0.140625q0 -0.109375 0.140625 -0.1875l3.421875 -1.90625l-3.421875 -1.890625q-0.140625 -0.09375 -0.140625 -0.203125q0 -0.078125 0.046875 -0.125q0.0625 -0.0625 0.140625 -0.0625q0.046875 0 0.140625 0.0625l3.984375 2.21875z" fill-rule="nonzero"/><path fill="#000000" fill-opacity="0.0" d="m282.9029 84.86239l0 18.708664l116.346436 0" fill-rule="evenodd"/><path stroke="#000000" stroke-width="1.0" stroke-linejoin="round" stroke-linecap="butt" d="m282.9029 84.86239l0 18.708664l116.346436 0" fill-rule="evenodd"/><path fill="#000000" fill-opacity="0.0" d="m282.9029 156.76967l0 25.0l139.37009 0l0 -26.039383" fill-rule="evenodd"/><path stroke="#000000" stroke-width="1.0" stroke-linejoin="round" stroke-linecap="butt" d="m282.9029 156.76967l0 25.0l139.37009 0l0 -26.039383" fill-rule="evenodd"/><path fill="#000000" fill-opacity="0.0" d="m244.12599 156.80116l-0.06300354 52.377945" fill-rule="evenodd"/><path stroke="#000000" stroke-width="1.0" stroke-linejoin="round" stroke-linecap="butt" d="m244.12599 156.80116l-0.06300354 52.377945" fill-rule="evenodd"/><path fill="#000000" fill-opacity="0.0" d="m244.12599 54.185226l0.1574707 -23.46457" fill-rule="evenodd"/><path stroke="#000000" stroke-width="1.0" stroke-linejoin="round" stroke-linecap="butt" d="m244.12599 54.185226l0.1574707 -23.46457" fill-rule="evenodd"/><path fill="#000000" fill-opacity="0.0" d="m77.60501 113.238014l0 -43.716537l114.267715 0" fill-rule="evenodd"/><path stroke="#000000" stroke-width="1.0" stroke-linejoin="round" stroke-linecap="butt" d="m77.60501 113.238014l0 -43.716537l114.267715 0" fill-rule="evenodd"/><path fill="#000000" fill-opacity="0.0" d="m104.86485 141.60022l86.99213 -0.1889801" fill-rule="evenodd"/><path stroke="#000000" stroke-width="1.0" stroke-linejoin="round" stroke-linecap="butt" d="m104.86485 141.60022l86.99213 -0.1889801" fill-rule="evenodd"/></g></svg>