<svg version="1.1" viewBox="0.0 0.0 501.6666666666667 391.6666666666667" fill="none" stroke="none" stroke-linecap="square" stroke-miterlimit="10" xmlns:xlink="http://www.w3.org/1999/xlink" xmlns="http://www.w3.org/2000/svg"><clipPath id="p.0"><path d="m0 0l501.66666 0l0 391.66666l-501.66666 0l0 -391.66666z" clip-rule="nonzero"/></clipPath><g clip-path="url(#p.0)"><path fill="#000000" fill-opacity="0.0" d="m0 0l501.66666 0l0 391.66666l-501.66666 0z" fill-rule="evenodd"/><path fill="#000000" fill-opacity="0.0" d="m96.88063 141.58041l0 -0.12408447l151.30708 0l0 111.90361" fill-rule="evenodd"/><path stroke="#ffffff" stroke-width="1.0" stroke-linejoin="round" stroke-linecap="butt" d="m102.50754 141.45633l145.68019 0l0 111.903595" fill-rule="evenodd"/><path fill="#ffffff" stroke="#ffffff" stroke-width="1.0" stroke-linecap="butt" d="m102.50754 141.45633l-2.4144135 -1.612442l-2.3409805 1.7173004l2.4144058 1.6124573z" fill-rule="evenodd"/><path fill="#cfe2f3" d="m50.34517 121.5253l0 0c0 -15.664009 12.204647 -28.362206 27.259842 -28.362206l0 0c7.229759 0 14.163406 2.9881516 19.27562 8.307098c5.112213 5.318947 7.9842224 12.532982 7.9842224 20.055107l0 0c0 15.664017 -12.204643 28.362213 -27.259842 28.362213l0 0c-15.055195 0 -27.259842 -12.698196 -27.259842 -28.362213z" fill-rule="evenodd"/><path stroke="#4e8aeb" stroke-width="1.0" stroke-linejoin="round" stroke-linecap="butt" d="m50.34517 121.5253l0 0c0 -15.664009 12.204647 -28.362206 27.259842 -28.362206l0 0c7.229759 0 14.163406 2.9881516 19.27562 8.307098c5.112213 5.318947 7.9842224 12.532982 7.9842224 20.055107l0 0c0 15.664017 -12.204643 28.362213 -27.259842 28.362213l0 0c-15.055195 0 -27.259842 -12.698196 -27.259842 -28.362213z" fill-rule="evenodd"/><path fill="#cfe2f3" d="m94.465614 130.30342l0 0c-3.8216858 8.244156 -12.474274 12.67598 -20.972725 10.742157c-8.498451 -1.9338226 -14.653782 -9.735168 -14.919708 -18.909462c-0.26593018 -9.174286 5.4260406 -17.358437 13.796585 -19.837303c8.370544 -2.478859 17.263618 1.386055 21.555649 9.36805l-8.601135 5.1553574c-1.9510727 -4.07251 -6.15049 -6.1087723 -10.141632 -4.9175873c-3.9911423 1.1911774 -6.7253647 5.2968216 -6.6031876 9.915176c0.122177124 4.618355 3.0686493 8.53598 7.1157837 9.461121c4.047127 0.9251404 8.131546 -1.3852997 9.86393 -5.5797195z" fill-rule="evenodd"/><path stroke="#4e8aeb" stroke-width="1.0" stroke-linejoin="round" stroke-linecap="butt" d="m94.465614 130.30342l0 0c-3.8216858 8.244156 -12.474274 12.67598 -20.972725 10.742157c-8.498451 -1.9338226 -14.653782 -9.735168 -14.919708 -18.909462c-0.26593018 -9.174286 5.4260406 -17.358437 13.796585 -19.837303c8.370544 -2.478859 17.263618 1.386055 21.555649 9.36805l-8.601135 5.1553574c-1.9510727 -4.07251 -6.15049 -6.1087723 -10.141632 -4.9175873c-3.9911423 1.1911774 -6.7253647 5.2968216 -6.6031876 9.915176c0.122177124 4.618355 3.0686493 8.53598 7.1157837 9.461121c4.047127 0.9251404 8.131546 -1.3852997 9.86393 -5.5797195z" fill-rule="evenodd"/><path fill="#000000" fill-opacity="0.0" d="m-0.001312336 152.6963l155.2126 0l0 20.850388l-155.2126 0z" fill-rule="evenodd"/><path fill="#ffffff" d="m17.55738 165.89067l0 4.390625l2.453125 0l0 -1.46875q0 -0.125 0.046875 -0.171875q0.0625 -0.0625 0.140625 -0.0625q0.078125 0 0.125 0.0625q0.0625 0.046875 0.0625 0.171875l0 1.84375l-4.078125 0q-0.140625 0 -0.203125 -0.046875q-0.046875 -0.0625 -0.046875 -0.140625q0 -0.078125 0.046875 -0.125q0.0625 -0.0625 0.203125 -0.0625l0.875 0l0 -4.390625l-0.875 0q-0.140625 0 -0.203125 -0.046875q-0.046875 -0.0625 -0.046875 -0.140625q0 -0.09375 0.046875 -0.140625q0.0625 -0.046875 0.203125 -0.046875l2.125 0q0.140625 0 0.1875 0.046875q0.0625 0.046875 0.0625 0.140625q0 0.078125 -0.0625 0.140625q-0.046875 0.046875 -0.1875 0.046875l-0.875 0zm8.104004 2.875q0 0.84375 -0.609375 1.4375q-0.59375 0.59375 -1.453125 0.59375q-0.859375 0 -1.46875 -0.59375q-0.59375 -0.609375 -0.59375 -1.4375q0 -0.84375 0.59375 -1.4375q0.609375 -0.609375 1.46875 -0.609375q0.859375 0 1.453125 0.59375q0.609375 0.59375 0.609375 1.453125zm-0.375 0q0 -0.703125 -0.5 -1.1875q-0.484375 -0.484375 -1.1875 -0.484375q-0.703125 0 -1.203125 0.5q-0.5 0.484375 -0.5 1.171875q0 0.6875 0.5 1.1875q0.5 0.484375 1.203125 0.484375q0.703125 0 1.1875 -0.484375q0.5 -0.5 0.5 -1.1875zm5.244629 -1.546875l0 -0.125q0 -0.125 0.046875 -0.1875q0.0625 -0.0625 0.140625 -0.0625q0.09375 0 0.140625 0.0625q0.046875 0.0625 0.046875 0.1875l0 0.84375q0 0.140625 -0.046875 0.203125q-0.046875 0.046875 -0.140625 0.046875q-0.078125 0 -0.125 -0.046875q-0.046875 -0.0625 -0.0625 -0.171875q-0.015625 -0.3125 -0.40625 -0.59375q-0.375 -0.28125 -1.03125 -0.28125q-0.828125 0 -1.25 0.515625q-0.421875 0.515625 -0.421875 1.171875q0 0.71875 0.46875 1.1875q0.46875 0.46875 1.21875 0.46875q0.421875 0 0.859375 -0.15625q0.453125 -0.171875 0.8125 -0.515625q0.09375 -0.09375 0.171875 -0.09375q0.078125 0 0.125 0.0625q0.046875 0.046875 0.046875 0.125q0 0.1875 -0.4375 0.46875q-0.71875 0.46875 -1.59375 0.46875q-0.890625 0 -1.46875 -0.5625q-0.578125 -0.578125 -0.578125 -1.453125q0 -0.890625 0.578125 -1.46875q0.59375 -0.59375 1.484375 -0.59375q0.859375 0 1.421875 0.5zm4.932129 3.4375l0 -0.53125q-0.8125 0.671875 -1.71875 0.671875q-0.671875 0 -1.046875 -0.328125q-0.359375 -0.34375 -0.359375 -0.828125q0 -0.53125 0.484375 -0.921875q0.5 -0.40625 1.4375 -0.40625q0.25 0 0.546875 0.03125q0.3125 0.03125 0.65625 0.09375l0 -0.59375q0 -0.296875 -0.28125 -0.515625q-0.28125 -0.234375 -0.84375 -0.234375q-0.4375 0 -1.21875 0.25q-0.140625 0.046875 -0.171875 0.046875q-0.078125 0 -0.125 -0.046875q-0.046875 -0.0625 -0.046875 -0.140625q0 -0.078125 0.046875 -0.125q0.0625 -0.0625 0.5 -0.171875q0.671875 -0.1875 1.03125 -0.1875q0.703125 0 1.09375 0.34375q0.390625 0.34375 0.390625 0.78125l0 2.4375l0.484375 0q0.140625 0 0.1875 0.0625q0.0625 0.046875 0.0625 0.125q0 0.078125 -0.0625 0.140625q-0.046875 0.046875 -0.1875 0.046875l-0.859375 0zm0 -1.84375q-0.265625 -0.0625 -0.5625 -0.09375q-0.28125 -0.046875 -0.59375 -0.046875q-0.8125 0 -1.265625 0.34375q-0.34375 0.265625 -0.34375 0.625q0 0.328125 0.265625 0.5625q0.265625 0.234375 0.765625 0.234375q0.46875 0 0.875 -0.1875q0.421875 -0.203125 0.859375 -0.625l0 -0.8125zm3.572754 -1.96875l2.015625 0q0.125 0 0.171875 0.0625q0.0625 0.046875 0.0625 0.140625q0 0.078125 -0.0625 0.125q-0.046875 0.046875 -0.171875 0.046875l-2.015625 0l0 2.46875q0 0.3125 0.25 0.53125q0.265625 0.21875 0.765625 0.21875q0.375 0 0.8125 -0.109375q0.4375 -0.125 0.671875 -0.265625q0.09375 -0.046875 0.140625 -0.046875q0.078125 0 0.125 0.0625q0.0625 0.046875 0.0625 0.109375q0 0.078125 -0.0625 0.125q-0.140625 0.15625 -0.6875 0.328125q-0.546875 0.15625 -1.03125 0.15625q-0.65625 0 -1.046875 -0.296875q-0.375 -0.3125 -0.375 -0.8125l0 -2.46875l-0.671875 0q-0.140625 0 -0.203125 -0.046875q-0.046875 -0.046875 -0.046875 -0.140625q0 -0.078125 0.046875 -0.125q0.0625 -0.0625 0.203125 -0.0625l0.671875 0l0 -1.078125q0 -0.140625 0.046875 -0.1875q0.0625 -0.0625 0.140625 -0.0625q0.09375 0 0.140625 0.0625q0.046875 0.046875 0.046875 0.1875l0 1.078125zm6.354004 -1.890625l0 0.953125l-0.546875 0l0 -0.953125l0.546875 0zm0 1.890625l0 3.4375l1.453125 0q0.140625 0 0.1875 0.0625q0.0625 0.046875 0.0625 0.125q0 0.078125 -0.0625 0.140625q-0.046875 0.046875 -0.1875 0.046875l-3.265625 0q-0.140625 0 -0.203125 -0.046875q-0.046875 -0.0625 -0.046875 -0.140625q0 -0.078125 0.046875 -0.125q0.0625 -0.0625 0.203125 -0.0625l1.453125 0l0 -3.0625l-1.078125 0q-0.140625 0 -0.203125 -0.046875q-0.046875 -0.046875 -0.046875 -0.125q0 -0.09375 0.046875 -0.140625q0.0625 -0.0625 0.203125 -0.0625l1.4375 0zm7.275879 1.921875q0 0.84375 -0.609375 1.4375q-0.59375 0.59375 -1.453125 0.59375q-0.859375 0 -1.46875 -0.59375q-0.59375 -0.609375 -0.59375 -1.4375q0 -0.84375 0.59375 -1.4375q0.609375 -0.609375 1.46875 -0.609375q0.859375 0 1.453125 0.59375q0.609375 0.59375 0.609375 1.453125zm-0.375 0q0 -0.703125 -0.5 -1.1875q-0.484375 -0.484375 -1.1875 -0.484375q-0.703125 0 -1.203125 0.5q-0.5 0.484375 -0.5 1.171875q0 0.6875 0.5 1.1875q0.5 0.484375 1.203125 0.484375q0.703125 0 1.1875 -0.484375q0.5 -0.5 0.5 -1.1875zm2.510254 -1.921875l0 0.5625q0.390625 -0.390625 0.703125 -0.53125q0.3125 -0.15625 0.703125 -0.15625q0.421875 0 0.765625 0.1875q0.25 0.125 0.453125 0.4375q0.203125 0.296875 0.203125 0.625l0 2.3125l0.3125 0q0.125 0 0.171875 0.0625q0.0625 0.046875 0.0625 0.125q0 0.078125 -0.0625 0.140625q-0.046875 0.046875 -0.171875 0.046875l-1.0 0q-0.125 0 -0.1875 -0.046875q-0.0625 -0.0625 -0.0625 -0.140625q0 -0.078125 0.0625 -0.125q0.0625 -0.0625 0.1875 -0.0625l0.3125 0l0 -2.25q0 -0.40625 -0.28125 -0.671875q-0.28125 -0.265625 -0.765625 -0.265625q-0.359375 0 -0.640625 0.15625q-0.265625 0.140625 -0.765625 0.71875l0 2.3125l0.421875 0q0.140625 0 0.1875 0.0625q0.0625 0.046875 0.0625 0.125q0 0.078125 -0.0625 0.140625q-0.046875 0.046875 -0.1875 0.046875l-1.203125 0q-0.125 0 -0.1875 -0.046875q-0.0625 -0.0625 -0.0625 -0.140625q0 -0.078125 0.0625 -0.125q0.0625 -0.0625 0.1875 -0.0625l0.421875 0l0 -3.0625l-0.3125 0q-0.140625 0 -0.203125 -0.046875q-0.046875 -0.046875 -0.046875 -0.140625q0 -0.078125 0.046875 -0.125q0.0625 -0.0625 0.203125 -0.0625l0.671875 0zm7.822754 2.09375l-2.4375 0l-0.484375 1.34375l0.703125 0q0.125 0 0.1875 0.0625q0.0625 0.046875 0.0625 0.125q0 0.078125 -0.0625 0.140625q-0.0625 0.046875 -0.1875 0.046875l-1.375 0q-0.140625 0 -0.203125 -0.046875q-0.046875 -0.0625 -0.046875 -0.140625q0 -0.078125 0.046875 -0.125q0.0625 -0.0625 0.203125 -0.0625l0.28125 0l1.625 -4.390625l-1.09375 0q-0.125 0 -0.1875 -0.046875q-0.046875 -0.0625 -0.046875 -0.140625q0 -0.09375 0.046875 -0.140625q0.0625 -0.046875 0.1875 -0.046875l1.859375 0l1.8125 4.765625l0.28125 0q0.125 0 0.1875 0.0625q0.0625 0.046875 0.0625 0.125q0 0.078125 -0.0625 0.140625q-0.0625 0.046875 -0.1875 0.046875l-1.375 0q-0.140625 0 -0.203125 -0.046875q-0.046875 -0.0625 -0.046875 -0.140625q0 -0.078125 0.046875 -0.125q0.0625 -0.0625 0.203125 -0.0625l0.703125 0l-0.5 -1.34375zm-0.140625 -0.375l-1.03125 -2.671875l-0.125 0l-1.0 2.671875l2.15625 0zm3.525879 -0.015625l0 1.734375l1.265625 0q0.125 0 0.171875 0.0625q0.0625 0.046875 0.0625 0.125q0 0.078125 -0.0625 0.140625q-0.046875 0.046875 -0.171875 0.046875l-2.140625 0q-0.125 0 -0.1875 -0.046875q-0.0625 -0.0625 -0.0625 -0.140625q0 -0.078125 0.0625 -0.125q0.0625 -0.0625 0.1875 -0.0625l0.5 0l0 -4.390625l-0.5 0q-0.125 0 -0.1875 -0.046875q-0.0625 -0.0625 -0.0625 -0.140625q0 -0.09375 0.0625 -0.140625q0.0625 -0.046875 0.1875 -0.046875l2.140625 0q0.765625 0 1.25 0.453125q0.484375 0.4375 0.484375 1.046875q0 0.359375 -0.15625 0.640625q-0.15625 0.28125 -0.375 0.453125q-0.34375 0.234375 -0.6875 0.359375q-0.25 0.078125 -0.640625 0.078125l-1.140625 0zm0 -0.375l1.171875 0q0.40625 0 0.765625 -0.171875q0.359375 -0.1875 0.515625 -0.453125q0.171875 -0.265625 0.171875 -0.53125q0 -0.4375 -0.375 -0.78125q-0.375 -0.34375 -0.9375 -0.34375l-1.3125 0l0 2.28125zm6.385254 -2.28125l0 4.390625l1.265625 0q0.125 0 0.1875 0.0625q0.0625 0.046875 0.0625 0.125q0 0.078125 -0.0625 0.140625q-0.0625 0.046875 -0.1875 0.046875l-2.90625 0q-0.125 0 -0.1875 -0.046875q-0.0625 -0.0625 -0.0625 -0.140625q0 -0.078125 0.0625 -0.125q0.0625 -0.0625 0.1875 -0.0625l1.265625 0l0 -4.390625l-1.265625 0q-0.125 0 -0.1875 -0.046875q-0.0625 -0.0625 -0.0625 -0.140625q0 -0.09375 0.0625 -0.140625q0.0625 -0.046875 0.1875 -0.046875l2.90625 0q0.125 0 0.1875 0.046875q0.0625 0.046875 0.0625 0.140625q0 0.078125 -0.0625 0.140625q-0.0625 0.046875 -0.1875 0.046875l-1.265625 0zm3.760254 4.390625l0 -4.390625l-0.3125 0q-0.125 0 -0.1875 -0.046875q-0.0625 -0.0625 -0.0625 -0.140625q0 -0.09375 0.0625 -0.140625q0.0625 -0.046875 0.1875 -0.046875l1.984375 0q0.46875 0 0.84375 0.203125q0.390625 0.1875 0.59375 0.421875q0.359375 0.421875 0.53125 0.890625q0.125 0.34375 0.125 0.796875l0 0.515625q0 0.5625 -0.25 1.09375q-0.25 0.53125 -0.828125 0.921875q-0.4375 0.296875 -1.015625 0.296875l-1.984375 0q-0.125 0 -0.1875 -0.046875q-0.0625 -0.0625 -0.0625 -0.140625q0 -0.078125 0.0625 -0.125q0.0625 -0.0625 0.1875 -0.0625l0.3125 0zm0.375 0l1.34375 0q0.453125 0 0.859375 -0.296875q0.40625 -0.296875 0.609375 -0.71875q0.21875 -0.4375 0.21875 -0.84375l0 -0.671875q0 -0.34375 -0.109375 -0.609375q-0.171875 -0.390625 -0.453125 -0.75q-0.15625 -0.1875 -0.46875 -0.34375q-0.3125 -0.15625 -0.65625 -0.15625l-1.34375 0l0 4.390625zm4.900879 0l0 -4.390625l-0.5 0q-0.125 0 -0.1875 -0.046875q-0.0625 -0.0625 -0.0625 -0.140625q0 -0.09375 0.0625 -0.140625q0.0625 -0.046875 0.1875 -0.046875l2.328125 0q0.6875 0 1.109375 0.40625q0.4375 0.390625 0.4375 0.921875q0 0.671875 -0.71875 1.09375q0.578125 0.203125 0.84375 0.546875q0.265625 0.34375 0.265625 0.765625q0 0.359375 -0.171875 0.671875q-0.171875 0.296875 -0.546875 0.515625q-0.359375 0.21875 -0.78125 0.21875l-2.765625 0q-0.125 0 -0.1875 -0.046875q-0.0625 -0.0625 -0.0625 -0.140625q0 -0.078125 0.0625 -0.125q0.0625 -0.0625 0.1875 -0.0625l0.5 0zm0.375 -2.484375l1.296875 0q0.421875 0 0.765625 -0.15625q0.265625 -0.125 0.40625 -0.34375q0.15625 -0.234375 0.15625 -0.484375q0 -0.34375 -0.328125 -0.625q-0.3125 -0.296875 -0.84375 -0.296875l-1.453125 0l0 1.90625zm0 2.484375l1.859375 0q0.359375 0 0.625 -0.15625q0.265625 -0.15625 0.390625 -0.390625q0.140625 -0.234375 0.140625 -0.484375q0 -0.28125 -0.203125 -0.53125q-0.1875 -0.265625 -0.53125 -0.40625q-0.34375 -0.140625 -0.953125 -0.140625l-1.328125 0l0 2.109375zm5.400879 -1.921875l0 1.921875l0.6875 0q0.125 0 0.1875 0.0625q0.0625 0.046875 0.0625 0.125q0 0.078125 -0.0625 0.140625q-0.0625 0.046875 -0.1875 0.046875l-1.546875 0q-0.140625 0 -0.203125 -0.046875q-0.046875 -0.0625 -0.046875 -0.140625q0 -0.078125 0.046875 -0.125q0.0625 -0.0625 0.203125 -0.0625l0.484375 0l0 -4.390625l-0.484375 0q-0.140625 0 -0.203125 -0.046875q-0.046875 -0.0625 -0.046875 -0.140625q0 -0.09375 0.046875 -0.140625q0.0625 -0.046875 0.203125 -0.046875l2.21875 0q0.703125 0 1.171875 0.4375q0.46875 0.4375 0.46875 0.984375q0 0.390625 -0.296875 0.75q-0.28125 0.34375 -0.96875 0.578125q0.390625 0.265625 0.671875 0.609375q0.28125 0.34375 0.90625 1.40625l0.28125 0q0.125 0 0.171875 0.0625q0.0625 0.046875 0.0625 0.125q0 0.078125 -0.0625 0.140625q-0.046875 0.046875 -0.171875 0.046875l-0.5 0q-0.6875 -1.21875 -1.0625 -1.640625q-0.375 -0.421875 -0.859375 -0.65625l-1.171875 0zm0 -0.359375l1.0 0q0.484375 0 0.875 -0.171875q0.40625 -0.1875 0.578125 -0.421875q0.171875 -0.234375 0.171875 -0.484375q0 -0.375 -0.375 -0.703125q-0.359375 -0.328125 -0.890625 -0.328125l-1.359375 0l0 2.109375zm8.604004 0.84375l-3.765625 0q0.09375 0.71875 0.59375 1.15625q0.515625 0.4375 1.25 0.4375q0.40625 0 0.859375 -0.140625q0.453125 -0.140625 0.75 -0.359375q0.078125 -0.0625 0.140625 -0.0625q0.0625 0 0.109375 0.0625q0.0625 0.046875 0.0625 0.109375q0 0.078125 -0.0625 0.15625q-0.21875 0.21875 -0.765625 0.40625q-0.53125 0.1875 -1.09375 0.1875q-0.953125 0 -1.59375 -0.609375q-0.625 -0.625 -0.625 -1.515625q0 -0.796875 0.59375 -1.375q0.59375 -0.578125 1.46875 -0.578125q0.90625 0 1.484375 0.59375q0.59375 0.59375 0.59375 1.53125zm-0.375 -0.375q-0.109375 -0.609375 -0.578125 -0.984375q-0.46875 -0.390625 -1.125 -0.390625q-0.640625 0 -1.109375 0.375q-0.453125 0.375 -0.578125 1.0l3.390625 0zm2.385254 -1.625l0 0.671875q0.328125 -0.390625 0.703125 -0.59375q0.375 -0.203125 0.890625 -0.203125q0.546875 0 1.0 0.265625q0.46875 0.25 0.71875 0.703125q0.25 0.453125 0.25 0.953125q0 0.796875 -0.5625 1.359375q-0.5625 0.5625 -1.40625 0.5625q-0.984375 0 -1.59375 -0.796875l0 2.21875l0.890625 0q0.140625 0 0.1875 0.046875q0.0625 0.046875 0.0625 0.140625q0 0.078125 -0.0625 0.125q-0.046875 0.0625 -0.1875 0.0625l-1.765625 0q-0.125 0 -0.1875 -0.0625q-0.046875 -0.046875 -0.046875 -0.125q0 -0.09375 0.046875 -0.140625q0.0625 -0.046875 0.1875 -0.046875l0.5 0l0 -4.765625l-0.5 0q-0.125 0 -0.1875 -0.046875q-0.046875 -0.046875 -0.046875 -0.140625q0 -0.078125 0.046875 -0.125q0.0625 -0.0625 0.1875 -0.0625l0.875 0zm3.203125 1.796875q0 -0.640625 -0.46875 -1.09375q-0.46875 -0.453125 -1.140625 -0.453125q-0.671875 0 -1.140625 0.453125q-0.453125 0.453125 -0.453125 1.09375q0 0.640625 0.453125 1.09375q0.46875 0.453125 1.140625 0.453125q0.671875 0 1.140625 -0.453125q0.46875 -0.453125 0.46875 -1.09375zm5.650879 0.125q0 0.84375 -0.609375 1.4375q-0.59375 0.59375 -1.453125 0.59375q-0.859375 0 -1.46875 -0.59375q-0.59375 -0.609375 -0.59375 -1.4375q0 -0.84375 0.59375 -1.4375q0.609375 -0.609375 1.46875 -0.609375q0.859375 0 1.453125 0.59375q0.609375 0.59375 0.609375 1.453125zm-0.375 0q0 -0.703125 -0.5 -1.1875q-0.484375 -0.484375 -1.1875 -0.484375q-0.703125 0 -1.203125 0.5q-0.5 0.484375 -0.5 1.171875q0 0.6875 0.5 1.1875q0.5 0.484375 1.203125 0.484375q0.703125 0 1.1875 -0.484375q0.5 -0.5 0.5 -1.1875zm4.932129 -1.671875q0 -0.125 0.046875 -0.1875q0.0625 -0.0625 0.140625 -0.0625q0.078125 0 0.125 0.0625q0.0625 0.0625 0.0625 0.1875l0 0.640625q0 0.125 -0.0625 0.1875q-0.046875 0.0625 -0.125 0.0625q-0.078125 0 -0.140625 -0.046875q-0.046875 -0.046875 -0.046875 -0.171875q-0.03125 -0.25 -0.28125 -0.421875q-0.359375 -0.25 -0.953125 -0.25q-0.609375 0 -0.953125 0.25q-0.265625 0.1875 -0.265625 0.421875q0 0.265625 0.3125 0.4375q0.203125 0.125 0.796875 0.1875q0.765625 0.078125 1.0625 0.1875q0.4375 0.15625 0.640625 0.4375q0.203125 0.265625 0.203125 0.578125q0 0.46875 -0.453125 0.84375q-0.4375 0.359375 -1.3125 0.359375q-0.875 0 -1.4375 -0.4375q0 0.140625 -0.015625 0.1875q-0.015625 0.046875 -0.0625 0.078125q-0.046875 0.03125 -0.109375 0.03125q-0.078125 0 -0.140625 -0.046875q-0.046875 -0.0625 -0.046875 -0.203125l0 -0.75q0 -0.140625 0.046875 -0.1875q0.0625 -0.0625 0.140625 -0.0625q0.078125 0 0.125 0.0625q0.0625 0.046875 0.0625 0.140625q0 0.203125 0.109375 0.328125q0.140625 0.21875 0.46875 0.359375q0.34375 0.140625 0.84375 0.140625q0.71875 0 1.0625 -0.265625q0.359375 -0.28125 0.359375 -0.578125q0 -0.34375 -0.359375 -0.546875q-0.359375 -0.203125 -1.046875 -0.265625q-0.6875 -0.078125 -0.984375 -0.1875q-0.296875 -0.125 -0.46875 -0.34375q-0.171875 -0.234375 -0.171875 -0.5q0 -0.46875 0.46875 -0.75q0.46875 -0.28125 1.109375 -0.28125q0.765625 0 1.25 0.375zm4.369629 -2.140625l0 0.953125l-0.546875 0l0 -0.953125l0.546875 0zm0 1.890625l0 3.4375l1.453125 0q0.140625 0 0.1875 0.0625q0.0625 0.046875 0.0625 0.125q0 0.078125 -0.0625 0.140625q-0.046875 0.046875 -0.1875 0.046875l-3.265625 0q-0.140625 0 -0.203125 -0.046875q-0.046875 -0.0625 -0.046875 -0.140625q0 -0.078125 0.046875 -0.125q0.0625 -0.0625 0.203125 -0.0625l1.453125 0l0 -3.0625l-1.078125 0q-0.140625 0 -0.203125 -0.046875q-0.046875 -0.046875 -0.046875 -0.125q0 -0.09375 0.046875 -0.140625q0.0625 -0.0625 0.203125 -0.0625l1.4375 0zm4.447754 0l2.015625 0q0.125 0 0.171875 0.0625q0.0625 0.046875 0.0625 0.140625q0 0.078125 -0.0625 0.125q-0.046875 0.046875 -0.171875 0.046875l-2.015625 0l0 2.46875q0 0.3125 0.25 0.53125q0.265625 0.21875 0.765625 0.21875q0.375 0 0.8125 -0.109375q0.4375 -0.125 0.671875 -0.265625q0.09375 -0.046875 0.140625 -0.046875q0.078125 0 0.125 0.0625q0.0625 0.046875 0.0625 0.109375q0 0.078125 -0.0625 0.125q-0.140625 0.15625 -0.6875 0.328125q-0.546875 0.15625 -1.03125 0.15625q-0.65625 0 -1.046875 -0.296875q-0.375 -0.3125 -0.375 -0.8125l0 -2.46875l-0.671875 0q-0.140625 0 -0.203125 -0.046875q-0.046875 -0.046875 -0.046875 -0.140625q0 -0.078125 0.046875 -0.125q0.0625 -0.0625 0.203125 -0.0625l0.671875 0l0 -1.078125q0 -0.140625 0.046875 -0.1875q0.0625 -0.0625 0.140625 -0.0625q0.09375 0 0.140625 0.0625q0.046875 0.046875 0.046875 0.1875l0 1.078125zm8.228996 1.921875q0 0.84375 -0.6093674 1.4375q-0.59375 0.59375 -1.453125 0.59375q-0.859375 0 -1.46875 -0.59375q-0.59375 -0.609375 -0.59375 -1.4375q0 -0.84375 0.59375 -1.4375q0.609375 -0.609375 1.46875 -0.609375q0.859375 0 1.453125 0.59375q0.6093674 0.59375 0.6093674 1.453125zm-0.37499237 0q0 -0.703125 -0.5 -1.1875q-0.484375 -0.484375 -1.1875 -0.484375q-0.703125 0 -1.203125 0.5q-0.5 0.484375 -0.5 1.171875q0 0.6875 0.5 1.1875q0.5 0.484375 1.203125 0.484375q0.703125 0 1.1875 -0.484375q0.5 -0.5 0.5 -1.1875zm3.2758713 -1.921875l0 0.9375q0.71875 -0.65625 1.078125 -0.828125q0.359375 -0.1875 0.65625 -0.1875q0.328125 0 0.609375 0.21875q0.28125 0.21875 0.28125 0.328125q0 0.09375 -0.0625 0.15625q-0.046875 0.046875 -0.125 0.046875q-0.046875 0 -0.078125 -0.015625q-0.03125 -0.015625 -0.109375 -0.109375q-0.15625 -0.15625 -0.28125 -0.203125q-0.109375 -0.0625 -0.21875 -0.0625q-0.234375 0 -0.578125 0.203125q-0.34375 0.1875 -1.171875 0.9375l0 2.015625l1.625 0q0.140625 0 0.1875 0.0625q0.0625 0.046875 0.0625 0.125q0 0.078125 -0.0625 0.140625q-0.046875 0.046875 -0.1875 0.046875l-2.890625 0q-0.140625 0 -0.203125 -0.046875q-0.046875 -0.046875 -0.046875 -0.140625q0 -0.0625 0.046875 -0.109375q0.0625 -0.0625 0.203125 -0.0625l0.890625 0l0 -3.078125l-0.6875 0q-0.125 0 -0.1875 -0.046875q-0.046875 -0.046875 -0.046875 -0.140625q0 -0.078125 0.046875 -0.125q0.0625 -0.0625 0.1875 -0.0625l1.0625 0zm5.854004 3.8125l-1.703125 -3.4375l-0.109375 0q-0.140625 0 -0.203125 -0.046875q-0.046875 -0.046875 -0.046875 -0.125q0 -0.0625 0.03125 -0.109375q0.03125 -0.046875 0.0625 -0.0625q0.046875 -0.03125 0.15625 -0.03125l1.0 0q0.140625 0 0.1875 0.0625q0.0625 0.046875 0.0625 0.140625q0 0.078125 -0.0625 0.125q-0.046875 0.046875 -0.1875 0.046875l-0.484375 0l1.5 3.03125l1.484375 -3.03125l-0.5 0q-0.125 0 -0.1875 -0.046875q-0.046875 -0.046875 -0.046875 -0.140625q0 -0.078125 0.046875 -0.125q0.0625 -0.0625 0.1875 -0.0625l1.015625 0q0.125 0 0.1875 0.0625q0.0625 0.046875 0.0625 0.140625q0 0.046875 -0.046875 0.09375q-0.03125 0.046875 -0.078125 0.0625q-0.03125 0.015625 -0.234375 0.015625l-2.34375 4.765625l0.578125 0q0.125 0 0.1875 0.046875q0.0625 0.046875 0.0625 0.140625q0 0.078125 -0.0625 0.125q-0.0625 0.0625 -0.1875 0.0625l-2.125 0q-0.140625 0 -0.203125 -0.0625q-0.046875 -0.046875 -0.046875 -0.125q0 -0.09375 0.046875 -0.140625q0.0625 -0.046875 0.203125 -0.046875l1.15625 0l0.640625 -1.328125z" fill-rule="nonzero"/><path fill="#ebe3fd" d="m87.80318 129.04236l0 23.65355l21.937004 0l-10.753281 -11.611557l10.753281 -12.041992z" fill-rule="evenodd"/><path stroke="#8b6bda" stroke-width="1.0" stroke-linejoin="round" stroke-linecap="butt" d="m87.80318 129.04236l0 23.65355l21.937004 0l-10.753281 -11.611557l10.753281 -12.041992z" fill-rule="evenodd"/><path fill="#000000" fill-opacity="0.0" d="m223.40945 54.049824l113.700775 0l0 30.61417l-113.700775 0z" fill-rule="evenodd"/><path stroke="#ffffff" stroke-width="1.0" stroke-linejoin="round" stroke-linecap="butt" d="m223.40945 54.049824l113.700775 0l0 30.61417l-113.700775 0z" fill-rule="evenodd"/><path fill="#000000" fill-opacity="0.0" d="m223.40929 53.971085l40.850388 0l0 30.708656l-40.850388 0z" fill-rule="evenodd"/><path fill="#ffffff" d="m240.47023 70.38421l-0.421875 0l-1.40625 -3.21875l-0.078125 0l0 4.390625l0.6875 0q0.125 0 0.171875 0.0625q0.0625 0.046875 0.0625 0.125q0 0.078125 -0.0625 0.140625q-0.046875 0.046875 -0.171875 0.046875l-1.359375 0q-0.140625 0 -0.203125 -0.046875q-0.046875 -0.0625 -0.046875 -0.140625q0 -0.078125 0.046875 -0.125q0.0625 -0.0625 0.203125 -0.0625l0.296875 0l0 -4.390625l-0.21875 0q-0.140625 0 -0.203125 -0.046875q-0.046875 -0.0625 -0.046875 -0.140625q0 -0.09375 0.046875 -0.140625q0.0625 -0.046875 0.203125 -0.046875l0.90625 0l1.390625 3.1875l1.375 -3.1875l0.90625 0q0.140625 0 0.1875 0.046875q0.0625 0.046875 0.0625 0.140625q0 0.078125 -0.0625 0.140625q-0.046875 0.046875 -0.1875 0.046875l-0.234375 0l0 4.390625l0.3125 0q0.140625 0 0.1875 0.0625q0.0625 0.046875 0.0625 0.125q0 0.078125 -0.0625 0.140625q-0.046875 0.046875 -0.1875 0.046875l-1.359375 0q-0.125 0 -0.1875 -0.046875q-0.0625 -0.0625 -0.0625 -0.140625q0 -0.078125 0.046875 -0.125q0.0625 -0.0625 0.203125 -0.0625l0.6875 0l0 -4.390625l-0.078125 0l-1.40625 3.21875zm6.229004 1.546875l0 -0.53125q-0.8125 0.671875 -1.71875 0.671875q-0.671875 0 -1.046875 -0.328125q-0.359375 -0.34375 -0.359375 -0.828125q0 -0.53125 0.484375 -0.921875q0.5 -0.40625 1.4375 -0.40625q0.25 0 0.546875 0.03125q0.3125 0.03125 0.65625 0.09375l0 -0.59375q0 -0.296875 -0.28125 -0.515625q-0.28125 -0.234375 -0.84375 -0.234375q-0.4375 0 -1.21875 0.25q-0.140625 0.046875 -0.171875 0.046875q-0.078125 0 -0.125 -0.046875q-0.046875 -0.0625 -0.046875 -0.140625q0 -0.078125 0.046875 -0.125q0.0625 -0.0625 0.5 -0.171875q0.671875 -0.1875 1.03125 -0.1875q0.703125 0 1.09375 0.34375q0.390625 0.34375 0.390625 0.78125l0 2.4375l0.484375 0q0.140625 0 0.1875 0.0625q0.0625 0.046875 0.0625 0.125q0 0.078125 -0.0625 0.140625q-0.046875 0.046875 -0.1875 0.046875l-0.859375 0zm0 -1.84375q-0.265625 -0.0625 -0.5625 -0.09375q-0.28125 -0.046875 -0.59375 -0.046875q-0.8125 0 -1.265625 0.34375q-0.34375 0.265625 -0.34375 0.625q0 0.328125 0.265625 0.5625q0.265625 0.234375 0.765625 0.234375q0.46875 0 0.875 -0.1875q0.421875 -0.203125 0.859375 -0.625l0 -0.8125zm2.947754 -1.96875l0 0.671875q0.328125 -0.390625 0.703125 -0.59375q0.375 -0.203125 0.890625 -0.203125q0.546875 0 1.0 0.265625q0.46875 0.25 0.71875 0.703125q0.25 0.453125 0.25 0.953125q0 0.796875 -0.5625 1.359375q-0.5625 0.5625 -1.40625 0.5625q-0.984375 0 -1.59375 -0.796875l0 2.21875l0.890625 0q0.140625 0 0.1875 0.046875q0.0625 0.046875 0.0625 0.140625q0 0.078125 -0.0625 0.125q-0.046875 0.0625 -0.1875 0.0625l-1.765625 0q-0.125 0 -0.1875 -0.0625q-0.046875 -0.046875 -0.046875 -0.125q0 -0.09375 0.046875 -0.140625q0.0625 -0.046875 0.1875 -0.046875l0.5 0l0 -4.765625l-0.5 0q-0.125 0 -0.1875 -0.046875q-0.046875 -0.046875 -0.046875 -0.140625q0 -0.078125 0.046875 -0.125q0.0625 -0.0625 0.1875 -0.0625l0.875 0zm3.203125 1.796875q0 -0.640625 -0.46875 -1.09375q-0.46875 -0.453125 -1.140625 -0.453125q-0.671875 0 -1.140625 0.453125q-0.453125 0.453125 -0.453125 1.09375q0 0.640625 0.453125 1.09375q0.46875 0.453125 1.140625 0.453125q0.671875 0 1.140625 -0.453125q0.46875 -0.453125 0.46875 -1.09375zm1.3227539 -0.546875l3.9843597 -2.21875q0.09375 -0.0625 0.140625 -0.0625q0.078125 0 0.125 0.0625q0.0625 0.046875 0.0625 0.125q0 0.109375 -0.15625 0.203125l-3.4062347 1.890625l3.4062347 1.90625q0.15625 0.078125 0.15625 0.1875q0 0.078125 -0.0625 0.140625q-0.046875 0.046875 -0.125 0.046875q-0.046875 0 -0.140625 -0.0625l-3.9843597 -2.21875z" fill-rule="nonzero"/><path fill="#000000" fill-opacity="0.0" d="m261.58792 54.00258l28.157501 0l0 30.708664l-28.157501 0z" fill-rule="evenodd"/><path fill="#ffffff" d="m263.08792 69.94695l0 1.640625l0.6875 0q0.140625 0 0.1875 0.0625q0.0625 0.046875 0.0625 0.125q0 0.078125 -0.0625 0.140625q-0.046875 0.046875 -0.1875 0.046875l-1.546875 0q-0.140625 0 -0.203125 -0.046875q-0.046875 -0.0625 -0.046875 -0.140625q0 -0.078125 0.046875 -0.125q0.0625 -0.0625 0.203125 -0.0625l0.5 0l0 -4.390625l-0.5 0q-0.140625 0 -0.203125 -0.046875q-0.046875 -0.0625 -0.046875 -0.140625q0 -0.09375 0.046875 -0.140625q0.0625 -0.046875 0.203125 -0.046875l1.546875 0q0.140625 0 0.1875 0.046875q0.0625 0.046875 0.0625 0.140625q0 0.078125 -0.0625 0.140625q-0.046875 0.046875 -0.1875 0.046875l-0.6875 0l0 2.265625l2.546875 -2.265625l-0.40625 0q-0.125 0 -0.1875 -0.046875q-0.0625 -0.0625 -0.0625 -0.140625q0 -0.09375 0.0625 -0.140625q0.0625 -0.046875 0.1875 -0.046875l1.09375 0q0.125 0 0.1875 0.046875q0.0625 0.046875 0.0625 0.140625q0 0.078125 -0.0625 0.140625q-0.0625 0.046875 -0.1875 0.046875l-0.15625 0l-2.03125 1.8125q0.453125 0.1875 0.75 0.46875q0.3125 0.265625 0.578125 0.78125q0.15625 0.28125 0.578125 1.328125l0.46875 0q0.140625 0 0.1875 0.0625q0.0625 0.046875 0.0625 0.125q0 0.078125 -0.0625 0.140625q-0.046875 0.046875 -0.1875 0.046875l-0.71875 0q-0.578125 -1.59375 -0.96875 -2.046875q-0.390625 -0.453125 -0.984375 -0.640625l-0.75 0.671875zm8.604004 0.203125l-3.765625 0q0.09375 0.71875 0.59375 1.15625q0.515625 0.4375 1.25 0.4375q0.40625 0 0.859375 -0.140625q0.453125 -0.140625 0.75 -0.359375q0.078125 -0.0625 0.140625 -0.0625q0.0625 0 0.109375 0.0625q0.0625 0.046875 0.0625 0.109375q0 0.078125 -0.0625 0.15625q-0.21875 0.21875 -0.765625 0.40625q-0.53125 0.1875 -1.09375 0.1875q-0.953125 0 -1.59375 -0.609375q-0.625 -0.625 -0.625 -1.515625q0 -0.796875 0.59375 -1.375q0.59375 -0.578125 1.46875 -0.578125q0.90625 0 1.484375 0.59375q0.59375 0.59375 0.59375 1.53125zm-0.375 -0.375q-0.109375 -0.609375 -0.578125 -0.984375q-0.46875 -0.390625 -1.125 -0.390625q-0.640625 0 -1.109375 0.375q-0.453125 0.375 -0.578125 1.0l3.390625 0zm3.791504 2.1875l-1.703125 -3.4375l-0.109375 0q-0.140625 0 -0.203125 -0.046875q-0.046875 -0.046875 -0.046875 -0.125q0 -0.0625 0.03125 -0.109375q0.03125 -0.046875 0.0625 -0.0625q0.046875 -0.03125 0.15625 -0.03125l1.0 0q0.140625 0 0.1875 0.0625q0.0625 0.046875 0.0625 0.140625q0 0.078125 -0.0625 0.125q-0.046875 0.046875 -0.1875 0.046875l-0.484375 0l1.5 3.03125l1.484375 -3.03125l-0.5 0q-0.125 0 -0.1875 -0.046875q-0.046875 -0.046875 -0.046875 -0.140625q0 -0.078125 0.046875 -0.125q0.0625 -0.0625 0.1875 -0.0625l1.015625 0q0.125 0 0.1875 0.0625q0.0625 0.046875 0.0625 0.140625q0 0.046875 -0.046875 0.09375q-0.03125 0.046875 -0.078125 0.0625q-0.03125 0.015625 -0.234375 0.015625l-2.34375 4.765625l0.578125 0q0.125 0 0.1875 0.046875q0.0625 0.046875 0.0625 0.140625q0 0.078125 -0.0625 0.125q-0.0625 0.0625 -0.1875 0.0625l-2.125 0q-0.140625 0 -0.203125 -0.0625q-0.046875 -0.046875 -0.046875 -0.125q0 -0.09375 0.046875 -0.140625q0.0625 -0.046875 0.203125 -0.046875l1.15625 0l0.640625 -1.328125zm4.650879 -1.328125l1.203125 0l-1.3125 2.421875q-0.109375 0.21875 -0.28125 0.21875q-0.109375 0 -0.1875 -0.078125q-0.078125 -0.0625 -0.078125 -0.171875q0 -0.046875 0.015625 -0.109375l0.640625 -2.28125z" fill-rule="nonzero"/><path fill="#000000" fill-opacity="0.0" d="m291.76642 53.971085l45.35431 0l0 30.708656l-45.35431 0z" fill-rule="evenodd"/><path fill="#ffffff" d="m294.73517 71.93108l-0.5 0l-1.859375 -4.765625l-0.296875 0q-0.09375 0 -0.140625 -0.015625q-0.046875 -0.03125 -0.078125 -0.078125q-0.015625 -0.046875 -0.015625 -0.09375q0 -0.0625 0.015625 -0.109375q0.03125 -0.046875 0.078125 -0.0625q0.046875 -0.015625 0.140625 -0.015625l1.375 0q0.109375 0 0.140625 0.015625q0.046875 0.015625 0.078125 0.0625q0.03125 0.046875 0.03125 0.109375q0 0.046875 -0.03125 0.09375q-0.03125 0.046875 -0.078125 0.078125q-0.03125 0.015625 -0.140625 0.015625l-0.703125 0l1.71875 4.390625l0.015625 0l1.703125 -4.390625l-0.703125 0q-0.109375 0 -0.15625 -0.015625q-0.046875 -0.03125 -0.078125 -0.078125q-0.015625 -0.046875 -0.015625 -0.09375q0 -0.0625 0.03125 -0.109375q0.03125 -0.046875 0.0625 -0.0625q0.046875 -0.015625 0.15625 -0.015625l1.359375 0q0.109375 0 0.15625 0.015625q0.046875 0.015625 0.0625 0.0625q0.03125 0.046875 0.03125 0.109375q0 0.046875 -0.03125 0.09375q-0.015625 0.046875 -0.0625 0.078125q-0.046875 0.015625 -0.15625 0.015625l-0.28125 0l-1.828125 4.765625zm6.197754 0l0 -0.53125q-0.8125 0.671875 -1.71875 0.671875q-0.671875 0 -1.046875 -0.328125q-0.359375 -0.34375 -0.359375 -0.828125q0 -0.53125 0.484375 -0.921875q0.5 -0.40625 1.4375 -0.40625q0.25 0 0.546875 0.03125q0.3125 0.03125 0.65625 0.09375l0 -0.59375q0 -0.296875 -0.28125 -0.515625q-0.28125 -0.234375 -0.84375 -0.234375q-0.4375 0 -1.21875 0.25q-0.140625 0.046875 -0.171875 0.046875q-0.078125 0 -0.125 -0.046875q-0.046875 -0.0625 -0.046875 -0.140625q0 -0.078125 0.046875 -0.125q0.0625 -0.0625 0.5 -0.171875q0.671875 -0.1875 1.03125 -0.1875q0.703125 0 1.09375 0.34375q0.390625 0.34375 0.390625 0.78125l0 2.4375l0.484375 0q0.140625 0 0.1875 0.0625q0.0625 0.046875 0.0625 0.125q0 0.078125 -0.0625 0.140625q-0.046875 0.046875 -0.1875 0.046875l-0.859375 0zm0 -1.84375q-0.265625 -0.0625 -0.5625 -0.09375q-0.28125 -0.046875 -0.59375 -0.046875q-0.8125 0 -1.265625 0.34375q-0.34375 0.265625 -0.34375 0.625q0 0.328125 0.265625 0.5625q0.265625 0.234375 0.765625 0.234375q0.46875 0 0.875 -0.1875q0.421875 -0.203125 0.859375 -0.625l0 -0.8125zm4.525879 -3.671875l0 5.140625l1.453125 0q0.125 0 0.1875 0.0625q0.0625 0.046875 0.0625 0.125q0 0.078125 -0.0625 0.140625q-0.0625 0.046875 -0.1875 0.046875l-3.28125 0q-0.125 0 -0.1875 -0.046875q-0.046875 -0.0625 -0.046875 -0.140625q0 -0.078125 0.046875 -0.125q0.0625 -0.0625 0.1875 -0.0625l1.453125 0l0 -4.765625l-1.0625 0q-0.125 0 -0.1875 -0.046875q-0.0625 -0.0625 -0.0625 -0.140625q0 -0.078125 0.046875 -0.125q0.0625 -0.0625 0.203125 -0.0625l1.4375 0zm6.479004 5.515625l0 -0.546875q-0.765625 0.6875 -1.640625 0.6875q-0.546875 0 -0.828125 -0.296875q-0.359375 -0.375 -0.359375 -0.890625l0 -2.390625l-0.5 0q-0.125 0 -0.1875 -0.046875q-0.046875 -0.046875 -0.046875 -0.140625q0 -0.078125 0.046875 -0.125q0.0625 -0.0625 0.1875 -0.0625l0.875 0l0 2.765625q0 0.359375 0.21875 0.59375q0.234375 0.234375 0.578125 0.234375q0.90625 0 1.65625 -0.828125l0 -2.390625l-0.6875 0q-0.125 0 -0.1875 -0.046875q-0.0625 -0.046875 -0.0625 -0.140625q0 -0.078125 0.0625 -0.125q0.0625 -0.0625 0.1875 -0.0625l1.046875 0l0 3.4375l0.3125 0q0.140625 0 0.1875 0.0625q0.0625 0.046875 0.0625 0.125q0 0.078125 -0.0625 0.140625q-0.046875 0.046875 -0.1875 0.046875l-0.671875 0zm6.135254 -1.8125l-3.765625 0q0.09375 0.71875 0.59375 1.15625q0.515625 0.4375 1.25 0.4375q0.40625 0 0.859375 -0.140625q0.453125 -0.140625 0.75 -0.359375q0.078125 -0.0625 0.140625 -0.0625q0.0625 0 0.109375 0.0625q0.0625 0.046875 0.0625 0.109375q0 0.078125 -0.0625 0.15625q-0.21875 0.21875 -0.765625 0.40625q-0.53125 0.1875 -1.09375 0.1875q-0.953125 0 -1.59375 -0.609375q-0.625 -0.625 -0.625 -1.515625q0 -0.796875 0.59375 -1.375q0.59375 -0.578125 1.46875 -0.578125q0.90625 0 1.484375 0.59375q0.59375 0.59375 0.59375 1.53125zm-0.375 -0.375q-0.109375 -0.609375 -0.578125 -0.984375q-0.46875 -0.390625 -1.125 -0.390625q-0.640625 0 -1.109375 0.375q-0.453125 0.375 -0.578125 1.0l3.390625 0zm6.041504 -0.375l-3.984375 2.21875q-0.09375 0.0625 -0.15625 0.0625q-0.0625 0 -0.125 -0.046875q-0.046875 -0.0625 -0.046875 -0.140625q0 -0.109375 0.140625 -0.1875l3.421875 -1.90625l-3.421875 -1.890625q-0.140625 -0.09375 -0.140625 -0.203125q0 -0.078125 0.046875 -0.125q0.0625 -0.0625 0.140625 -0.0625q0.046875 0 0.140625 0.0625l3.984375 2.21875z" fill-rule="nonzero"/><path fill="#000000" fill-opacity="0.0" d="m195.91995 253.4132l113.700775 0l0 30.614182l-113.700775 0z" fill-rule="evenodd"/><path stroke="#ffffff" stroke-width="1.0" stroke-linejoin="round" stroke-linecap="butt" d="m195.91995 253.4132l113.700775 0l0 30.614182l-113.700775 0z" fill-rule="evenodd"/><path fill="#000000" fill-opacity="0.0" d="m195.91978 253.33444l40.850388 0l0 30.70868l-40.850388 0z" fill-rule="evenodd"/><path fill="#ffffff" d="m212.98073 269.74756l-0.421875 0l-1.40625 -3.21875l-0.078125 0l0 4.390625l0.6875 0q0.125 0 0.171875 0.0625q0.0625 0.046875 0.0625 0.125q0 0.078125 -0.0625 0.140625q-0.046875 0.046875 -0.171875 0.046875l-1.359375 0q-0.140625 0 -0.203125 -0.046875q-0.046875 -0.0625 -0.046875 -0.140625q0 -0.078125 0.046875 -0.125q0.0625 -0.0625 0.203125 -0.0625l0.296875 0l0 -4.390625l-0.21875 0q-0.140625 0 -0.203125 -0.046875q-0.046875 -0.0625 -0.046875 -0.140625q0 -0.09375 0.046875 -0.140625q0.0625 -0.046875 0.203125 -0.046875l0.90625 0l1.390625 3.1875l1.375 -3.1875l0.90625 0q0.140625 0 0.1875 0.046875q0.0625 0.046875 0.0625 0.140625q0 0.078125 -0.0625 0.140625q-0.046875 0.046875 -0.1875 0.046875l-0.234375 0l0 4.390625l0.3125 0q0.140625 0 0.1875 0.0625q0.0625 0.046875 0.0625 0.125q0 0.078125 -0.0625 0.140625q-0.046875 0.046875 -0.1875 0.046875l-1.359375 0q-0.125 0 -0.1875 -0.046875q-0.0625 -0.0625 -0.0625 -0.140625q0 -0.078125 0.046875 -0.125q0.0625 -0.0625 0.203125 -0.0625l0.6875 0l0 -4.390625l-0.078125 0l-1.40625 3.21875zm6.229004 1.546875l0 -0.53125q-0.8125 0.671875 -1.71875 0.671875q-0.671875 0 -1.046875 -0.328125q-0.359375 -0.34375 -0.359375 -0.828125q0 -0.53125 0.484375 -0.921875q0.5 -0.40625 1.4375 -0.40625q0.25 0 0.546875 0.03125q0.3125 0.03125 0.65625 0.09375l0 -0.59375q0 -0.296875 -0.28125 -0.515625q-0.28125 -0.234375 -0.84375 -0.234375q-0.4375 0 -1.21875 0.25q-0.140625 0.046875 -0.171875 0.046875q-0.078125 0 -0.125 -0.046875q-0.046875 -0.0625 -0.046875 -0.140625q0 -0.078125 0.046875 -0.125q0.0625 -0.0625 0.5 -0.171875q0.671875 -0.1875 1.03125 -0.1875q0.703125 0 1.09375 0.34375q0.390625 0.34375 0.390625 0.78125l0 2.4375l0.484375 0q0.140625 0 0.1875 0.0625q0.0625 0.046875 0.0625 0.125q0 0.078125 -0.0625 0.140625q-0.046875 0.046875 -0.1875 0.046875l-0.859375 0zm0 -1.84375q-0.265625 -0.0625 -0.5625 -0.09375q-0.28125 -0.046875 -0.59375 -0.046875q-0.8125 0 -1.265625 0.34375q-0.34375 0.265625 -0.34375 0.625q0 0.328125 0.265625 0.5625q0.265625 0.234375 0.765625 0.234375q0.46875 0 0.875 -0.1875q0.421875 -0.203125 0.859375 -0.625l0 -0.8125zm2.947754 -1.96875l0 0.671875q0.328125 -0.390625 0.703125 -0.59375q0.375 -0.203125 0.890625 -0.203125q0.546875 0 1.0 0.265625q0.46875 0.25 0.71875 0.703125q0.25 0.453125 0.25 0.953125q0 0.796875 -0.5625 1.359375q-0.5625 0.5625 -1.40625 0.5625q-0.984375 0 -1.59375 -0.796875l0 2.21875l0.890625 0q0.140625 0 0.1875 0.046875q0.0625 0.046875 0.0625 0.140625q0 0.078125 -0.0625 0.125q-0.046875 0.0625 -0.1875 0.0625l-1.765625 0q-0.125 0 -0.1875 -0.0625q-0.046875 -0.046875 -0.046875 -0.125q0 -0.09375 0.046875 -0.140625q0.0625 -0.046875 0.1875 -0.046875l0.5 0l0 -4.765625l-0.5 0q-0.125 0 -0.1875 -0.046875q-0.046875 -0.046875 -0.046875 -0.140625q0 -0.078125 0.046875 -0.125q0.0625 -0.0625 0.1875 -0.0625l0.875 0zm3.203125 1.796875q0 -0.640625 -0.46875 -1.09375q-0.46875 -0.453125 -1.140625 -0.453125q-0.671875 0 -1.140625 0.453125q-0.453125 0.453125 -0.453125 1.09375q0 0.640625 0.453125 1.09375q0.46875 0.453125 1.140625 0.453125q0.671875 0 1.140625 -0.453125q0.46875 -0.453125 0.46875 -1.09375zm1.3227539 -0.546875l3.984375 -2.21875q0.09375 -0.0625 0.140625 -0.0625q0.078125 0 0.125 0.0625q0.0625 0.046875 0.0625 0.125q0 0.109375 -0.15625 0.203125l-3.40625 1.890625l3.40625 1.90625q0.15625 0.078125 0.15625 0.1875q0 0.078125 -0.0625 0.140625q-0.046875 0.046875 -0.125 0.046875q-0.046875 0 -0.140625 -0.0625l-3.984375 -2.21875z" fill-rule="nonzero"/><path fill="#000000" fill-opacity="0.0" d="m234.09843 253.36595l28.157486 0l0 30.708664l-28.157486 0z" fill-rule="evenodd"/><path fill="#ffffff" d="m235.59843 269.31033l0 1.640625l0.6875 0q0.140625 0 0.1875 0.0625q0.0625 0.046875 0.0625 0.125q0 0.078125 -0.0625 0.140625q-0.046875 0.046875 -0.1875 0.046875l-1.546875 0q-0.140625 0 -0.203125 -0.046875q-0.046875 -0.0625 -0.046875 -0.140625q0 -0.078125 0.046875 -0.125q0.0625 -0.0625 0.203125 -0.0625l0.5 0l0 -4.390625l-0.5 0q-0.140625 0 -0.203125 -0.046875q-0.046875 -0.0625 -0.046875 -0.140625q0 -0.09375 0.046875 -0.140625q0.0625 -0.046875 0.203125 -0.046875l1.546875 0q0.140625 0 0.1875 0.046875q0.0625 0.046875 0.0625 0.140625q0 0.078125 -0.0625 0.140625q-0.046875 0.046875 -0.1875 0.046875l-0.6875 0l0 2.265625l2.546875 -2.265625l-0.40625 0q-0.125 0 -0.1875 -0.046875q-0.0625 -0.0625 -0.0625 -0.140625q0 -0.09375 0.0625 -0.140625q0.0625 -0.046875 0.1875 -0.046875l1.09375 0q0.125 0 0.1875 0.046875q0.0625 0.046875 0.0625 0.140625q0 0.078125 -0.0625 0.140625q-0.0625 0.046875 -0.1875 0.046875l-0.15625 0l-2.03125 1.8125q0.453125 0.1875 0.75 0.46875q0.3125 0.265625 0.578125 0.78125q0.15625 0.28125 0.578125 1.328125l0.46875 0q0.140625 0 0.1875 0.0625q0.0625 0.046875 0.0625 0.125q0 0.078125 -0.0625 0.140625q-0.046875 0.046875 -0.1875 0.046875l-0.71875 0q-0.578125 -1.59375 -0.96875 -2.046875q-0.390625 -0.453125 -0.984375 -0.640625l-0.75 0.671875zm8.604004 0.203125l-3.765625 0q0.09375 0.71875 0.59375 1.15625q0.515625 0.4375 1.25 0.4375q0.40625 0 0.859375 -0.140625q0.453125 -0.140625 0.75 -0.359375q0.078125 -0.0625 0.140625 -0.0625q0.0625 0 0.109375 0.0625q0.0625 0.046875 0.0625 0.109375q0 0.078125 -0.0625 0.15625q-0.21875 0.21875 -0.765625 0.40625q-0.53125 0.1875 -1.09375 0.1875q-0.953125 0 -1.59375 -0.609375q-0.625 -0.625 -0.625 -1.515625q0 -0.796875 0.59375 -1.375q0.59375 -0.578125 1.46875 -0.578125q0.90625 0 1.484375 0.59375q0.59375 0.59375 0.59375 1.53125zm-0.375 -0.375q-0.109375 -0.609375 -0.578125 -0.984375q-0.46875 -0.390625 -1.125 -0.390625q-0.640625 0 -1.109375 0.375q-0.453125 0.375 -0.578125 1.0l3.390625 0zm3.791504 2.1875l-1.703125 -3.4375l-0.109375 0q-0.140625 0 -0.203125 -0.046875q-0.046875 -0.046875 -0.046875 -0.125q0 -0.0625 0.03125 -0.109375q0.03125 -0.046875 0.0625 -0.0625q0.046875 -0.03125 0.15625 -0.03125l1.0 0q0.140625 0 0.1875 0.0625q0.0625 0.046875 0.0625 0.140625q0 0.078125 -0.0625 0.125q-0.046875 0.046875 -0.1875 0.046875l-0.484375 0l1.5 3.03125l1.484375 -3.03125l-0.5 0q-0.125 0 -0.1875 -0.046875q-0.046875 -0.046875 -0.046875 -0.140625q0 -0.078125 0.046875 -0.125q0.0625 -0.0625 0.1875 -0.0625l1.015625 0q0.125 0 0.1875 0.0625q0.0625 0.046875 0.0625 0.140625q0 0.046875 -0.046875 0.09375q-0.03125 0.046875 -0.078125 0.0625q-0.03125 0.015625 -0.234375 0.015625l-2.34375 4.765625l0.578125 0q0.125 0 0.1875 0.046875q0.0625 0.046875 0.0625 0.140625q0 0.078125 -0.0625 0.125q-0.0625 0.0625 -0.1875 0.0625l-2.125 0q-0.140625 0 -0.203125 -0.0625q-0.046875 -0.046875 -0.046875 -0.125q0 -0.09375 0.046875 -0.140625q0.0625 -0.046875 0.203125 -0.046875l1.15625 0l0.640625 -1.328125zm4.650879 -1.328125l1.203125 0l-1.3125 2.421875q-0.109375 0.21875 -0.28125 0.21875q-0.109375 0 -0.1875 -0.078125q-0.078125 -0.0625 -0.078125 -0.171875q0 -0.046875 0.015625 -0.109375l0.640625 -2.28125z" fill-rule="nonzero"/><path fill="#000000" fill-opacity="0.0" d="m264.27692 253.33444l45.35431 0l0 30.70868l-45.35431 0z" fill-rule="evenodd"/><path fill="#ffffff" d="m267.24567 271.29443l-0.5 0l-1.859375 -4.765625l-0.296875 0q-0.09375 0 -0.140625 -0.015625q-0.046875 -0.03125 -0.078125 -0.078125q-0.015625 -0.046875 -0.015625 -0.09375q0 -0.0625 0.015625 -0.109375q0.03125 -0.046875 0.078125 -0.0625q0.046875 -0.015625 0.140625 -0.015625l1.375 0q0.109375 0 0.140625 0.015625q0.046875 0.015625 0.078125 0.0625q0.03125 0.046875 0.03125 0.109375q0 0.046875 -0.03125 0.09375q-0.03125 0.046875 -0.078125 0.078125q-0.03125 0.015625 -0.140625 0.015625l-0.703125 0l1.71875 4.390625l0.015625 0l1.703125 -4.390625l-0.703125 0q-0.109375 0 -0.15625 -0.015625q-0.046875 -0.03125 -0.078125 -0.078125q-0.015625 -0.046875 -0.015625 -0.09375q0 -0.0625 0.03125 -0.109375q0.03125 -0.046875 0.0625 -0.0625q0.046875 -0.015625 0.15625 -0.015625l1.359375 0q0.109375 0 0.15625 0.015625q0.046875 0.015625 0.0625 0.0625q0.03125 0.046875 0.03125 0.109375q0 0.046875 -0.03125 0.09375q-0.015625 0.046875 -0.0625 0.078125q-0.046875 0.015625 -0.15625 0.015625l-0.28125 0l-1.828125 4.765625zm6.197754 0l0 -0.53125q-0.8125 0.671875 -1.71875 0.671875q-0.671875 0 -1.046875 -0.328125q-0.359375 -0.34375 -0.359375 -0.828125q0 -0.53125 0.484375 -0.921875q0.5 -0.40625 1.4375 -0.40625q0.25 0 0.546875 0.03125q0.3125 0.03125 0.65625 0.09375l0 -0.59375q0 -0.296875 -0.28125 -0.515625q-0.28125 -0.234375 -0.84375 -0.234375q-0.4375 0 -1.21875 0.25q-0.140625 0.046875 -0.171875 0.046875q-0.078125 0 -0.125 -0.046875q-0.046875 -0.0625 -0.046875 -0.140625q0 -0.078125 0.046875 -0.125q0.0625 -0.0625 0.5 -0.171875q0.671875 -0.1875 1.03125 -0.1875q0.703125 0 1.09375 0.34375q0.390625 0.34375 0.390625 0.78125l0 2.4375l0.484375 0q0.140625 0 0.1875 0.0625q0.0625 0.046875 0.0625 0.125q0 0.078125 -0.0625 0.140625q-0.046875 0.046875 -0.1875 0.046875l-0.859375 0zm0 -1.84375q-0.265625 -0.0625 -0.5625 -0.09375q-0.28125 -0.046875 -0.59375 -0.046875q-0.8125 0 -1.265625 0.34375q-0.34375 0.265625 -0.34375 0.625q0 0.328125 0.265625 0.5625q0.265625 0.234375 0.765625 0.234375q0.46875 0 0.875 -0.1875q0.421875 -0.203125 0.859375 -0.625l0 -0.8125zm4.525879 -3.671875l0 5.140625l1.453125 0q0.125 0 0.1875 0.0625q0.0625 0.046875 0.0625 0.125q0 0.078125 -0.0625 0.140625q-0.0625 0.046875 -0.1875 0.046875l-3.28125 0q-0.125 0 -0.1875 -0.046875q-0.046875 -0.0625 -0.046875 -0.140625q0 -0.078125 0.046875 -0.125q0.0625 -0.0625 0.1875 -0.0625l1.453125 0l0 -4.765625l-1.0625 0q-0.125 0 -0.1875 -0.046875q-0.0625 -0.0625 -0.0625 -0.140625q0 -0.078125 0.046875 -0.125q0.0625 -0.0625 0.203125 -0.0625l1.4375 0zm6.479004 5.515625l0 -0.546875q-0.765625 0.6875 -1.640625 0.6875q-0.546875 0 -0.828125 -0.296875q-0.359375 -0.375 -0.359375 -0.890625l0 -2.390625l-0.5 0q-0.125 0 -0.1875 -0.046875q-0.046875 -0.046875 -0.046875 -0.140625q0 -0.078125 0.046875 -0.125q0.0625 -0.0625 0.1875 -0.0625l0.875 0l0 2.765625q0 0.359375 0.21875 0.59375q0.234375 0.234375 0.578125 0.234375q0.90625 0 1.65625 -0.828125l0 -2.390625l-0.6875 0q-0.125 0 -0.1875 -0.046875q-0.0625 -0.046875 -0.0625 -0.140625q0 -0.078125 0.0625 -0.125q0.0625 -0.0625 0.1875 -0.0625l1.046875 0l0 3.4375l0.3125 0q0.140625 0 0.1875 0.0625q0.0625 0.046875 0.0625 0.125q0 0.078125 -0.0625 0.140625q-0.046875 0.046875 -0.1875 0.046875l-0.671875 0zm6.135254 -1.8125l-3.765625 0q0.09375 0.71875 0.59375 1.15625q0.515625 0.4375 1.25 0.4375q0.40625 0 0.859375 -0.140625q0.453125 -0.140625 0.75 -0.359375q0.078125 -0.0625 0.140625 -0.0625q0.0625 0 0.109375 0.0625q0.0625 0.046875 0.0625 0.109375q0 0.078125 -0.0625 0.15625q-0.21875 0.21875 -0.765625 0.40625q-0.53125 0.1875 -1.09375 0.1875q-0.953125 0 -1.59375 -0.609375q-0.625 -0.625 -0.625 -1.515625q0 -0.796875 0.59375 -1.375q0.59375 -0.578125 1.46875 -0.578125q0.90625 0 1.484375 0.59375q0.59375 0.59375 0.59375 1.53125zm-0.375 -0.375q-0.109375 -0.609375 -0.578125 -0.984375q-0.46875 -0.390625 -1.125 -0.390625q-0.640625 0 -1.109375 0.375q-0.453125 0.375 -0.578125 1.0l3.390625 0zm6.041504 -0.375l-3.984375 2.21875q-0.09375 0.0625 -0.15625 0.0625q-0.0625 0 -0.125 -0.046875q-0.046875 -0.0625 -0.046875 -0.140625q0 -0.109375 0.140625 -0.1875l3.421875 -1.90625l-3.421875 -1.890625q-0.140625 -0.09375 -0.140625 -0.203125q0 -0.078125 0.046875 -0.125q0.0625 -0.0625 0.140625 -0.0625q0.046875 0 0.140625 0.0625l3.984375 2.21875z" fill-rule="nonzero"/><path fill="#cfe2f3" d="m259.6414 121.601555l0 0c0 -15.664017 12.204651 -28.362206 27.259827 -28.362206l0 0c7.229767 0 14.163422 2.9881516 19.275635 8.307098c5.112213 5.318947 7.9842224 12.532982 7.9842224 20.055107l0 0c0 15.664009 -12.204651 28.362206 -27.259857 28.362206l0 0c-15.055176 0 -27.259827 -12.698196 -27.259827 -28.362206z" fill-rule="evenodd"/><path stroke="#4e8aeb" stroke-width="1.0" stroke-linejoin="round" stroke-linecap="butt" d="m259.6414 121.601555l0 0c0 -15.664017 12.204651 -28.362206 27.259827 -28.362206l0 0c7.229767 0 14.163422 2.9881516 19.275635 8.307098c5.112213 5.318947 7.9842224 12.532982 7.9842224 20.055107l0 0c0 15.664009 -12.204651 28.362206 -27.259857 28.362206l0 0c-15.055176 0 -27.259827 -12.698196 -27.259827 -28.362206z" fill-rule="evenodd"/><path fill="#cfe2f3" d="m303.7618 130.37967l0 0c-3.8216858 8.244156 -12.474243 12.67598 -20.972717 10.742157c-8.498444 -1.9338074 -14.653778 -9.735168 -14.919708 -18.909454c-0.26593018 -9.174286 5.426056 -17.358437 13.7966 -19.837303c8.370544 -2.4788666 17.26361 1.3860474 21.555634 9.368042l-8.601135 5.1553574c-1.9510803 -4.07251 -6.150482 -6.1087646 -10.141632 -4.9175873c-3.9911194 1.191185 -6.7253723 5.2968216 -6.60318 9.915176c0.122161865 4.6183624 3.0686646 8.53598 7.1157837 9.461121c4.047119 0.9251404 8.131561 -1.3852844 9.863922 -5.579712z" fill-rule="evenodd"/><path stroke="#4e8aeb" stroke-width="1.0" stroke-linejoin="round" stroke-linecap="butt" d="m303.7618 130.37967l0 0c-3.8216858 8.244156 -12.474243 12.67598 -20.972717 10.742157c-8.498444 -1.9338074 -14.653778 -9.735168 -14.919708 -18.909454c-0.26593018 -9.174286 5.426056 -17.358437 13.7966 -19.837303c8.370544 -2.4788666 17.26361 1.3860474 21.555634 9.368042l-8.601135 5.1553574c-1.9510803 -4.07251 -6.150482 -6.1087646 -10.141632 -4.9175873c-3.9911194 1.191185 -6.7253723 5.2968216 -6.60318 9.915176c0.122161865 4.6183624 3.0686646 8.53598 7.1157837 9.461121c4.047119 0.9251404 8.131561 -1.3852844 9.863922 -5.579712z" fill-rule="evenodd"/><path fill="#000000" fill-opacity="0.0" d="m239.15314 152.91737l95.24408 0l0 20.850388l-95.24408 0z" fill-rule="evenodd"/><path fill="#ffffff" d="m267.23416 166.11174l0 4.390625l2.453125 0l0 -1.46875q0 -0.125 0.046875 -0.171875q0.0625 -0.0625 0.140625 -0.0625q0.078125 0 0.125 0.0625q0.0625 0.046875 0.0625 0.171875l0 1.84375l-4.078125 0q-0.140625 0 -0.203125 -0.046875q-0.046875 -0.0625 -0.046875 -0.140625q0 -0.078125 0.046875 -0.125q0.0625 -0.0625 0.203125 -0.0625l0.875 0l0 -4.390625l-0.875 0q-0.140625 0 -0.203125 -0.046875q-0.046875 -0.0625 -0.046875 -0.140625q0 -0.09375 0.046875 -0.140625q0.0625 -0.046875 0.203125 -0.046875l2.125 0q0.140625 0 0.1875 0.046875q0.0625 0.046875 0.0625 0.140625q0 0.078125 -0.0625 0.140625q-0.046875 0.046875 -0.1875 0.046875l-0.875 0zm8.104004 2.875q0 0.84375 -0.609375 1.4375q-0.59375 0.59375 -1.453125 0.59375q-0.859375 0 -1.46875 -0.59375q-0.59375 -0.609375 -0.59375 -1.4375q0 -0.84375 0.59375 -1.4375q0.609375 -0.609375 1.46875 -0.609375q0.859375 0 1.453125 0.59375q0.609375 0.59375 0.609375 1.453125zm-0.375 0q0 -0.703125 -0.5 -1.1875q-0.484375 -0.484375 -1.1875 -0.484375q-0.703125 0 -1.203125 0.5q-0.5 0.484375 -0.5 1.171875q0 0.6875 0.5 1.1875q0.5 0.484375 1.203125 0.484375q0.703125 0 1.1875 -0.484375q0.5 -0.5 0.5 -1.1875zm5.244629 -1.546875l0 -0.125q0 -0.125 0.046875 -0.1875q0.0625 -0.0625 0.140625 -0.0625q0.09375 0 0.140625 0.0625q0.046875 0.0625 0.046875 0.1875l0 0.84375q0 0.140625 -0.046875 0.203125q-0.046875 0.046875 -0.140625 0.046875q-0.078125 0 -0.125 -0.046875q-0.046875 -0.0625 -0.0625 -0.171875q-0.015625 -0.3125 -0.40625 -0.59375q-0.375 -0.28125 -1.03125 -0.28125q-0.828125 0 -1.25 0.515625q-0.421875 0.515625 -0.421875 1.171875q0 0.71875 0.46875 1.1875q0.46875 0.46875 1.21875 0.46875q0.421875 0 0.859375 -0.15625q0.453125 -0.171875 0.8125 -0.515625q0.09375 -0.09375 0.171875 -0.09375q0.078125 0 0.125 0.0625q0.046875 0.046875 0.046875 0.125q0 0.1875 -0.4375 0.46875q-0.71875 0.46875 -1.59375 0.46875q-0.890625 0 -1.46875 -0.5625q-0.578125 -0.578125 -0.578125 -1.453125q0 -0.890625 0.578125 -1.46875q0.59375 -0.59375 1.484375 -0.59375q0.859375 0 1.421875 0.5zm4.932129 3.4375l0 -0.53125q-0.8125 0.671875 -1.71875 0.671875q-0.671875 0 -1.046875 -0.328125q-0.359375 -0.34375 -0.359375 -0.828125q0 -0.53125 0.484375 -0.921875q0.5 -0.40625 1.4375 -0.40625q0.25 0 0.546875 0.03125q0.3125 0.03125 0.65625 0.09375l0 -0.59375q0 -0.296875 -0.28125 -0.515625q-0.28125 -0.234375 -0.84375 -0.234375q-0.4375 0 -1.21875 0.25q-0.140625 0.046875 -0.171875 0.046875q-0.078125 0 -0.125 -0.046875q-0.046875 -0.0625 -0.046875 -0.140625q0 -0.078125 0.046875 -0.125q0.0625 -0.0625 0.5 -0.171875q0.671875 -0.1875 1.03125 -0.1875q0.703125 0 1.09375 0.34375q0.390625 0.34375 0.390625 0.78125l0 2.4375l0.484375 0q0.140625 0 0.1875 0.0625q0.0625 0.046875 0.0625 0.125q0 0.078125 -0.0625 0.140625q-0.046875 0.046875 -0.1875 0.046875l-0.859375 0zm0 -1.84375q-0.265625 -0.0625 -0.5625 -0.09375q-0.28125 -0.046875 -0.59375 -0.046875q-0.8125 0 -1.265625 0.34375q-0.34375 0.265625 -0.34375 0.625q0 0.328125 0.265625 0.5625q0.265625 0.234375 0.765625 0.234375q0.46875 0 0.875 -0.1875q0.421875 -0.203125 0.859375 -0.625l0 -0.8125zm3.572754 -1.96875l2.015625 0q0.125 0 0.171875 0.0625q0.0625 0.046875 0.0625 0.140625q0 0.078125 -0.0625 0.125q-0.046875 0.046875 -0.171875 0.046875l-2.015625 0l0 2.46875q0 0.3125 0.25 0.53125q0.265625 0.21875 0.765625 0.21875q0.375 0 0.8125 -0.109375q0.4375 -0.125 0.671875 -0.265625q0.09375 -0.046875 0.140625 -0.046875q0.078125 0 0.125 0.0625q0.0625 0.046875 0.0625 0.109375q0 0.078125 -0.0625 0.125q-0.140625 0.15625 -0.6875 0.328125q-0.546875 0.15625 -1.03125 0.15625q-0.65625 0 -1.046875 -0.296875q-0.375 -0.3125 -0.375 -0.8125l0 -2.46875l-0.671875 0q-0.140625 0 -0.203125 -0.046875q-0.046875 -0.046875 -0.046875 -0.140625q0 -0.078125 0.046875 -0.125q0.0625 -0.0625 0.203125 -0.0625l0.671875 0l0 -1.078125q0 -0.140625 0.046875 -0.1875q0.0625 -0.0625 0.140625 -0.0625q0.09375 0 0.140625 0.0625q0.046875 0.046875 0.046875 0.1875l0 1.078125zm6.354004 -1.890625l0 0.953125l-0.546875 0l0 -0.953125l0.546875 0zm0 1.890625l0 3.4375l1.453125 0q0.140625 0 0.1875 0.0625q0.0625 0.046875 0.0625 0.125q0 0.078125 -0.0625 0.140625q-0.046875 0.046875 -0.1875 0.046875l-3.265625 0q-0.140625 0 -0.203125 -0.046875q-0.046875 -0.0625 -0.046875 -0.140625q0 -0.078125 0.046875 -0.125q0.0625 -0.0625 0.203125 -0.0625l1.453125 0l0 -3.0625l-1.078125 0q-0.140625 0 -0.203125 -0.046875q-0.046875 -0.046875 -0.046875 -0.125q0 -0.09375 0.046875 -0.140625q0.0625 -0.0625 0.203125 -0.0625l1.4375 0zm7.275879 1.921875q0 0.84375 -0.609375 1.4375q-0.59375 0.59375 -1.453125 0.59375q-0.859375 0 -1.46875 -0.59375q-0.59375 -0.609375 -0.59375 -1.4375q0 -0.84375 0.59375 -1.4375q0.609375 -0.609375 1.46875 -0.609375q0.859375 0 1.453125 0.59375q0.609375 0.59375 0.609375 1.453125zm-0.375 0q0 -0.703125 -0.5 -1.1875q-0.484375 -0.484375 -1.1875 -0.484375q-0.703125 0 -1.203125 0.5q-0.5 0.484375 -0.5 1.171875q0 0.6875 0.5 1.1875q0.5 0.484375 1.203125 0.484375q0.703125 0 1.1875 -0.484375q0.5 -0.5 0.5 -1.1875zm2.510254 -1.921875l0 0.5625q0.390625 -0.390625 0.703125 -0.53125q0.3125 -0.15625 0.703125 -0.15625q0.421875 0 0.765625 0.1875q0.25 0.125 0.453125 0.4375q0.203125 0.296875 0.203125 0.625l0 2.3125l0.3125 0q0.125 0 0.171875 0.0625q0.0625 0.046875 0.0625 0.125q0 0.078125 -0.0625 0.140625q-0.046875 0.046875 -0.171875 0.046875l-1.0 0q-0.125 0 -0.1875 -0.046875q-0.0625 -0.0625 -0.0625 -0.140625q0 -0.078125 0.0625 -0.125q0.0625 -0.0625 0.1875 -0.0625l0.3125 0l0 -2.25q0 -0.40625 -0.28125 -0.671875q-0.28125 -0.265625 -0.765625 -0.265625q-0.359375 0 -0.640625 0.15625q-0.265625 0.140625 -0.765625 0.71875l0 2.3125l0.421875 0q0.140625 0 0.1875 0.0625q0.0625 0.046875 0.0625 0.125q0 0.078125 -0.0625 0.140625q-0.046875 0.046875 -0.1875 0.046875l-1.203125 0q-0.125 0 -0.1875 -0.046875q-0.0625 -0.0625 -0.0625 -0.140625q0 -0.078125 0.0625 -0.125q0.0625 -0.0625 0.1875 -0.0625l0.421875 0l0 -3.0625l-0.3125 0q-0.140625 0 -0.203125 -0.046875q-0.046875 -0.046875 -0.046875 -0.140625q0 -0.078125 0.046875 -0.125q0.0625 -0.0625 0.203125 -0.0625l0.671875 0z" fill-rule="nonzero"/><path fill="#ebe3fd" d="m297.0994 129.1186l0 23.65355l21.937012 0l-10.753296 -11.611542l10.753296 -12.042007z" fill-rule="evenodd"/><path stroke="#8b6bda" stroke-width="1.0" stroke-linejoin="round" stroke-linecap="butt" d="m297.0994 129.1186l0 23.65355l21.937012 0l-10.753296 -11.611542l10.753296 -12.042007z" fill-rule="evenodd"/><path fill="#cfe2f3" d="m425.80588 89.625114l0 0c0 -15.664017 12.204651 -28.36221 27.259857 -28.36221l0 0c7.2297363 0 14.163391 2.9881554 19.275604 8.307102c5.112213 5.318939 7.9842224 12.532982 7.9842224 20.055107l0 0c0 15.664009 -12.204651 28.362206 -27.259827 28.362206l0 0c-15.055206 0 -27.259857 -12.698196 -27.259857 -28.362206z" fill-rule="evenodd"/><path stroke="#4e8aeb" stroke-width="1.0" stroke-linejoin="round" stroke-linecap="butt" d="m425.80588 89.625114l0 0c0 -15.664017 12.204651 -28.36221 27.259857 -28.36221l0 0c7.2297363 0 14.163391 2.9881554 19.275604 8.307102c5.112213 5.318939 7.9842224 12.532982 7.9842224 20.055107l0 0c0 15.664009 -12.204651 28.362206 -27.259827 28.362206l0 0c-15.055206 0 -27.259857 -12.698196 -27.259857 -28.362206z" fill-rule="evenodd"/><path fill="#cfe2f3" d="m469.92633 98.40323l0 0c-3.8216858 8.244156 -12.474274 12.67598 -20.972717 10.742157c-8.498474 -1.933815 -14.653778 -9.735168 -14.919708 -18.909454c-0.26593018 -9.1742935 5.4260254 -17.358444 13.79657 -19.837303c8.370544 -2.4788666 17.263641 1.3860474 21.555664 9.368042l-8.601135 5.1553574c-1.9510803 -4.07251 -6.150482 -6.1087646 -10.141632 -4.9175873c-3.99115 1.1911774 -6.7253723 5.2968216 -6.6032104 9.915176c0.12219238 4.618355 3.0686646 8.535988 7.1157837 9.461121c4.0471497 0.92513275 8.131561 -1.385292 9.863953 -5.579712z" fill-rule="evenodd"/><path stroke="#4e8aeb" stroke-width="1.0" stroke-linejoin="round" stroke-linecap="butt" d="m469.92633 98.40323l0 0c-3.8216858 8.244156 -12.474274 12.67598 -20.972717 10.742157c-8.498474 -1.933815 -14.653778 -9.735168 -14.919708 -18.909454c-0.26593018 -9.1742935 5.4260254 -17.358444 13.79657 -19.837303c8.370544 -2.4788666 17.263641 1.3860474 21.555664 9.368042l-8.601135 5.1553574c-1.9510803 -4.07251 -6.150482 -6.1087646 -10.141632 -4.9175873c-3.99115 1.1911774 -6.7253723 5.2968216 -6.6032104 9.915176c0.12219238 4.618355 3.0686646 8.535988 7.1157837 9.461121c4.0471497 0.92513275 8.131561 -1.385292 9.863953 -5.579712z" fill-rule="evenodd"/><path fill="#000000" fill-opacity="0.0" d="m405.31763 120.940926l95.24411 0l0 20.850395l-95.24411 0z" fill-rule="evenodd"/><path fill="#ffffff" d="m437.9585 137.18217l-2.4375 0l-0.484375 1.34375l0.703125 0q0.125 0 0.1875 0.0625q0.0625 0.046875 0.0625 0.125q0 0.078125 -0.0625 0.140625q-0.0625 0.046875 -0.1875 0.046875l-1.375 0q-0.140625 0 -0.203125 -0.046875q-0.046875 -0.0625 -0.046875 -0.140625q0 -0.078125 0.046875 -0.125q0.0625 -0.0625 0.203125 -0.0625l0.28125 0l1.625 -4.390625l-1.09375 0q-0.125 0 -0.1875 -0.046875q-0.046875 -0.0625 -0.046875 -0.140625q0 -0.09375 0.046875 -0.140625q0.0625 -0.046875 0.1875 -0.046875l1.859375 0l1.8125 4.765625l0.28125 0q0.125 0 0.1875 0.0625q0.0625 0.046875 0.0625 0.125q0 0.078125 -0.0625 0.140625q-0.0625 0.046875 -0.1875 0.046875l-1.375 0q-0.140625 0 -0.203125 -0.046875q-0.046875 -0.0625 -0.046875 -0.140625q0 -0.078125 0.046875 -0.125q0.0625 -0.0625 0.203125 -0.0625l0.703125 0l-0.5 -1.34375zm-0.140625 -0.375l-1.03125 -2.671875l-0.125 0l-1.0 2.671875l2.15625 0zm6.135254 -3.421875l0 5.140625l0.484375 0q0.140625 0 0.1875 0.0625q0.0625 0.046875 0.0625 0.125q0 0.078125 -0.0625 0.140625q-0.046875 0.046875 -0.1875 0.046875l-0.859375 0l0 -0.734375q-0.640625 0.875 -1.640625 0.875q-0.5 0 -0.96875 -0.265625q-0.453125 -0.265625 -0.71875 -0.75q-0.265625 -0.5 -0.265625 -1.015625q0 -0.53125 0.265625 -1.015625q0.265625 -0.5 0.71875 -0.765625q0.46875 -0.265625 0.984375 -0.265625q0.953125 0 1.625 0.875l0 -2.078125l-0.5 0q-0.140625 0 -0.203125 -0.046875q-0.046875 -0.0625 -0.046875 -0.140625q0 -0.078125 0.046875 -0.125q0.0625 -0.0625 0.203125 -0.0625l0.875 0zm-0.375 3.625q0 -0.703125 -0.484375 -1.1875q-0.46875 -0.484375 -1.125 -0.484375q-0.65625 0 -1.140625 0.484375q-0.46875 0.484375 -0.46875 1.1875q0 0.6875 0.46875 1.1875q0.484375 0.484375 1.140625 0.484375q0.65625 0 1.125 -0.484375q0.484375 -0.5 0.484375 -1.1875zm5.775879 -3.625l0 5.140625l0.484375 0q0.140625 0 0.1875 0.0625q0.0625 0.046875 0.0625 0.125q0 0.078125 -0.0625 0.140625q-0.046875 0.046875 -0.1875 0.046875l-0.859375 0l0 -0.734375q-0.640625 0.875 -1.640625 0.875q-0.5 0 -0.96875 -0.265625q-0.453125 -0.265625 -0.71875 -0.75q-0.265625 -0.5 -0.265625 -1.015625q0 -0.53125 0.265625 -1.015625q0.265625 -0.5 0.71875 -0.765625q0.46875 -0.265625 0.984375 -0.265625q0.953125 0 1.625 0.875l0 -2.078125l-0.5 0q-0.140625 0 -0.203125 -0.046875q-0.046875 -0.0625 -0.046875 -0.140625q0 -0.078125 0.046875 -0.125q0.0625 -0.0625 0.203125 -0.0625l0.875 0zm-0.375 3.625q0 -0.703125 -0.484375 -1.1875q-0.46875 -0.484375 -1.125 -0.484375q-0.65625 0 -1.140625 0.484375q-0.46875 0.484375 -0.46875 1.1875q0 0.6875 0.46875 1.1875q0.484375 0.484375 1.140625 0.484375q0.65625 0 1.125 -0.484375q0.484375 -0.5 0.484375 -1.1875zm3.525879 -1.921875l0 0.9375q0.71875 -0.65625 1.078125 -0.828125q0.359375 -0.1875 0.65625 -0.1875q0.328125 0 0.609375 0.21875q0.28125 0.21875 0.28125 0.328125q0 0.09375 -0.0625 0.15625q-0.046875 0.046875 -0.125 0.046875q-0.046875 0 -0.078125 -0.015625q-0.03125 -0.015625 -0.109375 -0.109375q-0.15625 -0.15625 -0.28125 -0.203125q-0.109375 -0.0625 -0.21875 -0.0625q-0.234375 0 -0.578125 0.203125q-0.34375 0.1875 -1.171875 0.9375l0 2.015625l1.625 0q0.140625 0 0.1875 0.0625q0.0625 0.046875 0.0625 0.125q0 0.078125 -0.0625 0.140625q-0.046875 0.046875 -0.1875 0.046875l-2.890625 0q-0.140625 0 -0.203125 -0.046875q-0.046875 -0.046875 -0.046875 -0.140625q0 -0.0625 0.046875 -0.109375q0.0625 -0.0625 0.203125 -0.0625l0.890625 0l0 -3.078125l-0.6875 0q-0.125 0 -0.1875 -0.046875q-0.046875 -0.046875 -0.046875 -0.140625q0 -0.078125 0.046875 -0.125q0.0625 -0.0625 0.1875 -0.0625l1.0625 0zm7.838379 2.0l-3.765625 0q0.09375 0.71875 0.59375 1.15625q0.515625 0.4375 1.25 0.4375q0.40625 0 0.859375 -0.140625q0.453125 -0.140625 0.75 -0.359375q0.078125 -0.0625 0.140625 -0.0625q0.0625 0 0.109375 0.0625q0.0625 0.046875 0.0625 0.109375q0 0.078125 -0.0625 0.15625q-0.21875 0.21875 -0.765625 0.40625q-0.53125 0.1875 -1.09375 0.1875q-0.953125 0 -1.59375 -0.609375q-0.625 -0.625 -0.625 -1.515625q0 -0.796875 0.59375 -1.375q0.59375 -0.578125 1.46875 -0.578125q0.90625 0 1.484375 0.59375q0.59375 0.59375 0.59375 1.53125zm-0.375 -0.375q-0.109375 -0.609375 -0.578125 -0.984375q-0.46875 -0.390625 -1.125 -0.390625q-0.640625 0 -1.109375 0.375q-0.453125 0.375 -0.578125 1.0l3.390625 0zm4.994629 -1.375q0 -0.125 0.046875 -0.1875q0.0625 -0.0625 0.140625 -0.0625q0.078125 0 0.125 0.0625q0.0625 0.0625 0.0625 0.1875l0 0.640625q0 0.125 -0.0625 0.1875q-0.046875 0.0625 -0.125 0.0625q-0.078125 0 -0.140625 -0.046875q-0.046875 -0.046875 -0.046875 -0.171875q-0.03125 -0.25 -0.28125 -0.421875q-0.359375 -0.25 -0.953125 -0.25q-0.609375 0 -0.953125 0.25q-0.265625 0.1875 -0.265625 0.421875q0 0.265625 0.3125 0.4375q0.203125 0.125 0.796875 0.1875q0.765625 0.078125 1.0625 0.1875q0.4375 0.15625 0.640625 0.4375q0.203125 0.265625 0.203125 0.578125q0 0.46875 -0.453125 0.84375q-0.4375 0.359375 -1.3125 0.359375q-0.875 0 -1.4375 -0.4375q0 0.140625 -0.015625 0.1875q-0.015625 0.046875 -0.0625 0.078125q-0.046875 0.03125 -0.109375 0.03125q-0.078125 0 -0.140625 -0.046875q-0.046875 -0.0625 -0.046875 -0.203125l0 -0.75q0 -0.140625 0.046875 -0.1875q0.0625 -0.0625 0.140625 -0.0625q0.078125 0 0.125 0.0625q0.0625 0.046875 0.0625 0.140625q0 0.203125 0.109375 0.328125q0.140625 0.21875 0.46875 0.359375q0.34375 0.140625 0.84375 0.140625q0.71875 0 1.0625 -0.265625q0.359375 -0.28125 0.359375 -0.578125q0 -0.34375 -0.359375 -0.546875q-0.359375 -0.203125 -1.046875 -0.265625q-0.6875 -0.078125 -0.984375 -0.1875q-0.296875 -0.125 -0.46875 -0.34375q-0.171875 -0.234375 -0.171875 -0.5q0 -0.46875 0.46875 -0.75q0.46875 -0.28125 1.109375 -0.28125q0.765625 0 1.25 0.375zm5.400879 0q0 -0.125 0.046875 -0.1875q0.0625 -0.0625 0.140625 -0.0625q0.078125 0 0.125 0.0625q0.0625 0.0625 0.0625 0.1875l0 0.640625q0 0.125 -0.0625 0.1875q-0.046875 0.0625 -0.125 0.0625q-0.078125 0 -0.140625 -0.046875q-0.046875 -0.046875 -0.046875 -0.171875q-0.03125 -0.25 -0.28125 -0.421875q-0.359375 -0.25 -0.953125 -0.25q-0.609375 0 -0.953125 0.25q-0.265625 0.1875 -0.265625 0.421875q0 0.265625 0.3125 0.4375q0.203125 0.125 0.796875 0.1875q0.765625 0.078125 1.0625 0.1875q0.4375 0.15625 0.640625 0.4375q0.203125 0.265625 0.203125 0.578125q0 0.46875 -0.453125 0.84375q-0.4375 0.359375 -1.3125 0.359375q-0.875 0 -1.4375 -0.4375q0 0.140625 -0.015625 0.1875q-0.015625 0.046875 -0.0625 0.078125q-0.046875 0.03125 -0.109375 0.03125q-0.078125 0 -0.140625 -0.046875q-0.046875 -0.0625 -0.046875 -0.203125l0 -0.75q0 -0.140625 0.046875 -0.1875q0.0625 -0.0625 0.140625 -0.0625q0.078125 0 0.125 0.0625q0.0625 0.046875 0.0625 0.140625q0 0.203125 0.109375 0.328125q0.140625 0.21875 0.46875 0.359375q0.34375 0.140625 0.84375 0.140625q0.71875 0 1.0625 -0.265625q0.359375 -0.28125 0.359375 -0.578125q0 -0.34375 -0.359375 -0.546875q-0.359375 -0.203125 -1.046875 -0.265625q-0.6875 -0.078125 -0.984375 -0.1875q-0.296875 -0.125 -0.46875 -0.34375q-0.171875 -0.234375 -0.171875 -0.5q0 -0.46875 0.46875 -0.75q0.46875 -0.28125 1.109375 -0.28125q0.765625 0 1.25 0.375z" fill-rule="nonzero"/><path fill="#ebe3fd" d="m463.2639 97.14217l0 23.653542l21.937012 0l-10.753296 -11.611549l10.753296 -12.041992z" fill-rule="evenodd"/><path stroke="#8b6bda" stroke-width="1.0" stroke-linejoin="round" stroke-linecap="butt" d="m463.2639 97.14217l0 23.653542l21.937012 0l-10.753296 -11.611549l10.753296 -12.041992z" fill-rule="evenodd"/><path fill="#000000" fill-opacity="0.0" d="m248.77136 8.750656E-4l53.228333 0l0 30.70866l-53.228333 0z" fill-rule="evenodd"/><path stroke="#ffffff" stroke-width="1.0" stroke-linejoin="round" stroke-linecap="butt" d="m248.77136 8.750656E-4l53.228333 0l0 30.70866l-53.228333 0z" fill-rule="evenodd"/><path fill="#ffffff" d="m263.19852 13.19525l0 -0.125q0 -0.140625 0.046875 -0.1875q0.0625 -0.0625 0.140625 -0.0625q0.09375 0 0.140625 0.0625q0.046875 0.046875 0.046875 0.1875l0 0.9375q0 0.125 -0.046875 0.1875q-0.046875 0.0625 -0.140625 0.0625q-0.078125 0 -0.125 -0.046875q-0.046875 -0.0625 -0.0625 -0.1875q-0.015625 -0.359375 -0.375 -0.65625q-0.359375 -0.296875 -0.9375 -0.296875q-0.609375 0 -0.96875 0.3125q-0.359375 0.3125 -0.359375 0.734375q0 0.234375 0.09375 0.421875q0.109375 0.171875 0.265625 0.28125q0.171875 0.109375 0.375 0.1875q0.21875 0.0625 0.671875 0.125q0.75 0.125 1.03125 0.25q0.390625 0.171875 0.578125 0.484375q0.203125 0.296875 0.203125 0.71875q0 0.625 -0.515625 1.078125q-0.5 0.4375 -1.359375 0.4375q-0.953125 0 -1.53125 -0.59375l0 0.203125q0 0.140625 -0.0625 0.203125q-0.046875 0.046875 -0.125 0.046875q-0.078125 0 -0.140625 -0.046875q-0.046875 -0.0625 -0.046875 -0.203125l0 -1.015625q0 -0.140625 0.046875 -0.1875q0.0625 -0.0625 0.140625 -0.0625q0.078125 0 0.125 0.0625q0.046875 0.046875 0.0625 0.15625q0.015625 0.40625 0.421875 0.75q0.421875 0.328125 1.109375 0.328125q0.703125 0 1.09375 -0.34375q0.40625 -0.359375 0.40625 -0.828125q0 -0.296875 -0.15625 -0.515625q-0.15625 -0.234375 -0.453125 -0.359375q-0.21875 -0.09375 -0.875 -0.203125q-0.921875 -0.15625 -1.328125 -0.46875q-0.40625 -0.328125 -0.40625 -0.90625q0 -0.578125 0.453125 -1.0q0.46875 -0.421875 1.234375 -0.421875q0.78125 0 1.328125 0.5zm6.088379 2.953125l-3.765625 0q0.09375 0.71875 0.59375 1.15625q0.515625 0.4375 1.25 0.4375q0.40625 0 0.859375 -0.140625q0.453125 -0.140625 0.75 -0.359375q0.078125 -0.0625 0.140625 -0.0625q0.0625 0 0.109375 0.0625q0.0625 0.046875 0.0625 0.109375q0 0.078125 -0.0625 0.15625q-0.21875 0.21875 -0.765625 0.40625q-0.53125 0.1875 -1.09375 0.1875q-0.953125 0 -1.59375 -0.609375q-0.625 -0.625 -0.625 -1.515625q0 -0.796875 0.59375 -1.375q0.59375 -0.578125 1.46875 -0.578125q0.90625 0 1.484375 0.59375q0.59375 0.59375 0.59375 1.53125zm-0.375 -0.375q-0.109375 -0.609375 -0.578125 -0.984375q-0.46875 -0.390625 -1.125 -0.390625q-0.640625 0 -1.109375 0.375q-0.453125 0.375 -0.578125 1.0l3.390625 0zm3.010254 -1.625l2.015625 0q0.125 0 0.171875 0.0625q0.0625 0.046875 0.0625 0.140625q0 0.078125 -0.0625 0.125q-0.046875 0.046875 -0.171875 0.046875l-2.015625 0l0 2.46875q0 0.3125 0.25 0.53125q0.265625 0.21875 0.765625 0.21875q0.375 0 0.8125 -0.109375q0.4375 -0.125 0.671875 -0.265625q0.09375 -0.046875 0.140625 -0.046875q0.078125 0 0.125 0.0625q0.0625 0.046875 0.0625 0.109375q0 0.078125 -0.0625 0.125q-0.140625 0.15625 -0.6875 0.328125q-0.546875 0.15625 -1.03125 0.15625q-0.65625 0 -1.046875 -0.296875q-0.375 -0.3125 -0.375 -0.8125l0 -2.46875l-0.671875 0q-0.140625 0 -0.203125 -0.046875q-0.046875 -0.046875 -0.046875 -0.140625q0 -0.078125 0.046875 -0.125q0.0625 -0.0625 0.203125 -0.0625l0.671875 0l0 -1.078125q0 -0.140625 0.046875 -0.1875q0.0625 -0.0625 0.140625 -0.0625q0.09375 0 0.140625 0.0625q0.046875 0.046875 0.046875 0.1875l0 1.078125zm3.900879 1.25l3.984375 -2.21875q0.09375 -0.0625 0.140625 -0.0625q0.078125 0 0.125 0.0625q0.0625 0.046875 0.0625 0.125q0 0.109375 -0.15625 0.203125l-3.40625 1.890625l3.40625 1.90625q0.15625 0.078125 0.15625 0.1875q0 0.078125 -0.0625 0.140625q-0.046875 0.046875 -0.125 0.046875q-0.046875 0 -0.140625 -0.0625l-3.984375 -2.21875zm7.463379 -1.4375l0 -1.265625q0 -0.140625 0.046875 -0.1875q0.0625 -0.0625 0.140625 -0.0625q0.078125 0 0.125 0.0625q0.0625 0.046875 0.0625 0.1875l0 1.265625l1.1875 -0.390625q0.09375 -0.03125 0.140625 -0.03125q0.0625 0 0.109375 0.0625q0.0625 0.046875 0.0625 0.125q0 0.0625 -0.046875 0.109375q-0.03125 0.046875 -0.140625 0.09375l-1.203125 0.390625l0.75 1.015625q0.0625 0.09375 0.0625 0.15625q0 0.078125 -0.0625 0.140625q-0.046875 0.046875 -0.125 0.046875q-0.09375 0 -0.1875 -0.125l-0.734375 -1.03125l-0.75 1.03125q-0.09375 0.125 -0.1875 0.125q-0.078125 0 -0.140625 -0.046875q-0.046875 -0.0625 -0.046875 -0.140625q0 -0.0625 0.078125 -0.15625l0.734375 -1.015625l-1.203125 -0.40625q-0.109375 -0.03125 -0.140625 -0.078125q-0.03125 -0.046875 -0.03125 -0.109375q0 -0.078125 0.046875 -0.125q0.046875 -0.0625 0.125 -0.0625q0.046875 0 0.125 0.03125l1.203125 0.390625zm7.869629 1.4375l-3.984375 2.21875q-0.09375 0.0625 -0.15625 0.0625q-0.0625 0 -0.125 -0.046875q-0.046875 -0.0625 -0.046875 -0.140625q0 -0.109375 0.140625 -0.1875l3.421875 -1.90625l-3.421875 -1.890625q-0.140625 -0.09375 -0.140625 -0.203125q0 -0.078125 0.046875 -0.125q0.0625 -0.0625 0.140625 -0.0625q0.046875 0 0.140625 0.0625l3.984375 2.21875z" fill-rule="nonzero"/><path fill="#000000" fill-opacity="0.0" d="m301.9997 15.355206l170.33072 0l0 54.204723" fill-rule="evenodd"/><path stroke="#ffffff" stroke-width="1.0" stroke-linejoin="round" stroke-linecap="butt" d="m301.9997 15.355206l170.33072 0l0 54.204723" fill-rule="evenodd"/><path fill="#000000" fill-opacity="0.0" d="m96.88974 86.414696l22.897636 0l0 15.118111l-22.897636 0z" fill-rule="evenodd"/><path fill="#ffffff" d="m105.437675 91.374695l0 -1.265625q0 -0.140625 0.046875 -0.1875q0.0625 -0.0625 0.140625 -0.0625q0.078125 0 0.125 0.0625q0.0625 0.046875 0.0625 0.1875l0 1.265625l1.1875 -0.390625q0.09375 -0.03125 0.140625 -0.03125q0.0625 0 0.109375 0.0625q0.0625 0.046875 0.0625 0.125q0 0.0625 -0.046875 0.109375q-0.03125 0.046875 -0.140625 0.09375l-1.203125 0.390625l0.75 1.015625q0.0625 0.09375 0.0625 0.15625q0 0.078125 -0.0625 0.140625q-0.046875 0.046875 -0.125 0.046875q-0.09375 0 -0.1875 -0.125l-0.734375 -1.03125l-0.75 1.03125q-0.09375 0.125 -0.1875 0.125q-0.078125 0 -0.140625 -0.046875q-0.046875 -0.0625 -0.046875 -0.140625q0 -0.0625 0.078125 -0.15625l0.734375 -1.015625l-1.203125 -0.40625q-0.109375 -0.03125 -0.140625 -0.078125q-0.03125 -0.046875 -0.03125 -0.109375q0 -0.078125 0.046875 -0.125q0.046875 -0.0625 0.125 -0.0625q0.046875 0 0.125 0.03125l1.203125 0.390625zm4.010254 3.625l2.84375 0l0 -0.140625q0 -0.125 0.046875 -0.1875q0.046875 -0.0625 0.140625 -0.0625q0.078125 0 0.125 0.0625q0.046875 0.0625 0.046875 0.1875l0 0.515625l-3.5625 0l0 -0.546875q1.125 -1.015625 2.1875 -2.0625q0.5 -0.484375 0.6875 -0.703125q0.1875 -0.234375 0.25 -0.40625q0.0625 -0.171875 0.0625 -0.34375q0 -0.484375 -0.390625 -0.84375q-0.375 -0.375 -0.90625 -0.375q-0.484375 0 -0.859375 0.28125q-0.375 0.28125 -0.484375 0.6875q-0.03125 0.109375 -0.0625 0.140625q-0.0625 0.046875 -0.125 0.046875q-0.078125 0 -0.125 -0.046875q-0.046875 -0.0625 -0.046875 -0.125q0 -0.21875 0.21875 -0.578125q0.234375 -0.359375 0.640625 -0.5625q0.40625 -0.203125 0.828125 -0.203125q0.703125 0 1.1875 0.484375q0.5 0.46875 0.5 1.078125q0 0.25 -0.078125 0.46875q-0.078125 0.203125 -0.28125 0.46875q-0.203125 0.25 -0.71875 0.75q-1.3125 1.28125 -2.125 2.0l0 0.015625z" fill-rule="nonzero"/><path fill="#cfe2f3" d="m221.65285 337.0053l0 0c0 -15.664001 12.204651 -28.362213 27.259842 -28.362213l0 0c7.229767 0 14.163422 2.9881592 19.275635 8.307098c5.112213 5.318939 7.9842224 12.5329895 7.9842224 20.055115l0 0c0 15.664001 -12.204651 28.362213 -27.259857 28.362213l0 0c-15.055191 0 -27.259842 -12.698212 -27.259842 -28.362213z" fill-rule="evenodd"/><path stroke="#4e8aeb" stroke-width="1.0" stroke-linejoin="round" stroke-linecap="butt" d="m221.65285 337.0053l0 0c0 -15.664001 12.204651 -28.362213 27.259842 -28.362213l0 0c7.229767 0 14.163422 2.9881592 19.275635 8.307098c5.112213 5.318939 7.9842224 12.5329895 7.9842224 20.055115l0 0c0 15.664001 -12.204651 28.362213 -27.259857 28.362213l0 0c-15.055191 0 -27.259842 -12.698212 -27.259842 -28.362213z" fill-rule="evenodd"/><path fill="#cfe2f3" d="m265.7733 345.78342l0 0c-3.8216858 8.244171 -12.474258 12.675995 -20.972702 10.742157c-8.498459 -1.9338074 -14.653793 -9.735168 -14.9197235 -18.909454c-0.26593018 -9.174286 5.4260406 -17.358429 13.7966 -19.83731c8.370544 -2.4788513 17.26361 1.3860779 21.555634 9.368042l-8.601135 5.155365c-1.9510651 -4.07251 -6.150482 -6.1087646 -10.141617 -4.917572c-3.99115 1.1911621 -6.7253723 5.296814 -6.603195 9.915161c0.122177124 4.6183777 3.0686493 8.53598 7.1157837 9.461121c4.047119 0.9251404 8.131546 -1.3852844 9.863922 -5.579712z" fill-rule="evenodd"/><path stroke="#4e8aeb" stroke-width="1.0" stroke-linejoin="round" stroke-linecap="butt" d="m265.7733 345.78342l0 0c-3.8216858 8.244171 -12.474258 12.675995 -20.972702 10.742157c-8.498459 -1.9338074 -14.653793 -9.735168 -14.9197235 -18.909454c-0.26593018 -9.174286 5.4260406 -17.358429 13.7966 -19.83731c8.370544 -2.4788513 17.26361 1.3860779 21.555634 9.368042l-8.601135 5.155365c-1.9510651 -4.07251 -6.150482 -6.1087646 -10.141617 -4.917572c-3.99115 1.1911621 -6.7253723 5.296814 -6.603195 9.915161c0.122177124 4.6183777 3.0686493 8.53598 7.1157837 9.461121c4.047119 0.9251404 8.131546 -1.3852844 9.863922 -5.579712z" fill-rule="evenodd"/><path fill="#000000" fill-opacity="0.0" d="m201.16461 368.32114l95.24408 0l0 20.850372l-95.24408 0z" fill-rule="evenodd"/><path fill="#ffffff" d="m234.08401 383.98425l0 1.921875l0.6875 0q0.125 0 0.1875 0.0625q0.0625 0.046875 0.0625 0.125q0 0.078125 -0.0625 0.140625q-0.0625 0.046875 -0.1875 0.046875l-1.546875 0q-0.140625 0 -0.203125 -0.046875q-0.046875 -0.0625 -0.046875 -0.140625q0 -0.078125 0.046875 -0.125q0.0625 -0.0625 0.203125 -0.0625l0.484375 0l0 -4.390625l-0.484375 0q-0.140625 0 -0.203125 -0.046875q-0.046875 -0.0625 -0.046875 -0.140625q0 -0.09375 0.046875 -0.140625q0.0625 -0.046875 0.203125 -0.046875l2.21875 0q0.703125 0 1.171875 0.4375q0.46875 0.4375 0.46875 0.984375q0 0.390625 -0.296875 0.75q-0.28125 0.34375 -0.96875 0.578125q0.390625 0.265625 0.671875 0.609375q0.28125 0.34375 0.90625 1.40625l0.28125 0q0.125 0 0.171875 0.0625q0.0625 0.046875 0.0625 0.125q0 0.078125 -0.0625 0.140625q-0.046875 0.046875 -0.171875 0.046875l-0.5 0q-0.6875 -1.21875 -1.0625 -1.640625q-0.375 -0.421875 -0.859375 -0.65625l-1.171875 0zm0 -0.359375l1.0 0q0.484375 0 0.875 -0.171875q0.40625 -0.1875 0.578125 -0.421875q0.171875 -0.234375 0.171875 -0.484375q0 -0.375 -0.375 -0.703125q-0.359375 -0.328125 -0.890625 -0.328125l-1.359375 0l0 2.109375zm8.604004 0.84375l-3.765625 0q0.09375 0.71875 0.59375 1.15625q0.515625 0.4375 1.25 0.4375q0.40625 0 0.859375 -0.140625q0.453125 -0.140625 0.75 -0.359375q0.078125 -0.0625 0.140625 -0.0625q0.0625 0 0.109375 0.0625q0.0625 0.046875 0.0625 0.109375q0 0.078125 -0.0625 0.15625q-0.21875 0.21875 -0.765625 0.40625q-0.53125 0.1875 -1.09375 0.1875q-0.953125 0 -1.59375 -0.609375q-0.625 -0.625 -0.625 -1.515625q0 -0.796875 0.59375 -1.375q0.59375 -0.578125 1.46875 -0.578125q0.90625 0 1.484375 0.59375q0.59375 0.59375 0.59375 1.53125zm-0.375 -0.375q-0.109375 -0.609375 -0.578125 -0.984375q-0.46875 -0.390625 -1.125 -0.390625q-0.640625 0 -1.109375 0.375q-0.453125 0.375 -0.578125 1.0l3.390625 0zm5.010254 -0.9375l0 -0.6875l0.875 0q0.125 0 0.171875 0.0625q0.0625 0.046875 0.0625 0.140625q0 0.078125 -0.0625 0.125q-0.046875 0.046875 -0.171875 0.046875l-0.5 0l0 3.6875q0 0.375 -0.15625 0.671875q-0.109375 0.1875 -0.359375 0.390625q-0.234375 0.203125 -0.4375 0.296875q-0.203125 0.09375 -0.546875 0.09375l-1.046875 0q-0.125 0 -0.1875 -0.0625q-0.0625 -0.046875 -0.0625 -0.125q0 -0.09375 0.0625 -0.140625q0.0625 -0.046875 0.1875 -0.046875l1.0625 0q0.328125 0 0.578125 -0.171875q0.265625 -0.15625 0.4375 -0.484375q0.09375 -0.1875 0.09375 -0.46875l0 -1.109375q-0.59375 0.8125 -1.53125 0.8125q-0.75 0 -1.3125 -0.5625q-0.546875 -0.5625 -0.546875 -1.359375q0 -0.796875 0.546875 -1.359375q0.5625 -0.5625 1.3125 -0.5625q0.9375 0 1.53125 0.8125zm0 1.109375q0 -0.65625 -0.453125 -1.09375q-0.4375 -0.453125 -1.046875 -0.453125q-0.625 0 -1.078125 0.453125q-0.4375 0.453125 -0.4375 1.09375q0 0.65625 0.4375 1.109375q0.453125 0.4375 1.078125 0.4375q0.609375 0 1.046875 -0.4375q0.453125 -0.453125 0.453125 -1.109375zm4.354004 -3.6875l0 0.953125l-0.546875 0l0 -0.953125l0.546875 0zm0 1.890625l0 3.4375l1.453125 0q0.140625 0 0.1875 0.0625q0.0625 0.046875 0.0625 0.125q0 0.078125 -0.0625 0.140625q-0.046875 0.046875 -0.1875 0.046875l-3.265625 0q-0.140625 0 -0.203125 -0.046875q-0.046875 -0.0625 -0.046875 -0.140625q0 -0.078125 0.046875 -0.125q0.0625 -0.0625 0.203125 -0.0625l1.453125 0l0 -3.0625l-1.078125 0q-0.140625 0 -0.203125 -0.046875q-0.046875 -0.046875 -0.046875 -0.125q0 -0.09375 0.046875 -0.140625q0.0625 -0.0625 0.203125 -0.0625l1.4375 0zm7.275879 1.921875q0 0.84375 -0.609375 1.4375q-0.59375 0.59375 -1.453125 0.59375q-0.859375 0 -1.46875 -0.59375q-0.59375 -0.609375 -0.59375 -1.4375q0 -0.84375 0.59375 -1.4375q0.609375 -0.609375 1.46875 -0.609375q0.859375 0 1.453125 0.59375q0.609375 0.59375 0.609375 1.453125zm-0.375 0q0 -0.703125 -0.5 -1.1875q-0.484375 -0.484375 -1.1875 -0.484375q-0.703125 0 -1.203125 0.5q-0.5 0.484375 -0.5 1.171875q0 0.6875 0.5 1.1875q0.5 0.484375 1.203125 0.484375q0.703125 0 1.1875 -0.484375q0.5 -0.5 0.5 -1.1875zm2.510254 -1.921875l0 0.5625q0.390625 -0.390625 0.703125 -0.53125q0.3125 -0.15625 0.703125 -0.15625q0.421875 0 0.765625 0.1875q0.25 0.125 0.453125 0.4375q0.203125 0.296875 0.203125 0.625l0 2.3125l0.3125 0q0.125 0 0.171875 0.0625q0.0625 0.046875 0.0625 0.125q0 0.078125 -0.0625 0.140625q-0.046875 0.046875 -0.171875 0.046875l-1.0 0q-0.125 0 -0.1875 -0.046875q-0.0625 -0.0625 -0.0625 -0.140625q0 -0.078125 0.0625 -0.125q0.0625 -0.0625 0.1875 -0.0625l0.3125 0l0 -2.25q0 -0.40625 -0.28125 -0.671875q-0.28125 -0.265625 -0.765625 -0.265625q-0.359375 0 -0.640625 0.15625q-0.265625 0.140625 -0.765625 0.71875l0 2.3125l0.421875 0q0.140625 0 0.1875 0.0625q0.0625 0.046875 0.0625 0.125q0 0.078125 -0.0625 0.140625q-0.046875 0.046875 -0.1875 0.046875l-1.203125 0q-0.125 0 -0.1875 -0.046875q-0.0625 -0.0625 -0.0625 -0.140625q0 -0.078125 0.0625 -0.125q0.0625 -0.0625 0.1875 -0.0625l0.421875 0l0 -3.0625l-0.3125 0q-0.140625 0 -0.203125 -0.046875q-0.046875 -0.046875 -0.046875 -0.140625q0 -0.078125 0.046875 -0.125q0.0625 -0.0625 0.203125 -0.0625l0.671875 0z" fill-rule="nonzero"/><path fill="#ebe3fd" d="m259.11087 344.52237l0 23.653534l21.937012 0l-10.753296 -11.611542l10.753296 -12.041992z" fill-rule="evenodd"/><path stroke="#8b6bda" stroke-width="1.0" stroke-linejoin="round" stroke-linecap="butt" d="m259.11087 344.52237l0 23.653534l21.937012 0l-10.753296 -11.611542l10.753296 -12.041992z" fill-rule="evenodd"/><path fill="#000000" fill-opacity="0.0" d="m286.95407 253.33444l0 -39.783493l-0.18896484 0l0 -39.77556" fill-rule="evenodd"/><path stroke="#ffffff" stroke-width="1.0" stroke-linejoin="round" stroke-linecap="butt" d="m286.95407 253.33444l0 -39.783493l-0.18896484 0l0 -39.77556" fill-rule="evenodd"/><path fill="#000000" fill-opacity="0.0" d="m248.17717 284.07462l0.724411 24.566925" fill-rule="evenodd"/><path stroke="#ffffff" stroke-width="1.0" stroke-linejoin="round" stroke-linecap="butt" d="m248.17717 284.07462l0.724411 24.566925" fill-rule="evenodd"/><path fill="#000000" fill-opacity="0.0" d="m248.77136 15.355206l-171.1811 0l0 77.79527" fill-rule="evenodd"/><path stroke="#ffffff" stroke-width="1.0" stroke-linejoin="round" stroke-linecap="butt" d="m248.77135 15.3552065l-171.18109 0l0 72.166985" fill-rule="evenodd"/><path fill="#ffffff" stroke="#ffffff" stroke-width="1.0" stroke-linecap="butt" d="m77.590256 87.5222l-1.6652908 2.378273l1.6652908 2.3782806l1.6652832 -2.3782806z" fill-rule="evenodd"/><path fill="#000000" fill-opacity="0.0" d="m104.86485 121.5253l77.38893 0l0 0.06299591l77.38272 0" fill-rule="evenodd"/><path stroke="#ffffff" stroke-width="1.0" stroke-linejoin="round" stroke-linecap="butt" d="m110.49313 121.52531l71.760635 0l0 0.06298828l77.38274 0" fill-rule="evenodd"/><path fill="#ffffff" stroke="#ffffff" stroke-width="1.0" stroke-linecap="butt" d="m110.493126 121.52531l-2.378273 -1.6652908l-2.3782806 1.6652908l2.3782806 1.6652832z" fill-rule="evenodd"/><path fill="#cfe2f3" d="m50.47255 232.11165l0 0c0 -15.664017 12.204647 -28.362213 27.259842 -28.362213l0 0c7.229759 0 14.163406 2.9881592 19.27562 8.307098c5.112213 5.3189545 7.9842224 12.5329895 7.9842224 20.055115l0 0c0 15.664017 -12.204643 28.362198 -27.259842 28.362198l0 0c-15.055195 0 -27.259842 -12.698181 -27.259842 -28.362198z" fill-rule="evenodd"/><path stroke="#4e8aeb" stroke-width="1.0" stroke-linejoin="round" stroke-linecap="butt" d="m50.47255 232.11165l0 0c0 -15.664017 12.204647 -28.362213 27.259842 -28.362213l0 0c7.229759 0 14.163406 2.9881592 19.27562 8.307098c5.112213 5.3189545 7.9842224 12.5329895 7.9842224 20.055115l0 0c0 15.664017 -12.204643 28.362198 -27.259842 28.362198l0 0c-15.055195 0 -27.259842 -12.698181 -27.259842 -28.362198z" fill-rule="evenodd"/><path fill="#cfe2f3" d="m94.592995 240.88977l0 0c-3.8216858 8.244141 -12.474274 12.675964 -20.972725 10.742157c-8.498451 -1.9338226 -14.653782 -9.735184 -14.919708 -18.90947c-0.26593018 -9.174286 5.4260406 -17.358429 13.796585 -19.837296c8.370544 -2.4788666 17.263618 1.3860474 21.555649 9.368042l-8.601135 5.1553497c-1.9510727 -4.0724945 -6.15049 -6.1087646 -10.141632 -4.917572c-3.9911423 1.1911774 -6.7253647 5.296814 -6.6031876 9.915176c0.122177124 4.618347 3.068657 8.53598 7.1157837 9.461121c4.047127 0.9251251 8.131546 -1.3852997 9.86393 -5.579727z" fill-rule="evenodd"/><path stroke="#4e8aeb" stroke-width="1.0" stroke-linejoin="round" stroke-linecap="butt" d="m94.592995 240.88977l0 0c-3.8216858 8.244141 -12.474274 12.675964 -20.972725 10.742157c-8.498451 -1.9338226 -14.653782 -9.735184 -14.919708 -18.90947c-0.26593018 -9.174286 5.4260406 -17.358429 13.796585 -19.837296c8.370544 -2.4788666 17.263618 1.3860474 21.555649 9.368042l-8.601135 5.1553497c-1.9510727 -4.0724945 -6.15049 -6.1087646 -10.141632 -4.917572c-3.9911423 1.1911774 -6.7253647 5.296814 -6.6031876 9.915176c0.122177124 4.618347 3.068657 8.53598 7.1157837 9.461121c4.047127 0.9251251 8.131546 -1.3852997 9.86393 -5.579727z" fill-rule="evenodd"/><path fill="#000000" fill-opacity="0.0" d="m29.984303 263.42746l95.244095 0l0 20.850403l-95.244095 0z" fill-rule="evenodd"/><path fill="#ffffff" d="m49.026516 281.01245l0 -4.390625l-0.5 0q-0.125 0 -0.1875 -0.046875q-0.0625 -0.0625 -0.0625 -0.140625q0 -0.09375 0.0625 -0.140625q0.0625 -0.046875 0.1875 -0.046875l2.328125 0q0.6875 0 1.109375 0.40625q0.4375 0.390625 0.4375 0.921875q0 0.671875 -0.71875 1.09375q0.578125 0.203125 0.84375 0.546875q0.265625 0.34375 0.265625 0.765625q0 0.359375 -0.171875 0.671875q-0.171875 0.296875 -0.546875 0.515625q-0.359375 0.21875 -0.78125 0.21875l-2.765625 0q-0.125 0 -0.1875 -0.046875q-0.0625 -0.0625 -0.0625 -0.140625q0 -0.078125 0.0625 -0.125q0.0625 -0.0625 0.1875 -0.0625l0.5 0zm0.375 -2.484375l1.296875 0q0.421875 0 0.765625 -0.15625q0.265625 -0.125 0.40625 -0.34375q0.15625 -0.234375 0.15625 -0.484375q0 -0.34375 -0.328125 -0.625q-0.3125 -0.296875 -0.84375 -0.296875l-1.453125 0l0 1.90625zm0 2.484375l1.859375 0q0.359375 0 0.625 -0.15625q0.265625 -0.15625 0.390625 -0.390625q0.140625 -0.234375 0.140625 -0.484375q0 -0.28125 -0.203125 -0.53125q-0.1875 -0.265625 -0.53125 -0.40625q-0.34375 -0.140625 -0.953125 -0.140625l-1.328125 0l0 2.109375zm8.666504 -1.515625q0 0.84375 -0.609375 1.4375q-0.59375 0.59375 -1.453125 0.59375q-0.859375 0 -1.46875 -0.59375q-0.59375 -0.609375 -0.59375 -1.4375q0 -0.84375 0.59375 -1.4375q0.609375 -0.609375 1.46875 -0.609375q0.859375 0 1.453125 0.59375q0.609375 0.59375 0.609375 1.453125zm-0.375 0q0 -0.703125 -0.5 -1.1875q-0.484375 -0.484375 -1.1875 -0.484375q-0.703125 0 -1.203125 0.5q-0.5 0.484375 -0.5 1.171875q0 0.6875 0.5 1.1875q0.5 0.484375 1.203125 0.484375q0.703125 0 1.1875 -0.484375q0.5 -0.5 0.5 -1.1875zm4.979004 1.890625l0 -0.546875q-0.765625 0.6875 -1.640625 0.6875q-0.546875 0 -0.828125 -0.296875q-0.359375 -0.375 -0.359375 -0.890625l0 -2.390625l-0.5 0q-0.125 0 -0.1875 -0.046875q-0.046875 -0.046875 -0.046875 -0.140625q0 -0.078125 0.046875 -0.125q0.0625 -0.0625 0.1875 -0.0625l0.875 0l0 2.765625q0 0.359375 0.21875 0.59375q0.234375 0.234375 0.578125 0.234375q0.90625 0 1.65625 -0.828125l0 -2.390625l-0.6875 0q-0.125 0 -0.1875 -0.046875q-0.0625 -0.046875 -0.0625 -0.140625q0 -0.078125 0.0625 -0.125q0.0625 -0.0625 0.1875 -0.0625l1.046875 0l0 3.4375l0.3125 0q0.140625 0 0.1875 0.0625q0.0625 0.046875 0.0625 0.125q0 0.078125 -0.0625 0.140625q-0.046875 0.046875 -0.1875 0.046875l-0.671875 0zm2.932125 -3.8125l0 0.5625q0.390625 -0.390625 0.703125 -0.53125q0.3125 -0.15625 0.703125 -0.15625q0.421875 0 0.765625 0.1875q0.25 0.125 0.453125 0.4375q0.203125 0.296875 0.203125 0.625l0 2.3125l0.3125 0q0.125 0 0.171875 0.0625q0.0625 0.046875 0.0625 0.125q0 0.078125 -0.0625 0.140625q-0.046875 0.046875 -0.171875 0.046875l-1.0 0q-0.125 0 -0.1875 -0.046875q-0.0625 -0.0625 -0.0625 -0.140625q0 -0.078125 0.0625 -0.125q0.0625 -0.0625 0.1875 -0.0625l0.3125 0l0 -2.25q0 -0.40625 -0.28125 -0.671875q-0.28125 -0.265625 -0.765625 -0.265625q-0.359375 0 -0.640625 0.15625q-0.265625 0.140625 -0.765625 0.71875l0 2.3125l0.421875 0q0.140625 0 0.1875 0.0625q0.0625 0.046875 0.0625 0.125q0 0.078125 -0.0625 0.140625q-0.046875 0.046875 -0.1875 0.046875l-1.203125 0q-0.125 0 -0.1875 -0.046875q-0.0625 -0.0625 -0.0625 -0.140625q0 -0.078125 0.0625 -0.125q0.0625 -0.0625 0.1875 -0.0625l0.421875 0l0 -3.0625l-0.3125 0q-0.140625 0 -0.203125 -0.046875q-0.046875 -0.046875 -0.046875 -0.140625q0 -0.078125 0.046875 -0.125q0.0625 -0.0625 0.203125 -0.0625l0.671875 0zm8.416504 -1.703125l0 5.140625l0.484375 0q0.140625 0 0.1875 0.0625q0.0625 0.046875 0.0625 0.125q0 0.078125 -0.0625 0.140625q-0.046875 0.046875 -0.1875 0.046875l-0.859375 0l0 -0.734375q-0.640625 0.875 -1.640625 0.875q-0.5 0 -0.96875 -0.265625q-0.453125 -0.265625 -0.71875 -0.75q-0.265625 -0.5 -0.265625 -1.015625q0 -0.53125 0.265625 -1.015625q0.265625 -0.5 0.71875 -0.765625q0.46875 -0.265625 0.984375 -0.265625q0.953125 0 1.625 0.875l0 -2.078125l-0.5 0q-0.140625 0 -0.203125 -0.046875q-0.046875 -0.0625 -0.046875 -0.140625q0 -0.078125 0.046875 -0.125q0.0625 -0.0625 0.203125 -0.0625l0.875 0zm-0.375 3.625q0 -0.703125 -0.484375 -1.1875q-0.46875 -0.484375 -1.125 -0.484375q-0.65625 0 -1.140625 0.484375q-0.46875 0.484375 -0.46875 1.1875q0 0.6875 0.46875 1.1875q0.484375 0.484375 1.140625 0.484375q0.65625 0 1.125 -0.484375q0.484375 -0.5 0.484375 -1.1875zm4.150879 -3.8125l0 0.953125l-0.546875 0l0 -0.953125l0.546875 0zm0 1.890625l0 3.4375l1.453125 0q0.140625 0 0.1875 0.0625q0.0625 0.046875 0.0625 0.125q0 0.078125 -0.0625 0.140625q-0.046875 0.046875 -0.1875 0.046875l-3.265625 0q-0.140625 0 -0.203125 -0.046875q-0.046875 -0.0625 -0.046875 -0.140625q0 -0.078125 0.046875 -0.125q0.0625 -0.0625 0.203125 -0.0625l1.453125 0l0 -3.0625l-1.078125 0q-0.140625 0 -0.203125 -0.046875q-0.046875 -0.046875 -0.046875 -0.125q0 -0.09375 0.046875 -0.140625q0.0625 -0.0625 0.203125 -0.0625l1.4375 0zm4.010254 0l0 0.5625q0.390625 -0.390625 0.703125 -0.53125q0.3125 -0.15625 0.703125 -0.15625q0.421875 0 0.765625 0.1875q0.25 0.125 0.453125 0.4375q0.203125 0.296875 0.203125 0.625l0 2.3125l0.3125 0q0.125 0 0.171875 0.0625q0.0625 0.046875 0.0625 0.125q0 0.078125 -0.0625 0.140625q-0.046875 0.046875 -0.171875 0.046875l-1.0 0q-0.125 0 -0.1875 -0.046875q-0.0625 -0.0625 -0.0625 -0.140625q0 -0.078125 0.0625 -0.125q0.0625 -0.0625 0.1875 -0.0625l0.3125 0l0 -2.25q0 -0.40625 -0.28125 -0.671875q-0.28125 -0.265625 -0.765625 -0.265625q-0.359375 0 -0.640625 0.15625q-0.265625 0.140625 -0.765625 0.71875l0 2.3125l0.421875 0q0.140625 0 0.1875 0.0625q0.0625 0.046875 0.0625 0.125q0 0.078125 -0.0625 0.140625q-0.046875 0.046875 -0.1875 0.046875l-1.203125 0q-0.125 0 -0.1875 -0.046875q-0.0625 -0.0625 -0.0625 -0.140625q0 -0.078125 0.0625 -0.125q0.0625 -0.0625 0.1875 -0.0625l0.421875 0l0 -3.0625l-0.3125 0q-0.140625 0 -0.203125 -0.046875q-0.046875 -0.046875 -0.046875 -0.140625q0 -0.078125 0.046875 -0.125q0.0625 -0.0625 0.203125 -0.0625l0.671875 0zm7.838379 0.6875l0 -0.6875l0.875 0q0.125 0 0.171875 0.0625q0.0625 0.046875 0.0625 0.140625q0 0.078125 -0.0625 0.125q-0.046875 0.046875 -0.171875 0.046875l-0.5 0l0 3.6875q0 0.375 -0.15625 0.671875q-0.109375 0.1875 -0.359375 0.390625q-0.234375 0.203125 -0.4375 0.296875q-0.203125 0.09375 -0.546875 0.09375l-1.046875 0q-0.125 0 -0.1875 -0.0625q-0.0625 -0.046875 -0.0625 -0.125q0 -0.09375 0.0625 -0.140625q0.0625 -0.046875 0.1875 -0.046875l1.0625 0q0.328125 0 0.578125 -0.171875q0.265625 -0.15625 0.4375 -0.484375q0.09375 -0.1875 0.09375 -0.46875l0 -1.109375q-0.59375 0.8125 -1.53125 0.8125q-0.75 0 -1.3125 -0.5625q-0.546875 -0.5625 -0.546875 -1.359375q0 -0.796875 0.546875 -1.359375q0.5625 -0.5625 1.3125 -0.5625q0.9375 0 1.53125 0.8125zm0 1.109375q0 -0.65625 -0.453125 -1.09375q-0.4375 -0.453125 -1.046875 -0.453125q-0.625 0 -1.078125 0.453125q-0.4375 0.453125 -0.4375 1.09375q0 0.65625 0.4375 1.109375q0.453125 0.4375 1.078125 0.4375q0.609375 0 1.046875 -0.4375q0.453125 -0.453125 0.453125 -1.109375zm2.588379 1.640625l0 -4.390625l-0.5 0q-0.125 0 -0.1875 -0.046875q-0.0625 -0.0625 -0.0625 -0.140625q0 -0.09375 0.0625 -0.140625q0.0625 -0.046875 0.1875 -0.046875l2.328125 0q0.6875 0 1.109375 0.40625q0.4375 0.390625 0.4375 0.921875q0 0.671875 -0.71875 1.09375q0.578125 0.203125 0.84375 0.546875q0.265625 0.34375 0.265625 0.765625q0 0.359375 -0.171875 0.671875q-0.171875 0.296875 -0.546875 0.515625q-0.359375 0.21875 -0.78125 0.21875l-2.765625 0q-0.125 0 -0.1875 -0.046875q-0.0625 -0.0625 -0.0625 -0.140625q0 -0.078125 0.0625 -0.125q0.0625 -0.0625 0.1875 -0.0625l0.5 0zm0.375 -2.484375l1.296875 0q0.421875 0 0.765625 -0.15625q0.265625 -0.125 0.40625 -0.34375q0.15625 -0.234375 0.15625 -0.484375q0 -0.34375 -0.328125 -0.625q-0.3125 -0.296875 -0.84375 -0.296875l-1.453125 0l0 1.90625zm0 2.484375l1.859375 0q0.359375 0 0.625 -0.15625q0.265625 -0.15625 0.390625 -0.390625q0.140625 -0.234375 0.140625 -0.484375q0 -0.28125 -0.203125 -0.53125q-0.1875 -0.265625 -0.53125 -0.40625q-0.34375 -0.140625 -0.953125 -0.140625l-1.328125 0l0 2.109375zm8.666504 -1.515625q0 0.84375 -0.609375 1.4375q-0.59375 0.59375 -1.453125 0.59375q-0.859375 0 -1.46875 -0.59375q-0.59375 -0.609375 -0.59375 -1.4375q0 -0.84375 0.59375 -1.4375q0.609375 -0.609375 1.46875 -0.609375q0.859375 0 1.453125 0.59375q0.609375 0.59375 0.609375 1.453125zm-0.375 0q0 -0.703125 -0.5 -1.1875q-0.484375 -0.484375 -1.1875 -0.484375q-0.703125 0 -1.203125 0.5q-0.5 0.484375 -0.5 1.171875q0 0.6875 0.5 1.1875q0.5 0.484375 1.203125 0.484375q0.703125 0 1.1875 -0.484375q0.5 -0.5 0.5 -1.1875zm3.963379 -0.09375l1.6875 1.609375q0.171875 0 0.21875 0.015625q0.046875 0.015625 0.078125 0.078125q0.03125 0.046875 0.03125 0.09375q0 0.078125 -0.0625 0.140625q-0.046875 0.046875 -0.1875 0.046875l-1.1875 0q-0.140625 0 -0.203125 -0.046875q-0.046875 -0.0625 -0.046875 -0.140625q0 -0.078125 0.046875 -0.125q0.0625 -0.0625 0.203125 -0.0625l0.609375 0l-1.4375 -1.375l-1.421875 1.375l0.609375 0q0.125 0 0.1875 0.0625q0.0625 0.046875 0.0625 0.125q0 0.078125 -0.0625 0.140625q-0.0625 0.046875 -0.1875 0.046875l-1.203125 0q-0.125 0 -0.1875 -0.046875q-0.0625 -0.0625 -0.0625 -0.140625q0 -0.046875 0.03125 -0.09375q0.046875 -0.0625 0.078125 -0.078125q0.046875 -0.015625 0.21875 -0.015625l1.6875 -1.609375l-1.5 -1.453125q-0.15625 0 -0.203125 -0.015625q-0.046875 -0.015625 -0.078125 -0.0625q-0.03125 -0.046875 -0.03125 -0.109375q0 -0.078125 0.046875 -0.125q0.0625 -0.0625 0.203125 -0.0625l1.015625 0q0.125 0 0.171875 0.0625q0.0625 0.046875 0.0625 0.140625q0 0.078125 -0.0625 0.125q-0.046875 0.046875 -0.171875 0.046875l-0.453125 0l1.25 1.203125l1.25 -1.203125l-0.4375 0q-0.125 0 -0.1875 -0.046875q-0.0625 -0.046875 -0.0625 -0.140625q0 -0.078125 0.046875 -0.125q0.0625 -0.0625 0.203125 -0.0625l1.0 0q0.140625 0 0.1875 0.0625q0.0625 0.046875 0.0625 0.140625q0 0.046875 -0.03125 0.09375q-0.03125 0.046875 -0.078125 0.0625q-0.03125 0.015625 -0.203125 0.015625l-1.5 1.453125z" fill-rule="nonzero"/><path fill="#ebe3fd" d="m87.93056 239.62871l0 23.65355l21.937004 0l-10.753281 -11.611557l10.753281 -12.041992z" fill-rule="evenodd"/><path stroke="#8b6bda" stroke-width="1.0" stroke-linejoin="round" stroke-linecap="butt" d="m87.93056 239.62871l0 23.65355l21.937004 0l-10.753281 -11.611557l10.753281 -12.041992z" fill-rule="evenodd"/><path fill="#000000" fill-opacity="0.0" d="m223.40929 69.32542l-126.519684 0l0 32.15748" fill-rule="evenodd"/><path stroke="#ffffff" stroke-width="1.0" stroke-linejoin="round" stroke-linecap="butt" d="m223.40929 69.32542l-126.519684 0l0 26.529198" fill-rule="evenodd"/><path fill="#ffffff" stroke="#ffffff" stroke-width="1.0" stroke-linecap="butt" d="m96.8896 95.85462l-1.6652908 2.3782806l1.6652908 2.378273l1.6652832 -2.378273z" fill-rule="evenodd"/><path fill="#000000" fill-opacity="0.0" d="m77.73239 203.74944l-0.12598419 -30.204712" fill-rule="evenodd"/><path stroke="#ffffff" stroke-width="1.0" stroke-linejoin="round" stroke-linecap="butt" d="m77.73239 203.74945l-0.102508545 -24.576508" fill-rule="evenodd"/><path fill="#ffffff" stroke="#ffffff" stroke-width="1.0" stroke-linecap="butt" d="m77.62988 179.17294l1.6553497 -2.3851929l-1.6751862 -2.3713074l-1.6553574 2.3851929z" fill-rule="evenodd"/><path fill="#000000" fill-opacity="0.0" d="m275.66666 54.00258l0 -11.380516l158.11026 0l0 26.939575" fill-rule="evenodd"/><path stroke="#ffffff" stroke-width="1.0" stroke-linejoin="round" stroke-linecap="butt" d="m275.66666 54.00258l0 -11.380516l158.11026 0l0 26.939575" fill-rule="evenodd"/></g></svg>