<svg version="1.1" viewBox="0.0 0.0 323.1496062992126 91.84251968503936" fill="none" stroke="none" stroke-linecap="square" stroke-miterlimit="10" xmlns:xlink="http://www.w3.org/1999/xlink" xmlns="http://www.w3.org/2000/svg"><clipPath id="p.0"><path d="m0 0l323.1496 0l0 91.84252l-323.1496 0l0 -91.84252z" clip-rule="nonzero"/></clipPath><g clip-path="url(#p.0)"><path fill="#000000" fill-opacity="0.0" d="m0 0l323.1496 0l0 91.84252l-323.1496 0z" fill-rule="evenodd"/><path fill="#000000" fill-opacity="0.0" d="m77.90476 31.387808l167.3386 0" fill-rule="evenodd"/><path stroke="#000000" stroke-width="3.0" stroke-linejoin="round" stroke-linecap="butt" d="m94.78959 31.387808l150.45374 0" fill-rule="evenodd"/><path stroke="#000000" stroke-width="3.0" stroke-linecap="butt" d="m94.78959 31.387808l-7.1348343 -4.995861l-7.1348267 4.995861l7.1348267 4.995863z" fill-rule="evenodd"/><path fill="#cfe2f3" d="m23.385075 31.387808l0 0c0 -15.664012 12.204647 -28.362204 27.259842 -28.362204l0 0c7.229759 0 14.16341 2.9881523 19.275623 8.307097c5.1122055 5.318944 7.9842224 12.532983 7.9842224 20.055107l0 0c0 15.664015 -12.204651 28.362207 -27.259846 28.362207l0 0c-15.055195 0 -27.259842 -12.698193 -27.259842 -28.362207z" fill-rule="evenodd"/><path stroke="#4e8aeb" stroke-width="3.0" stroke-linejoin="round" stroke-linecap="butt" d="m23.385075 31.387808l0 0c0 -15.664012 12.204647 -28.362204 27.259842 -28.362204l0 0c7.229759 0 14.16341 2.9881523 19.275623 8.307097c5.1122055 5.318944 7.9842224 12.532983 7.9842224 20.055107l0 0c0 15.664015 -12.204651 28.362207 -27.259846 28.362207l0 0c-15.055195 0 -27.259842 -12.698193 -27.259842 -28.362207z" fill-rule="evenodd"/><path fill="#cfe2f3" d="m67.50552 40.165928l0 0c-3.8216896 8.244152 -12.474274 12.675976 -20.972729 10.742157c-8.498451 -1.933815 -14.653782 -9.735172 -14.91971 -18.90946c-0.26592827 -9.174288 5.4260426 -17.358437 13.796587 -19.837301c8.370544 -2.4788647 17.263622 1.3860502 21.555645 9.368044l-8.601131 5.1553555c-1.9510765 -4.07251 -6.150486 -6.1087646 -10.141628 -4.9175854c-3.991146 1.1911812 -6.7253723 5.2968216 -6.603195 9.915178c0.122177124 4.618355 3.068657 8.535984 7.1157837 9.461121c4.0471306 0.92513275 8.13155 -1.385292 9.86393 -5.5797157z" fill-rule="evenodd"/><path stroke="#4e8aeb" stroke-width="3.0" stroke-linejoin="round" stroke-linecap="butt" d="m67.50552 40.165928l0 0c-3.8216896 8.244152 -12.474274 12.675976 -20.972729 10.742157c-8.498451 -1.933815 -14.653782 -9.735172 -14.91971 -18.90946c-0.26592827 -9.174288 5.4260426 -17.358437 13.796587 -19.837301c8.370544 -2.4788647 17.263622 1.3860502 21.555645 9.368044l-8.601131 5.1553555c-1.9510765 -4.07251 -6.150486 -6.1087646 -10.141628 -4.9175854c-3.991146 1.1911812 -6.7253723 5.2968216 -6.603195 9.915178c0.122177124 4.618355 3.068657 8.535984 7.1157837 9.461121c4.0471306 0.92513275 8.13155 -1.385292 9.86393 -5.5797157z" fill-rule="evenodd"/><path fill="#000000" fill-opacity="0.0" d="m3.023622 63.11811l95.244095 0l0 25.70079l-95.244095 0z" fill-rule="evenodd"/><path fill="#000000" d="m29.276117 81.90248l0 1.6875l0.484375 0q0.46875 0 0.671875 0.1875q0.21875 0.171875 0.21875 0.484375q0 0.28125 -0.21875 0.46875q-0.203125 0.1875 -0.671875 0.1875l-2.03125 0q-0.484375 0 -0.6875 -0.1875q-0.203125 -0.1875 -0.203125 -0.484375q0 -0.296875 0.203125 -0.46875q0.21875 -0.1875 0.6875 -0.1875l0.203125 0l0 -5.21875l-0.203125 0q-0.484375 0 -0.6875 -0.1875q-0.203125 -0.1875 -0.203125 -0.484375q0 -0.296875 0.203125 -0.484375q0.203125 -0.1875 0.6875 -0.1875l3.015625 0q1.4218731 0 2.187498 0.703125q0.78125 0.703125 0.78125 1.703125q0 0.625 -0.359375 1.140625q-0.359375 0.5 -1.09375 0.90625q0.421875 0.359375 0.90625 0.9375q0.296875 0.375 0.796875 1.171875q0.515625 0 0.671875 0.09375q0.296875 0.203125 0.296875 0.578125q0 0.28125 -0.203125 0.46875q-0.203125 0.1875 -0.6875 0.1875l-0.765625 0q-1.6093731 -2.5 -2.687498 -3.015625l-1.3125 0zm0 -1.328125l1.03125 0q0.59375 0 1.046875 -0.171875q0.609375 -0.234375 0.8124981 -0.5q0.21875 -0.265625 0.21875 -0.515625q0 -0.375 -0.4062481 -0.6875q-0.40625 -0.328125 -1.171875 -0.328125l-1.53125 0l0 2.203125zm12.716932 2.0625l-5.46875 0q0.203125 0.53125 0.734375 0.84375q0.53125 0.3125 1.4375 0.3125q0.75 0 1.96875 -0.3125q0.515625 -0.125 0.703125 -0.125q0.265625 0 0.453125 0.1875q0.1875 0.1875 0.1875 0.46875q0 0.265625 -0.203125 0.4375q-0.265625 0.25 -1.28125 0.46875q-1.0 0.21875 -1.921875 0.21875q-1.609375 0 -2.578125 -0.90625q-0.953125 -0.90625 -0.953125 -2.234375q0 -1.40625 1.03125 -2.28125q1.046875 -0.875 2.40625 -0.875q0.8125 0 1.484375 0.28125q0.6875 0.28125 1.015625 0.609375q0.46875 0.484375 0.78125 1.203125q0.203125 0.484375 0.203125 1.140625l0 0.5625zm-1.46875 -1.328125q-0.3125 -0.578125 -0.8125 -0.859375q-0.484375 -0.28125 -1.171875 -0.28125q-0.671875 0 -1.171875 0.28125q-0.5 0.28125 -0.8125 0.859375l3.96875 0zm7.591934 -1.90625l0 -0.390625l1.5625 0q0.484375 0 0.6875 0.1875q0.203125 0.1875 0.203125 0.484375q0 0.28125 -0.203125 0.46875q-0.203125 0.1875 -0.6875 0.1875l-0.234375 0l0 4.859375q0 0.703125 -0.296875 1.21875q-0.296875 0.53125 -0.90625 0.90625q-0.609375 0.375 -1.375 0.375l-1.515625 0q-0.484375 0 -0.6875 -0.1875q-0.203125 -0.171875 -0.203125 -0.46875q0 -0.296875 0.203125 -0.484375q0.203125 -0.1875 0.6875 -0.1875l1.46875 0q0.625 0 0.953125 -0.34375q0.34375 -0.328125 0.34375 -0.828125l0 -0.65625q-0.4375 0.296875 -0.90625 0.4375q-0.453125 0.140625 -0.9375 0.140625q-1.359375 0 -2.28125 -0.90625q-0.921875 -0.90625 -0.921875 -2.25q0 -1.328125 0.921875 -2.234375q0.921875 -0.921875 2.28125 -0.921875q0.5 0 0.953125 0.15625q0.46875 0.140625 0.890625 0.4375zm-0.015625 2.5625q0 -0.734375 -0.546875 -1.265625q-0.53125 -0.546875 -1.296875 -0.546875q-0.765625 0 -1.3125 0.546875q-0.53125 0.53125 -0.53125 1.265625q0 0.734375 0.53125 1.28125q0.546875 0.53125 1.3125 0.53125q0.765625 0 1.296875 -0.53125q0.546875 -0.546875 0.546875 -1.28125zm7.029434 -5.484375l0 1.40625l-1.59375 0l0 -1.40625l1.59375 0zm0.171875 2.53125l0 4.578125l1.609375 0q0.46875 0 0.671875 0.1875q0.21875 0.171875 0.21875 0.484375q0 0.28125 -0.21875 0.46875q-0.203125 0.1875 -0.671875 0.1875l-4.546875 0q-0.46875 0 -0.6875 -0.1875q-0.203125 -0.1875 -0.203125 -0.484375q0 -0.296875 0.203125 -0.46875q0.21875 -0.1875 0.6875 -0.1875l1.609375 0l0 -3.25l-1.078125 0q-0.46875 0 -0.6875 -0.1875q-0.203125 -0.1875 -0.203125 -0.484375q0 -0.28125 0.203125 -0.46875q0.203125 -0.1875 0.6875 -0.1875l2.40625 0zm10.810684 3.0625q0 0.765625 -0.4375 1.484375q-0.421875 0.71875 -1.265625 1.15625q-0.84375 0.421875 -1.75 0.421875q-0.921875 0 -1.75 -0.421875q-0.828125 -0.421875 -1.265625 -1.140625q-0.4375 -0.71875 -0.4375 -1.515625q0 -0.796875 0.4375 -1.5625q0.4375 -0.78125 1.265625 -1.21875q0.84375 -0.4375 1.75 -0.4375q0.90625 0 1.75 0.453125q0.84375 0.4375 1.265625 1.203125q0.4375 0.765625 0.4375 1.578125zm-1.34375 0q0 -0.640625 -0.453125 -1.171875q-0.640625 -0.734375 -1.65625 -0.734375q-0.90625 0 -1.515625 0.578125q-0.609375 0.578125 -0.609375 1.34375q0 0.625 0.609375 1.171875q0.625 0.53125 1.515625 0.53125q0.890625 0 1.5 -0.53125q0.609375 -0.546875 0.609375 -1.1875zm4.529434 -3.0625l0 0.453125q0.359375 -0.3125 0.796875 -0.46875q0.4375 -0.15625 0.953125 -0.15625q1.1875 0 1.875 0.734375q0.546875 0.578125 0.546875 1.53125l0 2.484375q0.421875 0 0.625 0.1875q0.203125 0.171875 0.203125 0.484375q0 0.28125 -0.203125 0.46875q-0.203125 0.1875 -0.6875 0.1875l-1.203125 0q-0.484375 0 -0.6875 -0.1875q-0.203125 -0.1875 -0.203125 -0.484375q0 -0.296875 0.1875 -0.46875q0.203125 -0.1875 0.640625 -0.1875l0 -2.53125q0 -0.421875 -0.234375 -0.625q-0.3125 -0.265625 -0.921875 -0.265625q-0.46875 0 -0.8125 0.1875q-0.34375 0.171875 -0.875 0.75l0 2.484375q0.5 0 0.65625 0.09375q0.3125 0.1875 0.3125 0.578125q0 0.28125 -0.203125 0.46875q-0.203125 0.1875 -0.6875 0.1875l-1.515625 0q-0.484375 0 -0.6875 -0.1875q-0.203125 -0.1875 -0.203125 -0.484375q0 -0.359375 0.3125 -0.5625q0.15625 -0.09375 0.671875 -0.09375l0 -3.25q-0.421875 0 -0.625 -0.1875q-0.203125 -0.1875 -0.203125 -0.484375q0 -0.28125 0.203125 -0.46875q0.203125 -0.1875 0.6875 -0.1875l1.28125 0z" fill-rule="nonzero"/><path fill="#ebe3fd" d="m60.84308 38.90487l0 23.653542l21.937012 0l-10.753281 -11.611546l10.753281 -12.041996z" fill-rule="evenodd"/><path stroke="#8b6bda" stroke-width="3.0" stroke-linejoin="round" stroke-linecap="butt" d="m60.84308 38.90487l0 23.653542l21.937012 0l-10.753281 -11.611546l10.753281 -12.041996z" fill-rule="evenodd"/><path fill="#cfe2f3" d="m245.24448 31.385826l0 0c0 -15.664013 12.204651 -28.362204 27.259857 -28.362204l0 0c7.2297363 0 14.163391 2.9881525 19.275604 8.307098c5.112213 5.318944 7.9842224 12.532983 7.9842224 20.055107l0 0c0 15.664013 -12.204651 28.362206 -27.259827 28.362206l0 0c-15.055206 0 -27.259857 -12.698193 -27.259857 -28.362206z" fill-rule="evenodd"/><path stroke="#4e8aeb" stroke-width="3.0" stroke-linejoin="round" stroke-linecap="butt" d="m245.24448 31.385826l0 0c0 -15.664013 12.204651 -28.362204 27.259857 -28.362204l0 0c7.2297363 0 14.163391 2.9881525 19.275604 8.307098c5.112213 5.318944 7.9842224 12.532983 7.9842224 20.055107l0 0c0 15.664013 -12.204651 28.362206 -27.259827 28.362206l0 0c-15.055206 0 -27.259857 -12.698193 -27.259857 -28.362206z" fill-rule="evenodd"/><path fill="#cfe2f3" d="m289.36493 40.163944l0 0c-3.8216858 8.244152 -12.474274 12.67598 -20.972717 10.742161c-8.498474 -1.9338188 -14.653793 -9.735176 -14.9197235 -18.909462c-0.26593018 -9.174288 5.4260406 -17.358437 13.796585 -19.837301c8.370544 -2.4788647 17.26361 1.3860502 21.555634 9.368044l-8.601105 5.1553555c-1.9510803 -4.07251 -6.1505127 -6.1087646 -10.141632 -4.9175854c-3.99115 1.1911812 -6.7253723 5.2968216 -6.6032104 9.915178c0.12219238 4.6183567 3.0686646 8.535982 7.1157837 9.461119c4.0471497 0.92513657 8.131561 -1.385292 9.863953 -5.579712z" fill-rule="evenodd"/><path stroke="#4e8aeb" stroke-width="3.0" stroke-linejoin="round" stroke-linecap="butt" d="m289.36493 40.163944l0 0c-3.8216858 8.244152 -12.474274 12.67598 -20.972717 10.742161c-8.498474 -1.9338188 -14.653793 -9.735176 -14.9197235 -18.909462c-0.26593018 -9.174288 5.4260406 -17.358437 13.796585 -19.837301c8.370544 -2.4788647 17.26361 1.3860502 21.555634 9.368044l-8.601105 5.1553555c-1.9510803 -4.07251 -6.1505127 -6.1087646 -10.141632 -4.9175854c-3.99115 1.1911812 -6.7253723 5.2968216 -6.6032104 9.915178c0.12219238 4.6183567 3.0686646 8.535982 7.1157837 9.461119c4.0471497 0.92513657 8.131561 -1.385292 9.863953 -5.579712z" fill-rule="evenodd"/><path fill="#000000" fill-opacity="0.0" d="m224.8819 63.11811l95.24408 0l0 25.70079l-95.24408 0z" fill-rule="evenodd"/><path fill="#000000" d="m229.79518 83.58998l0 -5.21875l-0.21875 0q-0.484375 0 -0.6875 -0.1875q-0.203125 -0.1875 -0.203125 -0.484375q0 -0.296875 0.203125 -0.484375q0.203125 -0.1875 0.6875 -0.1875l3.34375 0q1.203125 0 1.921875 0.671875q0.734375 0.65625 0.734375 1.578125q0 0.4375 -0.171875 0.828125q-0.15625 0.375 -0.5 0.703125q0.625 0.375 0.9375 0.875q0.3125 0.5 0.3125 1.140625q0 0.515625 -0.21875 0.953125q-0.171875 0.328125 -0.421875 0.515625q-0.328125 0.28125 -0.8125 0.453125q-0.484375 0.171875 -1.203125 0.171875l-3.921875 0q-0.484375 0 -0.6875 -0.1875q-0.203125 -0.1875 -0.203125 -0.484375q0 -0.296875 0.203125 -0.46875q0.21875 -0.1875 0.6875 -0.1875l0.21875 0zm1.328125 -3.28125l1.46875 0q0.78125 0 1.296875 -0.40625q0.359375 -0.265625 0.359375 -0.65625q0 -0.359375 -0.34375 -0.609375q-0.328125 -0.265625 -1.046875 -0.265625l-1.734375 0l0 1.9375zm0 3.28125l2.296875 0q0.828125 0 1.15625 -0.25q0.25 -0.171875 0.25 -0.515625q0 -0.40625 -0.5 -0.796875q-0.5 -0.390625 -1.4375 -0.390625l-1.765625 0l0 1.953125zm12.857559 -1.515625q0 0.765625 -0.4375 1.484375q-0.421875 0.71875 -1.265625 1.15625q-0.84375 0.421875 -1.75 0.421875q-0.921875 0 -1.75 -0.421875q-0.828125 -0.421875 -1.265625 -1.140625q-0.4375 -0.71875 -0.4375 -1.515625q0 -0.796875 0.4375 -1.5625q0.4375 -0.78125 1.265625 -1.21875q0.84375 -0.4375 1.75 -0.4375q0.90625 0 1.75 0.453125q0.84375 0.4375 1.265625 1.203125q0.4375 0.765625 0.4375 1.578125zm-1.34375 0q0 -0.640625 -0.453125 -1.171875q-0.640625 -0.734375 -1.65625 -0.734375q-0.90625 0 -1.515625 0.578125q-0.609375 0.578125 -0.609375 1.34375q0 0.625 0.609375 1.171875q0.625 0.53125 1.515625 0.53125q0.890625 0 1.5 -0.53125q0.609375 -0.546875 0.609375 -1.1875zm8.701309 -3.0625l0 4.578125q0.421875 0 0.625 0.1875q0.203125 0.1875 0.203125 0.484375q0 0.28125 -0.203125 0.46875q-0.203125 0.1875 -0.6875 0.1875l-1.265625 0l0 -0.3125q-0.578125 0.265625 -1.09375 0.390625q-0.515625 0.140625 -0.984375 0.140625q-0.65625 0 -1.140625 -0.28125q-0.484375 -0.28125 -0.765625 -0.765625q-0.203125 -0.34375 -0.203125 -0.875l0 -2.875l-0.21875 0q-0.484375 0 -0.703125 -0.1875q-0.203125 -0.1875 -0.203125 -0.484375q0 -0.28125 0.203125 -0.46875q0.21875 -0.1875 0.703125 -0.1875l1.5625 0l0 3.96875q0 0.421875 0.203125 0.625q0.203125 0.1875 0.625 0.1875q0.40625 0 0.859375 -0.15625q0.46875 -0.15625 1.15625 -0.578125l0 -2.71875l-0.484375 0q-0.484375 0 -0.6875 -0.1875q-0.203125 -0.1875 -0.203125 -0.484375q0 -0.28125 0.203125 -0.46875q0.203125 -0.1875 0.6875 -0.1875l1.8125 0zm3.8263092 0l0 0.453125q0.359375 -0.3125 0.796875 -0.46875q0.4375 -0.15625 0.953125 -0.15625q1.1875 0 1.875 0.734375q0.546875 0.578125 0.546875 1.53125l0 2.484375q0.421875 0 0.625 0.1875q0.203125 0.171875 0.203125 0.484375q0 0.28125 -0.203125 0.46875q-0.203125 0.1875 -0.6875 0.1875l-1.203125 0q-0.484375 0 -0.6875 -0.1875q-0.203125 -0.1875 -0.203125 -0.484375q0 -0.296875 0.1875 -0.46875q0.203125 -0.1875 0.640625 -0.1875l0 -2.53125q0 -0.421875 -0.234375 -0.625q-0.3125 -0.265625 -0.921875 -0.265625q-0.46875 0 -0.8125 0.1875q-0.34375 0.171875 -0.875 0.75l0 2.484375q0.5 0 0.65625 0.09375q0.3125 0.1875 0.3125 0.578125q0 0.28125 -0.203125 0.46875q-0.203125 0.1875 -0.6875 0.1875l-1.515625 0q-0.484375 0 -0.6875 -0.1875q-0.203125 -0.1875 -0.203125 -0.484375q0 -0.359375 0.3125 -0.5625q0.15625 -0.09375 0.671875 -0.09375l0 -3.25q-0.421875 0 -0.625 -0.1875q-0.203125 -0.1875 -0.203125 -0.484375q0 -0.28125 0.203125 -0.46875q0.203125 -0.1875 0.6875 -0.1875l1.28125 0zm12.404419 -2.53125l0 7.109375l0.21875 0q0.484375 0 0.6875 0.1875q0.21875 0.171875 0.21875 0.484375q0 0.28125 -0.21875 0.46875q-0.203125 0.1875 -0.6875 0.1875l-1.546875 0l0 -0.328125q-0.46875 0.265625 -0.96875 0.40625q-0.484375 0.140625 -1.03125 0.140625q-1.5 0 -2.421875 -0.859375q-0.90625 -0.875 -0.90625 -2.171875q0 -1.359375 0.953125 -2.3125q0.96875 -0.953125 2.359375 -0.953125q0.515625 0 1.015625 0.15625q0.5 0.15625 1.0 0.46875l0 -1.65625l-0.234375 0q-0.484375 0 -0.6875 -0.1875q-0.203125 -0.1875 -0.203125 -0.46875q0 -0.296875 0.203125 -0.484375q0.203125 -0.1875 0.6875 -0.1875l1.5625 0zm-1.328125 5.65625q0 -0.828125 -0.59375 -1.390625q-0.578125 -0.578125 -1.40625 -0.578125q-0.84375 0 -1.421875 0.578125q-0.578125 0.5625 -0.578125 1.375q0 0.734375 0.515625 1.203125q0.53125 0.46875 1.484375 0.46875q0.9375 0 1.46875 -0.46875q0.53125 -0.46875 0.53125 -1.1875zm6.7481995 -5.65625l0 1.40625l-1.59375 0l0 -1.40625l1.59375 0zm0.171875 2.53125l0 4.578125l1.609375 0q0.46875 0 0.671875 0.1875q0.21875 0.171875 0.21875 0.484375q0 0.28125 -0.21875 0.46875q-0.203125 0.1875 -0.671875 0.1875l-4.546875 0q-0.46875 0 -0.6875 -0.1875q-0.203125 -0.1875 -0.203125 -0.484375q0 -0.296875 0.203125 -0.46875q0.21875 -0.1875 0.6875 -0.1875l1.609375 0l0 -3.25l-1.078125 0q-0.46875 0 -0.6875 -0.1875q-0.203125 -0.1875 -0.203125 -0.484375q0 -0.28125 0.203125 -0.46875q0.203125 -0.1875 0.6875 -0.1875l2.40625 0zm5.998169 0l0 0.453125q0.359375 -0.3125 0.796875 -0.46875q0.4375 -0.15625 0.953125 -0.15625q1.1875 0 1.875 0.734375q0.546875 0.578125 0.546875 1.53125l0 2.484375q0.421875 0 0.625 0.1875q0.203125 0.171875 0.203125 0.484375q0 0.28125 -0.203125 0.46875q-0.203125 0.1875 -0.6875 0.1875l-1.203125 0q-0.484375 0 -0.6875 -0.1875q-0.203125 -0.1875 -0.203125 -0.484375q0 -0.296875 0.1875 -0.46875q0.203125 -0.1875 0.640625 -0.1875l0 -2.53125q0 -0.421875 -0.234375 -0.625q-0.3125 -0.265625 -0.921875 -0.265625q-0.46875 0 -0.8125 0.1875q-0.34375 0.171875 -0.875 0.75l0 2.484375q0.5 0 0.65625 0.09375q0.3125 0.1875 0.3125 0.578125q0 0.28125 -0.203125 0.46875q-0.203125 0.1875 -0.6875 0.1875l-1.515625 0q-0.484375 0 -0.6875 -0.1875q-0.203125 -0.1875 -0.203125 -0.484375q0 -0.359375 0.3125 -0.5625q0.15625 -0.09375 0.671875 -0.09375l0 -3.25q-0.421875 0 -0.625 -0.1875q-0.203125 -0.1875 -0.203125 -0.484375q0 -0.28125 0.203125 -0.46875q0.203125 -0.1875 0.6875 -0.1875l1.28125 0zm10.810699 0.390625l0 -0.390625l1.5625 0q0.484375 0 0.6875 0.1875q0.203125 0.1875 0.203125 0.484375q0 0.28125 -0.203125 0.46875q-0.203125 0.1875 -0.6875 0.1875l-0.234375 0l0 4.859375q0 0.703125 -0.296875 1.21875q-0.296875 0.53125 -0.90625 0.90625q-0.609375 0.375 -1.375 0.375l-1.515625 0q-0.484375 0 -0.6875 -0.1875q-0.203125 -0.171875 -0.203125 -0.46875q0 -0.296875 0.203125 -0.484375q0.203125 -0.1875 0.6875 -0.1875l1.46875 0q0.625 0 0.953125 -0.34375q0.34375 -0.328125 0.34375 -0.828125l0 -0.65625q-0.4375 0.296875 -0.90625 0.4375q-0.453125 0.140625 -0.9375 0.140625q-1.359375 0 -2.28125 -0.90625q-0.921875 -0.90625 -0.921875 -2.25q0 -1.328125 0.921875 -2.234375q0.921875 -0.921875 2.28125 -0.921875q0.5 0 0.953125 0.15625q0.46875 0.140625 0.890625 0.4375zm-0.015625 2.5625q0 -0.734375 -0.546875 -1.265625q-0.53125 -0.546875 -1.296875 -0.546875q-0.765625 0 -1.3125 0.546875q-0.53125 0.53125 -0.53125 1.265625q0 0.734375 0.53125 1.28125q0.546875 0.53125 1.3125 0.53125q0.765625 0 1.296875 -0.53125q0.546875 -0.546875 0.546875 -1.28125zm3.826294 1.625l0 -5.21875l-0.21875 0q-0.484375 0 -0.6875 -0.1875q-0.203125 -0.1875 -0.203125 -0.484375q0 -0.296875 0.203125 -0.484375q0.203125 -0.1875 0.6875 -0.1875l3.34375 0q1.203125 0 1.921875 0.671875q0.734375 0.65625 0.734375 1.578125q0 0.4375 -0.171875 0.828125q-0.15625 0.375 -0.5 0.703125q0.625 0.375 0.9375 0.875q0.3125 0.5 0.3125 1.140625q0 0.515625 -0.21875 0.953125q-0.171875 0.328125 -0.421875 0.515625q-0.328125 0.28125 -0.8125 0.453125q-0.484375 0.171875 -1.203125 0.171875l-3.921875 0q-0.484375 0 -0.6875 -0.1875q-0.203125 -0.1875 -0.203125 -0.484375q0 -0.296875 0.203125 -0.46875q0.21875 -0.1875 0.6875 -0.1875l0.21875 0zm1.328125 -3.28125l1.46875 0q0.78125 0 1.296875 -0.40625q0.359375 -0.265625 0.359375 -0.65625q0 -0.359375 -0.34375 -0.609375q-0.328125 -0.265625 -1.046875 -0.265625l-1.734375 0l0 1.9375zm0 3.28125l2.296875 0q0.828125 0 1.15625 -0.25q0.25 -0.171875 0.25 -0.515625q0 -0.40625 -0.5 -0.796875q-0.5 -0.390625 -1.4375 -0.390625l-1.765625 0l0 1.953125zm12.857574 -1.515625q0 0.765625 -0.4375 1.484375q-0.421875 0.71875 -1.265625 1.15625q-0.84375 0.421875 -1.75 0.421875q-0.921875 0 -1.75 -0.421875q-0.828125 -0.421875 -1.265625 -1.140625q-0.4375 -0.71875 -0.4375 -1.515625q0 -0.796875 0.4375 -1.5625q0.4375 -0.78125 1.265625 -1.21875q0.84375 -0.4375 1.75 -0.4375q0.90625 0 1.75 0.453125q0.84375 0.4375 1.265625 1.203125q0.4375 0.765625 0.4375 1.578125zm-1.34375 0q0 -0.640625 -0.453125 -1.171875q-0.640625 -0.734375 -1.65625 -0.734375q-0.90625 0 -1.515625 0.578125q-0.609375 0.578125 -0.609375 1.34375q0 0.625 0.609375 1.171875q0.625 0.53125 1.515625 0.53125q0.890625 0 1.5 -0.53125q0.609375 -0.546875 0.609375 -1.1875zm6.873169 -0.234375l2.015625 1.75q0.375 0.015625 0.546875 0.203125q0.1875 0.1875 0.1875 0.46875q0 0.28125 -0.203125 0.46875q-0.203125 0.1875 -0.6875 0.1875l-1.515625 0q-0.484375 0 -0.6875 -0.1875q-0.203125 -0.1875 -0.203125 -0.484375q0 -0.234375 0.140625 -0.40625q0.15625 -0.1875 0.40625 -0.25l-1.0 -0.859375l-1.015625 0.859375q0.3125 0.078125 0.4375 0.234375q0.140625 0.15625 0.140625 0.421875q0 0.296875 -0.203125 0.484375q-0.203125 0.1875 -0.6875 0.1875l-1.5 0q-0.484375 0 -0.6875 -0.1875q-0.203125 -0.1875 -0.203125 -0.484375q0 -0.265625 0.171875 -0.453125q0.1875 -0.1875 0.5625 -0.203125l1.96875 -1.75l-1.75 -1.5q-0.34375 -0.015625 -0.53125 -0.203125q-0.171875 -0.1875 -0.171875 -0.46875q0 -0.28125 0.203125 -0.46875q0.203125 -0.1875 0.6875 -0.1875l1.25 0q0.484375 0 0.6875 0.1875q0.203125 0.1875 0.203125 0.46875q0 0.375 -0.359375 0.625l0.8125 0.671875l0.78125 -0.6875q-0.359375 -0.25 -0.359375 -0.578125q0 -0.3125 0.203125 -0.5q0.21875 -0.1875 0.703125 -0.1875l1.234375 0q0.46875 0 0.671875 0.1875q0.21875 0.1875 0.21875 0.484375q0 0.265625 -0.1875 0.453125q-0.171875 0.1875 -0.53125 0.203125l-1.75 1.5z" fill-rule="nonzero"/><path fill="#ebe3fd" d="m282.70248 38.902885l0 23.653545l21.937012 0l-10.753296 -11.611549l10.753296 -12.041996z" fill-rule="evenodd"/><path stroke="#8b6bda" stroke-width="3.0" stroke-linejoin="round" stroke-linecap="butt" d="m282.70248 38.902885l0 23.653545l21.937012 0l-10.753296 -11.611549l10.753296 -12.041996z" fill-rule="evenodd"/></g></svg>