<svg version="1.1" viewBox="0.0 0.0 515.0524934383202 202.1496062992126" fill="none" stroke="none" stroke-linecap="square" stroke-miterlimit="10" xmlns:xlink="http://www.w3.org/1999/xlink" xmlns="http://www.w3.org/2000/svg"><clipPath id="p.0"><path d="m0 0l515.0525 0l0 202.14961l-515.0525 0l0 -202.14961z" clip-rule="nonzero"/></clipPath><g clip-path="url(#p.0)"><path fill="#000000" fill-opacity="0.0" d="m0 0l515.0525 0l0 202.14961l-515.0525 0z" fill-rule="evenodd"/><path fill="#000000" fill-opacity="0.0" d="m211.07095 83.45755l200.0315 0l0 35.55905l-200.0315 0z" fill-rule="evenodd"/><path stroke="#000000" stroke-width="3.0" stroke-linejoin="round" stroke-linecap="butt" d="m211.07095 83.45755l200.0315 0l0 35.55905l-200.0315 0z" fill-rule="evenodd"/><path fill="#000000" fill-opacity="0.0" d="m211.071 83.37881l101.291336 0l0 35.55906l-101.291336 0z" fill-rule="evenodd"/><path fill="#000000" d="m224.1329 99.86631l0 3.984375l0.484375 0q0.484375 0 0.6875 0.1875q0.203125 0.171875 0.203125 0.484375q0 0.28125 -0.203125 0.46875q-0.203125 0.1875 -0.6875 0.1875l-1.75 0q-0.484375 0 -0.6875 -0.1875q-0.203125 -0.1875 -0.203125 -0.484375q0 -0.296875 0.203125 -0.46875q0.203125 -0.1875 0.625 -0.1875l0 -5.21875q-0.34375 -0.046875 -0.53125 -0.21875q-0.171875 -0.1875 -0.171875 -0.453125q0 -0.296875 0.203125 -0.484375q0.203125 -0.1875 0.6875 -0.1875l1.453125 0l1.828125 4.015625l1.78125 -4.015625l1.46875 0q0.484375 0 0.6875 0.1875q0.203125 0.1875 0.203125 0.484375q0 0.265625 -0.1875 0.453125q-0.171875 0.171875 -0.515625 0.21875l0 5.21875q0.421875 0 0.625 0.1875q0.203125 0.1875 0.203125 0.484375q0 0.28125 -0.203125 0.46875q-0.203125 0.1875 -0.6875 0.1875l-1.765625 0q-0.46875 0 -0.671875 -0.1875q-0.203125 -0.1875 -0.203125 -0.484375q0 -0.296875 0.203125 -0.46875q0.203125 -0.1875 0.671875 -0.1875l0.5 0l0 -3.984375l-1.53125 3.4375l-1.15625 0l-1.5625 -3.4375zm12.920059 -0.59375l0 4.578125q0.421875 0 0.625 0.1875q0.203125 0.1875 0.203125 0.484375q0 0.28125 -0.203125 0.46875q-0.203125 0.1875 -0.6875 0.1875l-1.265625 0l0 -0.3125q-0.578125 0.265625 -1.09375 0.390625q-0.515625 0.140625 -0.984375 0.140625q-0.65625 0 -1.140625 -0.28125q-0.484375 -0.28125 -0.765625 -0.765625q-0.203125 -0.34375 -0.203125 -0.875l0 -2.875l-0.21875 0q-0.484375 0 -0.703125 -0.1875q-0.203125 -0.1875 -0.203125 -0.484375q0 -0.28125 0.203125 -0.46875q0.21875 -0.1875 0.703125 -0.1875l1.5625 0l0 3.96875q0 0.421875 0.203125 0.625q0.203125 0.1875 0.625 0.1875q0.40625 0 0.859375 -0.15625q0.46875 -0.15625 1.15625 -0.578125l0 -2.71875l-0.484375 0q-0.484375 0 -0.6875 -0.1875q-0.203125 -0.1875 -0.203125 -0.484375q0 -0.28125 0.203125 -0.46875q0.203125 -0.1875 0.6875 -0.1875l1.8125 0zm4.841934 1.328125l0 2.671875q0 0.4375 0.171875 0.578125q0.28125 0.203125 0.984375 0.203125q1.015625 0 1.875 -0.4375q0.34375 -0.15625 0.53125 -0.15625q0.25 0 0.4375 0.203125q0.203125 0.1875 0.203125 0.46875q0 0.25 -0.203125 0.4375q-0.328125 0.3125 -1.265625 0.578125q-0.9375 0.25 -1.578125 0.25q-1.25 0 -1.875 -0.53125q-0.609375 -0.546875 -0.609375 -1.328125l0 -2.9375l-0.484375 0q-0.484375 0 -0.6875 -0.1875q-0.203125 -0.1875 -0.203125 -0.484375q0 -0.28125 0.203125 -0.46875q0.203125 -0.1875 0.6875 -0.1875l0.484375 0l0 -1.203125q0 -0.484375 0.171875 -0.6875q0.1875 -0.203125 0.484375 -0.203125q0.296875 0 0.484375 0.203125q0.1875 0.203125 0.1875 0.6875l0 1.203125l2.46875 0q0.484375 0 0.6875 0.1875q0.203125 0.1875 0.203125 0.484375q0 0.28125 -0.203125 0.46875q-0.203125 0.1875 -0.6875 0.1875l-2.46875 0zm9.529434 4.578125l0 -0.3125q-0.5 0.265625 -1.109375 0.390625q-0.609375 0.140625 -1.09375 0.140625q-1.078125 0 -1.75 -0.5625q-0.671875 -0.578125 -0.671875 -1.265625q0 -0.84375 0.859375 -1.5625q0.859375 -0.71875 2.359375 -0.71875q0.609375 0 1.40625 0.140625l0 -0.328125q0 -0.296875 -0.265625 -0.484375q-0.25 -0.1875 -0.96875 -0.1875q-0.59375 0 -1.546875 0.234375q-0.34375 0.078125 -0.546875 0.078125q-0.265625 0 -0.453125 -0.1875q-0.171875 -0.1875 -0.171875 -0.484375q0 -0.171875 0.0625 -0.296875q0.0625 -0.125 0.171875 -0.203125q0.125 -0.078125 0.5 -0.171875q0.484375 -0.140625 1.0 -0.21875q0.515625 -0.078125 0.9375 -0.078125q1.234375 0 1.921875 0.53125q0.6875 0.53125 0.6875 1.46875l0 2.75l0.234375 0q0.484375 0 0.6875 0.1875q0.203125 0.171875 0.203125 0.484375q0 0.28125 -0.203125 0.46875q-0.203125 0.1875 -0.6875 0.1875l-1.5625 0zm0 -2.390625q-0.796875 -0.15625 -1.484375 -0.15625q-0.8125 0 -1.390625 0.40625q-0.375 0.25 -0.375 0.5q0 0.203125 0.1875 0.3125q0.3125 0.21875 0.890625 0.21875q0.46875 0 1.078125 -0.1875q0.609375 -0.1875 1.09375 -0.515625l0 -0.578125zm5.107559 -6.046875l0 2.984375q0.5 -0.3125 1.0 -0.46875q0.5 -0.15625 1.015625 -0.15625q1.390625 0 2.34375 0.953125q0.96875 0.953125 0.96875 2.3125q0 1.296875 -0.921875 2.171875q-0.90625 0.859375 -2.421875 0.859375q-0.53125 0 -1.03125 -0.140625q-0.484375 -0.140625 -0.953125 -0.40625l0 0.328125l-1.5625 0q-0.484375 0 -0.6875 -0.1875q-0.203125 -0.1875 -0.203125 -0.484375q0 -0.296875 0.203125 -0.46875q0.21875 -0.1875 0.6875 -0.1875l0.234375 0l0 -5.78125l-0.234375 0q-0.484375 0 -0.6875 -0.1875q-0.203125 -0.1875 -0.203125 -0.484375q0 -0.28125 0.203125 -0.46875q0.203125 -0.1875 0.6875 -0.1875l1.5625 0zm4.0 5.65625q0 -0.828125 -0.59375 -1.390625q-0.578125 -0.578125 -1.40625 -0.578125q-0.84375 0 -1.421875 0.578125q-0.578125 0.5625 -0.578125 1.375q0 0.734375 0.515625 1.203125q0.53125 0.46875 1.484375 0.46875q0.953125 0 1.46875 -0.46875q0.53125 -0.46875 0.53125 -1.1875zm6.3575745 -5.65625l0 7.109375l1.59375 0q0.484375 0 0.6875 0.1875q0.203125 0.171875 0.203125 0.484375q0 0.28125 -0.203125 0.46875q-0.203125 0.1875 -0.6875 0.1875l-4.53125 0q-0.484375 0 -0.6875 -0.1875q-0.203125 -0.1875 -0.203125 -0.484375q0 -0.296875 0.203125 -0.46875q0.203125 -0.1875 0.6875 -0.1875l1.59375 0l0 -5.78125l-1.0625 0q-0.484375 0 -0.703125 -0.1875q-0.203125 -0.1875 -0.203125 -0.484375q0 -0.28125 0.203125 -0.46875q0.21875 -0.1875 0.703125 -0.1875l2.40625 0zm10.670044 6.15625l-5.46875 0q0.203125 0.53125 0.734375 0.84375q0.53125 0.3125 1.4375 0.3125q0.75 0 1.96875 -0.3125q0.515625 -0.125 0.703125 -0.125q0.265625 0 0.453125 0.1875q0.1875 0.1875 0.1875 0.46875q0 0.265625 -0.203125 0.4375q-0.265625 0.25 -1.28125 0.46875q-1.0 0.21875 -1.921875 0.21875q-1.609375 0 -2.578125 -0.90625q-0.953125 -0.90625 -0.953125 -2.234375q0 -1.40625 1.03125 -2.28125q1.046875 -0.875 2.40625 -0.875q0.8125 0 1.484375 0.28125q0.6875 0.28125 1.015625 0.609375q0.46875 0.484375 0.78125 1.203125q0.203125 0.484375 0.203125 1.140625l0 0.5625zm-1.46875 -1.328125q-0.3125 -0.578125 -0.8125 -0.859375q-0.484375 -0.28125 -1.171875 -0.28125q-0.671875 0 -1.171875 0.28125q-0.5 0.28125 -0.8125 0.859375l3.96875 0zm4.0294495 -1.703125l0 3.984375l0.484375 0q0.484375 0 0.6875 0.1875q0.203125 0.171875 0.203125 0.484375q0 0.28125 -0.203125 0.46875q-0.203125 0.1875 -0.6875 0.1875l-1.75 0q-0.484375 0 -0.6875 -0.1875q-0.203125 -0.1875 -0.203125 -0.484375q0 -0.296875 0.203125 -0.46875q0.203125 -0.1875 0.625 -0.1875l0 -5.21875q-0.34375 -0.046875 -0.53125 -0.21875q-0.171875 -0.1875 -0.171875 -0.453125q0 -0.296875 0.203125 -0.484375q0.203125 -0.1875 0.6875 -0.1875l1.453125 0l1.828125 4.015625l1.78125 -4.015625l1.46875 0q0.484375 0 0.6875 0.1875q0.203125 0.1875 0.203125 0.484375q0 0.265625 -0.1875 0.453125q-0.171875 0.171875 -0.515625 0.21875l0 5.21875q0.421875 0 0.625 0.1875q0.203125 0.1875 0.203125 0.484375q0 0.28125 -0.203125 0.46875q-0.203125 0.1875 -0.6875 0.1875l-1.765625 0q-0.46875 0 -0.671875 -0.1875q-0.203125 -0.1875 -0.203125 -0.484375q0 -0.296875 0.203125 -0.46875q0.203125 -0.1875 0.671875 -0.1875l0.5 0l0 -3.984375l-1.53125 3.4375l-1.15625 0l-1.5625 -3.4375zm11.295044 5.3125l0 -0.3125q-0.5 0.265625 -1.109375 0.390625q-0.609375 0.140625 -1.09375 0.140625q-1.078125 0 -1.75 -0.5625q-0.671875 -0.578125 -0.671875 -1.265625q0 -0.84375 0.859375 -1.5625q0.859375 -0.71875 2.359375 -0.71875q0.609375 0 1.40625 0.140625l0 -0.328125q0 -0.296875 -0.265625 -0.484375q-0.25 -0.1875 -0.96875 -0.1875q-0.59375 0 -1.546875 0.234375q-0.34375 0.078125 -0.546875 0.078125q-0.265625 0 -0.453125 -0.1875q-0.171875 -0.1875 -0.171875 -0.484375q0 -0.171875 0.0625 -0.296875q0.0625 -0.125 0.171875 -0.203125q0.125 -0.078125 0.5 -0.171875q0.484375 -0.140625 1.0 -0.21875q0.515625 -0.078125 0.9375 -0.078125q1.234375 0 1.921875 0.53125q0.6875 0.53125 0.6875 1.46875l0 2.75l0.234375 0q0.484375 0 0.6875 0.1875q0.203125 0.171875 0.203125 0.484375q0 0.28125 -0.203125 0.46875q-0.203125 0.1875 -0.6875 0.1875l-1.5625 0zm0 -2.390625q-0.796875 -0.15625 -1.484375 -0.15625q-0.8125 0 -1.390625 0.40625q-0.375 0.25 -0.375 0.5q0 0.203125 0.1875 0.3125q0.3125 0.21875 0.890625 0.21875q0.46875 0 1.078125 -0.1875q0.609375 -0.1875 1.09375 -0.515625l0 -0.578125zm5.1388245 1.65625l0 2.1875l0.796875 0q0.484375 0 0.6875 0.1875q0.203125 0.1875 0.203125 0.484375q0 0.296875 -0.203125 0.46875q-0.203125 0.1875 -0.6875 0.1875l-2.359375 0q-0.484375 0 -0.6875 -0.1875q-0.203125 -0.171875 -0.203125 -0.46875q0 -0.296875 0.203125 -0.484375q0.21875 -0.1875 0.6875 -0.1875l0.234375 0l0 -6.03125l-0.234375 0q-0.484375 0 -0.6875 -0.1875q-0.203125 -0.1875 -0.203125 -0.484375q0 -0.28125 0.203125 -0.46875q0.203125 -0.1875 0.6875 -0.1875l1.5625 0l0 0.453125q0.46875 -0.3125 0.96875 -0.46875q0.5 -0.15625 1.03125 -0.15625q1.359375 0 2.328125 0.921875q0.96875 0.921875 0.96875 2.125q0 1.3125 -1.140625 2.171875q-0.953125 0.71875 -2.140625 0.71875q-0.515625 0 -1.015625 -0.140625q-0.5 -0.15625 -1.0 -0.453125zm3.953125 -2.296875q0 -0.28125 -0.21875 -0.703125q-0.21875 -0.4375 -0.6875 -0.71875q-0.453125 -0.296875 -1.0625 -0.296875q-1.0 0 -1.59375 0.75q-0.390625 0.515625 -0.390625 0.984375q0 0.53125 0.5625 1.046875q0.578125 0.5 1.421875 0.5q0.84375 0 1.40625 -0.5q0.5625 -0.5 0.5625 -1.0625zm4.310669 -0.765625l4.3125 2.390625q0.328125 0.1875 0.4375 0.328125q0.109375 0.140625 0.109375 0.359375q0 0.28125 -0.203125 0.484375q-0.203125 0.203125 -0.46875 0.203125q-0.171875 0 -0.53125 -0.1875l-6.4375 -3.578125l6.4375 -3.578125q0.359375 -0.1875 0.515625 -0.1875q0.28125 0 0.484375 0.203125q0.203125 0.1875 0.203125 0.46875q0 0.21875 -0.109375 0.375q-0.109375 0.140625 -0.4375 0.3125l-4.3125 2.40625z" fill-rule="nonzero"/><path fill="#000000" fill-opacity="0.0" d="m312.34918 83.06385l40.81888 0l0 35.55905l-40.81888 0z" fill-rule="evenodd"/><path fill="#000000" d="m314.95856 102.051346l0 1.484375l0.484375 0q0.484375 0 0.6875 0.1875q0.203125 0.171875 0.203125 0.484375q0 0.28125 -0.203125 0.46875q-0.203125 0.1875 -0.6875 0.1875l-2.03125 0q-0.484375 0 -0.6875 -0.1875q-0.203125 -0.1875 -0.203125 -0.484375q0 -0.296875 0.203125 -0.46875q0.21875 -0.1875 0.6875 -0.1875l0.21875 0l0 -5.21875l-0.21875 0q-0.484375 0 -0.6875 -0.1875q-0.203125 -0.1875 -0.203125 -0.484375q0 -0.296875 0.203125 -0.484375q0.203125 -0.1875 0.6875 -0.1875l2.03125 0q0.484375 0 0.6875 0.1875q0.203125 0.1875 0.203125 0.484375q0 0.296875 -0.203125 0.484375q-0.203125 0.1875 -0.6875 0.1875l-0.484375 0l0 1.96875l2.375 -2.03125q-0.21875 -0.15625 -0.296875 -0.28125q-0.078125 -0.125 -0.078125 -0.3125q0 -0.3125 0.203125 -0.5q0.21875 -0.1875 0.6875 -0.1875l1.359375 0q0.484375 0 0.6875 0.1875q0.203125 0.1875 0.203125 0.484375q0 0.28125 -0.203125 0.484375q-0.203125 0.1875 -0.640625 0.1875l-2.390625 2.09375q0.671875 0.375 1.25 1.171875q0.59375 0.78125 1.046875 1.953125l0.359375 0q0.484375 0 0.6875 0.1875q0.203125 0.171875 0.203125 0.484375q0 0.28125 -0.203125 0.46875q-0.203125 0.1875 -0.6875 0.1875l-1.203125 0q-0.421875 -1.0 -0.90625 -1.90625q-0.40625 -0.734375 -0.765625 -1.0625q-0.359375 -0.34375 -0.875 -0.53125l-0.8125 0.6875zm12.732544 0.53125l-5.46875 0q0.203125 0.53125 0.734375 0.84375q0.53125 0.3125 1.4375 0.3125q0.75 0 1.96875 -0.3125q0.515625 -0.125 0.703125 -0.125q0.265625 0 0.453125 0.1875q0.1875 0.1875 0.1875 0.46875q0 0.265625 -0.203125 0.4375q-0.265625 0.25 -1.28125 0.46875q-1.0 0.21875 -1.921875 0.21875q-1.609375 0 -2.578125 -0.90625q-0.953125 -0.90625 -0.953125 -2.234375q0 -1.40625 1.03125 -2.28125q1.046875 -0.875 2.40625 -0.875q0.8125 0 1.484375 0.28125q0.6875 0.28125 1.015625 0.609375q0.46875 0.484375 0.78125 1.203125q0.203125 0.484375 0.203125 1.140625l0 0.5625zm-1.46875 -1.328125q-0.3125 -0.578125 -0.8125 -0.859375q-0.484375 -0.28125 -1.171875 -0.28125q-0.671875 0 -1.171875 0.28125q-0.5 0.28125 -0.8125 0.859375l3.96875 0zm5.3731995 3.5625l-2.3125 -4.53125q-0.3125 -0.03125 -0.484375 -0.21875q-0.171875 -0.1875 -0.171875 -0.4375q0 -0.296875 0.203125 -0.484375q0.203125 -0.1875 0.6875 -0.1875l1.21875 0q0.484375 0 0.6875 0.1875q0.203125 0.1875 0.203125 0.484375q0 0.28125 -0.203125 0.46875q-0.203125 0.1875 -0.65625 0.1875l1.578125 3.0625l1.5625 -3.0625q-0.421875 0 -0.640625 -0.1875q-0.203125 -0.1875 -0.203125 -0.484375q0 -0.28125 0.203125 -0.46875q0.21875 -0.1875 0.6875 -0.1875l1.265625 0q0.46875 0 0.671875 0.1875q0.203125 0.1875 0.203125 0.484375q0 0.265625 -0.171875 0.453125q-0.171875 0.1875 -0.515625 0.203125l-3.0625 6.03125q0.5 0 0.65625 0.09375q0.3125 0.203125 0.3125 0.578125q0 0.296875 -0.203125 0.46875q-0.203125 0.1875 -0.6875 0.1875l-2.90625 0q-0.484375 0 -0.6875 -0.1875q-0.203125 -0.171875 -0.203125 -0.46875q0 -0.296875 0.203125 -0.484375q0.203125 -0.1875 0.6875 -0.1875l1.328125 0l0.75 -1.5zm8.435669 -1.75l1.78125 0l-1.921875 3.625q-0.171875 0.3125 -0.421875 0.3125q-0.171875 0 -0.296875 -0.109375q-0.109375 -0.109375 -0.109375 -0.25q0 -0.09375 0.046875 -0.265625l0.921875 -3.3125z" fill-rule="nonzero"/><path fill="#000000" fill-opacity="0.0" d="m353.16806 83.15902l57.921265 0l0 35.55906l-57.921265 0z" fill-rule="evenodd"/><path fill="#000000" d="m357.16806 103.0059l1.921875 -4.59375l-0.296875 0q-0.484375 0 -0.6875 -0.1875q-0.203125 -0.1875 -0.203125 -0.484375q0 -0.296875 0.203125 -0.484375q0.203125 -0.1875 0.6875 -0.1875l1.78125 0q0.484375 0 0.6875 0.1875q0.203125 0.1875 0.203125 0.484375q0 0.359375 -0.3125 0.5625q-0.140625 0.109375 -0.609375 0.109375l-2.734375 6.546875l-1.28125 0l-2.734375 -6.546875q-0.46875 0 -0.625 -0.109375q-0.3125 -0.203125 -0.3125 -0.5625q0 -0.296875 0.21875 -0.484375q0.203125 -0.1875 0.671875 -0.1875l1.8125 0q0.46875 0 0.671875 0.1875q0.21875 0.1875 0.21875 0.484375q0 0.296875 -0.203125 0.484375q-0.203125 0.1875 -0.6875 0.1875l-0.3125 0l1.921875 4.59375zm9.201324 1.953125l0 -0.3125q-0.5 0.265625 -1.109375 0.390625q-0.609375 0.140625 -1.09375 0.140625q-1.078125 0 -1.75 -0.5625q-0.671875 -0.578125 -0.671875 -1.265625q0 -0.84375 0.859375 -1.5625q0.859375 -0.71875 2.359375 -0.71875q0.609375 0 1.40625 0.140625l0 -0.328125q0 -0.296875 -0.265625 -0.484375q-0.25 -0.1875 -0.96875 -0.1875q-0.59375 0 -1.546875 0.234375q-0.34375 0.078125 -0.546875 0.078125q-0.265625 0 -0.453125 -0.1875q-0.171875 -0.1875 -0.171875 -0.484375q0 -0.171875 0.0625 -0.296875q0.0625 -0.125 0.171875 -0.203125q0.125 -0.078125 0.5 -0.171875q0.484375 -0.140625 1.0 -0.21875q0.515625 -0.078125 0.9375 -0.078125q1.234375 0 1.921875 0.53125q0.6875 0.53125 0.6875 1.46875l0 2.75l0.234375 0q0.484375 0 0.6875 0.1875q0.203125 0.171875 0.203125 0.484375q0 0.28125 -0.203125 0.46875q-0.203125 0.1875 -0.6875 0.1875l-1.5625 0zm0 -2.390625q-0.796875 -0.15625 -1.484375 -0.15625q-0.8125 0 -1.390625 0.40625q-0.375 0.25 -0.375 0.5q0 0.203125 0.1875 0.3125q0.3125 0.21875 0.890625 0.21875q0.46875 0 1.078125 -0.1875q0.609375 -0.1875 1.09375 -0.515625l0 -0.578125zm7.466919 -6.046875l0 7.109375l1.59375 0q0.484375 0 0.6875 0.1875q0.203125 0.171875 0.203125 0.484375q0 0.28125 -0.203125 0.46875q-0.203125 0.1875 -0.6875 0.1875l-4.53125 0q-0.484375 0 -0.6875 -0.1875q-0.203125 -0.1875 -0.203125 -0.484375q0 -0.296875 0.203125 -0.46875q0.203125 -0.1875 0.6875 -0.1875l1.59375 0l0 -5.78125l-1.0625 0q-0.484375 0 -0.703125 -0.1875q-0.203125 -0.1875 -0.203125 -0.484375q0 -0.28125 0.203125 -0.46875q0.21875 -0.1875 0.703125 -0.1875l2.40625 0zm10.154449 2.53125l0 4.578125q0.421875 0 0.625 0.1875q0.203125 0.1875 0.203125 0.484375q0 0.28125 -0.203125 0.46875q-0.203125 0.1875 -0.6875 0.1875l-1.265625 0l0 -0.3125q-0.578125 0.265625 -1.09375 0.390625q-0.515625 0.140625 -0.984375 0.140625q-0.65625 0 -1.140625 -0.28125q-0.484375 -0.28125 -0.765625 -0.765625q-0.203125 -0.34375 -0.203125 -0.875l0 -2.875l-0.21875 0q-0.484375 0 -0.703125 -0.1875q-0.203125 -0.1875 -0.203125 -0.484375q0 -0.28125 0.203125 -0.46875q0.21875 -0.1875 0.703125 -0.1875l1.5625 0l0 3.96875q0 0.421875 0.203125 0.625q0.203125 0.1875 0.625 0.1875q0.40625 0 0.859375 -0.15625q0.46875 -0.15625 1.15625 -0.578125l0 -2.71875l-0.484375 0q-0.484375 0 -0.6875 -0.1875q-0.203125 -0.1875 -0.203125 -0.484375q0 -0.28125 0.203125 -0.46875q0.203125 -0.1875 0.6875 -0.1875l1.8125 0zm8.513794 3.625l-5.46875 0q0.203125 0.53125 0.734375 0.84375q0.53125 0.3125 1.4375 0.3125q0.75 0 1.96875 -0.3125q0.515625 -0.125 0.703125 -0.125q0.265625 0 0.453125 0.1875q0.1875 0.1875 0.1875 0.46875q0 0.265625 -0.203125 0.4375q-0.265625 0.25 -1.28125 0.46875q-1.0 0.21875 -1.921875 0.21875q-1.609375 0 -2.578125 -0.90625q-0.953125 -0.90625 -0.953125 -2.234375q0 -1.40625 1.03125 -2.28125q1.046875 -0.875 2.40625 -0.875q0.8125 0 1.484375 0.28125q0.6875 0.28125 1.015625 0.609375q0.46875 0.484375 0.78125 1.203125q0.203125 0.484375 0.203125 1.140625l0 0.5625zm-1.46875 -1.328125q-0.3125 -0.578125 -0.8125 -0.859375q-0.484375 -0.28125 -1.171875 -0.28125q-0.671875 0 -1.171875 0.28125q-0.5 0.28125 -0.8125 0.859375l3.96875 0zm7.5294495 -0.1875l-4.3125 -2.40625q-0.328125 -0.171875 -0.4375 -0.3125q-0.109375 -0.15625 -0.109375 -0.375q0 -0.28125 0.203125 -0.46875q0.203125 -0.203125 0.46875 -0.203125q0.171875 0 0.53125 0.1875l6.4375 3.578125l-6.4375 3.578125q-0.359375 0.1875 -0.53125 0.1875q-0.265625 0 -0.46875 -0.1875q-0.203125 -0.203125 -0.203125 -0.5q0 -0.21875 0.109375 -0.359375q0.109375 -0.140625 0.4375 -0.328125l4.3125 -2.390625z" fill-rule="nonzero"/><path fill="#000000" fill-opacity="0.0" d="m87.67218 101.18933l123.401566 -0.03149414" fill-rule="evenodd"/><path stroke="#000000" stroke-width="3.0" stroke-linejoin="round" stroke-linecap="butt" d="m104.557014 101.18503l106.51675 -0.027191162" fill-rule="evenodd"/><path fill="#000000" stroke="#000000" stroke-width="3.0" stroke-linecap="butt" d="m104.557014 101.18503l-7.1361084 -4.9940414l-7.1335526 4.9976807l7.136101 4.9940414z" fill-rule="evenodd"/><path fill="#000000" fill-opacity="0.0" d="m382.1287 118.71808l0 24.15747l55.118103 0" fill-rule="evenodd"/><path stroke="#000000" stroke-width="3.0" stroke-linejoin="round" stroke-linecap="butt" d="m382.1287 118.71808l0 24.15747l55.118103 0" fill-rule="evenodd"/><path fill="#000000" fill-opacity="0.0" d="m437.2442 31.385826l-104.47244 0l0 51.685043" fill-rule="evenodd"/><path stroke="#000000" stroke-width="3.0" stroke-linejoin="round" stroke-linecap="butt" d="m437.2442 31.385826l-104.47244 0l0 51.685043" fill-rule="evenodd"/><path fill="#cfe2f3" d="m437.24316 142.8819l0 0c0 -15.664017 12.204651 -28.362213 27.259827 -28.362213l0 0c7.229767 0 14.163422 2.9881516 19.275635 8.307098c5.112213 5.318939 7.9842224 12.5329895 7.9842224 20.055115l0 0c0 15.664001 -12.204651 28.362198 -27.259857 28.362198l0 0c-15.055176 0 -27.259827 -12.698196 -27.259827 -28.362198z" fill-rule="evenodd"/><path stroke="#4e8aeb" stroke-width="3.0" stroke-linejoin="round" stroke-linecap="butt" d="m437.24316 142.8819l0 0c0 -15.664017 12.204651 -28.362213 27.259827 -28.362213l0 0c7.229767 0 14.163422 2.9881516 19.275635 8.307098c5.112213 5.318939 7.9842224 12.5329895 7.9842224 20.055115l0 0c0 15.664001 -12.204651 28.362198 -27.259857 28.362198l0 0c-15.055176 0 -27.259827 -12.698196 -27.259827 -28.362198z" fill-rule="evenodd"/><path fill="#cfe2f3" d="m481.3636 151.66l0 0c-3.8216858 8.244156 -12.474274 12.67598 -20.972717 10.742157c-8.498444 -1.9338074 -14.653778 -9.735168 -14.919708 -18.909454c-0.26593018 -9.174286 5.426056 -17.358437 13.7966 -19.837303c8.370544 -2.4788666 17.26361 1.386055 21.555634 9.36805l-8.601135 5.1553497c-1.9510803 -4.07251 -6.150482 -6.1087646 -10.141632 -4.9175873c-3.99115 1.1911774 -6.7253723 5.296829 -6.60318 9.915176c0.122161865 4.6183624 3.0686646 8.5359955 7.1157837 9.461121c4.047119 0.9251404 8.131531 -1.3852844 9.863922 -5.579712z" fill-rule="evenodd"/><path stroke="#4e8aeb" stroke-width="3.0" stroke-linejoin="round" stroke-linecap="butt" d="m481.3636 151.66l0 0c-3.8216858 8.244156 -12.474274 12.67598 -20.972717 10.742157c-8.498444 -1.9338074 -14.653778 -9.735168 -14.919708 -18.909454c-0.26593018 -9.174286 5.426056 -17.358437 13.7966 -19.837303c8.370544 -2.4788666 17.26361 1.386055 21.555634 9.36805l-8.601135 5.1553497c-1.9510803 -4.07251 -6.150482 -6.1087646 -10.141632 -4.9175873c-3.99115 1.1911774 -6.7253723 5.296829 -6.60318 9.915176c0.122161865 4.6183624 3.0686646 8.5359955 7.1157837 9.461121c4.047119 0.9251404 8.131531 -1.3852844 9.863922 -5.579712z" fill-rule="evenodd"/><path fill="#000000" fill-opacity="0.0" d="m416.8819 173.52136l95.24408 0l0 25.70079l-95.24408 0z" fill-rule="evenodd"/><path fill="#000000" d="m435.9487 188.77449l0 5.21875l2.875 0l0 -1.265625q0 -0.484375 0.1875 -0.6875q0.1875 -0.203125 0.484375 -0.203125q0.296875 0 0.484375 0.203125q0.1875 0.203125 0.1875 0.6875l0 2.59375l-6.328125 0q-0.46875 0 -0.6875 -0.1875q-0.203125 -0.1875 -0.203125 -0.484375q0 -0.296875 0.203125 -0.46875q0.21875 -0.1875 0.6875 -0.1875l0.78125 0l0 -5.21875l-0.78125 0q-0.46875 0 -0.6875 -0.1875q-0.203125 -0.1875 -0.203125 -0.484375q0 -0.296875 0.203125 -0.484375q0.21875 -0.1875 0.6875 -0.1875l2.890625 0q0.484375 0 0.6875 0.1875q0.203125 0.1875 0.203125 0.484375q0 0.296875 -0.203125 0.484375q-0.203125 0.1875 -0.6875 0.1875l-0.78125 0zm12.029449 3.703125q0 0.765625 -0.4375 1.484375q-0.421875 0.71875 -1.265625 1.15625q-0.84375 0.421875 -1.75 0.421875q-0.921875 0 -1.75 -0.421875q-0.828125 -0.421875 -1.265625 -1.140625q-0.4375 -0.71875 -0.4375 -1.515625q0 -0.796875 0.4375 -1.5625q0.4375 -0.78125 1.265625 -1.21875q0.84375 -0.4375 1.75 -0.4375q0.90625 0 1.75 0.453125q0.84375 0.4375 1.265625 1.203125q0.4375 0.765625 0.4375 1.578125zm-1.34375 0q0 -0.640625 -0.453125 -1.171875q-0.640625 -0.734375 -1.65625 -0.734375q-0.90625 0 -1.515625 0.578125q-0.609375 0.578125 -0.609375 1.34375q0 0.625 0.609375 1.171875q0.625 0.53125 1.515625 0.53125q0.890625 0 1.5 -0.53125q0.609375 -0.546875 0.609375 -1.1875zm7.951294 -2.828125q0.234375 -0.21875 0.5 -0.21875q0.28125 0 0.46875 0.203125q0.1875 0.203125 0.1875 0.671875l0 0.859375q0 0.484375 -0.1875 0.6875q-0.1875 0.203125 -0.484375 0.203125q-0.28125 0 -0.46875 -0.15625q-0.125 -0.125 -0.203125 -0.484375q-0.078125 -0.359375 -0.390625 -0.53125q-0.515625 -0.3125 -1.34375 -0.3125q-0.9375 0 -1.515625 0.5625q-0.5625 0.546875 -0.5625 1.390625q0 0.78125 0.546875 1.234375q0.546875 0.453125 1.8125 0.453125q0.828125 0 1.359375 -0.171875q0.3125 -0.109375 0.59375 -0.359375q0.28125 -0.25 0.5 -0.25q0.28125 0 0.46875 0.203125q0.203125 0.203125 0.203125 0.484375q0 0.4375 -0.59375 0.828125q-0.90625 0.59375 -2.640625 0.59375q-1.546875 0 -2.421875 -0.640625q-1.171875 -0.859375 -1.171875 -2.375q0 -1.421875 0.953125 -2.34375q0.953125 -0.9375 2.484375 -0.9375q0.546875 0 1.015625 0.109375q0.484375 0.09375 0.890625 0.296875zm7.1231995 5.671875l0 -0.3125q-0.5 0.265625 -1.109375 0.390625q-0.609375 0.140625 -1.09375 0.140625q-1.078125 0 -1.75 -0.5625q-0.671875 -0.578125 -0.671875 -1.265625q0 -0.84375 0.859375 -1.5625q0.859375 -0.71875 2.359375 -0.71875q0.609375 0 1.40625 0.140625l0 -0.328125q0 -0.296875 -0.265625 -0.484375q-0.25 -0.1875 -0.96875 -0.1875q-0.59375 0 -1.546875 0.234375q-0.34375 0.078125 -0.546875 0.078125q-0.265625 0 -0.453125 -0.1875q-0.171875 -0.1875 -0.171875 -0.484375q0 -0.171875 0.0625 -0.296875q0.0625 -0.125 0.171875 -0.203125q0.125 -0.078125 0.5 -0.171875q0.484375 -0.140625 1.0 -0.21875q0.515625 -0.078125 0.9375 -0.078125q1.234375 0 1.921875 0.53125q0.6875 0.53125 0.6875 1.46875l0 2.75l0.234375 0q0.484375 0 0.6875 0.1875q0.203125 0.171875 0.203125 0.484375q0 0.28125 -0.203125 0.46875q-0.203125 0.1875 -0.6875 0.1875l-1.5625 0zm0 -2.390625q-0.796875 -0.15625 -1.484375 -0.15625q-0.8125 0 -1.390625 0.40625q-0.375 0.25 -0.375 0.5q0 0.203125 0.1875 0.3125q0.3125 0.21875 0.890625 0.21875q0.46875 0 1.078125 -0.1875q0.609375 -0.1875 1.09375 -0.515625l0 -0.578125zm6.466919 -2.1875l0 2.671875q0 0.4375 0.171875 0.578125q0.28125 0.203125 0.984375 0.203125q1.015625 0 1.875 -0.4375q0.34375 -0.15625 0.53125 -0.15625q0.25 0 0.4375 0.203125q0.203125 0.1875 0.203125 0.46875q0 0.25 -0.203125 0.4375q-0.328125 0.3125 -1.265625 0.578125q-0.9375 0.25 -1.578125 0.25q-1.25 0 -1.875 -0.53125q-0.609375 -0.546875 -0.609375 -1.328125l0 -2.9375l-0.484375 0q-0.484375 0 -0.6875 -0.1875q-0.203125 -0.1875 -0.203125 -0.484375q0 -0.28125 0.203125 -0.46875q0.203125 -0.1875 0.6875 -0.1875l0.484375 0l0 -1.203125q0 -0.484375 0.171875 -0.6875q0.1875 -0.203125 0.484375 -0.203125q0.296875 0 0.484375 0.203125q0.1875 0.203125 0.1875 0.6875l0 1.203125l2.46875 0q0.484375 0 0.6875 0.1875q0.203125 0.1875 0.203125 0.484375q0 0.28125 -0.203125 0.46875q-0.203125 0.1875 -0.6875 0.1875l-2.46875 0zm8.810699 -3.859375l0 1.40625l-1.59375 0l0 -1.40625l1.59375 0zm0.171875 2.53125l0 4.578125l1.609375 0q0.46875 0 0.671875 0.1875q0.21875 0.171875 0.21875 0.484375q0 0.28125 -0.21875 0.46875q-0.203125 0.1875 -0.671875 0.1875l-4.546875 0q-0.46875 0 -0.6875 -0.1875q-0.203125 -0.1875 -0.203125 -0.484375q0 -0.296875 0.203125 -0.46875q0.21875 -0.1875 0.6875 -0.1875l1.609375 0l0 -3.25l-1.078125 0q-0.46875 0 -0.6875 -0.1875q-0.203125 -0.1875 -0.203125 -0.484375q0 -0.28125 0.203125 -0.46875q0.203125 -0.1875 0.6875 -0.1875l2.40625 0zm10.810669 3.0625q0 0.765625 -0.4375 1.484375q-0.421875 0.71875 -1.265625 1.15625q-0.84375 0.421875 -1.75 0.421875q-0.921875 0 -1.75 -0.421875q-0.828125 -0.421875 -1.265625 -1.140625q-0.4375 -0.71875 -0.4375 -1.515625q0 -0.796875 0.4375 -1.5625q0.4375 -0.78125 1.265625 -1.21875q0.84375 -0.4375 1.75 -0.4375q0.90625 0 1.75 0.453125q0.84375 0.4375 1.265625 1.203125q0.4375 0.765625 0.4375 1.578125zm-1.34375 0q0 -0.640625 -0.453125 -1.171875q-0.640625 -0.734375 -1.65625 -0.734375q-0.90625 0 -1.515625 0.578125q-0.609375 0.578125 -0.609375 1.34375q0 0.625 0.609375 1.171875q0.625 0.53125 1.515625 0.53125q0.890625 0 1.5 -0.53125q0.609375 -0.546875 0.609375 -1.1875zm4.5294495 -3.0625l0 0.453125q0.359375 -0.3125 0.796875 -0.46875q0.4375 -0.15625 0.953125 -0.15625q1.1875 0 1.875 0.734375q0.546875 0.578125 0.546875 1.53125l0 2.484375q0.421875 0 0.625 0.1875q0.203125 0.171875 0.203125 0.484375q0 0.28125 -0.203125 0.46875q-0.203125 0.1875 -0.6875 0.1875l-1.203125 0q-0.484375 0 -0.6875 -0.1875q-0.203125 -0.1875 -0.203125 -0.484375q0 -0.296875 0.1875 -0.46875q0.203125 -0.1875 0.640625 -0.1875l0 -2.53125q0 -0.421875 -0.234375 -0.625q-0.3125 -0.265625 -0.921875 -0.265625q-0.46875 0 -0.8125 0.1875q-0.34375 0.171875 -0.875 0.75l0 2.484375q0.5 0 0.65625 0.09375q0.3125 0.1875 0.3125 0.578125q0 0.28125 -0.203125 0.46875q-0.203125 0.1875 -0.6875 0.1875l-1.515625 0q-0.484375 0 -0.6875 -0.1875q-0.203125 -0.1875 -0.203125 -0.484375q0 -0.359375 0.3125 -0.5625q0.15625 -0.09375 0.671875 -0.09375l0 -3.25q-0.421875 0 -0.625 -0.1875q-0.203125 -0.1875 -0.203125 -0.484375q0 -0.28125 0.203125 -0.46875q0.203125 -0.1875 0.6875 -0.1875l1.28125 0z" fill-rule="nonzero"/><path fill="#ebe3fd" d="m474.70117 150.39896l0 23.653534l21.936981 0l-10.753265 -11.611542l10.753265 -12.041992z" fill-rule="evenodd"/><path stroke="#8b6bda" stroke-width="3.0" stroke-linejoin="round" stroke-linecap="butt" d="m474.70117 150.39896l0 23.653534l21.936981 0l-10.753265 -11.611542l10.753265 -12.041992z" fill-rule="evenodd"/><path fill="#cfe2f3" d="m437.2442 31.385826l0 0c0 -15.664013 12.20462 -28.362204 27.259827 -28.362204l0 0c7.229767 0 14.163422 2.9881525 19.275635 8.307098c5.112213 5.318944 7.9842224 12.532983 7.9842224 20.055107l0 0c0 15.664013 -12.204651 28.362206 -27.259857 28.362206l0 0c-15.055206 0 -27.259827 -12.698193 -27.259827 -28.362206z" fill-rule="evenodd"/><path stroke="#4e8aeb" stroke-width="3.0" stroke-linejoin="round" stroke-linecap="butt" d="m437.2442 31.385826l0 0c0 -15.664013 12.20462 -28.362204 27.259827 -28.362204l0 0c7.229767 0 14.163422 2.9881525 19.275635 8.307098c5.112213 5.318944 7.9842224 12.532983 7.9842224 20.055107l0 0c0 15.664013 -12.204651 28.362206 -27.259857 28.362206l0 0c-15.055206 0 -27.259827 -12.698193 -27.259827 -28.362206z" fill-rule="evenodd"/><path fill="#cfe2f3" d="m481.36462 40.163944l0 0c-3.8216858 8.244152 -12.474274 12.67598 -20.972717 10.742161c-8.498444 -1.9338188 -14.653778 -9.735176 -14.919708 -18.909462c-0.26593018 -9.174288 5.426056 -17.358437 13.7966 -19.837301c8.370544 -2.4788647 17.26361 1.3860502 21.555634 9.368044l-8.601135 5.1553555c-1.9510803 -4.07251 -6.150482 -6.1087646 -10.141632 -4.9175854c-3.99115 1.1911812 -6.7253723 5.2968216 -6.60318 9.915178c0.122161865 4.6183567 3.068634 8.535982 7.1157837 9.461119c4.047119 0.92513657 8.131531 -1.385292 9.863922 -5.579712z" fill-rule="evenodd"/><path stroke="#4e8aeb" stroke-width="3.0" stroke-linejoin="round" stroke-linecap="butt" d="m481.36462 40.163944l0 0c-3.8216858 8.244152 -12.474274 12.67598 -20.972717 10.742161c-8.498444 -1.9338188 -14.653778 -9.735176 -14.919708 -18.909462c-0.26593018 -9.174288 5.426056 -17.358437 13.7966 -19.837301c8.370544 -2.4788647 17.26361 1.3860502 21.555634 9.368044l-8.601135 5.1553555c-1.9510803 -4.07251 -6.150482 -6.1087646 -10.141632 -4.9175854c-3.99115 1.1911812 -6.7253723 5.2968216 -6.60318 9.915178c0.122161865 4.6183567 3.068634 8.535982 7.1157837 9.461119c4.047119 0.92513657 8.131531 -1.385292 9.863922 -5.579712z" fill-rule="evenodd"/><path fill="#000000" fill-opacity="0.0" d="m416.8819 62.58091l95.24408 0l0 25.700783l-95.24408 0z" fill-rule="evenodd"/><path fill="#000000" d="m442.13528 82.24028l-3.234375 0l-0.328125 0.8125l0.328125 0q0.484375 0 0.6875 0.1875q0.203125 0.171875 0.203125 0.484375q0 0.28125 -0.203125 0.46875q-0.203125 0.1875 -0.6875 0.1875l-1.796875 0q-0.484375 0 -0.6875 -0.1875q-0.203125 -0.1875 -0.203125 -0.484375q0 -0.296875 0.21875 -0.484375q0.203125 -0.1875 0.703125 -0.171875l2.09375 -5.21875l-0.875 0q-0.484375 0 -0.6875 -0.1875q-0.203125 -0.1875 -0.203125 -0.484375q0 -0.296875 0.203125 -0.484375q0.203125 -0.1875 0.6875 -0.1875l2.890625 0l2.65625 6.5625q0.46875 0 0.609375 0.09375q0.296875 0.21875 0.296875 0.578125q0 0.28125 -0.203125 0.46875q-0.1875 0.1875 -0.671875 0.1875l-1.796875 0q-0.484375 0 -0.6875 -0.1875q-0.203125 -0.1875 -0.203125 -0.484375q0 -0.296875 0.203125 -0.46875q0.203125 -0.1875 0.6875 -0.1875l0.328125 0l-0.328125 -0.8125zm-0.546875 -1.34375l-1.078125 -2.640625l-1.078125 2.640625l2.15625 0zm9.982574 -4.953125l0 7.109375l0.21875 0q0.484375 0 0.6875 0.1875q0.21875 0.171875 0.21875 0.484375q0 0.28125 -0.21875 0.46875q-0.203125 0.1875 -0.6875 0.1875l-1.546875 0l0 -0.328125q-0.46875 0.265625 -0.96875 0.40625q-0.484375 0.140625 -1.03125 0.140625q-1.5 0 -2.421875 -0.859375q-0.90625 -0.875 -0.90625 -2.171875q0 -1.359375 0.953125 -2.3125q0.96875 -0.953125 2.359375 -0.953125q0.515625 0 1.015625 0.15625q0.5 0.15625 1.0 0.46875l0 -1.65625l-0.234375 0q-0.484375 0 -0.6875 -0.1875q-0.203125 -0.1875 -0.203125 -0.46875q0 -0.296875 0.203125 -0.484375q0.203125 -0.1875 0.6875 -0.1875l1.5625 0zm-1.328125 5.65625q0 -0.828125 -0.59375 -1.390625q-0.578125 -0.578125 -1.40625 -0.578125q-0.84375 0 -1.421875 0.578125q-0.578125 0.5625 -0.578125 1.375q0 0.734375 0.515625 1.203125q0.53125 0.46875 1.484375 0.46875q0.9375 0 1.46875 -0.46875q0.53125 -0.46875 0.53125 -1.1875zm9.326294 -5.65625l0 7.109375l0.21875 0q0.484375 0 0.6875 0.1875q0.21875 0.171875 0.21875 0.484375q0 0.28125 -0.21875 0.46875q-0.203125 0.1875 -0.6875 0.1875l-1.546875 0l0 -0.328125q-0.46875 0.265625 -0.96875 0.40625q-0.484375 0.140625 -1.03125 0.140625q-1.5 0 -2.421875 -0.859375q-0.90625 -0.875 -0.90625 -2.171875q0 -1.359375 0.953125 -2.3125q0.96875 -0.953125 2.359375 -0.953125q0.515625 0 1.015625 0.15625q0.5 0.15625 1.0 0.46875l0 -1.65625l-0.234375 0q-0.484375 0 -0.6875 -0.1875q-0.203125 -0.1875 -0.203125 -0.46875q0 -0.296875 0.203125 -0.484375q0.203125 -0.1875 0.6875 -0.1875l1.5625 0zm-1.328125 5.65625q0 -0.828125 -0.59375 -1.390625q-0.578125 -0.578125 -1.40625 -0.578125q-0.84375 0 -1.421875 0.578125q-0.578125 0.5625 -0.578125 1.375q0 0.734375 0.515625 1.203125q0.53125 0.46875 1.484375 0.46875q0.9375 0 1.46875 -0.46875q0.53125 -0.46875 0.53125 -1.1875zm5.9825745 -3.125l0 0.828125q0.84375 -0.609375 1.328125 -0.796875q0.484375 -0.203125 0.90625 -0.203125q0.65625 0 1.265625 0.46875q0.421875 0.328125 0.421875 0.671875q0 0.28125 -0.203125 0.484375q-0.203125 0.203125 -0.484375 0.203125q-0.25 0 -0.53125 -0.25q-0.265625 -0.25 -0.46875 -0.25q-0.28125 0 -0.84375 0.359375q-0.546875 0.34375 -1.390625 1.046875l0 2.015625l1.90625 0q0.484375 0 0.6875 0.1875q0.203125 0.171875 0.203125 0.484375q0 0.28125 -0.203125 0.46875q-0.203125 0.1875 -0.6875 0.1875l-4.03125 0q-0.484375 0 -0.6875 -0.1875q-0.203125 -0.1875 -0.203125 -0.484375q0 -0.296875 0.203125 -0.46875q0.203125 -0.1875 0.6875 -0.1875l0.796875 0l0 -3.25l-0.484375 0q-0.484375 0 -0.6875 -0.1875q-0.203125 -0.1875 -0.203125 -0.484375q0 -0.28125 0.203125 -0.46875q0.203125 -0.1875 0.6875 -0.1875l1.8125 0zm11.623169 3.625l-5.46875 0q0.203125 0.53125 0.734375 0.84375q0.53125 0.3125 1.4375 0.3125q0.75 0 1.96875 -0.3125q0.515625 -0.125 0.703125 -0.125q0.265625 0 0.453125 0.1875q0.1875 0.1875 0.1875 0.46875q0 0.265625 -0.203125 0.4375q-0.265625 0.25 -1.28125 0.46875q-1.0 0.21875 -1.921875 0.21875q-1.609375 0 -2.578125 -0.90625q-0.953125 -0.90625 -0.953125 -2.234375q0 -1.40625 1.03125 -2.28125q1.046875 -0.875 2.40625 -0.875q0.8125 0 1.484375 0.28125q0.6875 0.28125 1.015625 0.609375q0.46875 0.484375 0.78125 1.203125q0.203125 0.484375 0.203125 1.140625l0 0.5625zm-1.46875 -1.328125q-0.3125 -0.578125 -0.8125 -0.859375q-0.484375 -0.28125 -1.171875 -0.28125q-0.671875 0 -1.171875 0.28125q-0.5 0.28125 -0.8125 0.859375l3.96875 0zm7.5606995 -0.734375q-0.328125 -0.203125 -0.6875 -0.296875q-0.34375 -0.109375 -0.734375 -0.109375q-0.78125 0 -1.234375 0.25q-0.203125 0.109375 -0.203125 0.25q0 0.140625 0.265625 0.28125q0.21875 0.109375 0.9375 0.203125q1.328125 0.1875 1.84375 0.375q0.6875 0.234375 1.046875 0.71875q0.375 0.46875 0.375 1.0q0 0.703125 -0.625 1.1875q-0.90625 0.703125 -2.34375 0.703125q-0.578125 0 -1.078125 -0.109375q-0.484375 -0.09375 -0.890625 -0.296875q-0.109375 0.09375 -0.21875 0.140625q-0.109375 0.046875 -0.21875 0.046875q-0.3125 0 -0.5 -0.203125q-0.1875 -0.21875 -0.1875 -0.6875l0 -0.453125q0 -0.484375 0.1875 -0.6875q0.1875 -0.203125 0.484375 -0.203125q0.234375 0 0.390625 0.140625q0.171875 0.125 0.265625 0.453125q0.296875 0.25 0.71875 0.390625q0.4375 0.125 1.0 0.125q0.921875 0 1.421875 -0.28125q0.25 -0.140625 0.25 -0.296875q0 -0.265625 -0.34375 -0.4375q-0.34375 -0.15625 -1.421875 -0.28125q-1.609375 -0.171875 -2.15625 -0.65625q-0.53125 -0.46875 -0.53125 -1.171875q0 -0.703125 0.59375 -1.1875q0.828125 -0.640625 2.15625 -0.640625q0.453125 0 0.875 0.09375q0.4375 0.078125 0.828125 0.25q0.125 -0.078125 0.234375 -0.125q0.109375 -0.046875 0.1875 -0.046875q0.28125 0 0.453125 0.203125q0.1875 0.203125 0.1875 0.6875l0 0.328125q0 0.4375 -0.09375 0.59375q-0.21875 0.296875 -0.578125 0.296875q-0.234375 0 -0.421875 -0.140625q-0.171875 -0.15625 -0.234375 -0.40625zm7.998169 0q-0.328125 -0.203125 -0.6875 -0.296875q-0.34375 -0.109375 -0.734375 -0.109375q-0.78125 0 -1.234375 0.25q-0.203125 0.109375 -0.203125 0.25q0 0.140625 0.265625 0.28125q0.21875 0.109375 0.9375 0.203125q1.328125 0.1875 1.84375 0.375q0.6875 0.234375 1.046875 0.71875q0.375 0.46875 0.375 1.0q0 0.703125 -0.625 1.1875q-0.90625 0.703125 -2.34375 0.703125q-0.578125 0 -1.078125 -0.109375q-0.484375 -0.09375 -0.890625 -0.296875q-0.109375 0.09375 -0.21875 0.140625q-0.109375 0.046875 -0.21875 0.046875q-0.3125 0 -0.5 -0.203125q-0.1875 -0.21875 -0.1875 -0.6875l0 -0.453125q0 -0.484375 0.1875 -0.6875q0.1875 -0.203125 0.484375 -0.203125q0.234375 0 0.390625 0.140625q0.171875 0.125 0.265625 0.453125q0.296875 0.25 0.71875 0.390625q0.4375 0.125 1.0 0.125q0.921875 0 1.421875 -0.28125q0.25 -0.140625 0.25 -0.296875q0 -0.265625 -0.34375 -0.4375q-0.34375 -0.15625 -1.421875 -0.28125q-1.609375 -0.171875 -2.15625 -0.65625q-0.53125 -0.46875 -0.53125 -1.171875q0 -0.703125 0.59375 -1.1875q0.828125 -0.640625 2.15625 -0.640625q0.453125 0 0.875 0.09375q0.4375 0.078125 0.828125 0.25q0.125 -0.078125 0.234375 -0.125q0.109375 -0.046875 0.1875 -0.046875q0.28125 0 0.453125 0.203125q0.1875 0.203125 0.1875 0.6875l0 0.328125q0 0.4375 -0.09375 0.59375q-0.21875 0.296875 -0.578125 0.296875q-0.234375 0 -0.421875 -0.140625q-0.171875 -0.15625 -0.234375 -0.40625z" fill-rule="nonzero"/><path fill="#ebe3fd" d="m474.7022 38.902885l0 23.653545l21.936981 0l-10.753265 -11.611549l10.753265 -12.041996z" fill-rule="evenodd"/><path stroke="#8b6bda" stroke-width="3.0" stroke-linejoin="round" stroke-linecap="butt" d="m474.7022 38.902885l0 23.653545l21.936981 0l-10.753265 -11.611549l10.753265 -12.041996z" fill-rule="evenodd"/><path fill="#cfe2f3" d="m33.152493 101.18933l0 0c0 -15.664009 12.204647 -28.362206 27.259842 -28.362206l0 0c7.229763 0 14.16341 2.9881516 19.275623 8.307098c5.1122055 5.318947 7.9842224 12.532982 7.9842224 20.055107l0 0c0 15.664017 -12.204651 28.362213 -27.259846 28.362213l0 0c-15.055195 0 -27.259842 -12.698196 -27.259842 -28.362213z" fill-rule="evenodd"/><path stroke="#4e8aeb" stroke-width="3.0" stroke-linejoin="round" stroke-linecap="butt" d="m33.152493 101.18933l0 0c0 -15.664009 12.204647 -28.362206 27.259842 -28.362206l0 0c7.229763 0 14.16341 2.9881516 19.275623 8.307098c5.1122055 5.318947 7.9842224 12.532982 7.9842224 20.055107l0 0c0 15.664017 -12.204651 28.362213 -27.259846 28.362213l0 0c-15.055195 0 -27.259842 -12.698196 -27.259842 -28.362213z" fill-rule="evenodd"/><path fill="#cfe2f3" d="m77.27294 109.96745l0 0c-3.8216934 8.244148 -12.474274 12.675972 -20.972729 10.742157c-8.498451 -1.933815 -14.653782 -9.735176 -14.919708 -18.909462c-0.26593018 -9.174286 5.4260406 -17.358437 13.796585 -19.837303c8.370544 -2.478859 17.263622 1.386055 21.555645 9.36805l-8.601128 5.1553497c-1.9510803 -4.07251 -6.15049 -6.1087646 -10.141632 -4.9175797c-3.991146 1.1911774 -6.7253723 5.2968216 -6.603195 9.915176c0.122177124 4.618355 3.068657 8.53598 7.1157837 9.461121c4.0471306 0.92513275 8.131554 -1.385292 9.86393 -5.5797195z" fill-rule="evenodd"/><path stroke="#4e8aeb" stroke-width="3.0" stroke-linejoin="round" stroke-linecap="butt" d="m77.27294 109.96745l0 0c-3.8216934 8.244148 -12.474274 12.675972 -20.972729 10.742157c-8.498451 -1.933815 -14.653782 -9.735176 -14.919708 -18.909462c-0.26593018 -9.174286 5.4260406 -17.358437 13.796585 -19.837303c8.370544 -2.478859 17.263622 1.386055 21.555645 9.36805l-8.601128 5.1553497c-1.9510803 -4.07251 -6.15049 -6.1087646 -10.141632 -4.9175797c-3.991146 1.1911774 -6.7253723 5.2968216 -6.603195 9.915176c0.122177124 4.618355 3.068657 8.53598 7.1157837 9.461121c4.0471306 0.92513275 8.131554 -1.385292 9.86393 -5.5797195z" fill-rule="evenodd"/><path fill="#000000" fill-opacity="0.0" d="m3.023622 132.50607l115.90551 0l0 25.700775l-115.90551 0z" fill-rule="evenodd"/><path fill="#000000" d="m6.8953376 148.99356l0 3.984375l0.484375 0q0.484375 0 0.6875005 0.1875q0.203125 0.171875 0.203125 0.484375q0 0.28125 -0.203125 0.46875q-0.20312548 0.1875 -0.6875005 0.1875l-1.75 0q-0.484375 0 -0.6875 -0.1875q-0.203125 -0.1875 -0.203125 -0.484375q0 -0.296875 0.203125 -0.46875q0.203125 -0.1875 0.625 -0.1875l0 -5.21875q-0.34375 -0.046875 -0.53125 -0.21875q-0.171875 -0.1875 -0.171875 -0.453125q0 -0.296875 0.203125 -0.484375q0.203125 -0.1875 0.6875 -0.1875l1.453125 0l1.8281255 4.015625l1.78125 -4.015625l1.46875 0q0.484375 0 0.6875 0.1875q0.203125 0.1875 0.203125 0.484375q0 0.265625 -0.1875 0.453125q-0.171875 0.171875 -0.515625 0.21875l0 5.21875q0.421875 0 0.625 0.1875q0.203125 0.1875 0.203125 0.484375q0 0.28125 -0.203125 0.46875q-0.203125 0.1875 -0.6875 0.1875l-1.765625 0q-0.46875 0 -0.671875 -0.1875q-0.203125 -0.1875 -0.203125 -0.484375q0 -0.296875 0.203125 -0.46875q0.203125 -0.1875 0.671875 -0.1875l0.5 0l0 -3.984375l-1.53125 3.4375l-1.15625 0l-1.5625005 -3.4375zm11.295059 5.3125l0 -0.3125q-0.5 0.265625 -1.109375 0.390625q-0.609375 0.140625 -1.09375 0.140625q-1.078125 0 -1.75 -0.5625q-0.671875 -0.578125 -0.671875 -1.265625q0 -0.84375 0.859375 -1.5625q0.859375 -0.71875 2.359375 -0.71875q0.609375 0 1.40625 0.140625l0 -0.328125q0 -0.296875 -0.265625 -0.484375q-0.25 -0.1875 -0.96875 -0.1875q-0.59375 0 -1.546875 0.234375q-0.34375 0.078125 -0.546875 0.078125q-0.265625 0 -0.453125 -0.1875q-0.171875 -0.1875 -0.171875 -0.484375q0 -0.171875 0.0625 -0.296875q0.0625 -0.125 0.171875 -0.203125q0.125 -0.078125 0.5 -0.171875q0.484375 -0.140625 1.0 -0.21875q0.515625 -0.078125 0.9375 -0.078125q1.234375 0 1.921875 0.53125q0.6875 0.53125 0.6875 1.46875l0 2.75l0.234375 0q0.484375 0 0.6875 0.1875q0.203125 0.171875 0.203125 0.484375q0 0.28125 -0.203125 0.46875q-0.203125 0.1875 -0.6875 0.1875l-1.5625 0zm0 -2.390625q-0.796875 -0.15625 -1.484375 -0.15625q-0.8125 0 -1.390625 0.40625q-0.375 0.25 -0.375 0.5q0 0.203125 0.1875 0.3125q0.3125 0.21875 0.890625 0.21875q0.46875 0 1.078125 -0.1875q0.609375 -0.1875 1.09375 -0.515625l0 -0.578125zm7.279434 -6.046875l0 1.40625l-1.59375 0l0 -1.40625l1.59375 0zm0.171875 2.53125l0 4.578125l1.609375 0q0.46875 0 0.671875 0.1875q0.21875 0.171875 0.21875 0.484375q0 0.28125 -0.21875 0.46875q-0.203125 0.1875 -0.671875 0.1875l-4.546875 0q-0.46875 0 -0.6875 -0.1875q-0.203125 -0.1875 -0.203125 -0.484375q0 -0.296875 0.203125 -0.46875q0.21875 -0.1875 0.6875 -0.1875l1.609375 0l0 -3.25l-1.078125 0q-0.46875 0 -0.6875 -0.1875q-0.203125 -0.1875 -0.203125 -0.484375q0 -0.28125 0.203125 -0.46875q0.203125 -0.1875 0.6875 -0.1875l2.40625 0zm5.998184 0l0 0.453125q0.359375 -0.3125 0.7968731 -0.46875q0.4375 -0.15625 0.953125 -0.15625q1.1875 0 1.875 0.734375q0.546875 0.578125 0.546875 1.53125l0 2.484375q0.421875 0 0.625 0.1875q0.203125 0.171875 0.203125 0.484375q0 0.28125 -0.203125 0.46875q-0.203125 0.1875 -0.6875 0.1875l-1.203125 0q-0.484375 0 -0.6875 -0.1875q-0.203125 -0.1875 -0.203125 -0.484375q0 -0.296875 0.1875 -0.46875q0.203125 -0.1875 0.640625 -0.1875l0 -2.53125q0 -0.421875 -0.234375 -0.625q-0.3125 -0.265625 -0.921875 -0.265625q-0.46875 0 -0.8125 0.1875q-0.34375 0.171875 -0.8749981 0.75l0 2.484375q0.4999981 0 0.6562481 0.09375q0.3125 0.1875 0.3125 0.578125q0 0.28125 -0.203125 0.46875q-0.203125 0.1875 -0.6874981 0.1875l-1.515625 0q-0.484375 0 -0.6875 -0.1875q-0.203125 -0.1875 -0.203125 -0.484375q0 -0.359375 0.3125 -0.5625q0.15625 -0.09375 0.671875 -0.09375l0 -3.25q-0.421875 0 -0.625 -0.1875q-0.203125 -0.1875 -0.203125 -0.484375q0 -0.28125 0.203125 -0.46875q0.203125 -0.1875 0.6875 -0.1875l1.28125 0zm7.9669323 2.890625l0 1.6875l0.484375 0q0.46875 0 0.671875 0.1875q0.21875 0.171875 0.21875 0.484375q0 0.28125 -0.21875 0.46875q-0.203125 0.1875 -0.671875 0.1875l-2.03125 0q-0.484375 0 -0.6875 -0.1875q-0.203125 -0.1875 -0.203125 -0.484375q0 -0.296875 0.203125 -0.46875q0.21875 -0.1875 0.6875 -0.1875l0.203125 0l0 -5.21875l-0.203125 0q-0.484375 0 -0.6875 -0.1875q-0.203125 -0.1875 -0.203125 -0.484375q0 -0.296875 0.203125 -0.484375q0.203125 -0.1875 0.6875 -0.1875l3.015625 0q1.421875 0 2.1875 0.703125q0.78125 0.703125 0.78125 1.703125q0 0.625 -0.359375 1.140625q-0.359375 0.5 -1.09375 0.90625q0.421875 0.359375 0.90625 0.9375q0.296875 0.375 0.796875 1.171875q0.515625 0 0.671875 0.09375q0.296875 0.203125 0.296875 0.578125q0 0.28125 -0.203125 0.46875q-0.203125 0.1875 -0.6875 0.1875l-0.765625 0q-1.609375 -2.5 -2.6875 -3.015625l-1.3125 0zm0 -1.328125l1.03125 0q0.59375 0 1.046875 -0.171875q0.609375 -0.234375 0.8125 -0.5q0.21875 -0.265625 0.21875 -0.515625q0 -0.375 -0.40625 -0.6875q-0.40625 -0.328125 -1.171875 -0.328125l-1.53125 0l0 2.203125zm12.716934 2.0625l-5.46875 0q0.203125 0.53125 0.734375 0.84375q0.53125 0.3125 1.4375 0.3125q0.75 0 1.96875 -0.3125q0.515625 -0.125 0.703125 -0.125q0.265625 0 0.453125 0.1875q0.1875 0.1875 0.1875 0.46875q0 0.265625 -0.203125 0.4375q-0.265625 0.25 -1.28125 0.46875q-1.0 0.21875 -1.921875 0.21875q-1.609375 0 -2.578125 -0.90625q-0.953125 -0.90625 -0.953125 -2.234375q0 -1.40625 1.03125 -2.28125q1.046875 -0.875 2.40625 -0.875q0.8125 0 1.484375 0.28125q0.6875 0.28125 1.015625 0.609375q0.46875 0.484375 0.78125 1.203125q0.203125 0.484375 0.203125 1.140625l0 0.5625zm-1.46875 -1.328125q-0.3125 -0.578125 -0.8125 -0.859375q-0.484375 -0.28125 -1.171875 -0.28125q-0.671875 0 -1.171875 0.28125q-0.5 0.28125 -0.8125 0.859375l3.96875 0zm4.466934 2.875l0 2.1875l0.796875 0q0.484375 0 0.6875 0.1875q0.203125 0.1875 0.203125 0.484375q0 0.296875 -0.203125 0.46875q-0.203125 0.1875 -0.6875 0.1875l-2.359375 0q-0.484375 0 -0.6875 -0.1875q-0.203125 -0.171875 -0.203125 -0.46875q0 -0.296875 0.203125 -0.484375q0.21875 -0.1875 0.6875 -0.1875l0.234375 0l0 -6.03125l-0.234375 0q-0.484375 0 -0.6875 -0.1875q-0.203125 -0.1875 -0.203125 -0.484375q0 -0.28125 0.203125 -0.46875q0.203125 -0.1875 0.6875 -0.1875l1.5625 0l0 0.453125q0.46875 -0.3125 0.96875 -0.46875q0.5 -0.15625 1.03125 -0.15625q1.359375 0 2.328125 0.921875q0.96875 0.921875 0.96875 2.125q0 1.3125 -1.140625 2.171875q-0.953125 0.71875 -2.140625 0.71875q-0.515625 0 -1.015625 -0.140625q-0.5 -0.15625 -1.0 -0.453125zm3.953125 -2.296875q0 -0.28125 -0.21875 -0.703125q-0.21875 -0.4375 -0.6875 -0.71875q-0.453125 -0.296875 -1.0625 -0.296875q-1.0 0 -1.59375 0.75q-0.390625 0.515625 -0.390625 0.984375q0 0.53125 0.5625 1.046875q0.578125 0.5 1.421875 0.5q0.84375 0 1.40625 -0.5q0.5625 -0.5 0.5625 -1.0625zm9.170063 0.1875q0 0.765625 -0.4375 1.484375q-0.421875 0.71875 -1.265625 1.15625q-0.84375 0.421875 -1.75 0.421875q-0.921875 0 -1.7500038 -0.421875q-0.828125 -0.421875 -1.265625 -1.140625q-0.4375 -0.71875 -0.4375 -1.515625q0 -0.796875 0.4375 -1.5625q0.4375 -0.78125 1.265625 -1.21875q0.8437538 -0.4375 1.7500038 -0.4375q0.90625 0 1.75 0.453125q0.84375 0.4375 1.265625 1.203125q0.4375 0.765625 0.4375 1.578125zm-1.34375 0q0 -0.640625 -0.453125 -1.171875q-0.640625 -0.734375 -1.65625 -0.734375q-0.90625 0 -1.5156288 0.578125q-0.609375 0.578125 -0.609375 1.34375q0 0.625 0.609375 1.171875q0.6250038 0.53125 1.5156288 0.53125q0.890625 0 1.5 -0.53125q0.609375 -0.546875 0.609375 -1.1875zm7.310684 -1.5q-0.328125 -0.203125 -0.6875 -0.296875q-0.34375 -0.109375 -0.734375 -0.109375q-0.78125 0 -1.234375 0.25q-0.203125 0.109375 -0.203125 0.25q0 0.140625 0.265625 0.28125q0.21875 0.109375 0.9375 0.203125q1.328125 0.1875 1.84375 0.375q0.6875 0.234375 1.046875 0.71875q0.375 0.46875 0.375 1.0q0 0.703125 -0.625 1.1875q-0.90625 0.703125 -2.34375 0.703125q-0.578125 0 -1.078125 -0.109375q-0.484375 -0.09375 -0.890625 -0.296875q-0.109375 0.09375 -0.21875 0.140625q-0.109375 0.046875 -0.21875 0.046875q-0.3125 0 -0.5 -0.203125q-0.1875 -0.21875 -0.1875 -0.6875l0 -0.453125q0 -0.484375 0.1875 -0.6875q0.1875 -0.203125 0.484375 -0.203125q0.234375 0 0.390625 0.140625q0.171875 0.125 0.265625 0.453125q0.296875 0.25 0.71875 0.390625q0.4375 0.125 1.0 0.125q0.921875 0 1.421875 -0.28125q0.25 -0.140625 0.25 -0.296875q0 -0.265625 -0.34375 -0.4375q-0.34375 -0.15625 -1.421875 -0.28125q-1.609375 -0.171875 -2.15625 -0.65625q-0.53125 -0.46875 -0.53125 -1.171875q0 -0.703125 0.59375 -1.1875q0.828125 -0.640625 2.15625 -0.640625q0.453125 0 0.875 0.09375q0.4375 0.078125 0.828125 0.25q0.125 -0.078125 0.234375 -0.125q0.109375 -0.046875 0.1875 -0.046875q0.28125 0 0.453125 0.203125q0.1875 0.203125 0.1875 0.6875l0 0.328125q0 0.4375 -0.09375 0.59375q-0.21875 0.296875 -0.578125 0.296875q-0.234375 0 -0.421875 -0.140625q-0.171875 -0.15625 -0.234375 -0.40625zm7.045059 -4.09375l0 1.40625l-1.59375 0l0 -1.40625l1.59375 0zm0.171875 2.53125l0 4.578125l1.609375 0q0.46875 0 0.671875 0.1875q0.21875 0.171875 0.21875 0.484375q0 0.28125 -0.21875 0.46875q-0.203125 0.1875 -0.671875 0.1875l-4.546875 0q-0.46875 0 -0.6875 -0.1875q-0.203125 -0.1875 -0.203125 -0.484375q0 -0.296875 0.203125 -0.46875q0.21875 -0.1875 0.6875 -0.1875l1.609375 0l0 -3.25l-1.078125 0q-0.46875 0 -0.6875 -0.1875q-0.203125 -0.1875 -0.203125 -0.484375q0 -0.28125 0.203125 -0.46875q0.203125 -0.1875 0.6875 -0.1875l2.40625 0zm7.013809 1.328125l0 2.671875q0 0.4375 0.171875 0.578125q0.28125 0.203125 0.984375 0.203125q1.015625 0 1.875 -0.4375q0.34375 -0.15625 0.53125 -0.15625q0.25 0 0.4375 0.203125q0.203125 0.1875 0.203125 0.46875q0 0.25 -0.203125 0.4375q-0.328125 0.3125 -1.265625 0.578125q-0.9375 0.25 -1.578125 0.25q-1.25 0 -1.875 -0.53125q-0.609375 -0.546875 -0.609375 -1.328125l0 -2.9375l-0.484375 0q-0.484375 0 -0.6875 -0.1875q-0.203125 -0.1875 -0.203125 -0.484375q0 -0.28125 0.203125 -0.46875q0.203125 -0.1875 0.6875 -0.1875l0.484375 0l0 -1.203125q0 -0.484375 0.171875 -0.6875q0.1875 -0.203125 0.484375 -0.203125q0.296875 0 0.484375 0.203125q0.1875 0.203125 0.1875 0.6875l0 1.203125l2.46875 0q0.484375 0 0.6875 0.1875q0.203125 0.1875 0.203125 0.484375q0 0.28125 -0.203125 0.46875q-0.203125 0.1875 -0.6875 0.1875l-2.46875 0zm11.795059 1.734375q0 0.765625 -0.4375 1.484375q-0.421875 0.71875 -1.265625 1.15625q-0.84375 0.421875 -1.75 0.421875q-0.921875 0 -1.75 -0.421875q-0.828125 -0.421875 -1.265625 -1.140625q-0.4375 -0.71875 -0.4375 -1.515625q0 -0.796875 0.4375 -1.5625q0.4375 -0.78125 1.265625 -1.21875q0.84375 -0.4375 1.75 -0.4375q0.90625 0 1.75 0.453125q0.84375 0.4375 1.265625 1.203125q0.4375 0.765625 0.4375 1.578125zm-1.34375 0q0 -0.640625 -0.453125 -1.171875q-0.640625 -0.734375 -1.65625 -0.734375q-0.90625 0 -1.515625 0.578125q-0.609375 0.578125 -0.609375 1.34375q0 0.625 0.609375 1.171875q0.625 0.53125 1.515625 0.53125q0.890625 0 1.5 -0.53125q0.609375 -0.546875 0.609375 -1.1875zm5.591934 -3.0625l0 0.828125q0.84375 -0.609375 1.328125 -0.796875q0.484375 -0.203125 0.90625 -0.203125q0.65625 0 1.265625 0.46875q0.421875 0.328125 0.421875 0.671875q0 0.28125 -0.203125 0.484375q-0.203125 0.203125 -0.484375 0.203125q-0.25 0 -0.53125 -0.25q-0.265625 -0.25 -0.46875 -0.25q-0.28125 0 -0.84375 0.359375q-0.546875 0.34375 -1.390625 1.046875l0 2.015625l1.90625 0q0.484375 0 0.6875 0.1875q0.203125 0.171875 0.203125 0.484375q0 0.28125 -0.203125 0.46875q-0.203125 0.1875 -0.6875 0.1875l-4.03125 0q-0.484375 0 -0.6875 -0.1875q-0.203125 -0.1875 -0.203125 -0.484375q0 -0.296875 0.203125 -0.46875q0.203125 -0.1875 0.6875 -0.1875l0.796875 0l0 -3.25l-0.484375 0q-0.484375 0 -0.6875 -0.1875q-0.203125 -0.1875 -0.203125 -0.484375q0 -0.28125 0.203125 -0.46875q0.203125 -0.1875 0.6875 -0.1875l1.8125 0zm7.529434 5.859375l-2.3125 -4.53125q-0.3125 -0.03125 -0.484375 -0.21875q-0.171875 -0.1875 -0.171875 -0.4375q0 -0.296875 0.203125 -0.484375q0.203125 -0.1875 0.6875 -0.1875l1.21875 0q0.484375 0 0.6875 0.1875q0.203125 0.1875 0.203125 0.484375q0 0.28125 -0.203125 0.46875q-0.203125 0.1875 -0.65625 0.1875l1.578125 3.0625l1.5625 -3.0625q-0.421875 0 -0.640625 -0.1875q-0.203125 -0.1875 -0.203125 -0.484375q0 -0.28125 0.203125 -0.46875q0.21875 -0.1875 0.6875 -0.1875l1.265625 0q0.46875 0 0.671875 0.1875q0.203125 0.1875 0.203125 0.484375q0 0.265625 -0.171875 0.453125q-0.171875 0.1875 -0.515625 0.203125l-3.0625 6.03125q0.5 0 0.65625 0.09375q0.3125 0.203125 0.3125 0.578125q0 0.296875 -0.203125 0.46875q-0.203125 0.1875 -0.6875 0.1875l-2.90625 0q-0.484375 0 -0.6875 -0.1875q-0.203125 -0.171875 -0.203125 -0.46875q0 -0.296875 0.203125 -0.484375q0.203125 -0.1875 0.6875 -0.1875l1.328125 0l0.75 -1.5z" fill-rule="nonzero"/><path fill="#ebe3fd" d="m70.6105 108.70639l0 23.65355l21.937012 0l-10.753281 -11.611549l10.753281 -12.042z" fill-rule="evenodd"/><path stroke="#8b6bda" stroke-width="3.0" stroke-linejoin="round" stroke-linecap="butt" d="m70.6105 108.70639l0 23.65355l21.937012 0l-10.753281 -11.611549l10.753281 -12.042z" fill-rule="evenodd"/><path fill="#000000" fill-opacity="0.0" d="m106.044624 83.062996l91.81103 0l0 18.960625l-91.81103 0z" fill-rule="evenodd"/><path fill="#000000" d="m112.31025 89.116745l0 4.96875l1.125 0q0.328125 0 0.46875 0.140625q0.15625 0.125 0.15625 0.328125q0 0.203125 -0.15625 0.34375q-0.140625 0.125 -0.46875 0.125l-3.171875 0q-0.34375 0 -0.484375 -0.125q-0.140625 -0.140625 -0.140625 -0.34375q0 -0.203125 0.140625 -0.328125q0.140625 -0.140625 0.484375 -0.140625l1.109375 0l0 -4.03125l-0.75 0q-0.328125 0 -0.484375 -0.125q-0.140625 -0.140625 -0.140625 -0.34375q0 -0.203125 0.140625 -0.328125q0.15625 -0.140625 0.484375 -0.140625l1.6875 0zm7.5509186 3.921875q0 0.53125 -0.296875 1.03125q-0.296875 0.5 -0.890625 0.8125q-0.578125 0.296875 -1.21875 0.296875q-0.640625 0 -1.234375 -0.296875q-0.578125 -0.296875 -0.890625 -0.796875q-0.296875 -0.515625 -0.296875 -1.0625q0 -0.5625 0.3125 -1.09375q0.3125 -0.546875 0.890625 -0.859375q0.578125 -0.3125 1.21875 -0.3125q0.625 0 1.21875 0.328125q0.59375 0.3125 0.890625 0.84375q0.296875 0.53125 0.296875 1.109375zm-0.921875 0q0 -0.453125 -0.328125 -0.828125q-0.4375 -0.515625 -1.15625 -0.515625q-0.640625 0 -1.0625 0.40625q-0.421875 0.40625 -0.421875 0.9375q0 0.4375 0.421875 0.828125q0.4375 0.375 1.0625 0.375q0.625 0 1.046875 -0.375q0.4375 -0.390625 0.4375 -0.828125zm5.5509186 -1.984375q0.171875 -0.15625 0.34375 -0.15625q0.203125 0 0.328125 0.140625q0.140625 0.140625 0.140625 0.484375l0 0.59375q0 0.34375 -0.140625 0.484375q-0.125 0.140625 -0.328125 0.140625q-0.1875 0 -0.328125 -0.109375q-0.09375 -0.09375 -0.15625 -0.34375q-0.046875 -0.25 -0.25 -0.375q-0.375 -0.21875 -0.953125 -0.21875q-0.65625 0 -1.0625 0.390625q-0.390625 0.390625 -0.390625 0.984375q0 0.546875 0.375 0.859375q0.390625 0.3125 1.28125 0.3125q0.578125 0 0.953125 -0.109375q0.21875 -0.078125 0.40625 -0.25q0.203125 -0.1875 0.359375 -0.1875q0.1875 0 0.328125 0.15625q0.140625 0.140625 0.140625 0.328125q0 0.3125 -0.421875 0.578125q-0.625 0.421875 -1.84375 0.421875q-1.09375 0 -1.6875 -0.453125q-0.828125 -0.609375 -0.828125 -1.65625q0 -1.0 0.65625 -1.65625q0.671875 -0.65625 1.75 -0.65625q0.390625 0 0.71875 0.078125q0.328125 0.078125 0.609375 0.21875zm4.988411 3.96875l0 -0.21875q-0.359375 0.1875 -0.78125 0.28125q-0.421875 0.09375 -0.7656174 0.09375q-0.75 0 -1.21875 -0.390625q-0.46875 -0.40625 -0.46875 -0.890625q0 -0.59375 0.59375 -1.09375q0.609375 -0.5 1.6562424 -0.5q0.421875 0 0.984375 0.09375l0 -0.21875q0 -0.21875 -0.1875 -0.34375q-0.171875 -0.140625 -0.671875 -0.140625q-0.421875 0 -1.0781174 0.171875q-0.25 0.046875 -0.390625 0.046875q-0.1875 0 -0.3125 -0.125q-0.125 -0.140625 -0.125 -0.34375q0 -0.125 0.046875 -0.203125q0.046875 -0.09375 0.125 -0.140625q0.078125 -0.046875 0.34375 -0.125q0.34375 -0.09375 0.703125 -0.15625q0.35936737 -0.0625 0.6406174 -0.0625q0.875 0 1.359375 0.390625q0.484375 0.375 0.484375 1.015625l0 1.921875l0.15625 0q0.328125 0 0.46875 0.140625q0.15625 0.125 0.15625 0.328125q0 0.203125 -0.15625 0.34375q-0.140625 0.125 -0.46875 0.125l-1.09375 0zm0 -1.671875q-0.5625 -0.109375 -1.03125 -0.109375q-0.5781174 0 -0.9843674 0.28125q-0.25 0.171875 -0.25 0.359375q0 0.125 0.125 0.21875q0.21875 0.140625 0.625 0.140625q0.32811737 0 0.7499924 -0.125q0.4375 -0.140625 0.765625 -0.359375l0 -0.40625zm4.5196686 -1.53125l0 1.875q0 0.296875 0.125 0.390625q0.203125 0.15625 0.6875 0.15625q0.71875 0 1.328125 -0.3125q0.21875 -0.109375 0.359375 -0.109375q0.1875 0 0.3125 0.140625q0.140625 0.125 0.140625 0.328125q0 0.171875 -0.15625 0.3125q-0.21875 0.21875 -0.875 0.40625q-0.65625 0.171875 -1.109375 0.171875q-0.875 0 -1.3125 -0.375q-0.421875 -0.375 -0.421875 -0.921875l0 -2.0625l-0.34375 0q-0.328125 0 -0.484375 -0.125q-0.140625 -0.140625 -0.140625 -0.34375q0 -0.203125 0.140625 -0.328125q0.15625 -0.140625 0.484375 -0.140625l0.34375 0l0 -0.84375q0 -0.328125 0.125 -0.46875q0.125 -0.15625 0.34375 -0.15625q0.203125 0 0.328125 0.15625q0.125 0.140625 0.125 0.46875l0 0.84375l1.734375 0q0.328125 0 0.46875 0.140625q0.15625 0.125 0.15625 0.328125q0 0.203125 -0.15625 0.34375q-0.140625 0.125 -0.46875 0.125l-1.734375 0zm6.1759186 -2.703125l0 0.984375l-1.125 0l0 -0.984375l1.125 0zm0.125 1.765625l0 3.203125l1.109375 0q0.34375 0 0.484375 0.140625q0.140625 0.125 0.140625 0.328125q0 0.203125 -0.140625 0.34375q-0.140625 0.125 -0.484375 0.125l-3.171875 0q-0.328125 0 -0.484375 -0.125q-0.140625 -0.140625 -0.140625 -0.34375q0 -0.203125 0.140625 -0.328125q0.15625 -0.140625 0.484375 -0.140625l1.125 0l0 -2.265625l-0.75 0q-0.328125 0 -0.484375 -0.125q-0.140625 -0.140625 -0.140625 -0.34375q0 -0.203125 0.140625 -0.328125q0.140625 -0.140625 0.484375 -0.140625l1.6875 0zm7.5509186 2.15625q0 0.53125 -0.296875 1.03125q-0.296875 0.5 -0.890625 0.8125q-0.578125 0.296875 -1.21875 0.296875q-0.640625 0 -1.234375 -0.296875q-0.578125 -0.296875 -0.890625 -0.796875q-0.296875 -0.515625 -0.296875 -1.0625q0 -0.5625 0.3125 -1.09375q0.3125 -0.546875 0.890625 -0.859375q0.578125 -0.3125 1.21875 -0.3125q0.625 0 1.21875 0.328125q0.59375 0.3125 0.890625 0.84375q0.296875 0.53125 0.296875 1.109375zm-0.921875 0q0 -0.453125 -0.328125 -0.828125q-0.4375 -0.515625 -1.15625 -0.515625q-0.640625 0 -1.0625 0.40625q-0.421875 0.40625 -0.421875 0.9375q0 0.4375 0.421875 0.828125q0.4375 0.375 1.0625 0.375q0.625 0 1.046875 -0.375q0.4375 -0.390625 0.4375 -0.828125zm3.1602936 -2.15625l0 0.3125q0.25 -0.21875 0.546875 -0.328125q0.3125 -0.109375 0.671875 -0.109375q0.828125 0 1.3125 0.515625q0.390625 0.421875 0.390625 1.078125l0 1.734375q0.296875 0 0.4375 0.140625q0.140625 0.125 0.140625 0.328125q0 0.203125 -0.15625 0.34375q-0.140625 0.125 -0.46875 0.125l-0.84375 0q-0.34375 0 -0.484375 -0.125q-0.140625 -0.140625 -0.140625 -0.34375q0 -0.203125 0.140625 -0.328125q0.140625 -0.140625 0.4375 -0.140625l0 -1.765625q0 -0.296875 -0.15625 -0.4375q-0.21875 -0.1875 -0.65625 -0.1875q-0.3125 0 -0.5625 0.125q-0.234375 0.125 -0.609375 0.53125l0 1.734375q0.359375 0 0.453125 0.078125q0.234375 0.125 0.234375 0.390625q0 0.203125 -0.15625 0.34375q-0.140625 0.125 -0.46875 0.125l-1.0625 0q-0.34375 0 -0.484375 -0.125q-0.140625 -0.140625 -0.140625 -0.34375q0 -0.25 0.21875 -0.390625q0.109375 -0.078125 0.46875 -0.078125l0 -2.265625q-0.296875 0 -0.4375 -0.125q-0.140625 -0.140625 -0.140625 -0.34375q0 -0.203125 0.140625 -0.328125q0.140625 -0.140625 0.484375 -0.140625l0.890625 0zm7.6759186 2.640625l-2.265625 0l-0.234375 0.5625l0.234375 0q0.34375 0 0.484375 0.140625q0.140625 0.125 0.140625 0.328125q0 0.203125 -0.140625 0.34375q-0.140625 0.125 -0.484375 0.125l-1.25 0q-0.34375 0 -0.484375 -0.125q-0.140625 -0.140625 -0.140625 -0.34375q0 -0.203125 0.15625 -0.328125q0.140625 -0.140625 0.484375 -0.140625l1.46875 -3.65625l-0.609375 0q-0.34375 0 -0.484375 -0.125q-0.140625 -0.125 -0.140625 -0.34375q0 -0.203125 0.140625 -0.328125q0.140625 -0.140625 0.484375 -0.140625l2.015625 0.015625l1.859375 4.578125q0.328125 0 0.4375 0.078125q0.203125 0.15625 0.203125 0.390625q0 0.203125 -0.140625 0.34375q-0.140625 0.125 -0.484375 0.125l-1.25 0q-0.34375 0 -0.484375 -0.125q-0.140625 -0.140625 -0.140625 -0.34375q0 -0.203125 0.140625 -0.328125q0.140625 -0.140625 0.484375 -0.140625l0.21875 0l-0.21875 -0.5625zm-0.390625 -0.9375l-0.75 -1.84375l-0.75 1.84375l1.5 0zm6.9884186 -3.46875l0 4.96875l0.15625 0q0.34375 0 0.484375 0.140625q0.140625 0.125 0.140625 0.328125q0 0.203125 -0.140625 0.34375q-0.140625 0.125 -0.484375 0.125l-1.078125 0l0 -0.234375q-0.328125 0.1875 -0.671875 0.28125q-0.34375 0.109375 -0.71875 0.109375q-1.0625 0 -1.703125 -0.609375q-0.640625 -0.609375 -0.640625 -1.515625q0 -0.953125 0.671875 -1.625q0.671875 -0.671875 1.640625 -0.671875q0.375 0 0.71875 0.125q0.359375 0.109375 0.703125 0.328125l0 -1.15625l-0.171875 0q-0.328125 0 -0.484375 -0.125q-0.140625 -0.140625 -0.140625 -0.34375q0 -0.203125 0.140625 -0.328125q0.15625 -0.140625 0.484375 -0.140625l1.09375 0zm-0.921875 3.96875q0 -0.578125 -0.40625 -0.984375q-0.40625 -0.40625 -1.0 -0.40625q-0.578125 0 -0.984375 0.40625q-0.40625 0.40625 -0.40625 0.96875q0 0.515625 0.359375 0.84375q0.359375 0.328125 1.03125 0.328125q0.65625 0 1.03125 -0.328125q0.375 -0.328125 0.375 -0.828125zm6.5196686 -3.96875l0 4.96875l0.15625 0q0.34375 0 0.484375 0.140625q0.140625 0.125 0.140625 0.328125q0 0.203125 -0.140625 0.34375q-0.140625 0.125 -0.484375 0.125l-1.078125 0l0 -0.234375q-0.328125 0.1875 -0.671875 0.28125q-0.34375 0.109375 -0.71875 0.109375q-1.0625 0 -1.703125 -0.609375q-0.640625 -0.609375 -0.640625 -1.515625q0 -0.953125 0.671875 -1.625q0.671875 -0.671875 1.640625 -0.671875q0.375 0 0.71875 0.125q0.359375 0.109375 0.703125 0.328125l0 -1.15625l-0.171875 0q-0.328125 0 -0.484375 -0.125q-0.140625 -0.140625 -0.140625 -0.34375q0 -0.203125 0.140625 -0.328125q0.15625 -0.140625 0.484375 -0.140625l1.09375 0zm-0.921875 3.96875q0 -0.578125 -0.40625 -0.984375q-0.40625 -0.40625 -1.0 -0.40625q-0.578125 0 -0.984375 0.40625q-0.40625 0.40625 -0.40625 0.96875q0 0.515625 0.359375 0.84375q0.359375 0.328125 1.03125 0.328125q0.65625 0 1.03125 -0.328125q0.375 -0.328125 0.375 -0.828125zm4.1915436 -2.203125l0 0.59375q0.578125 -0.421875 0.921875 -0.5625q0.34375 -0.15625 0.640625 -0.15625q0.453125 0 0.875 0.34375q0.296875 0.234375 0.296875 0.46875q0 0.203125 -0.140625 0.34375q-0.140625 0.125 -0.328125 0.125q-0.171875 0 -0.375 -0.171875q-0.1875 -0.171875 -0.34375 -0.171875q-0.1875 0 -0.578125 0.25q-0.390625 0.25 -0.96875 0.734375l0 1.40625l1.328125 0q0.328125 0 0.46875 0.140625q0.15625 0.125 0.15625 0.328125q0 0.203125 -0.15625 0.34375q-0.140625 0.125 -0.46875 0.125l-2.828125 0q-0.328125 0 -0.484375 -0.125q-0.140625 -0.140625 -0.140625 -0.34375q0 -0.203125 0.140625 -0.328125q0.15625 -0.140625 0.484375 -0.140625l0.5625 0l0 -2.265625l-0.34375 0q-0.328125 0 -0.484375 -0.125q-0.140625 -0.140625 -0.140625 -0.34375q0 -0.203125 0.140625 -0.328125q0.15625 -0.140625 0.484375 -0.140625l1.28125 0zm8.129044 2.546875l-3.828125 0q0.140625 0.359375 0.515625 0.59375q0.375 0.21875 1.0 0.21875q0.53125 0 1.390625 -0.21875q0.34375 -0.09375 0.484375 -0.09375q0.1875 0 0.3125 0.140625q0.125 0.125 0.125 0.3125q0 0.1875 -0.125 0.3125q-0.1875 0.171875 -0.890625 0.328125q-0.703125 0.15625 -1.359375 0.15625q-1.125 0 -1.796875 -0.625q-0.671875 -0.640625 -0.671875 -1.578125q0 -0.984375 0.71875 -1.59375q0.734375 -0.625 1.6875 -0.625q0.5625 0 1.03125 0.203125q0.484375 0.203125 0.71875 0.4375q0.328125 0.34375 0.546875 0.828125q0.140625 0.34375 0.140625 0.8125l0 0.390625zm-1.03125 -0.9375q-0.21875 -0.390625 -0.5625 -0.59375q-0.34375 -0.203125 -0.828125 -0.203125q-0.46875 0 -0.8125 0.203125q-0.34375 0.203125 -0.5625 0.59375l2.765625 0zm5.3009186 -0.515625q-0.234375 -0.140625 -0.484375 -0.203125q-0.25 -0.078125 -0.515625 -0.078125q-0.546875 0 -0.875 0.1875q-0.140625 0.078125 -0.140625 0.15625q0 0.109375 0.203125 0.203125q0.140625 0.078125 0.640625 0.15625q0.9375 0.125 1.296875 0.25q0.484375 0.171875 0.734375 0.5q0.265625 0.328125 0.265625 0.703125q0 0.5 -0.4375 0.828125q-0.640625 0.5 -1.65625 0.5q-0.390625 0 -0.734375 -0.078125q-0.34375 -0.0625 -0.640625 -0.203125q-0.0625 0.0625 -0.140625 0.09375q-0.078125 0.03125 -0.15625 0.03125q-0.21875 0 -0.359375 -0.140625q-0.125 -0.15625 -0.125 -0.484375l0 -0.3125q0 -0.34375 0.125 -0.484375q0.140625 -0.140625 0.34375 -0.140625q0.171875 0 0.28125 0.09375q0.109375 0.09375 0.171875 0.3125q0.21875 0.1875 0.515625 0.28125q0.3125 0.09375 0.703125 0.09375q0.640625 0 1.0 -0.203125q0.15625 -0.09375 0.15625 -0.203125q0 -0.1875 -0.234375 -0.3125q-0.25 -0.109375 -1.0 -0.1875q-1.125 -0.125 -1.5 -0.46875q-0.375 -0.328125 -0.375 -0.8125q0 -0.5 0.421875 -0.828125q0.578125 -0.46875 1.5 -0.46875q0.328125 0 0.625 0.0625q0.296875 0.0625 0.5625 0.1875q0.09375 -0.0625 0.171875 -0.09375q0.078125 -0.03125 0.140625 -0.03125q0.1875 0 0.3125 0.15625q0.125 0.140625 0.125 0.46875l0 0.234375q0 0.296875 -0.0625 0.40625q-0.15625 0.21875 -0.40625 0.21875q-0.171875 0 -0.296875 -0.109375q-0.125 -0.109375 -0.15625 -0.28125zm5.5977936 0q-0.234375 -0.140625 -0.484375 -0.203125q-0.25 -0.078125 -0.515625 -0.078125q-0.546875 0 -0.875 0.1875q-0.140625 0.078125 -0.140625 0.15625q0 0.109375 0.203125 0.203125q0.140625 0.078125 0.640625 0.15625q0.9375 0.125 1.296875 0.25q0.484375 0.171875 0.734375 0.5q0.265625 0.328125 0.265625 0.703125q0 0.5 -0.4375 0.828125q-0.640625 0.5 -1.65625 0.5q-0.390625 0 -0.734375 -0.078125q-0.34375 -0.0625 -0.640625 -0.203125q-0.0625 0.0625 -0.140625 0.09375q-0.078125 0.03125 -0.15625 0.03125q-0.21875 0 -0.359375 -0.140625q-0.125 -0.15625 -0.125 -0.484375l0 -0.3125q0 -0.34375 0.125 -0.484375q0.140625 -0.140625 0.34375 -0.140625q0.171875 0 0.28125 0.09375q0.109375 0.09375 0.171875 0.3125q0.21875 0.1875 0.515625 0.28125q0.3125 0.09375 0.703125 0.09375q0.640625 0 1.0 -0.203125q0.15625 -0.09375 0.15625 -0.203125q0 -0.1875 -0.234375 -0.3125q-0.25 -0.109375 -1.0 -0.1875q-1.125 -0.125 -1.5 -0.46875q-0.375 -0.328125 -0.375 -0.8125q0 -0.5 0.421875 -0.828125q0.578125 -0.46875 1.5 -0.46875q0.328125 0 0.625 0.0625q0.296875 0.0625 0.5625 0.1875q0.09375 -0.0625 0.171875 -0.09375q0.078125 -0.03125 0.140625 -0.03125q0.1875 0 0.3125 0.15625q0.125 0.140625 0.125 0.46875l0 0.234375q0 0.296875 -0.0625 0.40625q-0.15625 0.21875 -0.40625 0.21875q-0.171875 0 -0.296875 -0.109375q-0.125 -0.109375 -0.15625 -0.28125z" fill-rule="nonzero"/></g></svg>