<svg version="1.1" viewBox="0.0 0.0 323.1496062992126 91.46456692913385" fill="none" stroke="none" stroke-linecap="square" stroke-miterlimit="10" xmlns:xlink="http://www.w3.org/1999/xlink" xmlns="http://www.w3.org/2000/svg"><clipPath id="p.0"><path d="m0 0l323.1496 0l0 91.46457l-323.1496 0l0 -91.46457z" clip-rule="nonzero"/></clipPath><g clip-path="url(#p.0)"><path fill="#000000" fill-opacity="0.0" d="m0 0l323.1496 0l0 91.46457l-323.1496 0z" fill-rule="evenodd"/><path fill="#000000" fill-opacity="0.0" d="m231.99338 31.475664l-145.35432 -0.062992096" fill-rule="evenodd"/><path stroke="#000000" stroke-width="3.0" stroke-linejoin="round" stroke-linecap="butt" stroke-dasharray="12.0,9.0" d="m231.99338 31.475666l-127.354324 -0.055192947" fill-rule="evenodd"/><path stroke="#000000" stroke-width="3.0" stroke-linecap="butt" d="m104.641205 26.465277l-13.61644 4.949297l13.612144 4.9610977z" fill-rule="evenodd"/><path fill="#cfe2f3" d="m231.99338 31.475664l0 0c0 -15.664013 12.204651 -28.362204 27.259857 -28.362204l0 0c7.2297363 0 14.163391 2.9881523 19.275604 8.307097c5.112213 5.318945 7.9842224 12.532984 7.9842224 20.055107l0 0c0 15.664015 -12.204651 28.362204 -27.259827 28.362204l0 0c-15.055206 0 -27.259857 -12.698189 -27.259857 -28.362204z" fill-rule="evenodd"/><path stroke="#4e8aeb" stroke-width="3.0" stroke-linejoin="round" stroke-linecap="butt" d="m231.99338 31.475664l0 0c0 -15.664013 12.204651 -28.362204 27.259857 -28.362204l0 0c7.2297363 0 14.163391 2.9881523 19.275604 8.307097c5.112213 5.318945 7.9842224 12.532984 7.9842224 20.055107l0 0c0 15.664015 -12.204651 28.362204 -27.259827 28.362204l0 0c-15.055206 0 -27.259857 -12.698189 -27.259857 -28.362204z" fill-rule="evenodd"/><path fill="#cfe2f3" d="m276.11383 40.253784l0 0c-3.8216858 8.244152 -12.474274 12.675976 -20.972733 10.742157c-8.498444 -1.933815 -14.653778 -9.735172 -14.919708 -18.909462c-0.26593018 -9.174286 5.4260406 -17.358437 13.796585 -19.8373c8.370544 -2.4788637 17.263641 1.3860502 21.555664 9.368045l-8.601135 5.1553555c-1.9510803 -4.07251 -6.150482 -6.1087666 -10.141632 -4.9175854c-3.99115 1.1911793 -6.7253723 5.2968216 -6.603195 9.915178c0.122177124 4.618355 3.0686493 8.535984 7.1157684 9.461117c4.0471497 0.92513657 8.131561 -1.385292 9.863953 -5.579712z" fill-rule="evenodd"/><path stroke="#4e8aeb" stroke-width="3.0" stroke-linejoin="round" stroke-linecap="butt" d="m276.11383 40.253784l0 0c-3.8216858 8.244152 -12.474274 12.675976 -20.972733 10.742157c-8.498444 -1.933815 -14.653778 -9.735172 -14.919708 -18.909462c-0.26593018 -9.174286 5.4260406 -17.358437 13.796585 -19.8373c8.370544 -2.4788637 17.263641 1.3860502 21.555664 9.368045l-8.601135 5.1553555c-1.9510803 -4.07251 -6.150482 -6.1087666 -10.141632 -4.9175854c-3.99115 1.1911793 -6.7253723 5.2968216 -6.603195 9.915178c0.122177124 4.618355 3.0686493 8.535984 7.1157684 9.461117c4.0471497 0.92513657 8.131561 -1.385292 9.863953 -5.579712z" fill-rule="evenodd"/><path fill="#000000" fill-opacity="0.0" d="m202.96063 63.11811l117.25983 0l0 25.70079l-117.25983 0z" fill-rule="evenodd"/><path fill="#000000" d="m207.5095 79.605606l0 3.984375l0.484375 0q0.484375 0 0.6875 0.1875q0.203125 0.171875 0.203125 0.484375q0 0.28125 -0.203125 0.46875q-0.203125 0.1875 -0.6875 0.1875l-1.75 0q-0.484375 0 -0.6875 -0.1875q-0.203125 -0.1875 -0.203125 -0.484375q0 -0.296875 0.203125 -0.46875q0.203125 -0.1875 0.625 -0.1875l0 -5.21875q-0.34375 -0.046875 -0.53125 -0.21875q-0.171875 -0.1875 -0.171875 -0.453125q0 -0.296875 0.203125 -0.484375q0.203125 -0.1875 0.6875 -0.1875l1.453125 0l1.828125 4.015625l1.78125 -4.015625l1.46875 0q0.484375 0 0.6875 0.1875q0.203125 0.1875 0.203125 0.484375q0 0.265625 -0.1875 0.453125q-0.171875 0.171875 -0.515625 0.21875l0 5.21875q0.421875 0 0.625 0.1875q0.203125 0.1875 0.203125 0.484375q0 0.28125 -0.203125 0.46875q-0.203125 0.1875 -0.6875 0.1875l-1.765625 0q-0.46875 0 -0.671875 -0.1875q-0.203125 -0.1875 -0.203125 -0.484375q0 -0.296875 0.203125 -0.46875q0.203125 -0.1875 0.671875 -0.1875l0.5 0l0 -3.984375l-1.53125 3.4375l-1.15625 0l-1.5625 -3.4375zm11.295059 5.3125l0 -0.3125q-0.5 0.265625 -1.109375 0.390625q-0.609375 0.140625 -1.09375 0.140625q-1.078125 0 -1.75 -0.5625q-0.671875 -0.578125 -0.671875 -1.265625q0 -0.84375 0.859375 -1.5625q0.859375 -0.71875 2.359375 -0.71875q0.609375 0 1.40625 0.140625l0 -0.328125q0 -0.296875 -0.265625 -0.484375q-0.25 -0.1875 -0.96875 -0.1875q-0.59375 0 -1.546875 0.234375q-0.34375 0.078125 -0.546875 0.078125q-0.265625 0 -0.453125 -0.1875q-0.171875 -0.1875 -0.171875 -0.484375q0 -0.171875 0.0625 -0.296875q0.0625 -0.125 0.171875 -0.203125q0.125 -0.078125 0.5 -0.171875q0.484375 -0.140625 1.0 -0.21875q0.515625 -0.078125 0.9375 -0.078125q1.234375 0 1.921875 0.53125q0.6875 0.53125 0.6875 1.46875l0 2.75l0.234375 0q0.484375 0 0.6875 0.1875q0.203125 0.171875 0.203125 0.484375q0 0.28125 -0.203125 0.46875q-0.203125 0.1875 -0.6875 0.1875l-1.5625 0zm0 -2.390625q-0.796875 -0.15625 -1.484375 -0.15625q-0.8125 0 -1.390625 0.40625q-0.375 0.25 -0.375 0.5q0 0.203125 0.1875 0.3125q0.3125 0.21875 0.890625 0.21875q0.46875 0 1.078125 -0.1875q0.609375 -0.1875 1.09375 -0.515625l0 -0.578125zm7.279434 -6.046875l0 1.40625l-1.59375 0l0 -1.40625l1.59375 0zm0.171875 2.53125l0 4.578125l1.609375 0q0.46875 0 0.671875 0.1875q0.21875 0.171875 0.21875 0.484375q0 0.28125 -0.21875 0.46875q-0.203125 0.1875 -0.671875 0.1875l-4.546875 0q-0.46875 0 -0.6875 -0.1875q-0.203125 -0.1875 -0.203125 -0.484375q0 -0.296875 0.203125 -0.46875q0.21875 -0.1875 0.6875 -0.1875l1.609375 0l0 -3.25l-1.078125 0q-0.46875 0 -0.6875 -0.1875q-0.203125 -0.1875 -0.203125 -0.484375q0 -0.28125 0.203125 -0.46875q0.203125 -0.1875 0.6875 -0.1875l2.40625 0zm5.998184 0l0 0.453125q0.359375 -0.3125 0.796875 -0.46875q0.4375 -0.15625 0.953125 -0.15625q1.1875 0 1.875 0.734375q0.546875 0.578125 0.546875 1.53125l0 2.484375q0.421875 0 0.625 0.1875q0.203125 0.171875 0.203125 0.484375q0 0.28125 -0.203125 0.46875q-0.203125 0.1875 -0.6875 0.1875l-1.203125 0q-0.484375 0 -0.6875 -0.1875q-0.203125 -0.1875 -0.203125 -0.484375q0 -0.296875 0.1875 -0.46875q0.203125 -0.1875 0.640625 -0.1875l0 -2.53125q0 -0.421875 -0.234375 -0.625q-0.3125 -0.265625 -0.921875 -0.265625q-0.46875 0 -0.8125 0.1875q-0.34375 0.171875 -0.875 0.75l0 2.484375q0.5 0 0.65625 0.09375q0.3125 0.1875 0.3125 0.578125q0 0.28125 -0.203125 0.46875q-0.203125 0.1875 -0.6875 0.1875l-1.515625 0q-0.484375 0 -0.6875 -0.1875q-0.203125 -0.1875 -0.203125 -0.484375q0 -0.359375 0.3125 -0.5625q0.15625 -0.09375 0.671875 -0.09375l0 -3.25q-0.421875 0 -0.625 -0.1875q-0.203125 -0.1875 -0.203125 -0.484375q0 -0.28125 0.203125 -0.46875q0.203125 -0.1875 0.6875 -0.1875l1.28125 0zm7.966934 2.890625l0 1.6875l0.484375 0q0.46875 0 0.671875 0.1875q0.21875 0.171875 0.21875 0.484375q0 0.28125 -0.21875 0.46875q-0.203125 0.1875 -0.671875 0.1875l-2.03125 0q-0.484375 0 -0.6875 -0.1875q-0.203125 -0.1875 -0.203125 -0.484375q0 -0.296875 0.203125 -0.46875q0.21875 -0.1875 0.6875 -0.1875l0.203125 0l0 -5.21875l-0.203125 0q-0.484375 0 -0.6875 -0.1875q-0.203125 -0.1875 -0.203125 -0.484375q0 -0.296875 0.203125 -0.484375q0.203125 -0.1875 0.6875 -0.1875l3.015625 0q1.421875 0 2.1875 0.703125q0.78125 0.703125 0.78125 1.703125q0 0.625 -0.359375 1.140625q-0.359375 0.5 -1.09375 0.90625q0.421875 0.359375 0.90625 0.9375q0.296875 0.375 0.796875 1.171875q0.515625 0 0.671875 0.09375q0.296875 0.203125 0.296875 0.578125q0 0.28125 -0.203125 0.46875q-0.203125 0.1875 -0.6875 0.1875l-0.765625 0q-1.609375 -2.5 -2.6875 -3.015625l-1.3125 0zm0 -1.328125l1.03125 0q0.59375 0 1.046875 -0.171875q0.609375 -0.234375 0.8125 -0.5q0.21875 -0.265625 0.21875 -0.515625q0 -0.375 -0.40625 -0.6875q-0.40625 -0.328125 -1.171875 -0.328125l-1.53125 0l0 2.203125zm12.716934 2.0625l-5.46875 0q0.203125 0.53125 0.734375 0.84375q0.53125 0.3125 1.4375 0.3125q0.75 0 1.96875 -0.3125q0.515625 -0.125 0.703125 -0.125q0.265625 0 0.453125 0.1875q0.1875 0.1875 0.1875 0.46875q0 0.265625 -0.203125 0.4375q-0.265625 0.25 -1.28125 0.46875q-1.0 0.21875 -1.921875 0.21875q-1.609375 0 -2.578125 -0.90625q-0.953125 -0.90625 -0.953125 -2.234375q0 -1.40625 1.03125 -2.28125q1.046875 -0.875 2.40625 -0.875q0.8125 0 1.484375 0.28125q0.6875 0.28125 1.015625 0.609375q0.46875 0.484375 0.78125 1.203125q0.203125 0.484375 0.203125 1.140625l0 0.5625zm-1.46875 -1.328125q-0.3125 -0.578125 -0.8125 -0.859375q-0.484375 -0.28125 -1.171875 -0.28125q-0.671875 0 -1.171875 0.28125q-0.5 0.28125 -0.8125 0.859375l3.96875 0zm4.466934 2.875l0 2.1875l0.79689026 0q0.484375 0 0.6875 0.1875q0.203125 0.1875 0.203125 0.484375q0 0.296875 -0.203125 0.46875q-0.203125 0.1875 -0.6875 0.1875l-2.3593903 0q-0.484375 0 -0.6875 -0.1875q-0.203125 -0.171875 -0.203125 -0.46875q0 -0.296875 0.203125 -0.484375q0.21875 -0.1875 0.6875 -0.1875l0.234375 0l0 -6.03125l-0.234375 0q-0.484375 0 -0.6875 -0.1875q-0.203125 -0.1875 -0.203125 -0.484375q0 -0.28125 0.203125 -0.46875q0.203125 -0.1875 0.6875 -0.1875l1.5625 0l0 0.453125q0.46876526 -0.3125 0.96876526 -0.46875q0.5 -0.15625 1.03125 -0.15625q1.359375 0 2.328125 0.921875q0.96875 0.921875 0.96875 2.125q0 1.3125 -1.140625 2.171875q-0.953125 0.71875 -2.140625 0.71875q-0.515625 0 -1.015625 -0.140625q-0.5 -0.15625 -1.0000153 -0.453125zm3.9531403 -2.296875q0 -0.28125 -0.21875 -0.703125q-0.21875 -0.4375 -0.6875 -0.71875q-0.453125 -0.296875 -1.0625 -0.296875q-1.0 0 -1.59375 0.75q-0.39064026 0.515625 -0.39064026 0.984375q0 0.53125 0.56251526 1.046875q0.578125 0.5 1.421875 0.5q0.84375 0 1.40625 -0.5q0.5625 -0.5 0.5625 -1.0625zm9.170044 0.1875q0 0.765625 -0.4375 1.484375q-0.421875 0.71875 -1.265625 1.15625q-0.84375 0.421875 -1.75 0.421875q-0.921875 0 -1.75 -0.421875q-0.828125 -0.421875 -1.265625 -1.140625q-0.4375 -0.71875 -0.4375 -1.515625q0 -0.796875 0.4375 -1.5625q0.4375 -0.78125 1.265625 -1.21875q0.84375 -0.4375 1.75 -0.4375q0.90625 0 1.75 0.453125q0.84375 0.4375 1.265625 1.203125q0.4375 0.765625 0.4375 1.578125zm-1.34375 0q0 -0.640625 -0.453125 -1.171875q-0.640625 -0.734375 -1.65625 -0.734375q-0.90625 0 -1.515625 0.578125q-0.609375 0.578125 -0.609375 1.34375q0 0.625 0.609375 1.171875q0.625 0.53125 1.515625 0.53125q0.890625 0 1.5 -0.53125q0.609375 -0.546875 0.609375 -1.1875zm7.3106995 -1.5q-0.328125 -0.203125 -0.6875 -0.296875q-0.34375 -0.109375 -0.734375 -0.109375q-0.78125 0 -1.234375 0.25q-0.203125 0.109375 -0.203125 0.25q0 0.140625 0.265625 0.28125q0.21875 0.109375 0.9375 0.203125q1.328125 0.1875 1.84375 0.375q0.6875 0.234375 1.046875 0.71875q0.375 0.46875 0.375 1.0q0 0.703125 -0.625 1.1875q-0.90625 0.703125 -2.34375 0.703125q-0.578125 0 -1.078125 -0.109375q-0.484375 -0.09375 -0.890625 -0.296875q-0.109375 0.09375 -0.21875 0.140625q-0.109375 0.046875 -0.21875 0.046875q-0.3125 0 -0.5 -0.203125q-0.1875 -0.21875 -0.1875 -0.6875l0 -0.453125q0 -0.484375 0.1875 -0.6875q0.1875 -0.203125 0.484375 -0.203125q0.234375 0 0.390625 0.140625q0.171875 0.125 0.265625 0.453125q0.296875 0.25 0.71875 0.390625q0.4375 0.125 1.0 0.125q0.921875 0 1.421875 -0.28125q0.25 -0.140625 0.25 -0.296875q0 -0.265625 -0.34375 -0.4375q-0.34375 -0.15625 -1.421875 -0.28125q-1.609375 -0.171875 -2.15625 -0.65625q-0.53125 -0.46875 -0.53125 -1.171875q0 -0.703125 0.59375 -1.1875q0.828125 -0.640625 2.15625 -0.640625q0.453125 0 0.875 0.09375q0.4375 0.078125 0.828125 0.25q0.125 -0.078125 0.234375 -0.125q0.109375 -0.046875 0.1875 -0.046875q0.28125 0 0.453125 0.203125q0.1875 0.203125 0.1875 0.6875l0 0.328125q0 0.4375 -0.09375 0.59375q-0.21875 0.296875 -0.578125 0.296875q-0.234375 0 -0.421875 -0.140625q-0.171875 -0.15625 -0.234375 -0.40625zm7.045044 -4.09375l0 1.40625l-1.59375 0l0 -1.40625l1.59375 0zm0.171875 2.53125l0 4.578125l1.609375 0q0.46875 0 0.671875 0.1875q0.21875 0.171875 0.21875 0.484375q0 0.28125 -0.21875 0.46875q-0.203125 0.1875 -0.671875 0.1875l-4.546875 0q-0.46875 0 -0.6875 -0.1875q-0.203125 -0.1875 -0.203125 -0.484375q0 -0.296875 0.203125 -0.46875q0.21875 -0.1875 0.6875 -0.1875l1.609375 0l0 -3.25l-1.078125 0q-0.46875 0 -0.6875 -0.1875q-0.203125 -0.1875 -0.203125 -0.484375q0 -0.28125 0.203125 -0.46875q0.203125 -0.1875 0.6875 -0.1875l2.40625 0zm7.0138245 1.328125l0 2.671875q0 0.4375 0.171875 0.578125q0.28125 0.203125 0.984375 0.203125q1.015625 0 1.875 -0.4375q0.34375 -0.15625 0.53125 -0.15625q0.25 0 0.4375 0.203125q0.203125 0.1875 0.203125 0.46875q0 0.25 -0.203125 0.4375q-0.328125 0.3125 -1.265625 0.578125q-0.9375 0.25 -1.578125 0.25q-1.25 0 -1.875 -0.53125q-0.609375 -0.546875 -0.609375 -1.328125l0 -2.9375l-0.484375 0q-0.484375 0 -0.6875 -0.1875q-0.203125 -0.1875 -0.203125 -0.484375q0 -0.28125 0.203125 -0.46875q0.203125 -0.1875 0.6875 -0.1875l0.484375 0l0 -1.203125q0 -0.484375 0.171875 -0.6875q0.1875 -0.203125 0.484375 -0.203125q0.296875 0 0.484375 0.203125q0.1875 0.203125 0.1875 0.6875l0 1.203125l2.46875 0q0.484375 0 0.6875 0.1875q0.203125 0.1875 0.203125 0.484375q0 0.28125 -0.203125 0.46875q-0.203125 0.1875 -0.6875 0.1875l-2.46875 0zm11.795044 1.734375q0 0.765625 -0.4375 1.484375q-0.421875 0.71875 -1.265625 1.15625q-0.84375 0.421875 -1.75 0.421875q-0.921875 0 -1.75 -0.421875q-0.828125 -0.421875 -1.265625 -1.140625q-0.4375 -0.71875 -0.4375 -1.515625q0 -0.796875 0.4375 -1.5625q0.4375 -0.78125 1.265625 -1.21875q0.84375 -0.4375 1.75 -0.4375q0.90625 0 1.75 0.453125q0.84375 0.4375 1.265625 1.203125q0.4375 0.765625 0.4375 1.578125zm-1.34375 0q0 -0.640625 -0.453125 -1.171875q-0.640625 -0.734375 -1.65625 -0.734375q-0.90625 0 -1.515625 0.578125q-0.609375 0.578125 -0.609375 1.34375q0 0.625 0.609375 1.171875q0.625 0.53125 1.515625 0.53125q0.890625 0 1.5 -0.53125q0.609375 -0.546875 0.609375 -1.1875zm5.5919495 -3.0625l0 0.828125q0.84375 -0.609375 1.328125 -0.796875q0.484375 -0.203125 0.90625 -0.203125q0.65625 0 1.265625 0.46875q0.421875 0.328125 0.421875 0.671875q0 0.28125 -0.203125 0.484375q-0.203125 0.203125 -0.484375 0.203125q-0.25 0 -0.53125 -0.25q-0.265625 -0.25 -0.46875 -0.25q-0.28125 0 -0.84375 0.359375q-0.546875 0.34375 -1.390625 1.046875l0 2.015625l1.90625 0q0.484375 0 0.6875 0.1875q0.203125 0.171875 0.203125 0.484375q0 0.28125 -0.203125 0.46875q-0.203125 0.1875 -0.6875 0.1875l-4.03125 0q-0.484375 0 -0.6875 -0.1875q-0.203125 -0.1875 -0.203125 -0.484375q0 -0.296875 0.203125 -0.46875q0.203125 -0.1875 0.6875 -0.1875l0.796875 0l0 -3.25l-0.484375 0q-0.484375 0 -0.6875 -0.1875q-0.203125 -0.1875 -0.203125 -0.484375q0 -0.28125 0.203125 -0.46875q0.203125 -0.1875 0.6875 -0.1875l1.8125 0zm7.529419 5.859375l-2.3125 -4.53125q-0.3125 -0.03125 -0.484375 -0.21875q-0.171875 -0.1875 -0.171875 -0.4375q0 -0.296875 0.203125 -0.484375q0.203125 -0.1875 0.6875 -0.1875l1.21875 0q0.484375 0 0.6875 0.1875q0.203125 0.1875 0.203125 0.484375q0 0.28125 -0.203125 0.46875q-0.203125 0.1875 -0.65625 0.1875l1.578125 3.0625l1.5625 -3.0625q-0.421875 0 -0.640625 -0.1875q-0.203125 -0.1875 -0.203125 -0.484375q0 -0.28125 0.203125 -0.46875q0.21875 -0.1875 0.6875 -0.1875l1.265625 0q0.46875 0 0.671875 0.1875q0.203125 0.1875 0.203125 0.484375q0 0.265625 -0.171875 0.453125q-0.171875 0.1875 -0.515625 0.203125l-3.0625 6.03125q0.5 0 0.65625 0.09375q0.3125 0.203125 0.3125 0.578125q0 0.296875 -0.203125 0.46875q-0.203125 0.1875 -0.6875 0.1875l-2.90625 0q-0.484375 0 -0.6875 -0.1875q-0.203125 -0.171875 -0.203125 -0.46875q0 -0.296875 0.203125 -0.484375q0.203125 -0.1875 0.6875 -0.1875l1.328125 0l0.75 -1.5z" fill-rule="nonzero"/><path fill="#ebe3fd" d="m269.4514 38.992725l0 23.653542l21.937012 0l-10.753296 -11.611546l10.753296 -12.041996z" fill-rule="evenodd"/><path stroke="#8b6bda" stroke-width="3.0" stroke-linejoin="round" stroke-linecap="butt" d="m269.4514 38.992725l0 23.653542l21.937012 0l-10.753296 -11.611546l10.753296 -12.041996z" fill-rule="evenodd"/><path fill="#dceeda" d="m32.1059 31.40421l0 0c0 -15.664013 12.204647 -28.362204 27.259842 -28.362204l0 0c7.229763 0 14.16341 2.9881523 19.275623 8.307097c5.1122055 5.318945 7.9842224 12.532984 7.9842224 20.055107l0 0c0 15.664013 -12.204651 28.362206 -27.259846 28.362206l0 0c-15.055195 0 -27.259842 -12.698193 -27.259842 -28.362206z" fill-rule="evenodd"/><path stroke="#82ba7a" stroke-width="3.0" stroke-linejoin="round" stroke-linecap="butt" d="m32.1059 31.40421l0 0c0 -15.664013 12.204647 -28.362204 27.259842 -28.362204l0 0c7.229763 0 14.16341 2.9881523 19.275623 8.307097c5.1122055 5.318945 7.9842224 12.532984 7.9842224 20.055107l0 0c0 15.664013 -12.204651 28.362206 -27.259846 28.362206l0 0c-15.055195 0 -27.259842 -12.698193 -27.259842 -28.362206z" fill-rule="evenodd"/><path fill="#000000" fill-opacity="0.0" d="m3.023622 63.11811l117.25984 0l0 25.70079l-117.25984 0z" fill-rule="evenodd"/><path fill="#000000" d="m11.119379 81.65248l-2.84375 0l0 1.9375l0.203125 0q0.484375 0 0.6875 0.1875q0.203125 0.171875 0.203125 0.484375q0 0.28125 -0.203125 0.46875q-0.203125 0.1875 -0.6875 0.1875l-1.6250005 0q-0.484375 0 -0.6875 -0.1875q-0.203125 -0.1875 -0.203125 -0.484375q0 -0.359375 0.3125 -0.5625q0.15625 -0.109375 0.671875 -0.09375l0 -5.21875q-0.359375 -0.046875 -0.546875 -0.21875q-0.171875 -0.1875 -0.171875 -0.453125q0 -0.296875 0.203125 -0.484375q0.203125 -0.1875 0.6875 -0.1875l1.3593755 0q0.484375 0 0.6875 0.1875q0.203125 0.1875 0.203125 0.484375q0 0.296875 -0.203125 0.484375q-0.203125 0.1875 -0.6875 0.1875l-0.203125 0l0 1.953125l2.84375 0l0 -1.953125l-0.203125 0q-0.484375 0 -0.6875 -0.1875q-0.203125 -0.1875 -0.203125 -0.484375q0 -0.296875 0.203125 -0.484375q0.203125 -0.1875 0.6875 -0.1875l1.359375 0q0.484375 0 0.6875 0.1875q0.203125 0.1875 0.203125 0.484375q0 0.265625 -0.1875 0.453125q-0.171875 0.171875 -0.515625 0.21875l0 5.21875q0.515625 0 0.65625 0.09375q0.328125 0.203125 0.328125 0.578125q0 0.28125 -0.21875 0.46875q-0.203125 0.1875 -0.671875 0.1875l-1.640625 0q-0.484375 0 -0.6875 -0.1875q-0.203125 -0.1875 -0.203125 -0.484375q0 -0.296875 0.203125 -0.46875q0.21875 -0.1875 0.6875 -0.1875l0.203125 0l0 -1.9375zm10.013809 0.421875q0 0.765625 -0.4375 1.484375q-0.421875 0.71875 -1.265625 1.15625q-0.84375 0.421875 -1.75 0.421875q-0.921875 0 -1.75 -0.421875q-0.828125 -0.421875 -1.265625 -1.140625q-0.4375 -0.71875 -0.4375 -1.515625q0 -0.796875 0.4375 -1.5625q0.4375 -0.78125 1.265625 -1.21875q0.84375 -0.4375 1.75 -0.4375q0.90625 0 1.75 0.453125q0.84375 0.4375 1.265625 1.203125q0.4375 0.765625 0.4375 1.578125zm-1.34375 0q0 -0.640625 -0.453125 -1.171875q-0.640625 -0.734375 -1.65625 -0.734375q-0.90625 0 -1.515625 0.578125q-0.609375 0.578125 -0.609375 1.34375q0 0.625 0.609375 1.171875q0.625 0.53125 1.515625 0.53125q0.890625 0 1.5 -0.53125q0.609375 -0.546875 0.609375 -1.1875zm3.8106842 -3.0625l0 0.375q0.328125 -0.3125 0.59375 -0.4375q0.265625 -0.125 0.609375 -0.125q0.28125 0 0.5625 0.140625q0.296875 0.140625 0.578125 0.4375q0.34375 -0.296875 0.6875 -0.421875q0.359375 -0.140625 0.734375 -0.140625q0.734375 0 1.203125 0.390625q0.609375 0.515625 0.609375 1.359375l0 3.0q0.421875 0 0.625 0.1875q0.203125 0.1875 0.203125 0.484375q0 0.28125 -0.203125 0.46875q-0.203125 0.1875 -0.6875 0.1875l-1.265625 0l0 -4.203125q0 -0.3125 -0.109375 -0.421875q-0.109375 -0.125 -0.34375 -0.125q-0.21875 0 -0.40625 0.109375q-0.25 0.171875 -0.59375 0.625l0 2.6875q0.421875 0 0.625 0.1875q0.203125 0.1875 0.203125 0.484375q0 0.28125 -0.203125 0.46875q-0.203125 0.1875 -0.6875 0.1875l-1.265625 0l0 -4.203125q0 -0.3125 -0.125 -0.421875q-0.109375 -0.125 -0.328125 -0.125q-0.234375 0 -0.46875 0.15625q-0.21875 0.140625 -0.546875 0.578125l0 2.6875q0.421875 0 0.625 0.1875q0.203125 0.1875 0.203125 0.484375q0 0.28125 -0.203125 0.46875q-0.203125 0.1875 -0.6875 0.1875l-1.203125 0q-0.484375 0 -0.6875 -0.1875q-0.203125 -0.1875 -0.203125 -0.484375q0 -0.296875 0.203125 -0.46875q0.203125 -0.1875 0.625 -0.1875l0 -3.25q-0.421875 0 -0.625 -0.1875q-0.203125 -0.1875 -0.203125 -0.484375q0 -0.28125 0.203125 -0.46875q0.203125 -0.1875 0.6875 -0.1875l1.265625 0zm13.404432 3.625l-5.468748 0q0.203125 0.53125 0.7343731 0.84375q0.53125 0.3125 1.4375 0.3125q0.75 0 1.96875 -0.3125q0.515625 -0.125 0.703125 -0.125q0.265625 0 0.453125 0.1875q0.1875 0.1875 0.1875 0.46875q0 0.265625 -0.203125 0.4375q-0.265625 0.25 -1.28125 0.46875q-1.0 0.21875 -1.921875 0.21875q-1.609375 0 -2.578123 -0.90625q-0.953125 -0.90625 -0.953125 -2.234375q0 -1.40625 1.03125 -2.28125q1.0468731 -0.875 2.406248 -0.875q0.8125 0 1.484375 0.28125q0.6875 0.28125 1.015625 0.609375q0.46875 0.484375 0.78125 1.203125q0.203125 0.484375 0.203125 1.140625l0 0.5625zm-1.46875 -1.328125q-0.3125 -0.578125 -0.8125 -0.859375q-0.484375 -0.28125 -1.171875 -0.28125q-0.671875 0 -1.171875 0.28125q-0.4999981 0.28125 -0.8124981 0.859375l3.968748 0zm4.748184 0.59375l0 1.6875l0.484375 0q0.46875 0 0.671875 0.1875q0.21875 0.171875 0.21875 0.484375q0 0.28125 -0.21875 0.46875q-0.203125 0.1875 -0.671875 0.1875l-2.03125 0q-0.484375 0 -0.6875 -0.1875q-0.203125 -0.1875 -0.203125 -0.484375q0 -0.296875 0.203125 -0.46875q0.21875 -0.1875 0.6875 -0.1875l0.203125 0l0 -5.21875l-0.203125 0q-0.484375 0 -0.6875 -0.1875q-0.203125 -0.1875 -0.203125 -0.484375q0 -0.296875 0.203125 -0.484375q0.203125 -0.1875 0.6875 -0.1875l3.015625 0q1.421875 0 2.1875 0.703125q0.78125 0.703125 0.78125 1.703125q0 0.625 -0.359375 1.140625q-0.359375 0.5 -1.09375 0.90625q0.421875 0.359375 0.90625 0.9375q0.296875 0.375 0.796875 1.171875q0.515625 0 0.671875 0.09375q0.296875 0.203125 0.296875 0.578125q0 0.28125 -0.203125 0.46875q-0.203125 0.1875 -0.6875 0.1875l-0.765625 0q-1.609375 -2.5 -2.6875 -3.015625l-1.3125 0zm0 -1.328125l1.03125 0q0.59375 0 1.046875 -0.171875q0.609375 -0.234375 0.8125 -0.5q0.21875 -0.265625 0.21875 -0.515625q0 -0.375 -0.40625 -0.6875q-0.40625 -0.328125 -1.171875 -0.328125l-1.53125 0l0 2.203125zm12.716934 2.0625l-5.46875 0q0.203125 0.53125 0.734375 0.84375q0.53125 0.3125 1.4375 0.3125q0.75 0 1.96875 -0.3125q0.515625 -0.125 0.703125 -0.125q0.265625 0 0.453125 0.1875q0.1875 0.1875 0.1875 0.46875q0 0.265625 -0.203125 0.4375q-0.265625 0.25 -1.28125 0.46875q-1.0 0.21875 -1.921875 0.21875q-1.609375 0 -2.578125 -0.90625q-0.953125 -0.90625 -0.953125 -2.234375q0 -1.40625 1.03125 -2.28125q1.046875 -0.875 2.40625 -0.875q0.8125 0 1.484375 0.28125q0.6875 0.28125 1.015625 0.609375q0.46875 0.484375 0.78125 1.203125q0.203125 0.484375 0.203125 1.140625l0 0.5625zm-1.46875 -1.328125q-0.3125 -0.578125 -0.8125 -0.859375q-0.484375 -0.28125 -1.171875 -0.28125q-0.671875 0 -1.171875 0.28125q-0.5 0.28125 -0.8125 0.859375l3.96875 0zm4.466934 2.875l0 2.1875l0.796875 0q0.484375 0 0.6875 0.1875q0.203125 0.1875 0.203125 0.484375q0 0.296875 -0.203125 0.46875q-0.203125 0.1875 -0.6875 0.1875l-2.359375 0q-0.484375 0 -0.6875 -0.1875q-0.203125 -0.171875 -0.203125 -0.46875q0 -0.296875 0.203125 -0.484375q0.21875 -0.1875 0.6875 -0.1875l0.234375 0l0 -6.03125l-0.234375 0q-0.484375 0 -0.6875 -0.1875q-0.203125 -0.1875 -0.203125 -0.484375q0 -0.28125 0.203125 -0.46875q0.203125 -0.1875 0.6875 -0.1875l1.5625 0l0 0.453125q0.46875 -0.3125 0.96875 -0.46875q0.5 -0.15625 1.03125 -0.15625q1.359375 0 2.328125 0.921875q0.96875 0.921875 0.96875 2.125q0 1.3125 -1.140625 2.171875q-0.953125 0.71875 -2.140625 0.71875q-0.515625 0 -1.015625 -0.140625q-0.5 -0.15625 -1.0 -0.453125zm3.953125 -2.296875q0 -0.28125 -0.21875 -0.703125q-0.21875 -0.4375 -0.6875 -0.71875q-0.453125 -0.296875 -1.0625 -0.296875q-1.0 0 -1.59375 0.75q-0.390625 0.515625 -0.390625 0.984375q0 0.53125 0.5625 1.046875q0.578125 0.5 1.421875 0.5q0.84375 0 1.40625 -0.5q0.5625 -0.5 0.5625 -1.0625zm9.170059 0.1875q0 0.765625 -0.4375 1.484375q-0.421875 0.71875 -1.265625 1.15625q-0.84375 0.421875 -1.75 0.421875q-0.921875 0 -1.75 -0.421875q-0.828125 -0.421875 -1.265625 -1.140625q-0.4375 -0.71875 -0.4375 -1.515625q0 -0.796875 0.4375 -1.5625q0.4375 -0.78125 1.265625 -1.21875q0.84375 -0.4375 1.75 -0.4375q0.90625 0 1.75 0.453125q0.84375 0.4375 1.265625 1.203125q0.4375 0.765625 0.4375 1.578125zm-1.34375 0q0 -0.640625 -0.453125 -1.171875q-0.640625 -0.734375 -1.65625 -0.734375q-0.90625 0 -1.515625 0.578125q-0.609375 0.578125 -0.609375 1.34375q0 0.625 0.609375 1.171875q0.625 0.53125 1.515625 0.53125q0.890625 0 1.5 -0.53125q0.609375 -0.546875 0.609375 -1.1875zm7.310684 -1.5q-0.328125 -0.203125 -0.6875 -0.296875q-0.34375 -0.109375 -0.734375 -0.109375q-0.78125 0 -1.234375 0.25q-0.203125 0.109375 -0.203125 0.25q0 0.140625 0.265625 0.28125q0.21875 0.109375 0.9375 0.203125q1.328125 0.1875 1.84375 0.375q0.6875 0.234375 1.046875 0.71875q0.375 0.46875 0.375 1.0q0 0.703125 -0.625 1.1875q-0.90625 0.703125 -2.34375 0.703125q-0.578125 0 -1.078125 -0.109375q-0.484375 -0.09375 -0.890625 -0.296875q-0.109375 0.09375 -0.21875 0.140625q-0.109375 0.046875 -0.21875 0.046875q-0.3125 0 -0.5 -0.203125q-0.1875 -0.21875 -0.1875 -0.6875l0 -0.453125q0 -0.484375 0.1875 -0.6875q0.1875 -0.203125 0.484375 -0.203125q0.234375 0 0.390625 0.140625q0.171875 0.125 0.265625 0.453125q0.296875 0.25 0.71875 0.390625q0.4375 0.125 1.0 0.125q0.921875 0 1.421875 -0.28125q0.25 -0.140625 0.25 -0.296875q0 -0.265625 -0.34375 -0.4375q-0.34375 -0.15625 -1.421875 -0.28125q-1.609375 -0.171875 -2.15625 -0.65625q-0.53125 -0.46875 -0.53125 -1.171875q0 -0.703125 0.59375 -1.1875q0.828125 -0.640625 2.15625 -0.640625q0.453125 0 0.875 0.09375q0.4375 0.078125 0.828125 0.25q0.125 -0.078125 0.234375 -0.125q0.109375 -0.046875 0.1875 -0.046875q0.28125 0 0.453125 0.203125q0.1875 0.203125 0.1875 0.6875l0 0.328125q0 0.4375 -0.09375 0.59375q-0.21875 0.296875 -0.578125 0.296875q-0.234375 0 -0.421875 -0.140625q-0.171875 -0.15625 -0.234375 -0.40625zm7.045059 -4.09375l0 1.40625l-1.59375 0l0 -1.40625l1.59375 0zm0.171875 2.53125l0 4.578125l1.609375 0q0.46875 0 0.671875 0.1875q0.21875 0.171875 0.21875 0.484375q0 0.28125 -0.21875 0.46875q-0.203125 0.1875 -0.671875 0.1875l-4.546875 0q-0.46875 0 -0.6875 -0.1875q-0.203125 -0.1875 -0.203125 -0.484375q0 -0.296875 0.203125 -0.46875q0.21875 -0.1875 0.6875 -0.1875l1.609375 0l0 -3.25l-1.078125 0q-0.46875 0 -0.6875 -0.1875q-0.203125 -0.1875 -0.203125 -0.484375q0 -0.28125 0.203125 -0.46875q0.203125 -0.1875 0.6875 -0.1875l2.40625 0zm7.013809 1.328125l0 2.671875q0 0.4375 0.171875 0.578125q0.28125 0.203125 0.984375 0.203125q1.015625 0 1.875 -0.4375q0.34375 -0.15625 0.53125 -0.15625q0.25 0 0.4375 0.203125q0.203125 0.1875 0.203125 0.46875q0 0.25 -0.203125 0.4375q-0.328125 0.3125 -1.265625 0.578125q-0.9375 0.25 -1.578125 0.25q-1.25 0 -1.875 -0.53125q-0.609375 -0.546875 -0.609375 -1.328125l0 -2.9375l-0.484375 0q-0.484375 0 -0.6875 -0.1875q-0.203125 -0.1875 -0.203125 -0.484375q0 -0.28125 0.203125 -0.46875q0.203125 -0.1875 0.6875 -0.1875l0.484375 0l0 -1.203125q0 -0.484375 0.171875 -0.6875q0.1875 -0.203125 0.484375 -0.203125q0.296875 0 0.484375 0.203125q0.1875 0.203125 0.1875 0.6875l0 1.203125l2.46875 0q0.484375 0 0.6875 0.1875q0.203125 0.1875 0.203125 0.484375q0 0.28125 -0.203125 0.46875q-0.203125 0.1875 -0.6875 0.1875l-2.46875 0zm11.795059 1.734375q0 0.765625 -0.4375 1.484375q-0.421875 0.71875 -1.265625 1.15625q-0.84375 0.421875 -1.75 0.421875q-0.921875 0 -1.75 -0.421875q-0.828125 -0.421875 -1.265625 -1.140625q-0.4375 -0.71875 -0.4375 -1.515625q0 -0.796875 0.4375 -1.5625q0.4375 -0.78125 1.265625 -1.21875q0.84375 -0.4375 1.75 -0.4375q0.90625 0 1.75 0.453125q0.84375 0.4375 1.265625 1.203125q0.4375 0.765625 0.4375 1.578125zm-1.34375 0q0 -0.640625 -0.453125 -1.171875q-0.640625 -0.734375 -1.65625 -0.734375q-0.90625 0 -1.515625 0.578125q-0.609375 0.578125 -0.609375 1.34375q0 0.625 0.609375 1.171875q0.625 0.53125 1.515625 0.53125q0.890625 0 1.5 -0.53125q0.609375 -0.546875 0.609375 -1.1875zm5.591934 -3.0625l0 0.828125q0.84375 -0.609375 1.328125 -0.796875q0.484375 -0.203125 0.90625 -0.203125q0.65625 0 1.265625 0.46875q0.421875 0.328125 0.421875 0.671875q0 0.28125 -0.203125 0.484375q-0.203125 0.203125 -0.484375 0.203125q-0.25 0 -0.53125 -0.25q-0.265625 -0.25 -0.46875 -0.25q-0.28125 0 -0.84375 0.359375q-0.546875 0.34375 -1.390625 1.046875l0 2.015625l1.90625 0q0.484375 0 0.6875 0.1875q0.203125 0.171875 0.203125 0.484375q0 0.28125 -0.203125 0.46875q-0.203125 0.1875 -0.6875 0.1875l-4.03125 0q-0.484375 0 -0.6875 -0.1875q-0.203125 -0.1875 -0.203125 -0.484375q0 -0.296875 0.203125 -0.46875q0.203125 -0.1875 0.6875 -0.1875l0.796875 0l0 -3.25l-0.484375 0q-0.484375 0 -0.6875 -0.1875q-0.203125 -0.1875 -0.203125 -0.484375q0 -0.28125 0.203125 -0.46875q0.203125 -0.1875 0.6875 -0.1875l1.8125 0zm7.529434 5.859375l-2.3125 -4.53125q-0.3125 -0.03125 -0.484375 -0.21875q-0.171875 -0.1875 -0.171875 -0.4375q0 -0.296875 0.203125 -0.484375q0.203125 -0.1875 0.6875 -0.1875l1.21875 0q0.484375 0 0.6875 0.1875q0.203125 0.1875 0.203125 0.484375q0 0.28125 -0.203125 0.46875q-0.203125 0.1875 -0.65625 0.1875l1.578125 3.0625l1.5625 -3.0625q-0.421875 0 -0.640625 -0.1875q-0.203125 -0.1875 -0.203125 -0.484375q0 -0.28125 0.203125 -0.46875q0.21875 -0.1875 0.6875 -0.1875l1.265625 0q0.46875 0 0.671875 0.1875q0.203125 0.1875 0.203125 0.484375q0 0.265625 -0.171875 0.453125q-0.171875 0.1875 -0.515625 0.203125l-3.0625 6.03125q0.5 0 0.65625 0.09375q0.3125 0.203125 0.3125 0.578125q0 0.296875 -0.203125 0.46875q-0.203125 0.1875 -0.6875 0.1875l-2.90625 0q-0.484375 0 -0.6875 -0.1875q-0.203125 -0.171875 -0.203125 -0.46875q0 -0.296875 0.203125 -0.484375q0.203125 -0.1875 0.6875 -0.1875l1.328125 0l0.75 -1.5z" fill-rule="nonzero"/><path fill="#dceeda" d="m49.29968 51.08399l19.769032 0.03674698l0.0446167 -10.475067l-4.430443 -0.01574707l0 -18.52756l4.503937 0.020998001l0 -10.784777l-19.805779 0l0 10.750656l4.359581 0.018371582l-0.044620514 18.45407l-4.3989487 -0.034122467z" fill-rule="evenodd"/><path stroke="#82ba7a" stroke-width="3.0" stroke-linejoin="round" stroke-linecap="butt" d="m49.29968 51.08399l19.769032 0.03674698l0.0446167 -10.475067l-4.430443 -0.01574707l0 -18.52756l4.503937 0.020998001l0 -10.784777l-19.805779 0l0 10.750656l4.359581 0.018371582l-0.044620514 18.45407l-4.3989487 -0.034122467z" fill-rule="evenodd"/><path fill="#ebe3fd" d="m69.5639 38.92127l0 23.653545l21.937012 0l-10.753281 -11.611549l10.753281 -12.041996z" fill-rule="evenodd"/><path stroke="#8b6bda" stroke-width="3.0" stroke-linejoin="round" stroke-linecap="butt" d="m69.5639 38.92127l0 23.653545l21.937012 0l-10.753281 -11.611549l10.753281 -12.041996z" fill-rule="evenodd"/></g></svg>