<svg version="1.1" viewBox="0.0 0.0 323.1496062992126 91.84251968503936" fill="none" stroke="none" stroke-linecap="square" stroke-miterlimit="10" xmlns:xlink="http://www.w3.org/1999/xlink" xmlns="http://www.w3.org/2000/svg"><clipPath id="p.0"><path d="m0 0l323.1496 0l0 91.84252l-323.1496 0l0 -91.84252z" clip-rule="nonzero"/></clipPath><g clip-path="url(#p.0)"><path fill="#000000" fill-opacity="0.0" d="m0 0l323.1496 0l0 91.84252l-323.1496 0z" fill-rule="evenodd"/><path fill="#000000" fill-opacity="0.0" d="m100.35131 31.434105l117.385826 -0.062992096" fill-rule="evenodd"/><path stroke="#ffffff" stroke-width="3.0" stroke-linejoin="round" stroke-linecap="butt" d="m117.23613 31.425043l100.50101 -0.05393219" fill-rule="evenodd"/><path fill="#ffffff" stroke="#ffffff" stroke-width="3.0" stroke-linecap="butt" d="m117.23613 31.425043l-7.1375046 -4.992033l-7.1321487 4.999691l7.137512 4.992031z" fill-rule="evenodd"/><path fill="#cfe2f3" d="m45.831627 31.434105l0 0c0 -15.664014 12.204647 -28.362206 27.259842 -28.362206l0 0c7.229759 0 14.163406 2.9881525 19.27562 8.307097c5.112213 5.318946 7.9842224 12.532983 7.9842224 20.055107l0 0c0 15.664013 -12.204651 28.362206 -27.259842 28.362206l0 0c-15.055195 0 -27.259842 -12.698193 -27.259842 -28.362206z" fill-rule="evenodd"/><path stroke="#4e8aeb" stroke-width="3.0" stroke-linejoin="round" stroke-linecap="butt" d="m45.831627 31.434105l0 0c0 -15.664014 12.204647 -28.362206 27.259842 -28.362206l0 0c7.229759 0 14.163406 2.9881525 19.27562 8.307097c5.112213 5.318946 7.9842224 12.532983 7.9842224 20.055107l0 0c0 15.664013 -12.204651 28.362206 -27.259842 28.362206l0 0c-15.055195 0 -27.259842 -12.698193 -27.259842 -28.362206z" fill-rule="evenodd"/><path fill="#cfe2f3" d="m89.95207 40.212223l0 0c-3.8216858 8.244152 -12.474274 12.675976 -20.972725 10.742161c-8.498451 -1.9338188 -14.653782 -9.735176 -14.919712 -18.909462c-0.26592636 -9.174288 5.4260445 -17.358438 13.796589 -19.837303c8.370544 -2.4788647 17.263618 1.3860502 21.555641 9.368044l-8.601128 5.1553555c-1.9510803 -4.072508 -6.15049 -6.1087646 -10.141632 -4.9175854c-3.9911423 1.1911812 -6.7253685 5.2968235 -6.603195 9.915178c0.122177124 4.618355 3.068657 8.535984 7.1157837 9.461121c4.0471344 0.92513275 8.131554 -1.385292 9.863937 -5.5797157z" fill-rule="evenodd"/><path stroke="#4e8aeb" stroke-width="3.0" stroke-linejoin="round" stroke-linecap="butt" d="m89.95207 40.212223l0 0c-3.8216858 8.244152 -12.474274 12.675976 -20.972725 10.742161c-8.498451 -1.9338188 -14.653782 -9.735176 -14.919712 -18.909462c-0.26592636 -9.174288 5.4260445 -17.358438 13.796589 -19.837303c8.370544 -2.4788647 17.263618 1.3860502 21.555641 9.368044l-8.601128 5.1553555c-1.9510803 -4.072508 -6.15049 -6.1087646 -10.141632 -4.9175854c-3.9911423 1.1911812 -6.7253685 5.2968235 -6.603195 9.915178c0.122177124 4.618355 3.068657 8.535984 7.1157837 9.461121c4.0471344 0.92513275 8.131554 -1.385292 9.863937 -5.5797157z" fill-rule="evenodd"/><path fill="#000000" fill-opacity="0.0" d="m3.023622 63.11811l145.13387 0l0 25.70079l-145.13387 0z" fill-rule="evenodd"/><path fill="#ffffff" d="m53.22191 82.77748l-3.234375 0l-0.328125 0.8125l0.328125 0q0.484375 0 0.6875 0.1875q0.203125 0.171875 0.203125 0.484375q0 0.28125 -0.203125 0.46875q-0.203125 0.1875 -0.6875 0.1875l-1.796875 0q-0.484375 0 -0.6875 -0.1875q-0.203125 -0.1875 -0.203125 -0.484375q0 -0.296875 0.21875 -0.484375q0.203125 -0.1875 0.703125 -0.171875l2.09375 -5.21875l-0.875 0q-0.484375 0 -0.6875 -0.1875q-0.203125 -0.1875 -0.203125 -0.484375q0 -0.296875 0.203125 -0.484375q0.203125 -0.1875 0.6875 -0.1875l2.890625 0l2.65625 6.5625q0.46875 0 0.609375 0.09375q0.296875 0.21875 0.296875 0.578125q0 0.28125 -0.203125 0.46875q-0.1875 0.1875 -0.671875 0.1875l-1.796875 0q-0.484375 0 -0.6875 -0.1875q-0.203125 -0.1875 -0.203125 -0.484375q0 -0.296875 0.203125 -0.46875q0.203125 -0.1875 0.6875 -0.1875l0.328125 0l-0.328125 -0.8125zm-0.546875 -1.34375l-1.078125 -2.640625l-1.078125 2.640625l2.15625 0zm9.982559 -4.953125l0 7.109375l0.21875 0q0.484375 0 0.6875 0.1875q0.21875 0.171875 0.21875 0.484375q0 0.28125 -0.21875 0.46875q-0.203125 0.1875 -0.6875 0.1875l-1.546875 0l0 -0.328125q-0.46875 0.265625 -0.96875 0.40625q-0.484375 0.140625 -1.03125 0.140625q-1.5 0 -2.421875 -0.859375q-0.90625 -0.875 -0.90625 -2.171875q0 -1.359375 0.953125 -2.3125q0.96875 -0.953125 2.359375 -0.953125q0.515625 0 1.015625 0.15625q0.5 0.15625 1.0 0.46875l0 -1.65625l-0.234375 0q-0.484375 0 -0.6875 -0.1875q-0.203125 -0.1875 -0.203125 -0.46875q0 -0.296875 0.203125 -0.484375q0.203125 -0.1875 0.6875 -0.1875l1.5625 0zm-1.328125 5.65625q0 -0.828125 -0.59375 -1.390625q-0.578125 -0.578125 -1.40625 -0.578125q-0.84375 0 -1.421875 0.578125q-0.578125 0.5625 -0.578125 1.375q0 0.734375 0.515625 1.203125q0.53125 0.46875 1.484375 0.46875q0.9375 0 1.46875 -0.46875q0.53125 -0.46875 0.53125 -1.1875zm9.326309 -5.65625l0 7.109375l0.21875 0q0.484375 0 0.6875 0.1875q0.21875 0.171875 0.21875 0.484375q0 0.28125 -0.21875 0.46875q-0.203125 0.1875 -0.6875 0.1875l-1.546875 0l0 -0.328125q-0.46875 0.265625 -0.96875 0.40625q-0.484375 0.140625 -1.03125 0.140625q-1.5 0 -2.421875 -0.859375q-0.90625 -0.875 -0.90625 -2.171875q0 -1.359375 0.953125 -2.3125q0.96875 -0.953125 2.359375 -0.953125q0.515625 0 1.015625 0.15625q0.5 0.15625 1.0 0.46875l0 -1.65625l-0.234375 0q-0.484375 0 -0.6875 -0.1875q-0.203125 -0.1875 -0.203125 -0.46875q0 -0.296875 0.203125 -0.484375q0.203125 -0.1875 0.6875 -0.1875l1.5625 0zm-1.328125 5.65625q0 -0.828125 -0.59375 -1.390625q-0.578125 -0.578125 -1.40625 -0.578125q-0.84375 0 -1.421875 0.578125q-0.578125 0.5625 -0.578125 1.375q0 0.734375 0.515625 1.203125q0.53125 0.46875 1.484375 0.46875q0.9375 0 1.46875 -0.46875q0.53125 -0.46875 0.53125 -1.1875zm5.982559 -3.125l0 0.828125q0.84375 -0.609375 1.328125 -0.796875q0.484375 -0.203125 0.90625 -0.203125q0.65625 0 1.265625 0.46875q0.421875 0.328125 0.421875 0.671875q0 0.28125 -0.203125 0.484375q-0.203125 0.203125 -0.484375 0.203125q-0.25 0 -0.53125 -0.25q-0.265625 -0.25 -0.46875 -0.25q-0.28125 0 -0.84375 0.359375q-0.546875 0.34375 -1.390625 1.046875l0 2.015625l1.90625 0q0.484375 0 0.6875 0.1875q0.203125 0.171875 0.203125 0.484375q0 0.28125 -0.203125 0.46875q-0.203125 0.1875 -0.6875 0.1875l-4.03125 0q-0.484375 0 -0.6875 -0.1875q-0.203125 -0.1875 -0.203125 -0.484375q0 -0.296875 0.203125 -0.46875q0.203125 -0.1875 0.6875 -0.1875l0.796875 0l0 -3.25l-0.484375 0q-0.484375 0 -0.6875 -0.1875q-0.203125 -0.1875 -0.203125 -0.484375q0 -0.28125 0.203125 -0.46875q0.203125 -0.1875 0.6875 -0.1875l1.8125 0zm11.623184 3.625l-5.46875 0q0.203125 0.53125 0.734375 0.84375q0.53125 0.3125 1.4375 0.3125q0.75 0 1.96875 -0.3125q0.515625 -0.125 0.703125 -0.125q0.265625 0 0.453125 0.1875q0.1875 0.1875 0.1875 0.46875q0 0.265625 -0.203125 0.4375q-0.265625 0.25 -1.28125 0.46875q-1.0 0.21875 -1.921875 0.21875q-1.609375 0 -2.578125 -0.90625q-0.953125 -0.90625 -0.953125 -2.234375q0 -1.40625 1.03125 -2.28125q1.046875 -0.875 2.40625 -0.875q0.8125 0 1.484375 0.28125q0.6875 0.28125 1.015625 0.609375q0.46875 0.484375 0.78125 1.203125q0.203125 0.484375 0.203125 1.140625l0 0.5625zm-1.46875 -1.328125q-0.3125 -0.578125 -0.8125 -0.859375q-0.484375 -0.28125 -1.171875 -0.28125q-0.671875 0 -1.171875 0.28125q-0.5 0.28125 -0.8125 0.859375l3.96875 0zm7.560684 -0.734375q-0.328125 -0.203125 -0.6875 -0.296875q-0.34375 -0.109375 -0.734375 -0.109375q-0.78125 0 -1.234375 0.25q-0.203125 0.109375 -0.203125 0.25q0 0.140625 0.265625 0.28125q0.21875 0.109375 0.9375 0.203125q1.328125 0.1875 1.84375 0.375q0.6875 0.234375 1.046875 0.71875q0.375 0.46875 0.375 1.0q0 0.703125 -0.625 1.1875q-0.90625 0.703125 -2.34375 0.703125q-0.578125 0 -1.078125 -0.109375q-0.484375 -0.09375 -0.890625 -0.296875q-0.109375 0.09375 -0.21875 0.140625q-0.109375 0.046875 -0.21875 0.046875q-0.3125 0 -0.5 -0.203125q-0.1875 -0.21875 -0.1875 -0.6875l0 -0.453125q0 -0.484375 0.1875 -0.6875q0.1875 -0.203125 0.484375 -0.203125q0.234375 0 0.390625 0.140625q0.171875 0.125 0.265625 0.453125q0.296875 0.25 0.71875 0.390625q0.4375 0.125 1.0 0.125q0.921875 0 1.421875 -0.28125q0.25 -0.140625 0.25 -0.296875q0 -0.265625 -0.34375 -0.4375q-0.34375 -0.15625 -1.421875 -0.28125q-1.609375 -0.171875 -2.15625 -0.65625q-0.53125 -0.46875 -0.53125 -1.171875q0 -0.703125 0.59375 -1.1875q0.828125 -0.640625 2.15625 -0.640625q0.453125 0 0.875 0.09375q0.4375 0.078125 0.828125 0.25q0.125 -0.078125 0.234375 -0.125q0.109375 -0.046875 0.1875 -0.046875q0.28125 0 0.453125 0.203125q0.1875 0.203125 0.1875 0.6875l0 0.328125q0 0.4375 -0.09375 0.59375q-0.21875 0.296875 -0.578125 0.296875q-0.234375 0 -0.421875 -0.140625q-0.171875 -0.15625 -0.234375 -0.40625zm7.998184 0q-0.328125 -0.203125 -0.6875 -0.296875q-0.34375 -0.109375 -0.734375 -0.109375q-0.78125 0 -1.234375 0.25q-0.203125 0.109375 -0.203125 0.25q0 0.140625 0.265625 0.28125q0.21875 0.109375 0.9375 0.203125q1.328125 0.1875 1.84375 0.375q0.6875 0.234375 1.046875 0.71875q0.375 0.46875 0.375 1.0q0 0.703125 -0.625 1.1875q-0.90625 0.703125 -2.34375 0.703125q-0.578125 0 -1.078125 -0.109375q-0.484375 -0.09375 -0.890625 -0.296875q-0.109375 0.09375 -0.21875 0.140625q-0.109375 0.046875 -0.21875 0.046875q-0.3125 0 -0.5 -0.203125q-0.1875 -0.21875 -0.1875 -0.6875l0 -0.453125q0 -0.484375 0.1875 -0.6875q0.1875 -0.203125 0.484375 -0.203125q0.234375 0 0.390625 0.140625q0.171875 0.125 0.265625 0.453125q0.296875 0.25 0.71875 0.390625q0.4375 0.125 1.0 0.125q0.921875 0 1.421875 -0.28125q0.25 -0.140625 0.25 -0.296875q0 -0.265625 -0.34375 -0.4375q-0.34375 -0.15625 -1.421875 -0.28125q-1.609375 -0.171875 -2.15625 -0.65625q-0.53125 -0.46875 -0.53125 -1.171875q0 -0.703125 0.59375 -1.1875q0.828125 -0.640625 2.15625 -0.640625q0.453125 0 0.875 0.09375q0.4375 0.078125 0.828125 0.25q0.125 -0.078125 0.234375 -0.125q0.109375 -0.046875 0.1875 -0.046875q0.28125 0 0.453125 0.203125q0.1875 0.203125 0.1875 0.6875l0 0.328125q0 0.4375 -0.09375 0.59375q-0.21875 0.296875 -0.578125 0.296875q-0.234375 0 -0.421875 -0.140625q-0.171875 -0.15625 -0.234375 -0.40625z" fill-rule="nonzero"/><path fill="#ebe3fd" d="m83.28963 38.951164l0 23.653545l21.937012 0l-10.753281 -11.611549l10.753281 -12.041996z" fill-rule="evenodd"/><path stroke="#8b6bda" stroke-width="3.0" stroke-linejoin="round" stroke-linecap="butt" d="m83.28963 38.951164l0 23.653545l21.937012 0l-10.753281 -11.611549l10.753281 -12.041996z" fill-rule="evenodd"/><path fill="#cfe2f3" d="m217.73592 31.385826l0 0c0 -15.664013 12.204651 -28.362204 27.259842 -28.362204l0 0c7.2297516 0 14.163391 2.9881525 19.275604 8.307098c5.112213 5.318944 7.9842224 12.532983 7.9842224 20.055107l0 0c0 15.664013 -12.20462 28.362206 -27.259827 28.362206l0 0c-15.055191 0 -27.259842 -12.698193 -27.259842 -28.362206z" fill-rule="evenodd"/><path stroke="#4e8aeb" stroke-width="3.0" stroke-linejoin="round" stroke-linecap="butt" d="m217.73592 31.385826l0 0c0 -15.664013 12.204651 -28.362204 27.259842 -28.362204l0 0c7.2297516 0 14.163391 2.9881525 19.275604 8.307098c5.112213 5.318944 7.9842224 12.532983 7.9842224 20.055107l0 0c0 15.664013 -12.20462 28.362206 -27.259827 28.362206l0 0c-15.055191 0 -27.259842 -12.698193 -27.259842 -28.362206z" fill-rule="evenodd"/><path fill="#000000" fill-opacity="0.0" d="m174.99213 63.11811l145.03937 0l0 25.70079l-145.03937 0z" fill-rule="evenodd"/><path fill="#ffffff" d="m181.15315 82.77748l-3.234375 0l-0.328125 0.8125l0.328125 0q0.484375 0 0.6875 0.1875q0.203125 0.171875 0.203125 0.484375q0 0.28125 -0.203125 0.46875q-0.203125 0.1875 -0.6875 0.1875l-1.796875 0q-0.484375 0 -0.6875 -0.1875q-0.203125 -0.1875 -0.203125 -0.484375q0 -0.296875 0.21875 -0.484375q0.203125 -0.1875 0.703125 -0.171875l2.09375 -5.21875l-0.875 0q-0.484375 0 -0.6875 -0.1875q-0.203125 -0.1875 -0.203125 -0.484375q0 -0.296875 0.203125 -0.484375q0.203125 -0.1875 0.6875 -0.1875l2.890625 0l2.65625 6.5625q0.46875 0 0.609375 0.09375q0.296875 0.21875 0.296875 0.578125q0 0.28125 -0.203125 0.46875q-0.1875 0.1875 -0.671875 0.1875l-1.796875 0q-0.484375 0 -0.6875 -0.1875q-0.203125 -0.1875 -0.203125 -0.484375q0 -0.296875 0.203125 -0.46875q0.203125 -0.1875 0.6875 -0.1875l0.328125 0l-0.328125 -0.8125zm-0.546875 -1.34375l-1.078125 -2.640625l-1.078125 2.640625l2.15625 0zm9.982559 -4.953125l0 7.109375l0.21875 0q0.484375 0 0.6875 0.1875q0.21875 0.171875 0.21875 0.484375q0 0.28125 -0.21875 0.46875q-0.203125 0.1875 -0.6875 0.1875l-1.546875 0l0 -0.328125q-0.46875 0.265625 -0.96875 0.40625q-0.484375 0.140625 -1.03125 0.140625q-1.5 0 -2.421875 -0.859375q-0.90625 -0.875 -0.90625 -2.171875q0 -1.359375 0.953125 -2.3125q0.96875 -0.953125 2.359375 -0.953125q0.515625 0 1.015625 0.15625q0.5 0.15625 1.0 0.46875l0 -1.65625l-0.234375 0q-0.484375 0 -0.6875 -0.1875q-0.203125 -0.1875 -0.203125 -0.46875q0 -0.296875 0.203125 -0.484375q0.203125 -0.1875 0.6875 -0.1875l1.5625 0zm-1.328125 5.65625q0 -0.828125 -0.59375 -1.390625q-0.578125 -0.578125 -1.40625 -0.578125q-0.84375 0 -1.421875 0.578125q-0.578125 0.5625 -0.578125 1.375q0 0.734375 0.515625 1.203125q0.53125 0.46875 1.484375 0.46875q0.9375 0 1.46875 -0.46875q0.53125 -0.46875 0.53125 -1.1875zm4.201309 -3.125l0 0.375q0.328125 -0.3125 0.59375 -0.4375q0.265625 -0.125 0.609375 -0.125q0.28125 0 0.5625 0.140625q0.296875 0.140625 0.578125 0.4375q0.34375 -0.296875 0.6875 -0.421875q0.359375 -0.140625 0.734375 -0.140625q0.734375 0 1.203125 0.390625q0.609375 0.515625 0.609375 1.359375l0 3.0q0.421875 0 0.625 0.1875q0.203125 0.1875 0.203125 0.484375q0 0.28125 -0.203125 0.46875q-0.203125 0.1875 -0.6875 0.1875l-1.265625 0l0 -4.203125q0 -0.3125 -0.109375 -0.421875q-0.109375 -0.125 -0.34375 -0.125q-0.21875 0 -0.40625 0.109375q-0.25 0.171875 -0.59375 0.625l0 2.6875q0.421875 0 0.625 0.1875q0.203125 0.1875 0.203125 0.484375q0 0.28125 -0.203125 0.46875q-0.203125 0.1875 -0.6875 0.1875l-1.265625 0l0 -4.203125q0 -0.3125 -0.125 -0.421875q-0.109375 -0.125 -0.328125 -0.125q-0.234375 0 -0.46875 0.15625q-0.21875 0.140625 -0.546875 0.578125l0 2.6875q0.421875 0 0.625 0.1875q0.203125 0.1875 0.203125 0.484375q0 0.28125 -0.203125 0.46875q-0.203125 0.1875 -0.6875 0.1875l-1.203125 0q-0.484375 0 -0.6875 -0.1875q-0.203125 -0.1875 -0.203125 -0.484375q0 -0.296875 0.203125 -0.46875q0.203125 -0.1875 0.625 -0.1875l0 -3.25q-0.421875 0 -0.625 -0.1875q-0.203125 -0.1875 -0.203125 -0.484375q0 -0.28125 0.203125 -0.46875q0.203125 -0.1875 0.6875 -0.1875l1.265625 0zm10.545059 -2.53125l0 1.40625l-1.59375 0l0 -1.40625l1.59375 0zm0.171875 2.53125l0 4.578125l1.609375 0q0.46875 0 0.671875 0.1875q0.21875 0.171875 0.21875 0.484375q0 0.28125 -0.21875 0.46875q-0.203125 0.1875 -0.671875 0.1875l-4.546875 0q-0.46875 0 -0.6875 -0.1875q-0.203125 -0.1875 -0.203125 -0.484375q0 -0.296875 0.203125 -0.46875q0.21875 -0.1875 0.6875 -0.1875l1.609375 0l0 -3.25l-1.078125 0q-0.46875 0 -0.6875 -0.1875q-0.203125 -0.1875 -0.203125 -0.484375q0 -0.28125 0.203125 -0.46875q0.203125 -0.1875 0.6875 -0.1875l2.40625 0zm5.998184 0l0 0.453125q0.359375 -0.3125 0.796875 -0.46875q0.4375 -0.15625 0.953125 -0.15625q1.1875 0 1.875 0.734375q0.546875 0.578125 0.546875 1.53125l0 2.484375q0.421875 0 0.625 0.1875q0.203125 0.171875 0.203125 0.484375q0 0.28125 -0.203125 0.46875q-0.203125 0.1875 -0.6875 0.1875l-1.203125 0q-0.484375 0 -0.6875 -0.1875q-0.203125 -0.1875 -0.203125 -0.484375q0 -0.296875 0.1875 -0.46875q0.203125 -0.1875 0.640625 -0.1875l0 -2.53125q0 -0.421875 -0.234375 -0.625q-0.3125 -0.265625 -0.921875 -0.265625q-0.46875 0 -0.8125 0.1875q-0.34375 0.171875 -0.875 0.75l0 2.484375q0.5 0 0.65625 0.09375q0.3125 0.1875 0.3125 0.578125q0 0.28125 -0.203125 0.46875q-0.203125 0.1875 -0.6875 0.1875l-1.515625 0q-0.484375 0 -0.6875 -0.1875q-0.203125 -0.1875 -0.203125 -0.484375q0 -0.359375 0.3125 -0.5625q0.15625 -0.09375 0.671875 -0.09375l0 -3.25q-0.421875 0 -0.625 -0.1875q-0.203125 -0.1875 -0.203125 -0.484375q0 -0.28125 0.203125 -0.46875q0.203125 -0.1875 0.6875 -0.1875l1.28125 0zm9.826309 -2.53125l0 1.40625l-1.59375 0l0 -1.40625l1.59375 0zm0.171875 2.53125l0 4.578125l1.609375 0q0.46875 0 0.671875 0.1875q0.21875 0.171875 0.21875 0.484375q0 0.28125 -0.21875 0.46875q-0.203125 0.1875 -0.671875 0.1875l-4.546875 0q-0.46875 0 -0.6875 -0.1875q-0.203125 -0.1875 -0.203125 -0.484375q0 -0.296875 0.203125 -0.46875q0.21875 -0.1875 0.6875 -0.1875l1.609375 0l0 -3.25l-1.078125 0q-0.46875 0 -0.6875 -0.1875q-0.203125 -0.1875 -0.203125 -0.484375q0 -0.28125 0.203125 -0.46875q0.203125 -0.1875 0.6875 -0.1875l2.40625 0zm8.779434 1.5625q-0.328125 -0.203125 -0.6875 -0.296875q-0.34375 -0.109375 -0.734375 -0.109375q-0.78125 0 -1.234375 0.25q-0.203125 0.109375 -0.203125 0.25q0 0.140625 0.265625 0.28125q0.21875 0.109375 0.9375 0.203125q1.328125 0.1875 1.84375 0.375q0.6875 0.234375 1.046875 0.71875q0.375 0.46875 0.375 1.0q0 0.703125 -0.625 1.1875q-0.90625 0.703125 -2.34375 0.703125q-0.578125 0 -1.078125 -0.109375q-0.484375 -0.09375 -0.890625 -0.296875q-0.109375 0.09375 -0.21875 0.140625q-0.109375 0.046875 -0.21875 0.046875q-0.3125 0 -0.5 -0.203125q-0.1875 -0.21875 -0.1875 -0.6875l0 -0.453125q0 -0.484375 0.1875 -0.6875q0.1875 -0.203125 0.484375 -0.203125q0.234375 0 0.390625 0.140625q0.171875 0.125 0.265625 0.453125q0.296875 0.25 0.71875 0.390625q0.4375 0.125 1.0 0.125q0.921875 0 1.421875 -0.28125q0.25 -0.140625 0.25 -0.296875q0 -0.265625 -0.34375 -0.4375q-0.34375 -0.15625 -1.421875 -0.28125q-1.609375 -0.171875 -2.15625 -0.65625q-0.53125 -0.46875 -0.53125 -1.171875q0 -0.703125 0.59375 -1.1875q0.828125 -0.640625 2.15625 -0.640625q0.453125 0 0.875 0.09375q0.4375 0.078125 0.828125 0.25q0.125 -0.078125 0.234375 -0.125q0.109375 -0.046875 0.1875 -0.046875q0.28125 0 0.453125 0.203125q0.1875 0.203125 0.1875 0.6875l0 0.328125q0 0.4375 -0.09375 0.59375q-0.21875 0.296875 -0.578125 0.296875q-0.234375 0 -0.421875 -0.140625q-0.171875 -0.15625 -0.234375 -0.40625zm6.232559 -0.234375l0 2.671875q0 0.4375 0.171875 0.578125q0.28125 0.203125 0.984375 0.203125q1.015625 0 1.875 -0.4375q0.34375 -0.15625 0.53125 -0.15625q0.25 0 0.4375 0.203125q0.203125 0.1875 0.203125 0.46875q0 0.25 -0.203125 0.4375q-0.328125 0.3125 -1.265625 0.578125q-0.9375 0.25 -1.578125 0.25q-1.25 0 -1.875 -0.53125q-0.609375 -0.546875 -0.609375 -1.328125l0 -2.9375l-0.484375 0q-0.484375 0 -0.6875 -0.1875q-0.203125 -0.1875 -0.203125 -0.484375q0 -0.28125 0.203125 -0.46875q0.203125 -0.1875 0.6875 -0.1875l0.484375 0l0 -1.203125q0 -0.484375 0.171875 -0.6875q0.1875 -0.203125 0.484375 -0.203125q0.296875 0 0.484375 0.203125q0.1875 0.203125 0.1875 0.6875l0 1.203125l2.46875 0q0.484375 0 0.6875 0.1875q0.203125 0.1875 0.203125 0.484375q0 0.28125 -0.203125 0.46875q-0.203125 0.1875 -0.6875 0.1875l-2.46875 0zm8.045059 -1.328125l0 0.828125q0.84375 -0.609375 1.328125 -0.796875q0.484375 -0.203125 0.90625 -0.203125q0.65625 0 1.265625 0.46875q0.421875 0.328125 0.421875 0.671875q0 0.28125 -0.203125 0.484375q-0.203125 0.203125 -0.484375 0.203125q-0.25 0 -0.53125 -0.25q-0.265625 -0.25 -0.46875 -0.25q-0.28125 0 -0.84375 0.359375q-0.546875 0.34375 -1.390625 1.046875l0 2.015625l1.90625 0q0.484375 0 0.6875 0.1875q0.203125 0.171875 0.203125 0.484375q0 0.28125 -0.203125 0.46875q-0.203125 0.1875 -0.6875 0.1875l-4.03125 0q-0.484375 0 -0.6875 -0.1875q-0.203125 -0.1875 -0.203125 -0.484375q0 -0.296875 0.203125 -0.46875q0.203125 -0.1875 0.6875 -0.1875l0.796875 0l0 -3.25l-0.484375 0q-0.484375 0 -0.6875 -0.1875q-0.203125 -0.1875 -0.203125 -0.484375q0 -0.28125 0.203125 -0.46875q0.203125 -0.1875 0.6875 -0.1875l1.8125 0zm9.482559 5.90625l0 -0.3125q-0.5 0.265625 -1.109375 0.390625q-0.609375 0.140625 -1.09375 0.140625q-1.078125 0 -1.75 -0.5625q-0.671875 -0.578125 -0.671875 -1.265625q0 -0.84375 0.859375 -1.5625q0.859375 -0.71875 2.359375 -0.71875q0.609375 0 1.40625 0.140625l0 -0.328125q0 -0.296875 -0.265625 -0.484375q-0.25 -0.1875 -0.96875 -0.1875q-0.59375 0 -1.546875 0.234375q-0.34375 0.078125 -0.546875 0.078125q-0.265625 0 -0.453125 -0.1875q-0.171875 -0.1875 -0.171875 -0.484375q0 -0.171875 0.0625 -0.296875q0.0625 -0.125 0.171875 -0.203125q0.125 -0.078125 0.5 -0.171875q0.484375 -0.140625 1.0 -0.21875q0.515625 -0.078125 0.9375 -0.078125q1.234375 0 1.921875 0.53125q0.6875 0.53125 0.6875 1.46875l0 2.75l0.234375 0q0.484375 0 0.6875 0.1875q0.203125 0.171875 0.203125 0.484375q0 0.28125 -0.203125 0.46875q-0.203125 0.1875 -0.6875 0.1875l-1.5625 0zm0 -2.390625q-0.796875 -0.15625 -1.484375 -0.15625q-0.8125 0 -1.390625 0.40625q-0.375 0.25 -0.375 0.5q0 0.203125 0.1875 0.3125q0.3125 0.21875 0.890625 0.21875q0.46875 0 1.078125 -0.1875q0.609375 -0.1875 1.09375 -0.515625l0 -0.578125zm6.466919 -2.1875l0 2.671875q0 0.4375 0.171875 0.578125q0.28125 0.203125 0.984375 0.203125q1.015625 0 1.875 -0.4375q0.34375 -0.15625 0.53125 -0.15625q0.25 0 0.4375 0.203125q0.203125 0.1875 0.203125 0.46875q0 0.25 -0.203125 0.4375q-0.328125 0.3125 -1.265625 0.578125q-0.9375 0.25 -1.578125 0.25q-1.25 0 -1.875 -0.53125q-0.609375 -0.546875 -0.609375 -1.328125l0 -2.9375l-0.484375 0q-0.484375 0 -0.6875 -0.1875q-0.203125 -0.1875 -0.203125 -0.484375q0 -0.28125 0.203125 -0.46875q0.203125 -0.1875 0.6875 -0.1875l0.484375 0l0 -1.203125q0 -0.484375 0.171875 -0.6875q0.1875 -0.203125 0.484375 -0.203125q0.296875 0 0.484375 0.203125q0.1875 0.203125 0.1875 0.6875l0 1.203125l2.46875 0q0.484375 0 0.6875 0.1875q0.203125 0.1875 0.203125 0.484375q0 0.28125 -0.203125 0.46875q-0.203125 0.1875 -0.6875 0.1875l-2.46875 0zm8.810699 -3.859375l0 1.40625l-1.59375 0l0 -1.40625l1.59375 0zm0.171875 2.53125l0 4.578125l1.609375 0q0.46875 0 0.671875 0.1875q0.21875 0.171875 0.21875 0.484375q0 0.28125 -0.21875 0.46875q-0.203125 0.1875 -0.671875 0.1875l-4.546875 0q-0.46875 0 -0.6875 -0.1875q-0.203125 -0.1875 -0.203125 -0.484375q0 -0.296875 0.203125 -0.46875q0.21875 -0.1875 0.6875 -0.1875l1.609375 0l0 -3.25l-1.078125 0q-0.46875 0 -0.6875 -0.1875q-0.203125 -0.1875 -0.203125 -0.484375q0 -0.28125 0.203125 -0.46875q0.203125 -0.1875 0.6875 -0.1875l2.40625 0zm7.357544 4.28125l1.4375 -2.953125q-0.546875 0 -0.6875 -0.09375q-0.328125 -0.203125 -0.328125 -0.578125q0 -0.28125 0.203125 -0.46875q0.203125 -0.1875 0.6875 -0.1875l1.828125 0q0.484375 0 0.6875 0.1875q0.203125 0.1875 0.203125 0.484375q0 0.28125 -0.203125 0.46875q-0.203125 0.1875 -0.6875 0.1875l-0.21875 0l-2.234375 4.578125l-1.390625 0l-2.234375 -4.578125l-0.1875 0q-0.484375 0 -0.6875 -0.1875q-0.203125 -0.1875 -0.203125 -0.484375q0 -0.28125 0.203125 -0.46875q0.203125 -0.1875 0.6875 -0.1875l1.796875 0q0.46875 0 0.671875 0.1875q0.203125 0.1875 0.203125 0.484375q0 0.359375 -0.3125 0.5625q-0.15625 0.09375 -0.6875 0.09375l1.453125 2.953125zm11.326324 -0.65625l-5.46875 0q0.203125 0.53125 0.734375 0.84375q0.53125 0.3125 1.4375 0.3125q0.75 0 1.96875 -0.3125q0.515625 -0.125 0.703125 -0.125q0.265625 0 0.453125 0.1875q0.1875 0.1875 0.1875 0.46875q0 0.265625 -0.203125 0.4375q-0.265625 0.25 -1.28125 0.46875q-1.0 0.21875 -1.921875 0.21875q-1.609375 0 -2.578125 -0.90625q-0.953125 -0.90625 -0.953125 -2.234375q0 -1.40625 1.03125 -2.28125q1.046875 -0.875 2.40625 -0.875q0.8125 0 1.484375 0.28125q0.6875 0.28125 1.015625 0.609375q0.46875 0.484375 0.78125 1.203125q0.203125 0.484375 0.203125 1.140625l0 0.5625zm-1.46875 -1.328125q-0.3125 -0.578125 -0.8125 -0.859375q-0.484375 -0.28125 -1.171875 -0.28125q-0.671875 0 -1.171875 0.28125q-0.5 0.28125 -0.8125 0.859375l3.96875 0zm9.170044 -2.9375l0 3.78125q0 1.234375 -0.890625 2.09375q-0.890625 0.859375 -2.140625 0.859375q-0.609375 0 -1.15625 -0.203125q-0.546875 -0.21875 -0.984375 -0.640625q-0.421875 -0.4375 -0.671875 -0.890625q-0.234375 -0.453125 -0.234375 -1.21875l0 -3.78125q-0.421875 0 -0.625 -0.1875q-0.203125 -0.203125 -0.203125 -0.484375q0 -0.296875 0.203125 -0.484375q0.203125 -0.1875 0.6875 -0.1875l1.75 0q0.484375 0 0.6875 0.1875q0.203125 0.1875 0.203125 0.484375q0 0.296875 -0.203125 0.484375q-0.203125 0.1875 -0.6875 0.1875l-0.484375 0l0 3.890625q0 0.59375 0.5 1.0625q0.5 0.453125 1.203125 0.453125q0.46875 0 0.875 -0.21875q0.421875 -0.21875 0.671875 -0.640625q0.171875 -0.265625 0.171875 -0.65625l0 -3.890625l-0.484375 0q-0.484375 0 -0.6875 -0.1875q-0.203125 -0.1875 -0.203125 -0.484375q0 -0.296875 0.203125 -0.484375q0.203125 -0.1875 0.6875 -0.1875l1.75 0q0.484375 0 0.6875 0.1875q0.203125 0.1875 0.203125 0.484375q0 0.28125 -0.203125 0.484375q-0.203125 0.1875 -0.625 0.1875zm3.6075745 0.640625l0 0.453125q0.359375 -0.3125 0.796875 -0.46875q0.4375 -0.15625 0.953125 -0.15625q1.1875 0 1.875 0.734375q0.546875 0.578125 0.546875 1.53125l0 2.484375q0.421875 0 0.625 0.1875q0.203125 0.171875 0.203125 0.484375q0 0.28125 -0.203125 0.46875q-0.203125 0.1875 -0.6875 0.1875l-1.203125 0q-0.484375 0 -0.6875 -0.1875q-0.203125 -0.1875 -0.203125 -0.484375q0 -0.296875 0.1875 -0.46875q0.203125 -0.1875 0.640625 -0.1875l0 -2.53125q0 -0.421875 -0.234375 -0.625q-0.3125 -0.265625 -0.921875 -0.265625q-0.46875 0 -0.8125 0.1875q-0.34375 0.171875 -0.875 0.75l0 2.484375q0.5 0 0.65625 0.09375q0.3125 0.1875 0.3125 0.578125q0 0.28125 -0.203125 0.46875q-0.203125 0.1875 -0.6875 0.1875l-1.515625 0q-0.484375 0 -0.6875 -0.1875q-0.203125 -0.1875 -0.203125 -0.484375q0 -0.359375 0.3125 -0.5625q0.15625 -0.09375 0.671875 -0.09375l0 -3.25q-0.421875 0 -0.625 -0.1875q-0.203125 -0.1875 -0.203125 -0.484375q0 -0.28125 0.203125 -0.46875q0.203125 -0.1875 0.6875 -0.1875l1.28125 0zm9.826294 -2.53125l0 1.40625l-1.59375 0l0 -1.40625l1.59375 0zm0.171875 2.53125l0 4.578125l1.609375 0q0.46875 0 0.671875 0.1875q0.21875 0.171875 0.21875 0.484375q0 0.28125 -0.21875 0.46875q-0.203125 0.1875 -0.671875 0.1875l-4.546875 0q-0.46875 0 -0.6875 -0.1875q-0.203125 -0.1875 -0.203125 -0.484375q0 -0.296875 0.203125 -0.46875q0.21875 -0.1875 0.6875 -0.1875l1.609375 0l0 -3.25l-1.078125 0q-0.46875 0 -0.6875 -0.1875q-0.203125 -0.1875 -0.203125 -0.484375q0 -0.28125 0.203125 -0.46875q0.203125 -0.1875 0.6875 -0.1875l2.40625 0zm7.0138245 1.328125l0 2.671875q0 0.4375 0.171875 0.578125q0.28125 0.203125 0.984375 0.203125q1.015625 0 1.875 -0.4375q0.34375 -0.15625 0.53125 -0.15625q0.25 0 0.4375 0.203125q0.203125 0.1875 0.203125 0.46875q0 0.25 -0.203125 0.4375q-0.328125 0.3125 -1.265625 0.578125q-0.9375 0.25 -1.578125 0.25q-1.25 0 -1.875 -0.53125q-0.609375 -0.546875 -0.609375 -1.328125l0 -2.9375l-0.484375 0q-0.484375 0 -0.6875 -0.1875q-0.203125 -0.1875 -0.203125 -0.484375q0 -0.28125 0.203125 -0.46875q0.203125 -0.1875 0.6875 -0.1875l0.484375 0l0 -1.203125q0 -0.484375 0.171875 -0.6875q0.1875 -0.203125 0.484375 -0.203125q0.296875 0 0.484375 0.203125q0.1875 0.203125 0.1875 0.6875l0 1.203125l2.46875 0q0.484375 0 0.6875 0.1875q0.203125 0.1875 0.203125 0.484375q0 0.28125 -0.203125 0.46875q-0.203125 0.1875 -0.6875 0.1875l-2.46875 0z" fill-rule="nonzero"/><path fill="#cfe2f3" d="m230.5485 12.472441l29.480621 0l0 9.9585705l-19.524185 0l0 3.9601498l19.461899 0l0 9.894178l-19.397125 0l0 4.022064l19.459412 0l0 9.961048l-29.480621 0z" fill-rule="evenodd"/><path stroke="#4e8aeb" stroke-width="3.0" stroke-linejoin="round" stroke-linecap="butt" d="m230.5485 12.472441l29.480621 0l0 9.9585705l-19.524185 0l0 3.9601498l19.461899 0l0 9.894178l-19.397125 0l0 4.022064l19.459412 0l0 9.961048l-29.480621 0z" fill-rule="evenodd"/><path fill="#ebe3fd" d="m255.19392 38.6493l0 23.653542l21.936996 0l-10.753265 -11.611549l10.753265 -12.041992z" fill-rule="evenodd"/><path stroke="#8b6bda" stroke-width="3.0" stroke-linejoin="round" stroke-linecap="butt" d="m255.19392 38.6493l0 23.653542l21.936996 0l-10.753265 -11.611549l10.753265 -12.041992z" fill-rule="evenodd"/></g></svg>