<svg version="1.1" viewBox="0.0 0.0 323.1496062992126 91.84251968503936" fill="none" stroke="none" stroke-linecap="square" stroke-miterlimit="10" xmlns:xlink="http://www.w3.org/1999/xlink" xmlns="http://www.w3.org/2000/svg"><clipPath id="p.0"><path d="m0 0l323.1496 0l0 91.84252l-323.1496 0l0 -91.84252z" clip-rule="nonzero"/></clipPath><g clip-path="url(#p.0)"><path fill="#000000" fill-opacity="0.0" d="m0 0l323.1496 0l0 91.84252l-323.1496 0z" fill-rule="evenodd"/><path fill="#000000" fill-opacity="0.0" d="m127.35954 31.370403l-60.62992 0" fill-rule="evenodd"/><path stroke="#000000" stroke-width="3.0" stroke-linejoin="round" stroke-linecap="butt" d="m127.35955 31.370401l-43.745102 0" fill-rule="evenodd"/><path stroke="#000000" stroke-width="3.0" stroke-linecap="butt" d="m83.61445 31.370401l-7.1348267 -4.995861l-7.1348267 4.995861l7.1348267 4.995863z" fill-rule="evenodd"/><path fill="#000000" fill-opacity="0.0" d="m211.86348 31.370403l39.842514 0.031496048" fill-rule="evenodd"/><path stroke="#000000" stroke-width="3.0" stroke-linejoin="round" stroke-linecap="butt" d="m211.86348 31.370403l39.842514 0.031496048" fill-rule="evenodd"/><path fill="#cfe2f3" d="m251.72078 31.396326l0 0c0 -15.664014 12.204636 -28.362206 27.259842 -28.362206l0 0c7.229767 0 14.163391 2.9881523 19.275604 8.307097c5.112213 5.318946 7.9842224 12.532983 7.9842224 20.055107l0 0c0 15.664011 -12.20462 28.362204 -27.259827 28.362204l0 0c-15.055206 0 -27.259842 -12.698193 -27.259842 -28.362204z" fill-rule="evenodd"/><path stroke="#4e8aeb" stroke-width="2.0" stroke-linejoin="round" stroke-linecap="butt" d="m251.72078 31.396326l0 0c0 -15.664014 12.204636 -28.362206 27.259842 -28.362206l0 0c7.229767 0 14.163391 2.9881523 19.275604 8.307097c5.112213 5.318946 7.9842224 12.532983 7.9842224 20.055107l0 0c0 15.664011 -12.20462 28.362204 -27.259827 28.362204l0 0c-15.055206 0 -27.259842 -12.698193 -27.259842 -28.362204z" fill-rule="evenodd"/><path fill="#cfe2f3" d="m296.02728 40.174442l0 0c-3.8216858 8.244152 -12.474274 12.67598 -20.972748 10.742161c-8.498444 -1.9338188 -14.653778 -9.735172 -14.919708 -18.909462c-0.26593018 -9.174286 5.426056 -17.358437 13.7966 -19.837301c8.370544 -2.4788637 17.26361 1.3860502 21.555634 9.368044l-8.601135 5.1553574c-1.9510803 -4.07251 -6.150482 -6.1087666 -10.141632 -4.9175873c-3.9911194 1.1911812 -6.7253723 5.2968235 -6.60318 9.915178c0.122161865 4.6183567 3.0686646 8.535982 7.1157837 9.461119c4.047119 0.92513657 8.131561 -1.385292 9.863922 -5.579712z" fill-rule="evenodd"/><path stroke="#4e8aeb" stroke-width="2.0" stroke-linejoin="round" stroke-linecap="butt" d="m296.02728 40.174442l0 0c-3.8216858 8.244152 -12.474274 12.67598 -20.972748 10.742161c-8.498444 -1.9338188 -14.653778 -9.735172 -14.919708 -18.909462c-0.26593018 -9.174286 5.426056 -17.358437 13.7966 -19.837301c8.370544 -2.4788637 17.26361 1.3860502 21.555634 9.368044l-8.601135 5.1553574c-1.9510803 -4.07251 -6.150482 -6.1087666 -10.141632 -4.9175873c-3.9911194 1.1911812 -6.7253723 5.2968235 -6.60318 9.915178c0.122161865 4.6183567 3.0686646 8.535982 7.1157837 9.461119c4.047119 0.92513657 8.131561 -1.385292 9.863922 -5.579712z" fill-rule="evenodd"/><path fill="#000000" fill-opacity="0.0" d="m242.64568 63.106964l77.57478 0l0 25.700783l-77.57478 0z" fill-rule="evenodd"/><path fill="#000000" d="m256.6738 82.203835l0 1.375l1.34375 0q0.484375 0 0.6875 0.1875q0.203125 0.171875 0.203125 0.484375q0 0.28125 -0.203125 0.46875q-0.203125 0.1875 -0.6875 0.1875l-2.890625 0q-0.484375 0 -0.6875 -0.1875q-0.203125 -0.1875 -0.203125 -0.484375q0 -0.296875 0.203125 -0.46875q0.203125 -0.1875 0.6875 -0.1875l0.203125 0l0 -5.21875l-0.203125 0q-0.484375 0 -0.6875 -0.1875q-0.203125 -0.1875 -0.203125 -0.484375q0 -0.296875 0.203125 -0.484375q0.203125 -0.1875 0.6875 -0.1875l3.0625 0q1.359375 0 2.140625 0.75q0.796875 0.734375 0.796875 1.796875q0 0.578125 -0.265625 1.09375q-0.203125 0.390625 -0.671875 0.78125q-0.46875 0.375 -0.96875 0.578125q-0.484375 0.1875 -1.296875 0.1875l-1.25 0zm0 -1.34375l1.234375 0q0.875 0 1.375 -0.390625q0.515625 -0.390625 0.515625 -0.9375q0 -0.46875 -0.421875 -0.8125q-0.40625 -0.359375 -1.171875 -0.359375l-1.53125 0l0 2.5zm12.232574 1.203125q0 0.765625 -0.4375 1.484375q-0.421875 0.71875 -1.265625 1.15625q-0.84375 0.421875 -1.75 0.421875q-0.921875 0 -1.75 -0.421875q-0.828125 -0.421875 -1.265625 -1.140625q-0.4375 -0.71875 -0.4375 -1.515625q0 -0.796875 0.4375 -1.5625q0.4375 -0.78125 1.265625 -1.21875q0.84375 -0.4375 1.75 -0.4375q0.90625 0 1.75 0.453125q0.84375 0.4375 1.265625 1.203125q0.4375 0.765625 0.4375 1.578125zm-1.34375 0q0 -0.640625 -0.453125 -1.171875q-0.640625 -0.734375 -1.65625 -0.734375q-0.90625 0 -1.515625 0.578125q-0.609375 0.578125 -0.609375 1.34375q0 0.625 0.609375 1.171875q0.625 0.53125 1.515625 0.53125q0.890625 0 1.5 -0.53125q0.609375 -0.546875 0.609375 -1.1875zm6.545044 -5.59375l0 7.109375l1.59375 0q0.484375 0 0.6875 0.1875q0.203125 0.171875 0.203125 0.484375q0 0.28125 -0.203125 0.46875q-0.203125 0.1875 -0.6875 0.1875l-4.53125 0q-0.484375 0 -0.6875 -0.1875q-0.203125 -0.1875 -0.203125 -0.484375q0 -0.296875 0.203125 -0.46875q0.203125 -0.1875 0.6875 -0.1875l1.59375 0l0 -5.78125l-1.0625 0q-0.484375 0 -0.703125 -0.1875q-0.203125 -0.1875 -0.203125 -0.484375q0 -0.28125 0.203125 -0.46875q0.21875 -0.1875 0.703125 -0.1875l2.40625 0zm6.5763245 8.390625l-2.3125 -4.53125q-0.3125 -0.03125 -0.484375 -0.21875q-0.171875 -0.1875 -0.171875 -0.4375q0 -0.296875 0.203125 -0.484375q0.203125 -0.1875 0.6875 -0.1875l1.21875 0q0.484375 0 0.6875 0.1875q0.203125 0.1875 0.203125 0.484375q0 0.28125 -0.203125 0.46875q-0.203125 0.1875 -0.65625 0.1875l1.578125 3.0625l1.5625 -3.0625q-0.421875 0 -0.640625 -0.1875q-0.203125 -0.1875 -0.203125 -0.484375q0 -0.28125 0.203125 -0.46875q0.21875 -0.1875 0.6875 -0.1875l1.265625 0q0.46875 0 0.671875 0.1875q0.203125 0.1875 0.203125 0.484375q0 0.265625 -0.171875 0.453125q-0.171875 0.1875 -0.515625 0.203125l-3.0625 6.03125q0.5 0 0.65625 0.09375q0.3125 0.203125 0.3125 0.578125q0 0.296875 -0.203125 0.46875q-0.203125 0.1875 -0.6875 0.1875l-2.90625 0q-0.484375 0 -0.6875 -0.1875q-0.203125 -0.171875 -0.203125 -0.46875q0 -0.296875 0.203125 -0.484375q0.203125 -0.1875 0.6875 -0.1875l1.328125 0l0.75 -1.5zm10.216919 -5.46875l0 -0.390625l1.5625 0q0.484375 0 0.6875 0.1875q0.203125 0.1875 0.203125 0.484375q0 0.28125 -0.203125 0.46875q-0.203125 0.1875 -0.6875 0.1875l-0.234375 0l0 4.859375q0 0.703125 -0.296875 1.21875q-0.296875 0.53125 -0.90625 0.90625q-0.609375 0.375 -1.375 0.375l-1.515625 0q-0.484375 0 -0.6875 -0.1875q-0.203125 -0.171875 -0.203125 -0.46875q0 -0.296875 0.203125 -0.484375q0.203125 -0.1875 0.6875 -0.1875l1.46875 0q0.625 0 0.953125 -0.34375q0.34375 -0.328125 0.34375 -0.828125l0 -0.65625q-0.4375 0.296875 -0.90625 0.4375q-0.453125 0.140625 -0.9375 0.140625q-1.359375 0 -2.28125 -0.90625q-0.921875 -0.90625 -0.921875 -2.25q0 -1.328125 0.921875 -2.234375q0.921875 -0.921875 2.28125 -0.921875q0.5 0 0.953125 0.15625q0.46875 0.140625 0.890625 0.4375zm-0.015625 2.5625q0 -0.734375 -0.546875 -1.265625q-0.53125 -0.546875 -1.296875 -0.546875q-0.765625 0 -1.3125 0.546875q-0.53125 0.53125 -0.53125 1.265625q0 0.734375 0.53125 1.28125q0.546875 0.53125 1.3125 0.53125q0.765625 0 1.296875 -0.53125q0.546875 -0.546875 0.546875 -1.28125zm10.013824 0.109375q0 0.765625 -0.4375 1.484375q-0.421875 0.71875 -1.265625 1.15625q-0.84375 0.421875 -1.75 0.421875q-0.921875 0 -1.75 -0.421875q-0.828125 -0.421875 -1.265625 -1.140625q-0.4375 -0.71875 -0.4375 -1.515625q0 -0.796875 0.4375 -1.5625q0.4375 -0.78125 1.265625 -1.21875q0.84375 -0.4375 1.75 -0.4375q0.90625 0 1.75 0.453125q0.84375 0.4375 1.265625 1.203125q0.4375 0.765625 0.4375 1.578125zm-1.34375 0q0 -0.640625 -0.453125 -1.171875q-0.640625 -0.734375 -1.65625 -0.734375q-0.90625 0 -1.515625 0.578125q-0.609375 0.578125 -0.609375 1.34375q0 0.625 0.609375 1.171875q0.625 0.53125 1.515625 0.53125q0.890625 0 1.5 -0.53125q0.609375 -0.546875 0.609375 -1.1875zm4.529419 -3.0625l0 0.453125q0.359375 -0.3125 0.796875 -0.46875q0.4375 -0.15625 0.953125 -0.15625q1.1875 0 1.875 0.734375q0.546875 0.578125 0.546875 1.53125l0 2.484375q0.421875 0 0.625 0.1875q0.203125 0.171875 0.203125 0.484375q0 0.28125 -0.203125 0.46875q-0.203125 0.1875 -0.6875 0.1875l-1.203125 0q-0.484375 0 -0.6875 -0.1875q-0.203125 -0.1875 -0.203125 -0.484375q0 -0.296875 0.1875 -0.46875q0.203125 -0.1875 0.640625 -0.1875l0 -2.53125q0 -0.421875 -0.234375 -0.625q-0.3125 -0.265625 -0.921875 -0.265625q-0.46875 0 -0.8125 0.1875q-0.34375 0.171875 -0.875 0.75l0 2.484375q0.5 0 0.65625 0.09375q0.3125 0.1875 0.3125 0.578125q0 0.28125 -0.203125 0.46875q-0.203125 0.1875 -0.6875 0.1875l-1.515625 0q-0.484375 0 -0.6875 -0.1875q-0.203125 -0.1875 -0.203125 -0.484375q0 -0.359375 0.3125 -0.5625q0.15625 -0.09375 0.671875 -0.09375l0 -3.25q-0.421875 0 -0.625 -0.1875q-0.203125 -0.1875 -0.203125 -0.484375q0 -0.28125 0.203125 -0.46875q0.203125 -0.1875 0.6875 -0.1875l1.28125 0z" fill-rule="nonzero"/><path fill="#ebe3fd" d="m289.17877 38.913387l0 23.653542l21.937012 0l-10.753265 -11.611549l10.753265 -12.041992z" fill-rule="evenodd"/><path stroke="#8b6bda" stroke-width="2.0" stroke-linejoin="round" stroke-linecap="butt" d="m289.17877 38.913387l0 23.653542l21.937012 0l-10.753265 -11.611549l10.753265 -12.041992z" fill-rule="evenodd"/><path fill="#000000" fill-opacity="0.0" d="m127.35954 13.590875l84.50394 0l0 35.559055l-84.50394 0z" fill-rule="evenodd"/><path stroke="#000000" stroke-width="3.0" stroke-linejoin="round" stroke-linecap="butt" d="m127.35954 13.590875l84.50394 0l0 35.559055l-84.50394 0z" fill-rule="evenodd"/><path fill="#000000" d="m145.05537 28.844l0 5.218748l2.875 0l0 -1.265625q0 -0.484375 0.1875 -0.6875q0.1875 -0.2031231 0.484375 -0.2031231q0.296875 0 0.484375 0.2031231q0.1875 0.203125 0.1875 0.6875l0 2.59375l-6.328125 0q-0.46875 0 -0.6875 -0.1875q-0.203125 -0.1875 -0.203125 -0.484375q0 -0.296875 0.203125 -0.46875q0.21875 -0.1875 0.6875 -0.1875l0.78125 0l0 -5.218748l-0.78125 0q-0.46875 0 -0.6875 -0.1875q-0.203125 -0.1875 -0.203125 -0.484375q0 -0.296875 0.203125 -0.484375q0.21875 -0.1875 0.6875 -0.1875l2.890625 0q0.484375 0 0.6875 0.1875q0.203125 0.1875 0.203125 0.484375q0 0.296875 -0.203125 0.484375q-0.203125 0.1875 -0.6875 0.1875l-0.78125 0zm9.045059 -1.890625l0 1.40625l-1.59375 0l0 -1.40625l1.59375 0zm0.171875 2.53125l0 4.578123l1.609375 0q0.46875 0 0.671875 0.1875q0.21875 0.171875 0.21875 0.484375q0 0.28125 -0.21875 0.46875q-0.203125 0.1875 -0.671875 0.1875l-4.546875 0q-0.46875 0 -0.6875 -0.1875q-0.203125 -0.1875 -0.203125 -0.484375q0 -0.296875 0.203125 -0.46875q0.21875 -0.1875 0.6875 -0.1875l1.609375 0l0 -3.249998l-1.078125 0q-0.46875 0 -0.6875 -0.1875q-0.203125 -0.1875 -0.203125 -0.484375q0 -0.28125 0.203125 -0.46875q0.203125 -0.1875 0.6875 -0.1875l2.40625 0zm8.779434 1.5625q-0.328125 -0.203125 -0.6875 -0.296875q-0.34375 -0.109375 -0.734375 -0.109375q-0.78125 0 -1.234375 0.25q-0.203125 0.109375 -0.203125 0.25q0 0.140625 0.265625 0.28125q0.21875 0.109375 0.9375 0.203125q1.328125 0.1875 1.84375 0.3749981q0.6875 0.234375 1.046875 0.71875q0.375 0.46875 0.375 1.0q0 0.703125 -0.625 1.1875q-0.90625 0.703125 -2.34375 0.703125q-0.578125 0 -1.078125 -0.109375q-0.484375 -0.09375 -0.890625 -0.296875q-0.109375 0.09375 -0.21875 0.140625q-0.109375 0.046875 -0.21875 0.046875q-0.3125 0 -0.5 -0.203125q-0.1875 -0.21875 -0.1875 -0.6875l0 -0.453125q0 -0.484375 0.1875 -0.6875q0.1875 -0.203125 0.484375 -0.203125q0.234375 0 0.390625 0.140625q0.171875 0.125 0.265625 0.453125q0.296875 0.25 0.71875 0.390625q0.4375 0.125 1.0 0.125q0.921875 0 1.421875 -0.28125q0.25 -0.140625 0.25 -0.296875q0 -0.265625 -0.34375 -0.4375q-0.34375 -0.15625 -1.421875 -0.28125q-1.609375 -0.171875 -2.15625 -0.65625q-0.53125 -0.4687481 -0.53125 -1.1718731q0 -0.703125 0.59375 -1.1875q0.828125 -0.640625 2.15625 -0.640625q0.453125 0 0.875 0.09375q0.4375 0.078125 0.828125 0.25q0.125 -0.078125 0.234375 -0.125q0.109375 -0.046875 0.1875 -0.046875q0.28125 0 0.453125 0.203125q0.1875 0.203125 0.1875 0.6875l0 0.328125q0 0.4375 -0.09375 0.59375q-0.21875 0.296875 -0.578125 0.296875q-0.234375 0 -0.421875 -0.140625q-0.171875 -0.15625 -0.234375 -0.40625zm6.232559 -0.234375l0 2.671873q0 0.4375 0.171875 0.578125q0.28125 0.203125 0.984375 0.203125q1.015625 0 1.875 -0.4375q0.34375 -0.15625 0.53125 -0.15625q0.25 0 0.4375 0.203125q0.203125 0.1875 0.203125 0.46875q0 0.25 -0.203125 0.4375q-0.328125 0.3125 -1.265625 0.578125q-0.9375 0.25 -1.578125 0.25q-1.25 0 -1.875 -0.53125q-0.609375 -0.546875 -0.609375 -1.328125l0 -2.937498l-0.484375 0q-0.484375 0 -0.6875 -0.1875q-0.203125 -0.1875 -0.203125 -0.484375q0 -0.28125 0.203125 -0.46875q0.203125 -0.1875 0.6875 -0.1875l0.484375 0l0 -1.203125q0 -0.484375 0.171875 -0.6875q0.1875 -0.203125 0.484375 -0.203125q0.296875 0 0.484375 0.203125q0.1875 0.203125 0.1875 0.6875l0 1.203125l2.46875 0q0.484375 0 0.6875 0.1875q0.203125 0.1875 0.203125 0.484375q0 0.28125 -0.203125 0.46875q-0.203125 0.1875 -0.6875 0.1875l-2.46875 0zm6.935684 0.78125l4.3125 2.390623q0.328125 0.1875 0.4375 0.328125q0.109375 0.140625 0.109375 0.359375q0 0.28125 -0.203125 0.484375q-0.203125 0.203125 -0.46875 0.203125q-0.171875 0 -0.53125 -0.1875l-6.4375 -3.578123l6.4375 -3.578125q0.359375 -0.1875 0.515625 -0.1875q0.28125 0 0.484375 0.203125q0.203125 0.1875 0.203125 0.46875q0 0.21875 -0.109375 0.375q-0.109375 0.140625 -0.4375 0.3125l-4.3125 2.40625zm8.295059 -1.25l-1.15625 -0.375q-0.40625 -0.125 -0.515625 -0.28125q-0.15625 -0.1875 -0.15625 -0.421875q0 -0.265625 0.1875 -0.46875q0.203125 -0.203125 0.4375 -0.203125q0.15625 0 0.46875 0.109375l1.140625 0.375l0 -1.21875q0 -0.484375 0.1875 -0.6875q0.1875 -0.203125 0.484375 -0.203125q0.296875 0 0.484375 0.203125q0.1875 0.203125 0.1875 0.6875l0 1.21875l1.15625 -0.375q0.3125 -0.109375 0.453125 -0.109375q0.25 0 0.4375 0.203125q0.1875 0.1875 0.1875 0.46875q0 0.234375 -0.140625 0.40625q-0.125 0.15625 -0.53125 0.296875l-1.15625 0.375l0.71875 0.984375q0.265625 0.359375 0.265625 0.5625q0 0.2812481 -0.203125 0.4843731q-0.1875 0.1875 -0.46875 0.1875q-0.203125 0 -0.34375 -0.078125q-0.125 -0.09375 -0.328125 -0.375l-0.71875 -0.9843731l-0.703125 0.9843731q-0.203125 0.28125 -0.34375 0.375q-0.140625 0.078125 -0.328125 0.078125q-0.28125 0 -0.484375 -0.1875q-0.1875 -0.203125 -0.1875 -0.4843731q0 -0.203125 0.25 -0.5625l0.71875 -0.984375zm10.498184 1.25l-4.3125 -2.40625q-0.328125 -0.171875 -0.4375 -0.3125q-0.109375 -0.15625 -0.109375 -0.375q0 -0.28125 0.203125 -0.46875q0.203125 -0.203125 0.46875 -0.203125q0.171875 0 0.53125 0.1875l6.4375 3.578125l-6.4375 3.578123q-0.359375 0.1875 -0.53125 0.1875q-0.265625 0 -0.46875 -0.1875q-0.203125 -0.203125 -0.203125 -0.5q0 -0.21875 0.109375 -0.359375q0.109375 -0.140625 0.4375 -0.328125l4.3125 -2.390623z" fill-rule="nonzero"/><path fill="#cfe2f3" d="m12.206362 31.364494l0 0c0 -15.664013 12.204647 -28.362206 27.259844 -28.362206l0 0c7.229759 0 14.163406 2.9881523 19.27562 8.307097c5.1122093 5.318945 7.9842186 12.532982 7.9842186 20.055107l0 0c0 15.664013 -12.204643 28.362206 -27.259838 28.362206l0 0c-15.055197 0 -27.259844 -12.698193 -27.259844 -28.362206z" fill-rule="evenodd"/><path stroke="#4e8aeb" stroke-width="2.0" stroke-linejoin="round" stroke-linecap="butt" d="m12.206362 31.364494l0 0c0 -15.664013 12.204647 -28.362206 27.259844 -28.362206l0 0c7.229759 0 14.163406 2.9881523 19.27562 8.307097c5.1122093 5.318945 7.9842186 12.532982 7.9842186 20.055107l0 0c0 15.664013 -12.204643 28.362206 -27.259838 28.362206l0 0c-15.055197 0 -27.259844 -12.698193 -27.259844 -28.362206z" fill-rule="evenodd"/><path fill="#cfe2f3" d="m56.32681 40.142612l0 0c-3.8216896 8.244152 -12.474274 12.675976 -20.972725 10.742161c-8.498453 -1.9338188 -14.653784 -9.735176 -14.919712 -18.909462c-0.26592827 -9.174288 5.4260426 -17.358437 13.796589 -19.837303c8.370544 -2.4788647 17.263618 1.3860502 21.555641 9.368045l-8.601128 5.1553555c-1.9510803 -4.07251 -6.15049 -6.1087666 -10.141632 -4.9175854c-3.9911423 1.1911793 -6.7253685 5.2968216 -6.6031933 9.915178c0.122177124 4.6183567 3.068655 8.535982 7.1157856 9.461119c4.047127 0.92513657 8.13155 -1.385292 9.86393 -5.5797157z" fill-rule="evenodd"/><path stroke="#4e8aeb" stroke-width="2.0" stroke-linejoin="round" stroke-linecap="butt" d="m56.32681 40.142612l0 0c-3.8216896 8.244152 -12.474274 12.675976 -20.972725 10.742161c-8.498453 -1.9338188 -14.653784 -9.735176 -14.919712 -18.909462c-0.26592827 -9.174288 5.4260426 -17.358437 13.796589 -19.837303c8.370544 -2.4788647 17.263618 1.3860502 21.555641 9.368045l-8.601128 5.1553555c-1.9510803 -4.07251 -6.15049 -6.1087666 -10.141632 -4.9175854c-3.9911423 1.1911793 -6.7253685 5.2968216 -6.6031933 9.915178c0.122177124 4.6183567 3.068655 8.535982 7.1157856 9.461119c4.047127 0.92513657 8.13155 -1.385292 9.86393 -5.5797157z" fill-rule="evenodd"/><path fill="#000000" fill-opacity="0.0" d="m3.003463 63.139107l77.5748 0l0 25.70079l-77.5748 0z" fill-rule="evenodd"/><path fill="#000000" d="m20.421314 81.923485l0 1.6875l0.484375 0q0.46875 0 0.671875 0.1875q0.21875 0.171875 0.21875 0.484375q0 0.28125 -0.21875 0.46875q-0.203125 0.1875 -0.671875 0.1875l-2.03125 0q-0.484375 0 -0.6875 -0.1875q-0.203125 -0.1875 -0.203125 -0.484375q0 -0.296875 0.203125 -0.46875q0.21875 -0.1875 0.6875 -0.1875l0.203125 0l0 -5.21875l-0.203125 0q-0.484375 0 -0.6875 -0.1875q-0.203125 -0.1875 -0.203125 -0.484375q0 -0.296875 0.203125 -0.484375q0.203125 -0.1875 0.6875 -0.1875l3.015625 0q1.421875 0 2.1875 0.703125q0.78125 0.703125 0.78125 1.703125q0 0.625 -0.359375 1.140625q-0.359375 0.5 -1.09375 0.90625q0.421875 0.359375 0.90625 0.9375q0.296875 0.375 0.796875 1.171875q0.515625 0 0.671875 0.09375q0.296875 0.203125 0.296875 0.578125q0 0.28125 -0.203125 0.46875q-0.203125 0.1875 -0.6875 0.1875l-0.765625 0q-1.609375 -2.5 -2.6875 -3.015625l-1.3125 0zm0 -1.328125l1.03125 0q0.59375 0 1.046875 -0.171875q0.609375 -0.234375 0.8125 -0.5q0.21875 -0.265625 0.21875 -0.515625q0 -0.375 -0.40625 -0.6875q-0.40625 -0.328125 -1.171875 -0.328125l-1.53125 0l0 2.203125zm12.716934 2.0625l-5.46875 0q0.203125 0.53125 0.734375 0.84375q0.53125 0.3125 1.4375 0.3125q0.75 0 1.96875 -0.3125q0.515625 -0.125 0.703125 -0.125q0.265625 0 0.453125 0.1875q0.1875 0.1875 0.1875 0.46875q0 0.265625 -0.203125 0.4375q-0.265625 0.25 -1.28125 0.46875q-1.0 0.21875 -1.921875 0.21875q-1.609375 0 -2.578125 -0.90625q-0.953125 -0.90625 -0.953125 -2.234375q0 -1.40625 1.03125 -2.28125q1.046875 -0.875 2.40625 -0.875q0.8125 0 1.484375 0.28125q0.6875 0.28125 1.015625 0.609375q0.46875 0.484375 0.78125 1.203125q0.203125 0.484375 0.203125 1.140625l0 0.5625zm-1.46875 -1.328125q-0.3125 -0.578125 -0.8125 -0.859375q-0.484375 -0.28125 -1.171875 -0.28125q-0.671875 0 -1.171875 0.28125q-0.5 0.28125 -0.8125 0.859375l3.96875 0zm7.591934 -1.90625l0 -0.390625l1.5625 0q0.484375 0 0.6875 0.1875q0.203125 0.1875 0.203125 0.484375q0 0.28125 -0.203125 0.46875q-0.203125 0.1875 -0.6875 0.1875l-0.234375 0l0 4.859375q0 0.703125 -0.296875 1.21875q-0.296875 0.53125 -0.90625 0.90625q-0.609375 0.375 -1.375 0.375l-1.515625 0q-0.484375 0 -0.6875 -0.1875q-0.203125 -0.171875 -0.203125 -0.46875q0 -0.296875 0.203125 -0.484375q0.203125 -0.1875 0.6875 -0.1875l1.46875 0q0.625 0 0.953125 -0.34375q0.34375 -0.328125 0.34375 -0.828125l0 -0.65625q-0.4375 0.296875 -0.90625 0.4375q-0.453125 0.140625 -0.9375 0.140625q-1.359375 0 -2.28125 -0.90625q-0.921875 -0.90625 -0.921875 -2.25q0 -1.328125 0.921875 -2.234375q0.921875 -0.921875 2.28125 -0.921875q0.5 0 0.953125 0.15625q0.46875 0.140625 0.890625 0.4375zm-0.015625 2.5625q0 -0.734375 -0.546875 -1.265625q-0.53125 -0.546875 -1.296875 -0.546875q-0.765625 0 -1.3125 0.546875q-0.53125 0.53125 -0.53125 1.265625q0 0.734375 0.53125 1.28125q0.546875 0.53125 1.3125 0.53125q0.765625 0 1.296875 -0.53125q0.546875 -0.546875 0.546875 -1.28125zm7.029434 -5.484375l0 1.40625l-1.59375 0l0 -1.40625l1.59375 0zm0.171875 2.53125l0 4.578125l1.609375 0q0.46875 0 0.671875 0.1875q0.21875 0.171875 0.21875 0.484375q0 0.28125 -0.21875 0.46875q-0.203125 0.1875 -0.671875 0.1875l-4.546875 0q-0.46875 0 -0.6875 -0.1875q-0.203125 -0.1875 -0.203125 -0.484375q0 -0.296875 0.203125 -0.46875q0.21875 -0.1875 0.6875 -0.1875l1.609375 0l0 -3.25l-1.078125 0q-0.46875 0 -0.6875 -0.1875q-0.203125 -0.1875 -0.203125 -0.484375q0 -0.28125 0.203125 -0.46875q0.203125 -0.1875 0.6875 -0.1875l2.40625 0zm10.810684 3.0625q0 0.765625 -0.4375 1.484375q-0.421875 0.71875 -1.265625 1.15625q-0.84375 0.421875 -1.75 0.421875q-0.921875 0 -1.75 -0.421875q-0.828125 -0.421875 -1.265625 -1.140625q-0.4375 -0.71875 -0.4375 -1.515625q0 -0.796875 0.4375 -1.5625q0.4375 -0.78125 1.265625 -1.21875q0.84375 -0.4375 1.75 -0.4375q0.90625 0 1.75 0.453125q0.84375 0.4375 1.265625 1.203125q0.4375 0.765625 0.4375 1.578125zm-1.34375 0q0 -0.640625 -0.453125 -1.171875q-0.640625 -0.734375 -1.65625 -0.734375q-0.90625 0 -1.515625 0.578125q-0.609375 0.578125 -0.609375 1.34375q0 0.625 0.609375 1.171875q0.625 0.53125 1.515625 0.53125q0.890625 0 1.5 -0.53125q0.609375 -0.546875 0.609375 -1.1875zm4.529434 -3.0625l0 0.453125q0.359375 -0.3125 0.796875 -0.46875q0.4375 -0.15625 0.953125 -0.15625q1.1875 0 1.8749962 0.734375q0.546875 0.578125 0.546875 1.53125l0 2.484375q0.421875 0 0.625 0.1875q0.203125 0.171875 0.203125 0.484375q0 0.28125 -0.203125 0.46875q-0.203125 0.1875 -0.6875 0.1875l-1.2031212 0q-0.484375 0 -0.6875 -0.1875q-0.203125 -0.1875 -0.203125 -0.484375q0 -0.296875 0.1875 -0.46875q0.203125 -0.1875 0.640625 -0.1875l0 -2.53125q0 -0.421875 -0.234375 -0.625q-0.3125 -0.265625 -0.921875 -0.265625q-0.46875 0 -0.8125 0.1875q-0.34375 0.171875 -0.875 0.75l0 2.484375q0.5 0 0.65625 0.09375q0.3125 0.1875 0.3125 0.578125q0 0.28125 -0.203125 0.46875q-0.203125 0.1875 -0.6875 0.1875l-1.515625 0q-0.484375 0 -0.6875 -0.1875q-0.203125 -0.1875 -0.203125 -0.484375q0 -0.359375 0.3125 -0.5625q0.15625 -0.09375 0.671875 -0.09375l0 -3.25q-0.421875 0 -0.625 -0.1875q-0.203125 -0.1875 -0.203125 -0.484375q0 -0.28125 0.203125 -0.46875q0.203125 -0.1875 0.6875 -0.1875l1.28125 0z" fill-rule="nonzero"/><path fill="#ebe3fd" d="m49.664368 38.881554l0 23.653545l21.937004 0l-10.753277 -11.611549l10.753277 -12.041996z" fill-rule="evenodd"/><path stroke="#8b6bda" stroke-width="2.0" stroke-linejoin="round" stroke-linecap="butt" d="m49.664368 38.881554l0 23.653545l21.937004 0l-10.753277 -11.611549l10.753277 -12.041996z" fill-rule="evenodd"/><path fill="#000000" fill-opacity="0.0" d="m85.07553 12.100807l36.53543 0l0 18.96063l-36.53543 0z" fill-rule="evenodd"/><path fill="#000000" d="m89.903656 18.154556l0 1.984375q0.296875 -0.171875 0.59375 -0.25q0.296875 -0.09375 0.609375 -0.09375q0.484375 0 0.859375 0.171875q0.375 0.15625 0.625 0.515625q0.25 0.359375 0.25 0.890625l0 1.75q0.359375 0 0.46875 0.078125q0.21875 0.140625 0.21875 0.390625q0 0.203125 -0.140625 0.34375q-0.140625 0.125 -0.484375 0.125l-1.0625 0q-0.328125 0 -0.484375 -0.125q-0.140625 -0.140625 -0.140625 -0.34375q0 -0.25 0.21875 -0.390625q0.109375 -0.078125 0.46875 -0.078125l0 -1.6875q0 -0.359375 -0.171875 -0.5q-0.203125 -0.203125 -0.625 -0.203125q-0.3125 0 -0.5625 0.125q-0.234375 0.125 -0.640625 0.515625l0 1.75q0.375 0 0.46875 0.078125q0.21875 0.140625 0.21875 0.390625q0 0.203125 -0.140625 0.34375q-0.140625 0.125 -0.46875 0.125l-1.0625 0q-0.34375 0 -0.484375 -0.125q-0.140625 -0.140625 -0.140625 -0.34375q0 -0.25 0.21875 -0.390625q0.109375 -0.078125 0.46875 -0.078125l0 -4.03125l-0.15625 0q-0.34375 0 -0.484375 -0.125q-0.140625 -0.140625 -0.140625 -0.34375q0 -0.203125 0.140625 -0.328125q0.140625 -0.140625 0.484375 -0.140625l1.078125 0zm8.988419 3.921875q0 0.53125 -0.296875 1.03125q-0.296875 0.5 -0.890625 0.8125q-0.578125 0.296875 -1.21875 0.296875q-0.640625 0 -1.234375 -0.296875q-0.578125 -0.296875 -0.890625 -0.796875q-0.296875 -0.515625 -0.296875 -1.0625q0 -0.5625 0.3125 -1.09375q0.3125 -0.546875 0.890625 -0.859375q0.578125 -0.3125 1.21875 -0.3125q0.625 0 1.21875 0.328125q0.59375 0.3125 0.890625 0.84375q0.296875 0.53125 0.296875 1.109375zm-0.921875 0q0 -0.453125 -0.328125 -0.828125q-0.4375 -0.515625 -1.15625 -0.515625q-0.640625 0 -1.0625 0.40625q-0.421875 0.40625 -0.421875 0.9375q0 0.4375 0.421875 0.828125q0.4375 0.375 1.0625 0.375q0.625 0 1.046875 -0.375q0.4375 -0.390625 0.4375 -0.828125zm4.5665436 -3.921875l0 4.96875l1.125 0q0.328125 0 0.46875 0.140625q0.15625 0.125 0.15625 0.328125q0 0.203125 -0.15625 0.34375q-0.140625 0.125 -0.46875 0.125l-3.171875 0q-0.34375 0 -0.484375 -0.125q-0.140625 -0.140625 -0.140625 -0.34375q0 -0.203125 0.140625 -0.328125q0.140625 -0.140625 0.484375 -0.140625l1.109375 0l0 -4.03125l-0.75 0q-0.328125 0 -0.484375 -0.125q-0.140625 -0.140625 -0.140625 -0.34375q0 -0.203125 0.140625 -0.328125q0.15625 -0.140625 0.484375 -0.140625l1.6875 0zm7.4727936 4.3125l-3.828125 0q0.140625 0.359375 0.515625 0.59375q0.375 0.21875 1.0 0.21875q0.53125 0 1.390625 -0.21875q0.34375 -0.09375 0.484375 -0.09375q0.1875 0 0.3125 0.140625q0.125 0.125 0.125 0.3125q0 0.1875 -0.125 0.3125q-0.1875 0.171875 -0.890625 0.328125q-0.703125 0.15625 -1.359375 0.15625q-1.125 0 -1.796875 -0.625q-0.671875 -0.640625 -0.671875 -1.578125q0 -0.984375 0.71875 -1.59375q0.734375 -0.625 1.6875 -0.625q0.5625 0 1.03125 0.203125q0.484375 0.203125 0.71875 0.4375q0.328125 0.34375 0.546875 0.828125q0.140625 0.34375 0.140625 0.8125l0 0.390625zm-1.03125 -0.9375q-0.21875 -0.390625 -0.5625 -0.59375q-0.34375 -0.203125 -0.828125 -0.203125q-0.46875 0 -0.8125 0.203125q-0.34375 0.203125 -0.5625 0.59375l2.765625 0zm5.3009186 -0.515625q-0.234375 -0.140625 -0.484375 -0.203125q-0.25 -0.078125 -0.515625 -0.078125q-0.546875 0 -0.875 0.1875q-0.140625 0.078125 -0.140625 0.15625q0 0.109375 0.203125 0.203125q0.140625 0.078125 0.640625 0.15625q0.9375 0.125 1.296875 0.25q0.484375 0.171875 0.734375 0.5q0.265625 0.328125 0.265625 0.703125q0 0.5 -0.4375 0.828125q-0.640625 0.5 -1.65625 0.5q-0.390625 0 -0.734375 -0.078125q-0.34375 -0.0625 -0.640625 -0.203125q-0.0625 0.0625 -0.140625 0.09375q-0.078125 0.03125 -0.15625 0.03125q-0.21875 0 -0.359375 -0.140625q-0.125 -0.15625 -0.125 -0.484375l0 -0.3125q0 -0.34375 0.125 -0.484375q0.140625 -0.140625 0.34375 -0.140625q0.171875 0 0.28125 0.09375q0.109375 0.09375 0.171875 0.3125q0.21875 0.1875 0.515625 0.28125q0.3125 0.09375 0.703125 0.09375q0.640625 0 1.0 -0.203125q0.15625 -0.09375 0.15625 -0.203125q0 -0.1875 -0.234375 -0.3125q-0.25 -0.109375 -1.0 -0.1875q-1.125 -0.125 -1.5 -0.46875q-0.375 -0.328125 -0.375 -0.8125q0 -0.5 0.421875 -0.828125q0.578125 -0.46875 1.5 -0.46875q0.328125 0 0.625 0.0625q0.296875 0.0625 0.5625 0.1875q0.09375 -0.0625 0.171875 -0.09375q0.078125 -0.03125 0.140625 -0.03125q0.1875 0 0.3125 0.15625q0.125 0.140625 0.125 0.46875l0 0.234375q0 0.296875 -0.0625 0.40625q-0.15625 0.21875 -0.40625 0.21875q-0.171875 0 -0.296875 -0.109375q-0.125 -0.109375 -0.15625 -0.28125z" fill-rule="nonzero"/></g></svg>